<svg xmlns="http://www.w3.org/2000/svg" width="68.999" height="69" viewBox="0 0 68.999 69">
  <g id="Grupo_6156" data-name="Grupo 6156" transform="translate(-8 -8)">
    <rect id="Rectángulo_1043" data-name="Rectángulo 1043" width="2" height="2" transform="translate(66 48)" fill="#7cb342"/>
    <rect id="Rectángulo_1044" data-name="Rectángulo 1044" width="2" height="2" transform="translate(66 57)" fill="#7cb342"/>
    <rect id="Rectángulo_1045" data-name="Rectángulo 1045" width="2" height="2" transform="translate(66 66)" fill="#7cb342"/>
    <path id="Trazado_15632" data-name="Trazado 15632" d="M74.773,39.161H69.784a15.5,15.5,0,0,0-3.571-7.009,9.762,9.762,0,0,0-2.766-2.17,7.784,7.784,0,0,0,3.362-6.4V22.468H61.245a7.787,7.787,0,0,0-6.677,3.8V23.58a4.456,4.456,0,0,1,4.452-4.452V16.9a6.684,6.684,0,0,0-6.677,6.677v6.175a8.623,8.623,0,0,0-9.362,2.33c-.286.318-.554.649-.811.987l.1-.464a11.415,11.415,0,0,0,.234-2.352,11.089,11.089,0,0,0-3.382-7.974l3.9-5.743a3.56,3.56,0,0,0,.229-.393,3.45,3.45,0,0,0-1.541-4.623l-.278-.139A3.448,3.448,0,0,0,36.8,12.943a3.294,3.294,0,0,0-.157.366l-2.269,6.241c-.154-.043-.309-.083-.465-.12l.786-7.867a2.975,2.975,0,0,0,.018-.331A3.237,3.237,0,0,0,31.476,8h-.21a3.237,3.237,0,0,0-3.234,3.233,2.993,2.993,0,0,0,.017.323l.787,7.877c-.157.037-.312.077-.465.12L26.1,13.313a3.556,3.556,0,0,0-.166-.385,3.446,3.446,0,0,0-4.623-1.541l-.278.139A3.453,3.453,0,0,0,19.5,16.153a3.732,3.732,0,0,0,.229.391l3.9,5.746a11.223,11.223,0,0,0-3.153,10.319l1.366,6.553h-1.6a2.228,2.228,0,0,0-2.226,2.226v.089a7.819,7.819,0,0,0-1.113-.089H11.339V42.5A7.784,7.784,0,0,0,14.7,48.9a9.716,9.716,0,0,0-2.766,2.171A15.579,15.579,0,0,0,23.574,77c.208,0,.415,0,.624-.012A15.519,15.519,0,0,0,34.44,72.549H66.983a5.571,5.571,0,0,0,5.564-5.564V45.838h2.226A2.228,2.228,0,0,0,77,43.612V41.387A2.228,2.228,0,0,0,74.773,39.161ZM61.245,24.693h3.226a5.574,5.574,0,0,1-5.452,4.452H55.793A5.573,5.573,0,0,1,61.245,24.693ZM44.634,33.574a6.5,6.5,0,0,1,7.294-1.617c.134.057.275.1.414.149v2.376a8.189,8.189,0,0,1-2.553-1.675l-1.573,1.576c.26.262,2.626,2.552,5.238,2.552s4.978-2.29,5.238-2.552l-1.573-1.576a8.228,8.228,0,0,1-2.553,1.675V31.371h4.452a7.728,7.728,0,0,0,1.107-.088,6.82,6.82,0,0,1,4.424,2.348,13.28,13.28,0,0,1,2.944,5.53H41.641A13.286,13.286,0,0,1,44.634,33.574Zm-5.9-19.506a1.17,1.17,0,0,1,.065-.146,1.219,1.219,0,0,1,1.637-.545l.278.139a1.219,1.219,0,0,1,.548,1.633,1.277,1.277,0,0,1-.083.144l-3.808,5.6q-.449-.289-.925-.534Zm-8.475-2.836a1.008,1.008,0,0,1,1.007-1.007h.21a1.027,1.027,0,0,1,1,1.107L31.7,19.146c-.108,0-.215-.017-.325-.017s-.217.013-.326.017ZM21.567,15.3a1.184,1.184,0,0,1-.083-.142,1.22,1.22,0,0,1,.545-1.637l.278-.139a1.214,1.214,0,0,1,.931-.067,1.231,1.231,0,0,1,.717.633,1.071,1.071,0,0,1,.055.126l2.289,6.3q-.476.245-.924.534Zm9.8,6.059a8.977,8.977,0,0,1,8.716,10.8l-1.46,7.007h-12.4a4.409,4.409,0,0,1,2.914-1.113V35.822a6.665,6.665,0,0,0-5.2,2.5l-1.286-6.172a9.265,9.265,0,0,1-.186-1.9A8.913,8.913,0,0,1,31.371,21.355ZM20.242,41.387h2.326a6.675,6.675,0,0,0-.1,1.113v1.236a7.8,7.8,0,0,0-2.226-1.586ZM16.9,43.612a5.573,5.573,0,0,1,5.452,4.452H19.129a5.573,5.573,0,0,1-5.452-4.452Zm7.209,31.151A13.354,13.354,0,0,1,13.6,52.55,6.81,6.81,0,0,1,18.022,50.2a7.729,7.729,0,0,0,1.107.088h3.339V53.4a8.189,8.189,0,0,1-2.553-1.675L18.342,53.3c.26.262,2.626,2.552,5.238,2.552s4.978-2.29,5.238-2.552l-1.573-1.576A8.228,8.228,0,0,1,24.693,53.4v-2.1a6.49,6.49,0,0,0,1.527-.43,6.5,6.5,0,0,1,7.293,1.617,13.354,13.354,0,0,1-9.4,22.27ZM39.143,61.419a15.5,15.5,0,0,0-1.482-6.677H70.322v6.677Zm27.84,8.9H36.337A15.47,15.47,0,0,0,39,63.644H70.322v3.339A3.343,3.343,0,0,1,66.983,70.322Zm7.79-26.709H70.322v8.9H36.351a15.614,15.614,0,0,0-1.183-1.51,8.643,8.643,0,0,0-9.822-2.175,4.34,4.34,0,0,1-.651.2V45.838H68.1V43.612h-43.4V42.5a4.384,4.384,0,0,1,.158-1.113H74.773Z" fill="#7cb342"/>
    <path id="Trazado_15633" data-name="Trazado 15633" d="M42.226,392H40a11.141,11.141,0,0,0,11.129,11.129V400.9A8.913,8.913,0,0,1,42.226,392Z" transform="translate(-27.548 -330.581)" fill="#7cb342"/>
    <rect id="Rectángulo_1046" data-name="Rectángulo 1046" width="2" height="2" transform="translate(35 26)" fill="#7cb342"/>
    <rect id="Rectángulo_1047" data-name="Rectángulo 1047" width="2" height="2" transform="translate(35 30)" fill="#7cb342"/>
    <rect id="Rectángulo_1048" data-name="Rectángulo 1048" width="2" height="2" transform="translate(35 35)" fill="#7cb342"/>
  </g>
</svg>
