<svg id="Grupo_999" data-name="Grupo 999" xmlns="http://www.w3.org/2000/svg" width="73.77" height="68.683" viewBox="0 0 73.77 68.683">
  <g id="Grupo_998" data-name="Grupo 998" transform="translate(0 0)">
    <path id="Trazado_1453" data-name="Trazado 1453" d="M307.019,400.957a46.041,46.041,0,0,0-32.4,13.542,1.441,1.441,0,0,0,2.043,2.032,43.139,43.139,0,0,1,30.36-12.693,1.441,1.441,0,1,0,0-2.882Z" transform="translate(-234.69 -348.273)" fill="#7cb342"/>
    <path id="Trazado_1454" data-name="Trazado 1454" d="M188.254,387.926a1.44,1.44,0,0,0-2-.387,56.869,56.869,0,0,0-15.466,15.476,1.441,1.441,0,1,0,2.393,1.607,53.988,53.988,0,0,1,14.687-14.7A1.441,1.441,0,0,0,188.254,387.926Z" transform="translate(-145.971 -336.576)" fill="#7cb342"/>
    <path id="Trazado_1455" data-name="Trazado 1455" d="M383.725,320.457a56.667,56.667,0,0,0-18.95,3.271,1.441,1.441,0,1,0,.961,2.716,53.793,53.793,0,0,1,17.988-3.105,1.441,1.441,0,0,0,0-2.882Z" transform="translate(-311.395 -277.754)" fill="#7cb342"/>
    <path id="Trazado_1456" data-name="Trazado 1456" d="M20.644,59.479A66.434,66.434,0,0,1,58.985,36.989l.008,0a68.8,68.8,0,0,1,13.336-1.308,1.345,1.345,0,1,0,0-2.683,72.7,72.7,0,0,0-12.19,1.032v-2.9c5.208-4.1,8.066-9.483,8.066-15.21C68.206,10,65.151,4.451,59.6.3A1.526,1.526,0,0,0,57.8.3c-5.548,4.154-8.6,9.7-8.6,15.625,0,5.727,2.859,11.106,8.066,15.21v3.444a72.1,72.1,0,0,0-8.078,2.21V28.932a1.292,1.292,0,0,0-.419-.945h0l-8.069-7.557a1.5,1.5,0,0,0-1.022-.4H23.2a1.5,1.5,0,0,0-1.022.4l-8.069,7.557h0a1.293,1.293,0,0,0-.419.946v5.123q-1.506-.257-3.026-.451V28.822c3.938-3.154,6.1-7.268,6.1-11.65,0-4.578-2.357-8.864-6.637-12.068a1.525,1.525,0,0,0-1.806,0c-4.28,3.2-6.637,7.49-6.637,12.068,0,4.382,2.161,8.5,6.1,11.649V33.3q-3.152-.274-6.34-.277a1.345,1.345,0,1,0,0,2.683,68.712,68.712,0,0,1,32.724,8.222,67.64,67.64,0,0,0-6.806,4.921A60.792,60.792,0,0,0,1.441,43.012a1.345,1.345,0,1,0,0,2.683,57.741,57.741,0,0,1,23.654,5.1,65.238,65.238,0,0,0-6.127,6.315,47.973,47.973,0,0,0-17.527-3.3,1.345,1.345,0,1,0,0,2.683,44.913,44.913,0,0,1,15.732,2.832q-1.493,1.932-2.832,3.969l-2.2,3.349a1.289,1.289,0,0,0,.479,1.843,1.513,1.513,0,0,0,.75.2,1.467,1.467,0,0,0,1.231-.643l2.2-3.349a59.6,59.6,0,0,1,3.7-5.04A1.284,1.284,0,0,0,20.644,59.479Zm31.43-43.558c0-4.768,2.343-9.284,6.625-12.824,4.283,3.539,6.626,8.056,6.626,12.824A16.137,16.137,0,0,1,60.14,27.445V17.172a1.445,1.445,0,0,0-2.882,0V27.445A16.136,16.136,0,0,1,52.073,15.922Zm-47.51,1.25A12.215,12.215,0,0,1,9.221,7.918a12.214,12.214,0,0,1,4.658,9.254,11.659,11.659,0,0,1-3.217,7.853V16.1a1.394,1.394,0,0,0-1.441-1.341A1.394,1.394,0,0,0,7.78,16.1v8.927A11.659,11.659,0,0,1,4.563,17.172ZM44.275,27.59H31.865l-5.2-4.874h12.41ZM23.2,23.278,27.8,27.59H18.593Zm-6.628,7H29.825V38.8q-1-.429-2.017-.828V33.47a1.394,1.394,0,0,0-1.441-1.341h-6.34a1.394,1.394,0,0,0-1.441,1.341v1.6q-1-.244-2.017-.46Zm8.357,6.644q-1.714-.588-3.458-1.089V34.812h3.458Zm7.78,3.2V30.273H46.3v7.554a69.876,69.876,0,0,0-7.218,3.261q-1.121.586-2.216,1.212Q34.822,41.139,32.707,40.117Z" transform="translate(0 -0.001)" fill="#7cb342"/>
    <path id="Trazado_1457" data-name="Trazado 1457" d="M398.839,82.882a1.443,1.443,0,1,0-1.018-.423A1.45,1.45,0,0,0,398.839,82.882Z" transform="translate(-340.14 -68.474)" fill="#7cb342"/>
    <path id="Trazado_1458" data-name="Trazado 1458" d="M318.09,362.759a1.439,1.439,0,1,0,1.019-.423A1.453,1.453,0,0,0,318.09,362.759Z" transform="translate(-271.898 -313.876)" fill="#7cb342"/>
  </g>
</svg>
