<svg xmlns="http://www.w3.org/2000/svg" width="73.231" height="88.387" viewBox="0 0 73.231 88.387">
  <g id="Grupo_6157" data-name="Grupo 6157" transform="translate(-618.394 -72.749)">
    <path id="Trazado_15634" data-name="Trazado 15634" d="M656.729,72.749a34.1,34.1,0,0,1,5.247,1.576,16.1,16.1,0,0,1,9.61,14.075c.127,1.588.1,1.536,1.588,1.862,5.018,1.1,10.037,2.209,15.036,3.4a4.225,4.225,0,0,1,3.391,4.486c0,.058,0,.115,0,.173.183,2.328-.68,3.4-3.3,3.291-2.523-.1-5.053-.023-7.675-.023,0,2.073-.01,4.077.016,6.082,0,.193.209.4.351.572a5.128,5.128,0,0,1,1.184,3.259c.008.978.035,1.958-.009,2.934A5.107,5.107,0,0,1,677,119.488c-.626.017-1.253,0-1.915,0a20.506,20.506,0,0,1-3.031,8.526,20.163,20.163,0,0,1-9.208,7.794c-.278.119-.663.387-.68.611s.31.547.555.736a5.884,5.884,0,0,0,1.316.815,8.371,8.371,0,0,0,1.418.314,5.523,5.523,0,0,1,1.549.373c1.3.74,2.556,1.551,3.789,2.4a2.092,2.092,0,0,1,.9,1.091,2.219,2.219,0,0,0,1.273,1.49c1.268.791,2.553,1.56,3.786,2.4a6.479,6.479,0,0,1,2.972,5.454c.022.92-.408,1.472-1.152,1.537a1.273,1.273,0,0,1-1.407-1.387,4.4,4.4,0,0,0-2.4-3.829c-.914-.534-1.8-1.118-2.861-1.782,0,.579,0,1.018,0,1.457,0,1.237-.043,2.476.015,3.711a6.246,6.246,0,0,0,.413,1.413,6.39,6.39,0,0,1,.433,1.543c.054,1.811.027,3.625.019,5.437,0,.95-.484,1.525-1.253,1.542-.8.018-1.319-.581-1.325-1.572-.012-1.776,0-3.553,0-5.371H639.795c0,1.717,0,3.381,0,5.046a3.587,3.587,0,0,1-.072.94,1.187,1.187,0,0,1-1.274.946,1.141,1.141,0,0,1-1.2-1.123c-.042-2.128-.016-4.257.008-6.385a1.083,1.083,0,0,1,.256-.717c.736-.688.585-1.564.587-2.411,0-1.43,0-2.861,0-4.538-1.469,1.005-2.844,1.829-4.077,2.828a3.765,3.765,0,0,0-1.175,3.127c.016,2.417.006,4.834,0,7.25a4.845,4.845,0,0,1-.041.86,1.268,1.268,0,0,1-2.524-.112c-.014-.172-.012-.345-.012-.518,0-2.532,0-5.064,0-7.6a6.674,6.674,0,0,1,3.3-5.975c1.334-.849,2.686-1.67,4.005-2.541a2.9,2.9,0,0,0,.578-.769,6.2,6.2,0,0,1,1.1-1.47,37.543,37.543,0,0,1,3.712-2.354,2.923,2.923,0,0,1,1.626-.353c1.425.146,2.226-.912,3.186-1.585.42-.295.015-.78-.5-.989a18.319,18.319,0,0,1-5.714-3.641,29.788,29.788,0,0,1-2.343-2.526c-.83-.988-.843-1.8-.14-2.318s1.352-.3,2.151.709a17.51,17.51,0,0,0,31.231-8.618,19.8,19.8,0,0,0,.141-2.236q.019-7.251.007-14.5v-.986H637.57v.885c0,4.69.01,9.38-.01,14.069a19.716,19.716,0,0,0,.865,6.12c.291.913-.013,1.6-.748,1.832-.792.248-1.429-.129-1.706-1.116-.355-1.265-.64-2.55-.97-3.884-.8-.047-1.659-.037-2.5-.158a4.954,4.954,0,0,1-4.28-4.518c-.093-1.2-.055-2.414-.032-3.621a4.885,4.885,0,0,1,1.162-3,1.313,1.313,0,0,0,.369-.652c.029-1.977.017-3.954.017-6.01H626.2c-1.784,0-3.568.01-5.352,0a2.231,2.231,0,0,1-2.442-2.475,10.265,10.265,0,0,1,.059-1.894,4.157,4.157,0,0,1,3.324-3.554q7.594-1.752,15.212-3.4c1.484-.323,1.484-.268,1.577-1.783a16.383,16.383,0,0,1,6.159-12.075c.089-.073.176-.148.269-.215a1.308,1.308,0,0,1,1.915.131c.477.6.314,1.25-.3,1.9-1.212,1.293-2.371,2.636-3.531,3.975a3.708,3.708,0,0,0-.414.775c4.184-.177,8.316-.489,12.449-.488,4.1,0,8.208.315,12.373.494a12.017,12.017,0,0,0-2.757-3.734,13.76,13.76,0,0,0-13-3.511,6.025,6.025,0,0,1-.673.146,1.265,1.265,0,0,1-.542-2.468c.96-.27,1.946-.449,2.921-.667ZM621.043,98.943h67.912c.18-2-.094-2.48-1.961-2.952-3.451-.873-6.906-1.735-10.384-2.492a45.77,45.77,0,0,0-10.259-1.084c-8.57.09-17.142.029-25.714.032a7.856,7.856,0,0,0-1.118.047,122.705,122.705,0,0,0-16.507,3.5C621.157,96.528,620.874,96.929,621.043,98.943ZM646.481,151.5h17c.019-.328.049-.607.05-.885q0-4.4,0-8.8c0-1.234-.1-1.365-1.357-1.778-.637,4.144-2.95,6.659-6.4,6.98a7,7,0,0,1-4.679-1.124,7.682,7.682,0,0,1-3.379-5.973c-.492.376-1.18.784-1.191,1.21C646.442,144.547,646.481,147.967,646.481,151.5Zm-5.433-61.789a113.262,113.262,0,0,1,28.074-.03c-.1-.981-.253-1.807-.265-2.635-.014-1-.511-1.288-1.428-1.339-2.982-.166-5.958-.455-8.942-.582a111.6,111.6,0,0,0-15.921.6c-.853.086-1.193.418-1.234,1.242C641.288,87.822,641.158,88.675,641.047,89.707Zm9.436,47.156c0,1.169-.038,2.256.008,3.34a4.515,4.515,0,0,0,8.937.643,28.544,28.544,0,0,0,.033-3.942A21.771,21.771,0,0,1,650.483,136.864Zm24.76-27.853v7.842a16.007,16.007,0,0,0,2.247-.019,2.337,2.337,0,0,0,2.07-2.2,23.718,23.718,0,0,0-.01-3.433,2.4,2.4,0,0,0-2.2-2.178C676.677,108.963,675.99,109.01,675.243,109.01ZM634.93,109c-.584,0-1.1-.014-1.614,0a2.478,2.478,0,0,0-2.544,2.41,25.127,25.127,0,0,0,0,3.1,2.455,2.455,0,0,0,2.237,2.357,16.321,16.321,0,0,0,1.923.013Zm8.872,42.5V141.182c-.916.577-1.7,1.1-2.517,1.573a1.09,1.09,0,0,0-.614,1.1c.029,2.21.012,4.421.012,6.632v1.01Zm22.369-10.343v10.32h3.151c0-2.7.006-5.34-.014-7.974a.78.78,0,0,0-.319-.54C668.112,142.369,667.212,141.814,666.171,141.152ZM677.954,106.4v-4.754h-2.683V106.4Zm-45.592-.044h2.574v-4.7h-2.574Z" fill="#7cb342"/>
    <path id="Trazado_15635" data-name="Trazado 15635" d="M755.85,292.99c1.436,0,2.873-.012,4.309,0a1.927,1.927,0,0,1,2.171,2.177c.047,3.888-2.2,6.169-6.112,6.16a11.205,11.205,0,0,1-2.653-.191c-2.731-.68-4.576-3.09-4.118-6.637A1.8,1.8,0,0,1,751.455,293C752.92,292.975,754.385,292.99,755.85,292.99Zm-3.8,2.626a2.658,2.658,0,0,0,2.143,3.006,13.7,13.7,0,0,0,3.334,0,2.682,2.682,0,0,0,2.127-3.008Z" transform="translate(-100.773 -169.441)" fill="#7cb342"/>
    <path id="Trazado_15636" data-name="Trazado 15636" d="M761.429,259.108a3.62,3.62,0,0,1,7.236-.019,1.328,1.328,0,0,1-1.206,1.424,1.271,1.271,0,0,1-1.352-1.173c-.091-.665-.38-1.123-1.057-1.126s-.962.462-1.056,1.124a1.254,1.254,0,0,1-1.432,1.165A1.291,1.291,0,0,1,761.429,259.108Z" transform="translate(-110.046 -140.677)" fill="#7cb342"/>
    <path id="Trazado_15637" data-name="Trazado 15637" d="M799.253,219.576a2.663,2.663,0,0,1,.305-.641,4.982,4.982,0,0,1,7.508-.06,1.2,1.2,0,0,1,.029,1.712,1.221,1.221,0,0,1-1.7.206,5.728,5.728,0,0,1-.473-.371,2.222,2.222,0,0,0-3.185.01,4.093,4.093,0,0,1-.621.456A1.292,1.292,0,0,1,799.253,219.576Z" transform="translate(-139.146 -111.134)" fill="#7cb342"/>
    <path id="Trazado_15638" data-name="Trazado 15638" d="M728.365,219.442a1.29,1.29,0,0,1-1.857,1.318,4.835,4.835,0,0,1-.69-.507,2.187,2.187,0,0,0-3.049-.013,5.941,5.941,0,0,1-.614.468,1.2,1.2,0,0,1-1.63-.245,1.131,1.131,0,0,1-.021-1.638,4.9,4.9,0,0,1,7.557-.019A1.9,1.9,0,0,1,728.365,219.442Z" transform="translate(-78.298 -111.007)" fill="#7cb342"/>
    <path id="Trazado_15639" data-name="Trazado 15639" d="M875.843,436.194a13.877,13.877,0,0,1-.01,1.459,1.164,1.164,0,0,1-1.209,1.107,1.082,1.082,0,0,1-1.239-.952,19.41,19.41,0,0,1,0-3.247,1.085,1.085,0,0,1,1.248-.942,1.167,1.167,0,0,1,1.2,1.116A13.879,13.879,0,0,1,875.843,436.194Z" transform="translate(-196.127 -277.637)" fill="#7cb342"/>
    <path id="Trazado_15640" data-name="Trazado 15640" d="M734.941,241.347c0,.343.02.688,0,1.03a1.186,1.186,0,0,1-1.219,1.195,1.136,1.136,0,0,1-1.276-1.027,11.414,11.414,0,0,1-.016-2.478A1.154,1.154,0,0,1,733.755,239a1.2,1.2,0,0,1,1.185,1.231c.023.371,0,.744,0,1.116Z" transform="translate(-87.686 -127.904)" fill="#7cb342"/>
    <path id="Trazado_15641" data-name="Trazado 15641" d="M811.433,241.217c0-.343-.024-.688,0-1.028a1.183,1.183,0,0,1,1.15-1.17,1.106,1.106,0,0,1,1.316.957,11.555,11.555,0,0,1,0,2.638,1.112,1.112,0,0,1-1.311.967,1.174,1.174,0,0,1-1.157-1.164C811.41,242.019,811.434,241.617,811.433,241.217Z" transform="translate(-148.51 -127.916)" fill="#7cb342"/>
    <path id="Trazado_15642" data-name="Trazado 15642" d="M722.246,435.843c0-1.1.451-1.659,1.31-1.639.818.019,1.266.587,1.273,1.614.008,1.072-.456,1.68-1.291,1.69S722.245,436.934,722.246,435.843Z" transform="translate(-79.9 -278.089)" fill="#7cb342"/>
    <path id="Trazado_15643" data-name="Trazado 15643" d="M824.149,435.836c0,1.088-.451,1.675-1.287,1.669s-1.3-.609-1.29-1.684c.007-1.033.447-1.6,1.261-1.617C823.695,434.183,824.147,434.743,824.149,435.836Z" transform="translate(-156.318 -278.089)" fill="#7cb342"/>
  </g>
</svg>
