<svg xmlns="http://www.w3.org/2000/svg" width="68.151" height="68.15" viewBox="0 0 68.151 68.15">
  <g id="Grupo_1068" data-name="Grupo 1068" transform="translate(0 -0.001)">
    <g id="Grupo_1061" data-name="Grupo 1061" transform="translate(49.067 61.102)">
      <g id="Grupo_1060" data-name="Grupo 1060">
        <path id="Trazado_1513" data-name="Trazado 1513" d="M371.163,459.7a1.331,1.331,0,0,0-1.819-.483l-.051.03a1.331,1.331,0,1,0,1.336,2.3l.051-.03A1.331,1.331,0,0,0,371.163,459.7Z" transform="translate(-368.63 -459.036)" fill="#7cb342"/>
      </g>
    </g>
    <g id="Grupo_1063" data-name="Grupo 1063" transform="translate(0 0.001)">
      <g id="Grupo_1062" data-name="Grupo 1062" transform="translate(0 0)">
        <path id="Trazado_1514" data-name="Trazado 1514" d="M63.585,17.049A34.067,34.067,0,0,0,1.176,25.265,34.073,34.073,0,0,0,46.268,65.9a1.331,1.331,0,1,0-.955-2.485,31.2,31.2,0,0,1-30.027-4.127l1.193-6.225.575-.187a4.146,4.146,0,0,0,2.659-5.218l-.422-1.3a1.47,1.47,0,0,1,0-.918,4.141,4.141,0,0,0-3.14-5.355l-3-.587L7.351,35.1a1.331,1.331,0,0,0-1.217-.206l-3.394,1.1a31.379,31.379,0,0,1,0-3.634c.134.125.221.21.275.265a1.4,1.4,0,0,0,1.3.667A19.333,19.333,0,0,0,6.7,33.018c1.123-.166,2.24-.353,2.251-.355a1.331,1.331,0,0,0,.88-2.062L8.195,28.207l2.338-1.672a1.332,1.332,0,0,0,.381-.421l3.624-6.326L16,18.223a5.622,5.622,0,0,0,1.085-5.963A6.122,6.122,0,0,0,14.657,9.4a31.365,31.365,0,0,1,19.06-6.718L31.341,5.669l-8.814,3.09a1.33,1.33,0,0,0-.79.748l-2.461,5.967a1.331,1.331,0,0,0,.147,1.281l3.595,5.036a12.65,12.65,0,0,0-1.615,2c-.262.373-.51.724-.682.922-.149.172-.3.339-.446.506a12.456,12.456,0,0,0-2.141,2.971,7.932,7.932,0,0,0,.658,8.018,7.47,7.47,0,0,0,7.053,3.027,10.364,10.364,0,0,0,1.3-.262c1.141-.282,1.5-.311,1.869.032.178.167.194.2.191.764a5.174,5.174,0,0,0,.119,1.319,4.206,4.206,0,0,0,1.125,1.837,2.983,2.983,0,0,1,.483.616c.415.995.234,1.546-.162,2.753q-.051.155-.1.317c-.6,1.863.237,3.711.977,5.341.24.529.467,1.029.616,1.471,1.2,3.551,2.094,4.364,2.814,4.692a2.774,2.774,0,0,0,1.162.247c1.919,0,3.921-1.782,4.841-2.911a4.091,4.091,0,0,0,.824-1.938,2.122,2.122,0,0,1,.17-.595,3.487,3.487,0,0,1,.437-.561A4.617,4.617,0,0,0,43.6,50.549a2.929,2.929,0,0,1,.9-1.417c.092-.1.189-.2.294-.315,1.773-1.929,1.316-3.4.833-4.963-.407-1.313.3-2.152,2.026-3.755a14.377,14.377,0,0,0,2.113-2.276,2.874,2.874,0,0,0,.563-2.666c-.481-1.117-1.705-1.3-2.688-1.455a4.41,4.41,0,0,1-1.162-.272,6.292,6.292,0,0,1-1.815-2.749c-.1-.216-.193-.43-.29-.637-.173-.37-.346-.817-.529-1.291a11.166,11.166,0,0,0-1.967-3.664c-.84-.89-2.423-1.318-3.819-1.7-.47-.127-.913-.247-1.206-.355a1.329,1.329,0,0,0-.765-.047,3.454,3.454,0,0,0-1.419.587,1.653,1.653,0,0,0-.474.638,15.224,15.224,0,0,1-1.57-.955l-.026-.017a1.887,1.887,0,0,0-.119-1.281c-.744-1.573-3.212-1.45-3.7-1.408-.277.023-.627.036-1,.049-.581.021-1.224.044-1.86.115l.033-.091a3.4,3.4,0,0,1,3.2-2.248h.757a1.331,1.331,0,0,0,0-2.662h-.757A6.076,6.076,0,0,0,24,18.589l-1.985-2.781,1.953-4.734,8.612-3.019a1.332,1.332,0,0,0,.6-.426l3.829-4.8A31.389,31.389,0,0,1,61.28,18.38,31.061,31.061,0,0,1,64.416,26l-.564.5a3.555,3.555,0,0,0-1.185,2.586c0,.011,0,.021,0,.032l-.919-2.528a3.323,3.323,0,0,0-.6-1.028l-1.64-1.92a3.336,3.336,0,0,0-2.54-1.171H54.961a1.928,1.928,0,0,0-1.6,3l.2.3a14.751,14.751,0,0,1-4.394,2.61l-2.751-5.27V21.939A1.33,1.33,0,0,0,46,20.976l-2.478-2.365a1.333,1.333,0,0,0-.478-.293l-2.23-.784a1.331,1.331,0,0,0-.883,2.511l1.96.689,1.858,1.774v.933a1.331,1.331,0,0,0,.151.616l3.444,6.6a1.33,1.33,0,0,0,1.64.633l1-.37a17.419,17.419,0,0,0,6.246-4,1.331,1.331,0,0,0,.166-1.679l-.071-.106h.636a.677.677,0,0,1,.516.238l1.64,1.92a.676.676,0,0,1,.122.209l1.81,4.976a1.331,1.331,0,0,0,2.192.486l.861-.861a4.155,4.155,0,0,0,1.1-2,31.518,31.518,0,0,1-11.7,28.664,1.331,1.331,0,1,0,1.643,2.094,34.073,34.073,0,0,0,8.435-43.81ZM6.294,37.636l5.488,4.173a1.33,1.33,0,0,0,.55.247l3.308.646a1.479,1.479,0,0,1,1.122,1.912,4.114,4.114,0,0,0,0,2.57l.422,1.3a1.481,1.481,0,0,1-.95,1.863l-1.323.43a1.331,1.331,0,0,0-.9,1.015l-1.065,5.557a31.756,31.756,0,0,1-6.063-7.563A31.24,31.24,0,0,1,3.018,38.7Zm7.757-21.229-1.566,1.678a1.337,1.337,0,0,0-.182.247L8.748,24.539,5.588,26.8a1.331,1.331,0,0,0-.326,1.832l1.182,1.734c-.681.1-1.293.185-1.7.229-.078-.075-.16-.151-.244-.229-.316-.294-.756-.686-1.411-1.26a31.46,31.46,0,0,1,9.375-17.8,3.461,3.461,0,0,1,2.157,1.975A2.954,2.954,0,0,1,14.051,16.407ZM24.9,23.681a8.535,8.535,0,0,1,2.978-.419c.4-.014.784-.028,1.124-.056a3.62,3.62,0,0,1,.567,0,1.331,1.331,0,0,0,.612,1.656c.25.134.6.365.965.611a7.67,7.67,0,0,0,3.327,1.55,2.209,2.209,0,0,0,1.808-.753c.019-.019.037-.039.056-.057a1.426,1.426,0,0,0,.356-.436c.213.061.436.121.666.184a8.863,8.863,0,0,1,2.579.954,9.448,9.448,0,0,1,1.42,2.8c.2.518.389,1.007.6,1.46.091.194.181.395.272.6a8.312,8.312,0,0,0,2.787,3.888,5.5,5.5,0,0,0,2.215.675l.29.046a12.87,12.87,0,0,1-1.689,1.772c-1.648,1.534-3.7,3.444-2.754,6.491.446,1.439.467,1.594-.25,2.374-.1.106-.189.2-.274.294a5.469,5.469,0,0,0-1.5,2.434,2.078,2.078,0,0,1-.542.846,5.943,5.943,0,0,0-.745.986,4.313,4.313,0,0,0-.482,1.414,1.63,1.63,0,0,1-.278.78,7.759,7.759,0,0,1-1.68,1.486,2.2,2.2,0,0,1-1.115.444,9.5,9.5,0,0,1-1.434-3.126c-.192-.569-.458-1.155-.715-1.721-.567-1.249-1.153-2.54-.868-3.422l.1-.305a5.814,5.814,0,0,0,.089-4.608,4.8,4.8,0,0,0-.969-1.381,2.474,2.474,0,0,1-.508-.675,2.877,2.877,0,0,1-.044-.673,3.3,3.3,0,0,0-1.033-2.725c-1.473-1.379-3.191-.954-4.327-.673a8.35,8.35,0,0,1-.971.2,4.782,4.782,0,0,1-4.582-1.937,5.27,5.27,0,0,1-.413-5.327,10.106,10.106,0,0,1,1.723-2.34c.155-.174.311-.349.467-.529.26-.3.545-.7.847-1.133A9.622,9.622,0,0,1,24.9,23.681Z" transform="translate(0 -0.001)" fill="#7cb342"/>
      </g>
    </g>
    <g id="Grupo_1065" data-name="Grupo 1065" transform="translate(46.608 42.423)">
      <g id="Grupo_1064" data-name="Grupo 1064">
        <path id="Trazado_1515" data-name="Trazado 1515" d="M358.119,322.115l-.64-2.414a1.331,1.331,0,0,0-2.456-.293c-.146.269-.277.554-.4.829a5.72,5.72,0,0,1-.664,1.207,2.94,2.94,0,0,1-.781.463,3.659,3.659,0,0,0-2.217,2.154,3.9,3.9,0,0,0-.088,1.878,1.211,1.211,0,0,1-.034.784l-.013.031c-.424.994-1.212,2.845-.107,4.418a2.772,2.772,0,0,0,2.262,1.412,2.16,2.16,0,0,0,.355-.029c1.358-.222,2.378-1.634,3.212-4.445l1.566-5.276A1.33,1.33,0,0,0,358.119,322.115Zm-4.128,5.24a8.073,8.073,0,0,1-1.018,2.4c-.025-.032-.052-.068-.081-.11-.254-.362.126-1.255.377-1.845l.013-.031a3.745,3.745,0,0,0,.218-2.218,1.4,1.4,0,0,1-.005-.691c.052-.166.364-.327.834-.554.208-.1.438-.211.669-.345Z" transform="translate(-350.15 -318.711)" fill="#7cb342"/>
      </g>
    </g>
    <g id="Grupo_1067" data-name="Grupo 1067" transform="translate(34.081 15.715)">
      <g id="Grupo_1066" data-name="Grupo 1066">
        <path id="Trazado_1516" data-name="Trazado 1516" d="M257.905,118.166l-.09-.031a1.331,1.331,0,1,0-.881,2.512l.09.031a1.331,1.331,0,1,0,.881-2.512Z" transform="translate(-256.044 -118.059)" fill="#7cb342"/>
      </g>
    </g>
  </g>
</svg>
