<svg xmlns="http://www.w3.org/2000/svg" xmlns:xlink="http://www.w3.org/1999/xlink" width="920" height="517.5" viewBox="0 0 920 517.5">
  <defs>
    <linearGradient id="linear-gradient" y1="0.5" x2="1" y2="0.5" gradientUnits="objectBoundingBox">
      <stop offset="0" stop-color="#f3c9c7" stop-opacity="0"/>
      <stop offset="1" stop-color="#f3c9c7"/>
    </linearGradient>
  </defs>
  <g id="Grupo_6994" data-name="Grupo 6994" transform="translate(0)">
    <g id="Grupo_7061" data-name="Grupo 7061" transform="translate(0)">
      <rect id="Rectángulo_1173" data-name="Rectángulo 1173" width="920" height="516" transform="translate(0)" fill="#f3c9c7"/>
      <g id="Grupo_6997" data-name="Grupo 6997" transform="translate(0)">
        <g id="Grupo_6994-2" data-name="Grupo 6994">
          <path id="Trazado_17944" data-name="Trazado 17944" d="M35.414,517.5h.39v-7.317H80.042V517.5h.39v-7.317H124.67V517.5h.391v-7.317H169.3V517.5h.391v-7.317h44.238V517.5h.39v-7.317h44.238V517.5h.391v-7.317h44.237V517.5h.39v-7.317h44.238V517.5h.391v-7.317h44.237V517.5h.391v-7.317h44.237V517.5h.391v-7.317H481.7V517.5h.391v-7.317H517.5v-.392H504.4V496.96h13.1v-.391H482.086V483.737H517.5v-.39H504.4V470.513h13.1v-.39H482.086V457.291H517.5V456.9H504.4V444.068h13.1v-.39H482.086V430.845H517.5v-.39H504.4V417.622h13.1v-.391H482.086V404.4H517.5v-.39H504.4V391.175h13.1v-.39H482.086V377.953H517.5v-.39H504.4V364.729h13.1v-.39H482.086V351.506H517.5v-.39H504.4V338.284h13.1v-.39H482.086V325.061H517.5v-.391H504.4V311.837h13.1v-.39H482.086V298.614H517.5v-.39H504.4V285.391h13.1V285H482.086V272.168H517.5v-.39H504.4V258.946h13.1v-.391H482.086V245.723H517.5v-.392H504.4V232.5h13.1v-.39H482.086V219.275H517.5v-.39H504.4V206.052h13.1v-.39H482.086V192.83H517.5v-.391H504.4V179.607h13.1v-.39H482.086V166.384H517.5v-.391H504.4V153.161h13.1v-.39H482.086V139.938H517.5v-.391H504.4V126.715h13.1v-.39H482.086V113.492H517.5V113.1H504.4V100.269h13.1v-.391H482.086V87.046H517.5v-.391H504.4V73.823h13.1v-.391H482.086V60.6H517.5V60.21H504.4V47.376h13.1v-.391H482.086V34.153H517.5v-.39H504.4V20.931h13.1V20.54H482.086V7.708H517.5V7.317H504.4V0h-.391V7.317H459.773V0h-.391V7.317H415.144V0h-.391V7.317H370.516V0h-.39V7.317H325.887V0h-.39V7.317H281.259V0h-.391V7.317H236.632V0h-.392V7.317H192V0h-.391V7.317H147.375V0h-.391V7.317H102.747V0h-.392V7.317H58.119V0h-.391V7.317H13.49V0H13.1V7.317H0v.391H35.414V20.54H0v.391H13.1V33.763H0v.39H35.414V46.986H0v.391H13.1V60.21H0V60.6H35.414V73.432H0v.391H13.1V86.655H0v.391H35.414V99.878H0v.391H13.1V113.1H0v.391H35.414v12.832H0v.39H13.1v12.832H0v.391H35.414v12.833H0v.39H13.1v12.832H0v.391H35.414v12.832H0v.39H13.1v12.832H0v.391H35.414v12.832H0v.39H13.1v12.833H0v.39H35.414v12.833H0v.39H13.1v12.832H0v.392H35.414v12.832H0v.391H13.1v12.832H0v.39H35.414V285H0v.391H13.1v12.832H0v.39H35.414v12.833H0v.39H13.1V324.67H0v.391H35.414v12.833H0v.39H13.1v12.832H0v.39H35.414v12.832H0v.39H13.1v12.834H0v.39H35.414v12.832H0v.39H13.1v12.832H0v.39H35.414v12.833H0v.391H13.1v12.833H0v.39H35.414v12.833H0v.39H13.1V456.9H0v.391H35.414v12.832H0v.39H13.1v12.833H0v.39H35.414v12.832H0v.391H13.1v12.831H0v.392H35.414V517.5ZM13.49,496.96H57.728v12.831H13.49V496.96Zm44.629,0h44.236v12.831H58.119V496.96Zm44.628,0h44.237v12.831H102.747V496.96Zm44.628,0h44.237v12.831H147.375V496.96Zm44.628,0h44.237v12.831H192V496.96Zm44.629,0h44.236v12.831H236.632V496.96Zm44.627,0H325.5v12.831H281.259V496.96Zm44.628,0h44.238v12.831H325.887V496.96Zm44.628,0h44.237v12.831H370.516V496.96Zm44.628,0h44.238v12.831H415.144V496.96Zm44.629,0H504.01v12.831H459.773V496.96ZM35.8,483.737H80.042v12.832H35.8V483.737Zm44.628,0H124.67v12.832H80.432V483.737Zm44.629,0H169.3v12.832H125.061V483.737Zm44.628,0h44.238v12.832H169.689V483.737Zm44.628,0h44.238v12.832H214.317V483.737Zm44.629,0h44.237v12.832H258.946V483.737Zm44.627,0h44.238v12.832H303.573V483.737Zm44.629,0h44.237v12.832H348.2V483.737Zm44.628,0h44.237v12.832H392.83V483.737Zm44.628,0H481.7v12.832H437.458V483.737ZM13.49,470.513H57.728v12.833H13.49V470.513Zm44.629,0h44.236v12.833H58.119V470.513Zm44.628,0h44.237v12.833H102.747V470.513Zm44.628,0h44.237v12.833H147.375V470.513Zm44.628,0h44.237v12.833H192V470.513Zm44.629,0h44.236v12.833H236.632V470.513Zm44.627,0H325.5v12.833H281.259V470.513Zm44.628,0h44.238v12.833H325.887V470.513Zm44.628,0h44.237v12.833H370.516V470.513Zm44.628,0h44.238v12.833H415.144V470.513Zm44.629,0H504.01v12.833H459.773V470.513ZM35.8,457.291H80.042v12.832H35.8V457.291Zm44.628,0H124.67v12.832H80.432V457.291Zm44.629,0H169.3v12.832H125.061V457.291Zm44.628,0h44.238v12.832H169.689V457.291Zm44.628,0h44.238v12.832H214.317V457.291Zm44.629,0h44.237v12.832H258.946V457.291Zm44.627,0h44.238v12.832H303.573V457.291Zm44.629,0h44.237v12.832H348.2V457.291Zm44.628,0h44.237v12.832H392.83V457.291Zm44.628,0H481.7v12.832H437.458V457.291ZM13.49,444.068H57.728V456.9H13.49V444.068Zm44.629,0h44.236V456.9H58.119V444.068Zm44.628,0h44.237V456.9H102.747V444.068Zm44.628,0h44.237V456.9H147.375V444.068Zm44.628,0h44.237V456.9H192V444.068Zm44.629,0h44.236V456.9H236.632V444.068Zm44.627,0H325.5V456.9H281.259V444.068Zm44.628,0h44.238V456.9H325.887V444.068Zm44.628,0h44.237V456.9H370.516V444.068Zm44.628,0h44.238V456.9H415.144V444.068Zm44.629,0H504.01V456.9H459.773V444.068ZM35.8,430.845H80.042v12.833H35.8V430.845Zm44.628,0H124.67v12.833H80.432V430.845Zm44.629,0H169.3v12.833H125.061V430.845Zm44.628,0h44.238v12.833H169.689V430.845Zm44.628,0h44.238v12.833H214.317V430.845Zm44.629,0h44.237v12.833H258.946V430.845Zm44.627,0h44.238v12.833H303.573V430.845Zm44.629,0h44.237v12.833H348.2V430.845Zm44.628,0h44.237v12.833H392.83V430.845Zm44.628,0H481.7v12.833H437.458V430.845ZM13.49,417.622H57.728v12.833H13.49V417.622Zm44.629,0h44.236v12.833H58.119V417.622Zm44.628,0h44.237v12.833H102.747V417.622Zm44.628,0h44.237v12.833H147.375V417.622Zm44.628,0h44.237v12.833H192V417.622Zm44.629,0h44.236v12.833H236.632V417.622Zm44.627,0H325.5v12.833H281.259V417.622Zm44.628,0h44.238v12.833H325.887V417.622Zm44.628,0h44.237v12.833H370.516V417.622Zm44.628,0h44.238v12.833H415.144V417.622Zm44.629,0H504.01v12.833H459.773V417.622ZM35.8,404.4H80.042v12.833H35.8V404.4Zm44.628,0H124.67v12.833H80.432V404.4Zm44.629,0H169.3v12.833H125.061V404.4Zm44.628,0h44.238v12.833H169.689V404.4Zm44.628,0h44.238v12.833H214.317V404.4Zm44.629,0h44.237v12.833H258.946V404.4Zm44.627,0h44.238v12.833H303.573V404.4Zm44.629,0h44.237v12.833H348.2V404.4Zm44.628,0h44.237v12.833H392.83V404.4Zm44.628,0H481.7v12.833H437.458V404.4ZM13.49,391.175H57.728v12.832H13.49V391.175Zm44.629,0h44.236v12.832H58.119V391.175Zm44.628,0h44.237v12.832H102.747V391.175Zm44.628,0h44.237v12.832H147.375V391.175Zm44.628,0h44.237v12.832H192V391.175Zm44.629,0h44.236v12.832H236.632V391.175Zm44.627,0H325.5v12.832H281.259V391.175Zm44.628,0h44.238v12.832H325.887V391.175Zm44.628,0h44.237v12.832H370.516V391.175Zm44.628,0h44.238v12.832H415.144V391.175Zm44.629,0H504.01v12.832H459.773V391.175ZM35.8,377.953H80.042v12.832H35.8V377.953Zm44.628,0H124.67v12.832H80.432V377.953Zm44.629,0H169.3v12.832H125.061V377.953Zm44.628,0h44.238v12.832H169.689V377.953Zm44.628,0h44.238v12.832H214.317V377.953Zm44.629,0h44.237v12.832H258.946V377.953Zm44.627,0h44.238v12.832H303.573V377.953Zm44.629,0h44.237v12.832H348.2V377.953Zm44.628,0h44.237v12.832H392.83V377.953Zm44.628,0H481.7v12.832H437.458V377.953ZM13.49,364.729H57.728v12.834H13.49V364.729Zm44.629,0h44.236v12.834H58.119V364.729Zm44.628,0h44.237v12.834H102.747V364.729Zm44.628,0h44.237v12.834H147.375V364.729Zm44.628,0h44.237v12.834H192V364.729Zm44.629,0h44.236v12.834H236.632V364.729Zm44.627,0H325.5v12.834H281.259V364.729Zm44.628,0h44.238v12.834H325.887V364.729Zm44.628,0h44.237v12.834H370.516V364.729Zm44.628,0h44.238v12.834H415.144V364.729Zm44.629,0H504.01v12.834H459.773V364.729ZM35.8,351.506H80.042v12.832H35.8V351.506Zm44.628,0H124.67v12.832H80.432V351.506Zm44.629,0H169.3v12.832H125.061V351.506Zm44.628,0h44.238v12.832H169.689V351.506Zm44.628,0h44.238v12.832H214.317V351.506Zm44.629,0h44.237v12.832H258.946V351.506Zm44.627,0h44.238v12.832H303.573V351.506Zm44.629,0h44.237v12.832H348.2V351.506Zm44.628,0h44.237v12.832H392.83V351.506Zm44.628,0H481.7v12.832H437.458V351.506ZM13.49,338.284H57.728v12.832H13.49V338.284Zm44.629,0h44.236v12.832H58.119V338.284Zm44.628,0h44.237v12.832H102.747V338.284Zm44.628,0h44.237v12.832H147.375V338.284Zm44.628,0h44.237v12.832H192V338.284Zm44.629,0h44.236v12.832H236.632V338.284Zm44.627,0H325.5v12.832H281.259V338.284Zm44.628,0h44.238v12.832H325.887V338.284Zm44.628,0h44.237v12.832H370.516V338.284Zm44.628,0h44.238v12.832H415.144V338.284Zm44.629,0H504.01v12.832H459.773V338.284ZM35.8,325.061H80.042v12.833H35.8V325.061Zm44.628,0H124.67v12.833H80.432V325.061Zm44.629,0H169.3v12.833H125.061V325.061Zm44.628,0h44.238v12.833H169.689V325.061Zm44.628,0h44.238v12.833H214.317V325.061Zm44.629,0h44.237v12.833H258.946V325.061Zm44.627,0h44.238v12.833H303.573V325.061Zm44.629,0h44.237v12.833H348.2V325.061Zm44.628,0h44.237v12.833H392.83V325.061Zm44.628,0H481.7v12.833H437.458V325.061ZM13.49,311.837H57.728V324.67H13.49V311.837Zm44.629,0h44.236V324.67H58.119V311.837Zm44.628,0h44.237V324.67H102.747V311.837Zm44.628,0h44.237V324.67H147.375V311.837Zm44.628,0h44.237V324.67H192V311.837Zm44.629,0h44.236V324.67H236.632V311.837Zm44.627,0H325.5V324.67H281.259V311.837Zm44.628,0h44.238V324.67H325.887V311.837Zm44.628,0h44.237V324.67H370.516V311.837Zm44.628,0h44.238V324.67H415.144V311.837Zm44.629,0H504.01V324.67H459.773V311.837ZM35.8,298.614H80.042v12.833H35.8V298.614Zm44.628,0H124.67v12.833H80.432V298.614Zm44.629,0H169.3v12.833H125.061V298.614Zm44.628,0h44.238v12.833H169.689V298.614Zm44.628,0h44.238v12.833H214.317V298.614Zm44.629,0h44.237v12.833H258.946V298.614Zm44.627,0h44.238v12.833H303.573V298.614Zm44.629,0h44.237v12.833H348.2V298.614Zm44.628,0h44.237v12.833H392.83V298.614Zm44.628,0H481.7v12.833H437.458V298.614ZM13.49,285.391H57.728v12.832H13.49V285.391Zm44.629,0h44.236v12.832H58.119V285.391Zm44.628,0h44.237v12.832H102.747V285.391Zm44.628,0h44.237v12.832H147.375V285.391Zm44.628,0h44.237v12.832H192V285.391Zm44.629,0h44.236v12.832H236.632V285.391Zm44.627,0H325.5v12.832H281.259V285.391Zm44.628,0h44.238v12.832H325.887V285.391Zm44.628,0h44.237v12.832H370.516V285.391Zm44.628,0h44.238v12.832H415.144V285.391Zm44.629,0H504.01v12.832H459.773V285.391ZM35.8,272.168H80.042V285H35.8V272.168Zm44.628,0H124.67V285H80.432V272.168Zm44.629,0H169.3V285H125.061V272.168Zm44.628,0h44.238V285H169.689V272.168Zm44.628,0h44.238V285H214.317V272.168Zm44.629,0h44.237V285H258.946V272.168Zm44.627,0h44.238V285H303.573V272.168Zm44.629,0h44.237V285H348.2V272.168Zm44.628,0h44.237V285H392.83V272.168Zm44.628,0H481.7V285H437.458V272.168ZM13.49,258.946H57.728v12.832H13.49V258.946Zm44.629,0h44.236v12.832H58.119V258.946Zm44.628,0h44.237v12.832H102.747V258.946Zm44.628,0h44.237v12.832H147.375V258.946Zm44.628,0h44.237v12.832H192V258.946Zm44.629,0h44.236v12.832H236.632V258.946Zm44.627,0H325.5v12.832H281.259V258.946Zm44.628,0h44.238v12.832H325.887V258.946Zm44.628,0h44.237v12.832H370.516V258.946Zm44.628,0h44.238v12.832H415.144V258.946Zm44.629,0H504.01v12.832H459.773V258.946ZM35.8,245.723H80.042v12.832H35.8V245.723Zm44.628,0H124.67v12.832H80.432V245.723Zm44.629,0H169.3v12.832H125.061V245.723Zm44.628,0h44.238v12.832H169.689V245.723Zm44.628,0h44.238v12.832H214.317V245.723Zm44.629,0h44.237v12.832H258.946V245.723Zm44.627,0h44.238v12.832H303.573V245.723Zm44.629,0h44.237v12.832H348.2V245.723Zm44.628,0h44.237v12.832H392.83V245.723Zm44.628,0H481.7v12.832H437.458V245.723ZM13.49,232.5H57.728v12.832H13.49V232.5Zm44.629,0h44.236v12.832H58.119V232.5Zm44.628,0h44.237v12.832H102.747V232.5Zm44.628,0h44.237v12.832H147.375V232.5Zm44.628,0h44.237v12.832H192V232.5Zm44.629,0h44.236v12.832H236.632V232.5Zm44.627,0H325.5v12.832H281.259V232.5Zm44.628,0h44.238v12.832H325.887V232.5Zm44.628,0h44.237v12.832H370.516V232.5Zm44.628,0h44.238v12.832H415.144V232.5Zm44.629,0H504.01v12.832H459.773V232.5ZM35.8,219.275H80.042v12.833H35.8V219.275Zm44.628,0H124.67v12.833H80.432V219.275Zm44.629,0H169.3v12.833H125.061V219.275Zm44.628,0h44.238v12.833H169.689V219.275Zm44.628,0h44.238v12.833H214.317V219.275Zm44.629,0h44.237v12.833H258.946V219.275Zm44.627,0h44.238v12.833H303.573V219.275Zm44.629,0h44.237v12.833H348.2V219.275Zm44.628,0h44.237v12.833H392.83V219.275Zm44.628,0H481.7v12.833H437.458V219.275ZM13.49,206.052H57.728v12.833H13.49V206.052Zm44.629,0h44.236v12.833H58.119V206.052Zm44.628,0h44.237v12.833H102.747V206.052Zm44.628,0h44.237v12.833H147.375V206.052Zm44.628,0h44.237v12.833H192V206.052Zm44.629,0h44.236v12.833H236.632V206.052Zm44.627,0H325.5v12.833H281.259V206.052Zm44.628,0h44.238v12.833H325.887V206.052Zm44.628,0h44.237v12.833H370.516V206.052Zm44.628,0h44.238v12.833H415.144V206.052Zm44.629,0H504.01v12.833H459.773V206.052ZM35.8,192.83H80.042v12.832H35.8V192.83Zm44.628,0H124.67v12.832H80.432V192.83Zm44.629,0H169.3v12.832H125.061V192.83Zm44.628,0h44.238v12.832H169.689V192.83Zm44.628,0h44.238v12.832H214.317V192.83Zm44.629,0h44.237v12.832H258.946V192.83Zm44.627,0h44.238v12.832H303.573V192.83Zm44.629,0h44.237v12.832H348.2V192.83Zm44.628,0h44.237v12.832H392.83V192.83Zm44.628,0H481.7v12.832H437.458V192.83ZM13.49,179.607H57.728v12.832H13.49V179.607Zm44.629,0h44.236v12.832H58.119V179.607Zm44.628,0h44.237v12.832H102.747V179.607Zm44.628,0h44.237v12.832H147.375V179.607Zm44.628,0h44.237v12.832H192V179.607Zm44.629,0h44.236v12.832H236.632V179.607Zm44.627,0H325.5v12.832H281.259V179.607Zm44.628,0h44.238v12.832H325.887V179.607Zm44.628,0h44.237v12.832H370.516V179.607Zm44.628,0h44.238v12.832H415.144V179.607Zm44.629,0H504.01v12.832H459.773V179.607ZM35.8,166.384H80.042v12.832H35.8V166.384Zm44.628,0H124.67v12.832H80.432V166.384Zm44.629,0H169.3v12.832H125.061V166.384Zm44.628,0h44.238v12.832H169.689V166.384Zm44.628,0h44.238v12.832H214.317V166.384Zm44.629,0h44.237v12.832H258.946V166.384Zm44.627,0h44.238v12.832H303.573V166.384Zm44.629,0h44.237v12.832H348.2V166.384Zm44.628,0h44.237v12.832H392.83V166.384Zm44.628,0H481.7v12.832H437.458V166.384ZM13.49,153.161H57.728v12.832H13.49V153.161Zm44.629,0h44.236v12.832H58.119V153.161Zm44.628,0h44.237v12.832H102.747V153.161Zm44.628,0h44.237v12.832H147.375V153.161Zm44.628,0h44.237v12.832H192V153.161Zm44.629,0h44.236v12.832H236.632V153.161Zm44.627,0H325.5v12.832H281.259V153.161Zm44.628,0h44.238v12.832H325.887V153.161Zm44.628,0h44.237v12.832H370.516V153.161Zm44.628,0h44.238v12.832H415.144V153.161Zm44.629,0H504.01v12.832H459.773V153.161ZM35.8,139.938H80.042v12.833H35.8V139.938Zm44.628,0H124.67v12.833H80.432V139.938Zm44.629,0H169.3v12.833H125.061V139.938Zm44.628,0h44.238v12.833H169.689V139.938Zm44.628,0h44.238v12.833H214.317V139.938Zm44.629,0h44.237v12.833H258.946V139.938Zm44.627,0h44.238v12.833H303.573V139.938Zm44.629,0h44.237v12.833H348.2V139.938Zm44.628,0h44.237v12.833H392.83V139.938Zm44.628,0H481.7v12.833H437.458V139.938ZM13.49,126.715H57.728v12.832H13.49V126.715Zm44.629,0h44.236v12.832H58.119V126.715Zm44.628,0h44.237v12.832H102.747V126.715Zm44.628,0h44.237v12.832H147.375V126.715Zm44.628,0h44.237v12.832H192V126.715Zm44.629,0h44.236v12.832H236.632V126.715Zm44.627,0H325.5v12.832H281.259V126.715Zm44.628,0h44.238v12.832H325.887V126.715Zm44.628,0h44.237v12.832H370.516V126.715Zm44.628,0h44.238v12.832H415.144V126.715Zm44.629,0H504.01v12.832H459.773V126.715ZM35.8,113.492H80.042v12.832H35.8V113.492Zm44.628,0H124.67v12.832H80.432V113.492Zm44.629,0H169.3v12.832H125.061V113.492Zm44.628,0h44.238v12.832H169.689V113.492Zm44.628,0h44.238v12.832H214.317V113.492Zm44.629,0h44.237v12.832H258.946V113.492Zm44.627,0h44.238v12.832H303.573V113.492Zm44.629,0h44.237v12.832H348.2V113.492Zm44.628,0h44.237v12.832H392.83V113.492Zm44.628,0H481.7v12.832H437.458V113.492ZM13.49,100.269H57.728V113.1H13.49V100.269Zm44.629,0h44.236V113.1H58.119V100.269Zm44.628,0h44.237V113.1H102.747V100.269Zm44.628,0h44.237V113.1H147.375V100.269Zm44.628,0h44.237V113.1H192V100.269Zm44.629,0h44.236V113.1H236.632V100.269Zm44.627,0H325.5V113.1H281.259V100.269Zm44.628,0h44.238V113.1H325.887V100.269Zm44.628,0h44.237V113.1H370.516V100.269Zm44.628,0h44.238V113.1H415.144V100.269Zm44.629,0H504.01V113.1H459.773V100.269ZM35.8,87.046H80.042V99.878H35.8V87.046Zm44.628,0H124.67V99.878H80.432V87.046Zm44.629,0H169.3V99.878H125.061V87.046Zm44.628,0h44.238V99.878H169.689V87.046Zm44.628,0h44.238V99.878H214.317V87.046Zm44.629,0h44.237V99.878H258.946V87.046Zm44.627,0h44.238V99.878H303.573V87.046Zm44.629,0h44.237V99.878H348.2V87.046Zm44.628,0h44.237V99.878H392.83V87.046Zm44.628,0H481.7V99.878H437.458V87.046ZM13.49,73.823H57.728V86.655H13.49V73.823Zm44.629,0h44.236V86.655H58.119V73.823Zm44.628,0h44.237V86.655H102.747V73.823Zm44.628,0h44.237V86.655H147.375V73.823Zm44.628,0h44.237V86.655H192V73.823Zm44.629,0h44.236V86.655H236.632V73.823Zm44.627,0H325.5V86.655H281.259V73.823Zm44.628,0h44.238V86.655H325.887V73.823Zm44.628,0h44.237V86.655H370.516V73.823Zm44.628,0h44.238V86.655H415.144V73.823Zm44.629,0H504.01V86.655H459.773V73.823ZM35.8,60.6H80.042V73.432H35.8V60.6Zm44.628,0H124.67V73.432H80.432V60.6Zm44.629,0H169.3V73.432H125.061V60.6Zm44.628,0h44.238V73.432H169.689V60.6Zm44.628,0h44.238V73.432H214.317V60.6Zm44.629,0h44.237V73.432H258.946V60.6Zm44.627,0h44.238V73.432H303.573V60.6Zm44.629,0h44.237V73.432H348.2V60.6Zm44.628,0h44.237V73.432H392.83V60.6Zm44.628,0H481.7V73.432H437.458V60.6ZM13.49,47.376H57.728V60.21H13.49V47.376Zm44.629,0h44.236V60.21H58.119V47.376Zm44.628,0h44.237V60.21H102.747V47.376Zm44.628,0h44.237V60.21H147.375V47.376Zm44.628,0h44.237V60.21H192V47.376Zm44.629,0h44.236V60.21H236.632V47.376Zm44.627,0H325.5V60.21H281.259V47.376Zm44.628,0h44.238V60.21H325.887V47.376Zm44.628,0h44.237V60.21H370.516V47.376Zm44.628,0h44.238V60.21H415.144V47.376Zm44.629,0H504.01V60.21H459.773V47.376ZM35.8,34.153H80.042V46.986H35.8V34.153Zm44.628,0H124.67V46.986H80.432V34.153Zm44.629,0H169.3V46.986H125.061V34.153Zm44.628,0h44.238V46.986H169.689V34.153Zm44.628,0h44.238V46.986H214.317V34.153Zm44.629,0h44.237V46.986H258.946V34.153Zm44.627,0h44.238V46.986H303.573V34.153Zm44.629,0h44.237V46.986H348.2V34.153Zm44.628,0h44.237V46.986H392.83V34.153Zm44.628,0H481.7V46.986H437.458V34.153ZM13.49,20.931H57.728V33.763H13.49V20.931Zm44.629,0h44.236V33.763H58.119V20.931Zm44.628,0h44.237V33.763H102.747V20.931Zm44.628,0h44.237V33.763H147.375V20.931Zm44.628,0h44.237V33.763H192V20.931Zm44.629,0h44.236V33.763H236.632V20.931Zm44.627,0H325.5V33.763H281.259V20.931Zm44.628,0h44.238V33.763H325.887V20.931Zm44.628,0h44.237V33.763H370.516V20.931Zm44.628,0h44.238V33.763H415.144V20.931Zm44.629,0H504.01V33.763H459.773V20.931ZM35.8,7.708H80.042V20.54H35.8V7.708Zm44.628,0H124.67V20.54H80.432V7.708Zm44.629,0H169.3V20.54H125.061V7.708Zm44.628,0h44.238V20.54H169.689V7.708Zm44.628,0h44.238V20.54H214.317V7.708Zm44.629,0h44.237V20.54H258.946V7.708Zm44.627,0h44.238V20.54H303.573V7.708Zm44.629,0h44.237V20.54H348.2V7.708Zm44.628,0h44.237V20.54H392.83V7.708Zm44.628,0H481.7V20.54H437.458Z" fill="#e79b96" fill-rule="evenodd"/>
        </g>
        <rect id="Rectángulo_1174" data-name="Rectángulo 1174" width="2.221" height="517.5" transform="translate(252.654 0)" fill="#e79b96"/>
        <rect id="Rectángulo_1175" data-name="Rectángulo 1175" width="252.654" height="517.5" transform="translate(0 0)" fill="#e8eaf6"/>
        <rect id="Rectángulo_1176" data-name="Rectángulo 1176" width="24.785" height="517.5" transform="translate(227.869 0)" fill="#fff"/>
        <path id="Trazado_17945" data-name="Trazado 17945" d="M208.453,430.128v-19.9L0,217.684v19.9L208.453,430.128Zm0-36.512L0,201.068V161.277L208.453,353.824v39.792Zm0-163.836L0,37.232V20.653L208.453,213.2V229.78Zm0-30.424V166.2L28.526,0H0V6.808Z" fill="#f5f6fb" fill-rule="evenodd"/>
        <path id="Trazado_17946" data-name="Trazado 17946" d="M57.84,517.5h8.327v-10.54h62.815V517.5h8.327v-10.54h62.817V517.5h8.327V0h-8.327V64.438H137.309V0h-8.327V64.438H66.167V0H57.84V64.438H0v6.781H57.84V135.95H0v6.78H57.84v64.732H0v6.781H57.84v71.4H0v6.782H57.84v64.73H0v6.781H57.84v64.73H0v6.78H57.84v64.732H0v6.781H57.84V517.5Zm8.327-255.054v-48.2h62.815v71.4H66.167v-23.2Zm71.142,0v-48.2h62.817v71.4H137.309v-23.2ZM66.167,500.179V435.447h62.815v64.732Zm71.142,0V435.447h62.817v64.732ZM66.167,428.667v-64.73h62.815v64.73Zm71.142,0v-64.73h62.817v64.73ZM66.167,357.156v-64.73h62.815v64.73Zm71.142,0v-64.73h62.817v64.73ZM66.167,207.461V142.729h62.815v64.732Zm71.142,0V142.729h62.817v64.732ZM66.167,135.95V71.218h62.815V135.95Zm71.142,0V71.218h62.817V135.95Z" fill="#c2c3e3" fill-rule="evenodd"/>
        <path id="Trazado_17947" data-name="Trazado 17947" d="M60.314,517.5h8.327V505.1h62.815v12.4h8.327V505.1H202.6v12.4h8.325V0H202.6V62.576H139.782V0h-8.327V62.576H68.641V0H60.314V62.576H0v6.781H60.314v64.73H0v6.781H60.314V205.6H0v6.781H60.314v71.4H0v6.78H60.314V355.3H0v6.78H60.314v64.731H0v6.781H60.314v64.73H0V505.1H60.314v12.4Zm8.327-256.914V212.38h62.815v71.4H68.641v-23.2Zm71.142,0V212.38H202.6v71.4H139.782v-23.2ZM68.641,498.316v-64.73h62.815v64.73Zm71.142,0v-64.73H202.6v64.73Zm-71.142-71.51V362.075h62.815v64.731Zm71.142,0V362.075H202.6v64.731ZM68.641,355.3V290.564h62.815V355.3Zm71.142,0V290.564H202.6V355.3ZM68.641,205.6V140.869h62.815V205.6Zm71.142,0V140.869H202.6V205.6ZM68.641,134.087V69.358h62.815v64.73Zm71.142,0V69.358H202.6v64.73Z" fill="#fff" fill-rule="evenodd"/>
        <rect id="Rectángulo_1177" data-name="Rectángulo 1177" width="2.221" height="517.5" transform="translate(225.648 0)" fill="#c2c3e3"/>
        <path id="Trazado_17948" data-name="Trazado 17948" d="M0,222.536H73.5A2.772,2.772,0,0,1,76.26,225.3V467.017a18.229,18.229,0,0,0-10.093-3.043H0Z" transform="translate(0 -22.601)" fill="#fdefe9" fill-rule="evenodd"/>
        <path id="Trazado_17949" data-name="Trazado 17949" d="M78.009,279.478V472.8a18.229,18.229,0,0,0-10.093-3.043H17.91a23.175,23.175,0,0,1-.692-5.627V302.836a23.426,23.426,0,0,1,23.357-23.358Z" transform="translate(-1.749 -28.385)" fill="#fff" fill-rule="evenodd"/>
        <path id="Trazado_17950" data-name="Trazado 17950" d="M0,427.988l2.166.276L20.85,425.45,9.732,408H0Z" transform="translate(0 -41.437)" fill="#3f4154" fill-rule="evenodd"/>
        <path id="Trazado_17951" data-name="Trazado 17951" d="M218.508,302.527H192.426a3.87,3.87,0,0,1-3.859-3.858h0a3.871,3.871,0,0,1,3.859-3.861h26.083a3.871,3.871,0,0,1,3.859,3.861h0A3.87,3.87,0,0,1,218.508,302.527Z" transform="translate(-19.151 -29.942)" fill="#00000f" fill-rule="evenodd"/>
        <path id="Rectángulo_1178" data-name="Rectángulo 1178" d="M2.143,0h24.3a2.143,2.143,0,0,1,2.143,2.143V8.306a2.144,2.144,0,0,1-2.144,2.144H2.143A2.143,2.143,0,0,1,0,8.307V2.143A2.143,2.143,0,0,1,2.143,0Z" transform="translate(1.161 378.518)" fill="#fff"/>
        <rect id="Rectángulo_1179" data-name="Rectángulo 1179" width="28.587" height="10.449" rx="2.143" transform="translate(1.94 379.432)" fill="#fad0be"/>
        <rect id="Rectángulo_1180" data-name="Rectángulo 1180" width="28.587" height="10.45" rx="2.143" transform="translate(3.495 380.913)" fill="#fff"/>
        <path id="Trazado_17952" data-name="Trazado 17952" d="M76.682,220.146H0v29.078H76.682a7.684,7.684,0,0,0,7.663-7.662V227.808A7.684,7.684,0,0,0,76.682,220.146Z" transform="translate(0 -22.359)" fill="#fff" fill-rule="evenodd"/>
        <g id="Grupo_6995" data-name="Grupo 6995" transform="translate(0 165.831)">
          <rect id="Rectángulo_1181" data-name="Rectángulo 1181" width="30.809" height="5.535" transform="translate(0 24.512)" fill="#fafcfc"/>
          <path id="Trazado_17953" data-name="Trazado 17953" d="M25.881,212.127a1.2,1.2,0,0,1,0-2.393H68.522a4.665,4.665,0,0,1,3.3,1.373l0,0a4.678,4.678,0,0,1-3.3,7.977H25.881a1.2,1.2,0,0,1,0-2.393h1.953a7.477,7.477,0,0,0,.94-.817,2.531,2.531,0,0,0,.88-1.888,2.9,2.9,0,0,0-1.127-1.865Z" transform="translate(-2.507 -187.132)" fill="#ced6d7" fill-rule="evenodd"/>
          <path id="Trazado_17954" data-name="Trazado 17954" d="M0,209.734H23.928a4.663,4.663,0,0,1,3.3,1.373l.005,0a4.678,4.678,0,0,1-3.3,7.977H0V216.7H23.928a2.285,2.285,0,0,0,0-4.569H0Z" transform="translate(0 -187.132)" fill="#adbfc2" fill-rule="evenodd"/>
          <rect id="Rectángulo_1182" data-name="Rectángulo 1182" width="50.607" height="6.716" transform="translate(13.535 13.929)" fill="#fafcfc"/>
          <path id="Trazado_17955" data-name="Trazado 17955" d="M22.557,200.4a1.451,1.451,0,0,0,0-2.9H0v11.348H22.557a1.451,1.451,0,0,0,0-2.9H20.186a9.2,9.2,0,0,1-1.141-.99,3.08,3.08,0,0,1-1.066-2.29,3.518,3.518,0,0,1,1.367-2.263Z" transform="translate(0 -185.89)" fill="#a7a8c9" fill-rule="evenodd"/>
          <path id="Trazado_17956" data-name="Trazado 17956" d="M65.975,200.4a1.451,1.451,0,1,0,0-2.9H23.716a5.659,5.659,0,0,0-4,1.665l-.005.005a5.675,5.675,0,0,0,4.008,9.678H65.975a1.451,1.451,0,0,0,0-2.9H23.716a2.772,2.772,0,0,1,0-5.543Z" transform="translate(-1.832 -185.89)" fill="#c2c3e3" fill-rule="evenodd"/>
          <rect id="Rectángulo_1183" data-name="Rectángulo 1183" width="26.511" height="6.872" transform="translate(0 2.37)" fill="#fafcfc"/>
          <path id="Trazado_17957" data-name="Trazado 17957" d="M19.065,187.546a1.485,1.485,0,1,1,0-2.969h24.21a5.788,5.788,0,0,1,4.1,1.7l.006.005a5.807,5.807,0,0,1-4.1,9.9H19.065a1.485,1.485,0,1,1,0-2.969h2.424a9.376,9.376,0,0,0,1.167-1.014,3.15,3.15,0,0,0,1.092-2.343,3.6,3.6,0,0,0-1.4-2.316Z" transform="translate(-1.785 -184.577)" fill="#2c2f48" fill-rule="evenodd"/>
          <path id="Trazado_17958" data-name="Trazado 17958" d="M0,184.577H17.967a5.786,5.786,0,0,1,4.1,1.7l0,.005a5.807,5.807,0,0,1-4.1,9.9H0V193.22H17.967a2.837,2.837,0,0,0,0-5.674H0Z" transform="translate(0 -184.577)" fill="#3f4154" fill-rule="evenodd"/>
        </g>
        <path id="Trazado_17959" data-name="Trazado 17959" d="M67.245,425.45,42.18,430.338,23.206,425.45,34.324,408H78.363Z" transform="translate(-2.357 -41.437)" fill="#575a6d" fill-rule="evenodd"/>
        <rect id="Rectángulo_1184" data-name="Rectángulo 1184" width="24.092" height="53.074" transform="translate(0 384.013)" fill="#575a6d"/>
        <rect id="Rectángulo_1185" data-name="Rectángulo 1185" width="44.039" height="53.074" transform="translate(20.85 384.013)" fill="#313448"/>
        <path id="Trazado_17960" data-name="Trazado 17960" d="M36.644,481.773H68.61V439.982H43.687a7.064,7.064,0,0,0-7.043,7.043Z" transform="translate(-3.722 -44.686)" fill="#3f4154" fill-rule="evenodd"/>
        <g id="Grupo_6996" data-name="Grupo 6996" transform="translate(136.421 249.381)">
          <path id="Trazado_17961" data-name="Trazado 17961" d="M161.436,280.5h-5.62a3.985,3.985,0,0,0-3.975,3.975V289.2a3.983,3.983,0,0,0,3.975,3.974h5.62a3.983,3.983,0,0,0,3.974-3.974v-4.731a3.985,3.985,0,0,0-3.974-3.975Zm-5.62,1.542h5.62a2.445,2.445,0,0,1,2.433,2.433V289.2a2.445,2.445,0,0,1-2.433,2.433h-5.62a2.443,2.443,0,0,1-2.433-2.433v-4.731a2.443,2.443,0,0,1,2.433-2.433Z" transform="translate(-151.842 -277.869)" fill="#e8e6ec" fill-rule="evenodd"/>
          <path id="Trazado_17962" data-name="Trazado 17962" d="M157.315,287.179v6.039a3.711,3.711,0,0,0,3.7,3.7h5.464a3.711,3.711,0,0,0,3.7-3.7v-14.4a1.253,1.253,0,0,0-1.248-1.25H158.565a1.254,1.254,0,0,0-1.25,1.25Z" transform="translate(-152.398 -277.572)" fill="#fff" fill-rule="evenodd"/>
          <path id="Trazado_17963" data-name="Trazado 17963" d="M160.521,283.48v6.039a3.686,3.686,0,0,0,.481,1.818,3.762,3.762,0,0,0,1.582,1.5,3.673,3.673,0,0,0,1.637.384h5.958a3.711,3.711,0,0,1-3.7,3.7h-5.464a3.711,3.711,0,0,1-3.7-3.7v-14.4a1.254,1.254,0,0,1,1.25-1.25h1.956v5.908Z" transform="translate(-152.398 -277.572)" fill="#e8e6ec" fill-rule="evenodd"/>
        </g>
        <path id="Trazado_17964" data-name="Trazado 17964" d="M180.017,263.311h0a1.616,1.616,0,0,1,1.612,1.613h0a1.617,1.617,0,0,1-1.612,1.613h0a1.617,1.617,0,0,1-1.612-1.613h0A1.616,1.616,0,0,1,180.017,263.311Z" transform="translate(-18.119 -26.743)" fill="#fff" fill-rule="evenodd"/>
        <path id="Trazado_17965" data-name="Trazado 17965" d="M159.418,267.771h4.477a.619.619,0,0,0,.618-.618h0a.618.618,0,0,0-.618-.616h-6.024a1.618,1.618,0,0,1-1.612-1.613h0a1.617,1.617,0,0,1,1.612-1.613h15.666a1.617,1.617,0,0,1,1.613,1.613h0a1.617,1.617,0,0,1-1.613,1.613h-5.464a.617.617,0,0,0-.616.616h0a.619.619,0,0,0,.616.618h2.1a1.248,1.248,0,0,1,1.245,1.244h0a1.248,1.248,0,0,1-1.245,1.244H166.7a2.481,2.481,0,0,0-2.473,2.474v1.135a.586.586,0,0,1-.585.584h0a.585.585,0,0,1-.584-.584V271.71a1.455,1.455,0,0,0-1.451-1.451h-2.187a1.248,1.248,0,0,1-1.244-1.244h0A1.248,1.248,0,0,1,159.418,267.771Z" transform="translate(-15.87 -26.743)" fill="#fff" fill-rule="evenodd"/>
      </g>
      <rect id="Rectángulo_1186" data-name="Rectángulo 1186" width="142.86" height="517.5" transform="translate(252.358 0)" fill="url(#linear-gradient)"/>
      <rect id="Rectángulo_1187" data-name="Rectángulo 1187" width="524.525" height="517.5" transform="translate(395.475 0)" fill="#f3c9c7"/>
      <g id="Grupo_7054" data-name="Grupo 7054" transform="translate(18.312 137.094)">
        <g id="Grupo_6999" data-name="Grupo 6999" transform="translate(50.326 250.721)">
          <path id="Trazado_17966" data-name="Trazado 17966" d="M93.456,511.691a17.9,17.9,0,0,1-.349-11.2c3-9.992-2.892-12.371-10.609-16.192s-7.931-13.425-1.686-20.916-3.4-14.636,1.249-26.273,16.992-2.713,18.984,8.5c1.43,8.06,11.92,7.144,14.969,17.688,2.65,9.153-9.147,16.516,3.437,21.583,4.02,1.617,6.055,4.954,6.964,8.745a18.555,18.555,0,0,1-2.163,13.885Z" transform="translate(-76.396 -431.654)" fill="#3149b9"/>
          <g id="Grupo_6998" data-name="Grupo 6998" transform="translate(14.581 17.894)">
            <path id="Trazado_17967" data-name="Trazado 17967" d="M111.358,511.509,92.672,452.84a.973.973,0,1,1,1.855-.589l18.79,58.993Z" transform="translate(-92.626 -451.571)" fill="#2039a5"/>
          </g>
        </g>
        <g id="Grupo_7001" data-name="Grupo 7001" transform="translate(0 247.712)">
          <path id="Trazado_17968" data-name="Trazado 17968" d="M56.069,513.991a22.019,22.019,0,0,1-.11-2.56c.223-13.282-7.82-14.163-18.6-16.177S23,481.539,28.068,470.2s-9.22-16.764-7.55-32.631,19.889-9.2,26.2,3.853c4.538,9.383,17.077,4.636,24.458,16.505,6.41,10.3-5.5,23.4,11.671,25.264,5.486.593,9.133,3.979,11.557,8.311a23.8,23.8,0,0,1,.323,22.486Z" transform="translate(-20.382 -428.305)" fill="#4071c9"/>
          <g id="Grupo_7000" data-name="Grupo 7000" transform="translate(15.653 21.04)">
            <path id="Trazado_17969" data-name="Trazado 17969" d="M79.388,516.369,38.009,453.645a1.239,1.239,0,1,1,2.07-1.364l42.279,64.088Z" transform="translate(-37.804 -451.723)" fill="#3149b9"/>
          </g>
        </g>
        <g id="Grupo_7002" data-name="Grupo 7002" transform="translate(273.737 217.275)">
          <path id="Trazado_17970" data-name="Trazado 17970" d="M329.413,511.245h-4.35l16.1-41.806a52.608,52.608,0,0,0-6.047-15.338c-6.648-11.616-11.666-25.171-3.155-24.232,7.385.816,12.6,16.452,12.238,31.685l5.782-15.019c1-4.952,2.431-12.017,1.968-19.986-1.072-18.46,1.315-36.138,10.244-31.317s4.252,35.167-9.161,54.68l-2.976,7.729c9.527-14.392,27.712-26.093,34.7-21.052,6.943,5.011-5.869,11.7-18.591,15.86-9.683,3.166-15.3,7.458-17.927,9.916l-14.053,36.5c15.152-22.746,43.875-41.187,54.93-33.209,11.017,7.949-9.313,18.565-29.5,25.164-15.255,4.987-24.15,11.738-28.361,15.653Z" transform="translate(-325.063 -394.428)" fill="#4071c9"/>
        </g>
        <g id="Grupo_7053" data-name="Grupo 7053" transform="translate(20.318)">
          <g id="Grupo_7052" data-name="Grupo 7052">
            <g id="Grupo_7044" data-name="Grupo 7044">
              <g id="Grupo_7003" data-name="Grupo 7003" transform="translate(0 224.234)">
                <path id="Trazado_17971" data-name="Trazado 17971" d="M76.193,515.729h64.6a12,12,0,0,0-12-12h-.112s-13.709-1.789-13.709-12.987V423.928H102.014v66.815c0,11.2-13.709,12.987-13.709,12.987h-.112A12,12,0,0,0,76.193,515.729Z" transform="translate(-46.368 -404.383)" fill="#3149b9"/>
                <path id="Trazado_17972" data-name="Trazado 17972" d="M104.933,423.928v2.658l12.958,3.847v-6.5Z" transform="translate(-49.287 -404.383)" fill="#2039a5"/>
                <path id="Trazado_17973" data-name="Trazado 17973" d="M43,421.715h124.25a23.778,23.778,0,0,0-23.464-19.541l-38.661.1-38.661-.1A23.778,23.778,0,0,0,43,421.715Z" transform="translate(-42.997 -402.174)" fill="#4071c9"/>
              </g>
              <g id="Grupo_7043" data-name="Grupo 7043" transform="translate(15.228)">
                <g id="Grupo_7004" data-name="Grupo 7004" transform="translate(52.084 82.137)">
                  <path id="Trazado_17974" data-name="Trazado 17974" d="M136.836,244.8c3.45,12.75,20.842,45.969,27.595,50.728,8.79,6.2,36.349,17.829,50.684,23.761,2.587,1.07-7.006,12.389-7.006,12.389s-37.073-9.428-52.177-19.069c-4.272-2.727-13.53-11.989-25.248-30.556-3.553-5.631-11.779-16.817-12.692-24.808C116.941,248.049,127.3,241.722,136.836,244.8Z" transform="translate(-117.919 -244.013)" fill="#e08820"/>
                </g>
                <g id="Grupo_7040" data-name="Grupo 7040" transform="translate(1.608)">
                  <g id="Grupo_7009" data-name="Grupo 7009" transform="translate(72.844 184.993)">
                    <g id="Grupo_7008" data-name="Grupo 7008" transform="translate(34.822 119.16)">
                      <path id="Trazado_17975" data-name="Trazado 17975" d="M185.031,491.127,184.553,505s3.428,2.541,10.521,1.278l2.9-14.919Z" transform="translate(-181.876 -491.127)" fill="#e7a592"/>
                      <g id="Grupo_7007" data-name="Grupo 7007" transform="translate(0 10.108)">
                        <g id="Grupo_7006" data-name="Grupo 7006">
                          <g id="Grupo_7005" data-name="Grupo 7005">
                            <path id="Trazado_17976" data-name="Trazado 17976" d="M193.264,505.611s2.417-3.344,4.374-3.231,17.225,11.9,22.411,12.814,4.928,7.365,2.891,8.1c-2.32.836-40.658.117-40.658.117s-1.457-13.64-.193-17.327S189.233,506.538,193.264,505.611Z" transform="translate(-181.574 -502.378)" fill="#e08820"/>
                          </g>
                        </g>
                      </g>
                    </g>
                    <path id="Trazado_17977" data-name="Trazado 17977" d="M144.524,359.42s62.541-6.108,72.012,13.1c6.378,12.938-21.467,108.865-21.467,108.865-5.609,1.747-13.4-.686-16.446-3.731,0,0-4.954-13.345-.4-51.949.6-5.131,0-16.836,5.464-37.562L142.815,370.1Z" transform="translate(-142.815 -358.497)" fill="#222046"/>
                  </g>
                  <g id="Grupo_7013" data-name="Grupo 7013" transform="translate(0 65.851)">
                    <path id="Trazado_17978" data-name="Trazado 17978" d="M88.485,226.7s-14.877,4.858-22.831,11.841-1.3,27.823-1.5,39.656,1.757,80.536,18.71,89.167c12.8,6.52,66.694-3.378,62.753-20.942a575.107,575.107,0,0,1-11.042-62.2c-2.278-19.16-1.316-33.314-3.45-41.267s-27.042-17.073-27.042-17.073Z" transform="translate(-61.737 -225.886)" fill="#eaa928"/>
                    <g id="Grupo_7010" data-name="Grupo 7010" transform="translate(22.493 5.458)">
                      <path id="Trazado_17979" data-name="Trazado 17979" d="M102.131,241.474c-7.759,0-14.917-8.247-15.227-8.609a.548.548,0,0,1,.832-.712c.075.087,7.57,8.724,15.063,8.2a.548.548,0,1,1,.075,1.092C102.627,241.466,102.378,241.474,102.131,241.474Z" transform="translate(-86.772 -231.961)" fill="#e08820"/>
                    </g>
                    <g id="Grupo_7011" data-name="Grupo 7011" transform="translate(30.578 68.852)">
                      <path id="Trazado_17980" data-name="Trazado 17980" d="M96.318,341.384a.548.548,0,0,1-.062-1.092c20.041-2.306,28.344-37,28.426-37.347a.547.547,0,1,1,1.066.248c-.341,1.461-8.567,35.793-29.366,38.187A.518.518,0,0,1,96.318,341.384Z" transform="translate(-95.772 -302.521)" fill="#e08820"/>
                    </g>
                    <g id="Grupo_7012" data-name="Grupo 7012" transform="translate(38.557 79.382)">
                      <path id="Trazado_17981" data-name="Trazado 17981" d="M105.2,332.077a.547.547,0,0,1-.287-1.013c10.659-6.572,12.244-16.259,12.259-16.356a.547.547,0,0,1,1.083.163c-.063.416-1.656,10.275-12.768,17.126A.546.546,0,0,1,105.2,332.077Z" transform="translate(-104.653 -314.241)" fill="#e08820"/>
                    </g>
                  </g>
                  <g id="Grupo_7035" data-name="Grupo 7035" transform="translate(9.354)">
                    <circle id="Elipse_824" data-name="Elipse 824" cx="21.955" cy="21.955" r="21.955" transform="translate(1.573 7.835)" fill="#323361"/>
                    <path id="Trazado_17982" data-name="Trazado 17982" d="M117.272,178.445s6.218-1.717,5.4-7.751c-.7-5.136-6.73-1.807-6.2-5.821s1.709-7.663-3.483-8.666c-4.542-.878-4.619,2.234-10.583-2.281-7.046-5.335-12.46,7.019-18.748,7.39-9.275.547-10.446,5.793-11.359,9.99s2.658,7.14,2.658,7.14Z" transform="translate(-72.148 -152.591)" fill="#323361"/>
                    <g id="Grupo_7017" data-name="Grupo 7017" transform="translate(40.457 33.613)">
                      <path id="Trazado_17983" data-name="Trazado 17983" d="M118.516,192.325s3.478-4.637,6.064-.8-1.071,15.159-7.4,12.395Z" transform="translate(-117.178 -190.004)" fill="#e2876c"/>
                      <g id="Grupo_7014" data-name="Grupo 7014" transform="translate(0.848 4.06)">
                        <path id="Trazado_17984" data-name="Trazado 17984" d="M118.657,200.877a.536.536,0,0,0,.516-.391c.981-3.5,4.6-4.914,4.64-4.928a.535.535,0,0,0-.379-1,9.212,9.212,0,0,0-5.291,5.639.534.534,0,0,0,.37.659A.541.541,0,0,0,118.657,200.877Z" transform="translate(-118.122 -194.522)" fill="#bb5c4a"/>
                      </g>
                      <g id="Grupo_7016" data-name="Grupo 7016" transform="translate(2.727 6.162)">
                        <g id="Grupo_7015" data-name="Grupo 7015">
                          <path id="Trazado_17985" data-name="Trazado 17985" d="M122.526,199.352a.527.527,0,0,0,.289-.085.534.534,0,0,0,.16-.739,4.879,4.879,0,0,0-2.008-1.619.535.535,0,1,0-.437.977,3.867,3.867,0,0,1,1.545,1.221A.535.535,0,0,0,122.526,199.352Z" transform="translate(-120.213 -196.862)" fill="#bb5c4a"/>
                        </g>
                      </g>
                    </g>
                    <path id="Trazado_17986" data-name="Trazado 17986" d="M90.592,216.181v11.263s4.754,6.286,9.3,6.677,7.176-6.318,7.176-6.318v-10.83Z" transform="translate(-74.021 -159.05)" fill="#e7a592"/>
                    <path id="Trazado_17987" data-name="Trazado 17987" d="M90.592,216.181v5c3.048,3.383,8.461,4.227,16.471,3.045v-7.249Z" transform="translate(-74.021 -159.05)" fill="#e2876c"/>
                    <path id="Trazado_17988" data-name="Trazado 17988" d="M77.374,182.389a109.579,109.579,0,0,0,1.461,14.227c.208,1.091.444,2.119.706,3.039,2.37,8.3,8.3,22.53,24.895,16.6,7.33-2.616,10.727-10.781,12.242-19.085a80.26,80.26,0,0,0,1.107-15.409,11.757,11.757,0,0,0-5.966-10c-9.8-5.553-20.133-3.483-26.939-.867A11.721,11.721,0,0,0,77.374,182.389Z" transform="translate(-72.678 -154.181)" fill="#e7a592"/>
                    <g id="Grupo_7024" data-name="Grupo 7024" transform="translate(5.869 33.423)">
                      <g id="Grupo_7023" data-name="Grupo 7023">
                        <g id="Grupo_7018" data-name="Grupo 7018" transform="translate(5.855 0.405)">
                          <path id="Trazado_17989" data-name="Trazado 17989" d="M98.081,192.578v.889a6.646,6.646,0,0,1-6.628,6.654h-.217a5.99,5.99,0,0,1-4.125-1.825,6.534,6.534,0,0,1-1.915-4.668v-1.049a2.368,2.368,0,0,1,.685-1.65,2.323,2.323,0,0,1,1.65-.685h8.214a2.329,2.329,0,0,1,2.106,1.331,2.282,2.282,0,0,1,.226.943A.457.457,0,0,1,98.081,192.578Zm-.969,0a1.367,1.367,0,0,0-1.367-1.367H87.532a1.365,1.365,0,0,0-1.367,1.367v1.049A5.549,5.549,0,0,0,87.79,197.6a5.055,5.055,0,0,0,3.466,1.551h.2a5.673,5.673,0,0,0,5.659-5.684Z" transform="translate(-85.197 -190.243)" fill="#323361"/>
                        </g>
                        <g id="Grupo_7019" data-name="Grupo 7019" transform="translate(22.299 0.405)">
                          <path id="Trazado_17990" data-name="Trazado 17990" d="M116.388,192.578v.889a6.644,6.644,0,0,1-6.628,6.654h-.22a5.984,5.984,0,0,1-4.121-1.825,6.537,6.537,0,0,1-1.919-4.668v-1.049a.2.2,0,0,1,0-.046,2.229,2.229,0,0,1,.2-.894,2.331,2.331,0,0,1,2.136-1.4h8.217a2.339,2.339,0,0,1,1.8.843,2.3,2.3,0,0,1,.449.866A2.132,2.132,0,0,1,116.388,192.578Zm-.969,0a1.367,1.367,0,0,0-1.366-1.367h-8.217a1.367,1.367,0,0,0-1.367,1.367v1.049a5.56,5.56,0,0,0,1.624,3.973,5.055,5.055,0,0,0,3.466,1.551h.2a5.678,5.678,0,0,0,5.658-5.684Z" transform="translate(-103.5 -190.243)" fill="#323361"/>
                        </g>
                        <g id="Grupo_7020" data-name="Grupo 7020">
                          <path id="Trazado_17991" data-name="Trazado 17991" d="M78.68,189.8a11.588,11.588,0,0,1,5.57,1.077c.22.106.808.489.833.5l-.461.822c-.006,0-.65-.387-.9-.5a10.154,10.154,0,0,0-5.041-.933Z" transform="translate(-78.68 -189.792)" fill="#323361"/>
                        </g>
                        <g id="Grupo_7021" data-name="Grupo 7021" transform="translate(17.771 1.373)">
                          <path id="Trazado_17992" data-name="Trazado 17992" d="M98.778,192.723l-.318-.915a9.867,9.867,0,0,1,2.912-.488,6.518,6.518,0,0,1,2.658.509l-.423.871a5.684,5.684,0,0,0-2.234-.412A9.057,9.057,0,0,0,98.778,192.723Z" transform="translate(-98.46 -191.321)" fill="#323361"/>
                        </g>
                        <g id="Grupo_7022" data-name="Grupo 7022" transform="translate(34.266 0.247)">
                          <path id="Trazado_17993" data-name="Trazado 17993" d="M121.134,190.067v.97a12.544,12.544,0,0,0-3.888,1.074l-.427-.869A13.108,13.108,0,0,1,121.134,190.067Z" transform="translate(-116.82 -190.067)" fill="#323361"/>
                        </g>
                      </g>
                    </g>
                    <path id="Trazado_17994" data-name="Trazado 17994" d="M109.381,193.977c0,1.2.62,2.177,1.384,2.177s1.384-.974,1.384-2.177-.62-2.177-1.384-2.177S109.381,192.775,109.381,193.977Z" transform="translate(-75.93 -156.573)" fill="#323361"/>
                    <path id="Trazado_17995" data-name="Trazado 17995" d="M91.343,193.977c0,1.2.62,2.177,1.384,2.177s1.384-.974,1.384-2.177-.62-2.177-1.384-2.177S91.343,192.775,91.343,193.977Z" transform="translate(-74.098 -156.573)" fill="#323361"/>
                    <path id="Trazado_17996" data-name="Trazado 17996" d="M114.779,186.656s-5.761-2.277-10.2-.36l.37,2.059a18.7,18.7,0,0,1,9.508.682C114.754,188.087,115.154,187.631,114.779,186.656Z" transform="translate(-75.442 -155.936)" fill="#323361"/>
                    <path id="Trazado_17997" data-name="Trazado 17997" d="M86.573,186.656s5.761-2.277,10.2-.36l-.371,2.059a18.7,18.7,0,0,0-9.507.682C86.6,188.087,86.2,187.631,86.573,186.656Z" transform="translate(-73.598 -155.936)" fill="#323361"/>
                    <g id="Grupo_7026" data-name="Grupo 7026" transform="translate(23.614 36.059)">
                      <g id="Grupo_7025" data-name="Grupo 7025">
                        <path id="Trazado_17998" data-name="Trazado 17998" d="M100.7,203.194a5.716,5.716,0,0,1-1.937-.407.535.535,0,0,1,.405-.991,3.217,3.217,0,0,0,2.145.2.582.582,0,0,0,.263-.5,80.67,80.67,0,0,0-.323-8.194.535.535,0,1,1,1.066-.088,79.341,79.341,0,0,1,.322,8.392,1.631,1.631,0,0,1-.778,1.305A2.251,2.251,0,0,1,100.7,203.194Z" transform="translate(-98.432 -192.727)" fill="#e2876c"/>
                      </g>
                    </g>
                    <path id="Trazado_17999" data-name="Trazado 17999" d="M106.808,207.4c-.437,2.2-1.89,6.248-6.787,6.248s-6.284-3.7-6.757-6.248Z" transform="translate(-74.293 -158.158)" fill="#fff"/>
                    <g id="Grupo_7027" data-name="Grupo 7027" transform="translate(22.929 56.56)">
                      <path id="Trazado_18000" data-name="Trazado 18000" d="M100.535,217.269a5.59,5.59,0,0,1-2.608-.731.535.535,0,0,1,.554-.916,4.549,4.549,0,0,0,2.054.577,4.341,4.341,0,0,0,1.947-.574.535.535,0,1,1,.562.91A5.351,5.351,0,0,1,100.535,217.269Z" transform="translate(-97.669 -215.545)" fill="#e2876c"/>
                    </g>
                    <path id="Trazado_18001" data-name="Trazado 18001" d="M115.022,193.684c.4-2.207.8-5.055.513-6.514-.521-2.584-2.66-4.1-1.947-6.593s-1.92-5.178-3.861-5.622-6.467.516-10.926-1.6c-4.256-2.024-11.655-.576-12.862,2.155-1.458,3.307.527,3.62-3.454,7.2-1.586,1.427.3,5.128.564,7.536a16.121,16.121,0,0,1,.1,2.839l-.016.6H78.362c-.525-3.734-.825-7.852-.989-11.3a11.721,11.721,0,0,1,7.508-11.5c6.807-2.616,17.14-4.69,26.941.866a11.754,11.754,0,0,1,5.962,10.005,85.245,85.245,0,0,1-.578,11.921Z" transform="translate(-72.677 -154.181)" fill="#323361"/>
                    <g id="Grupo_7034" data-name="Grupo 7034" transform="translate(0.149 33.594)">
                      <path id="Trazado_18002" data-name="Trazado 18002" d="M79.962,197.951a19.921,19.921,0,0,0-.291-3.72c-.3-1.678-.784-3.2-2.5-3.9a2.933,2.933,0,0,0-3.908.984c-2.586,3.835.295,15.767,6.626,13Z" transform="translate(-72.314 -189.982)" fill="#e7a592"/>
                      <g id="Grupo_7030" data-name="Grupo 7030" transform="translate(2.083 3.644)">
                        <g id="Grupo_7029" data-name="Grupo 7029">
                          <g id="Grupo_7028" data-name="Grupo 7028">
                            <path id="Trazado_18003" data-name="Trazado 18003" d="M78.9,201.252a.535.535,0,0,1-.429-.484c-.279-3.621-3.552-5.719-3.586-5.74a.535.535,0,0,1,.567-.907,9.213,9.213,0,0,1,4.085,6.566.536.536,0,0,1-.492.575A.558.558,0,0,1,78.9,201.252Z" transform="translate(-74.633 -194.039)" fill="#e2876c"/>
                          </g>
                        </g>
                      </g>
                      <g id="Grupo_7033" data-name="Grupo 7033" transform="translate(2.677 6.309)">
                        <g id="Grupo_7032" data-name="Grupo 7032">
                          <g id="Grupo_7031" data-name="Grupo 7031">
                            <path id="Trazado_18004" data-name="Trazado 18004" d="M75.723,199.11a.535.535,0,0,1-.279-.9,4.873,4.873,0,0,1,2.286-1.195.535.535,0,1,1,.237,1.044,3.874,3.874,0,0,0-1.755.895A.535.535,0,0,1,75.723,199.11Z" transform="translate(-75.294 -197.005)" fill="#e2876c"/>
                          </g>
                        </g>
                      </g>
                    </g>
                  </g>
                  <g id="Grupo_7038" data-name="Grupo 7038" transform="translate(9.043 185.806)">
                    <g id="Grupo_7037" data-name="Grupo 7037" transform="translate(68.549 118.347)">
                      <path id="Trazado_18005" data-name="Trazado 18005" d="M151.558,491.127,151.08,505s3.428,2.541,10.521,1.278l2.9-14.919Z" transform="translate(-148.403 -491.127)" fill="#e7a592"/>
                      <g id="Grupo_7036" data-name="Grupo 7036" transform="translate(0 10.108)">
                        <path id="Trazado_18006" data-name="Trazado 18006" d="M159.791,505.611s2.416-3.344,4.375-3.231,17.224,11.9,22.41,12.814,4.928,7.365,2.891,8.1c-2.321.836-40.658.117-40.658.117s-1.457-13.64-.193-17.327S155.76,506.538,159.791,505.611Z" transform="translate(-148.101 -502.378)" fill="#eaa928"/>
                      </g>
                    </g>
                    <path id="Trazado_18007" data-name="Trazado 18007" d="M72.53,360.8s97.25-7.4,106.721,11.812c6.378,12.938-21.467,108.865-21.467,108.865-5.608,1.747-13.4-.686-16.446-3.731,0,0-2.858-6.946,1.691-45.552.6-5.13-4.962-13.641.5-34.367H92.7c-13.231,0-22.143-18.333-20.753-31.49Z" transform="translate(-71.802 -359.402)" fill="#323361"/>
                  </g>
                  <g id="Grupo_7039" data-name="Grupo 7039" transform="translate(28.946 75.071)">
                    <path id="Trazado_18008" data-name="Trazado 18008" d="M121.7,317.507l-7.456,20.421-13.453-19.412-1.086-62.124-.024-3,3.562-.635.643,4.024Z" transform="translate(-94.537 -237.835)" fill="#fff"/>
                    <path id="Trazado_18009" data-name="Trazado 18009" d="M103.888,256.779l-1.644,2.205-2.537-2.592-.024-3,3.562-.635Z" transform="translate(-94.537 -237.835)" fill="#d2dfed" opacity="0.6"/>
                    <path id="Trazado_18010" data-name="Trazado 18010" d="M93.955,247.727l7.121,7.044,5.017-7.2-5.864-11.419Z" transform="translate(-93.955 -236.149)" fill="#fff"/>
                  </g>
                  <path id="Trazado_18011" data-name="Trazado 18011" d="M89.89,224.875l-2.751,2.039a20.619,20.619,0,0,0-1.66,1.4c-1.584,1.5-2.128,2.524-1.608,5.057a6.033,6.033,0,0,0,.284,1h0l4.8,19.51L99.185,235S92.288,233.655,89.89,224.875Z" transform="translate(-63.965 -159.933)" fill="#e08820"/>
                  <path id="Trazado_18012" data-name="Trazado 18012" d="M108.114,224.875s6.818,6.6,5.471,12.671L108.838,250.2,100.938,235S107.076,232.884,108.114,224.875Z" transform="translate(-65.718 -159.933)" fill="#e08820"/>
                </g>
                <g id="Grupo_7042" data-name="Grupo 7042" transform="translate(0 76.065)">
                  <g id="Grupo_7041" data-name="Grupo 7041">
                    <path id="Trazado_18013" data-name="Trazado 18013" d="M68.638,237.255c7.819,11.851,37.746,52.827,44.5,57.587,8.79,6.2,36.349,17.829,50.684,23.761,2.586,1.07-7.006,12.389-7.006,12.389s-37.073-9.428-52.177-19.069c-4.272-2.727-22.042-20.528-33.372-36.317-3.88-5.409-10.195-12.921-11.108-20.911C59.107,245.5,62,240.577,68.638,237.255Z" transform="translate(-59.947 -237.255)" fill="#e08820"/>
                  </g>
                </g>
              </g>
            </g>
            <g id="Grupo_7051" data-name="Grupo 7051" transform="translate(12.784 108.914)">
              <g id="Grupo_7048" data-name="Grupo 7048" transform="translate(0 64.652)">
                <g id="Grupo_7045" data-name="Grupo 7045" transform="translate(213.353 10.584)">
                  <path id="Trazado_18014" data-name="Trazado 18014" d="M341.972,509.281,294.88,362.519a3.8,3.8,0,1,1,7.236-2.322l47.837,149.084Z" transform="translate(-294.697 -357.557)" fill="#323361"/>
                </g>
                <g id="Grupo_7047" data-name="Grupo 7047" transform="translate(0 10.584)">
                  <g id="Grupo_7046" data-name="Grupo 7046">
                    <path id="Trazado_18015" data-name="Trazado 18015" d="M65.207,509.281H57.226L105.063,360.2a3.8,3.8,0,1,1,7.236,2.322Z" transform="translate(-57.226 -357.557)" fill="#323361"/>
                  </g>
                </g>
                <path id="Trazado_18016" data-name="Trazado 18016" d="M73.269,360.015H319.433a7.119,7.119,0,0,0,7.118-7.119h0a7.118,7.118,0,0,0-7.118-7.118H73.269a7.118,7.118,0,0,0-7.118,7.118h0A7.119,7.119,0,0,0,73.269,360.015Z" transform="translate(-58.132 -345.777)" fill="#3d4f7c"/>
              </g>
              <g id="Grupo_7049" data-name="Grupo 7049" transform="translate(54.107)">
                <rect id="Rectángulo_1188" data-name="Rectángulo 1188" width="76.344" height="9.949" rx="4.167" transform="translate(76.344 64.652) rotate(180)" fill="#3149b9"/>
                <path id="Trazado_18017" data-name="Trazado 18017" d="M219.492,338.469l15.534-58.176a5.146,5.146,0,0,0-4.972-6.473H195.872a5.147,5.147,0,0,0-4.955,3.755l-17.105,60.894Z" transform="translate(-123.174 -273.817)" fill="#4071c9"/>
                <path id="Trazado_18018" data-name="Trazado 18018" d="M190.49,277.575l-16.963,60.393H169.62l16.963-60.393a5.153,5.153,0,0,1,4.957-3.758h3.906A5.153,5.153,0,0,0,190.49,277.575Z" transform="translate(-122.748 -273.817)" fill="#3149b9"/>
                <path id="Trazado_18019" data-name="Trazado 18019" d="M202.61,311.912c-.889,3.838,1.5,6.949,5.339,6.949a9.275,9.275,0,0,0,8.556-6.949c.888-3.836-1.5-6.948-5.34-6.948A9.276,9.276,0,0,0,202.61,311.912Z" transform="translate(-126.08 -276.98)" fill="#5290fb"/>
              </g>
              <g id="Grupo_7050" data-name="Grupo 7050" transform="translate(156.012 22.981)">
                <path id="Trazado_18020" data-name="Trazado 18020" d="M303.605,303.751l-10.04,35.357a2.7,2.7,0,0,1-2.67,1.959H234.461a3.6,3.6,0,0,1-3.474-4.354l10.04-35.358a2.7,2.7,0,0,1,2.67-1.959h56.434A3.6,3.6,0,0,1,303.605,303.751Z" transform="translate(-230.874 -299.396)" fill="#3149b9"/>
                <path id="Trazado_18021" data-name="Trazado 18021" d="M304.338,303.751,294.3,339.108a2.7,2.7,0,0,1-2.67,1.959H241.675a3.6,3.6,0,0,1-3.469-4.354l10.04-35.358a2.7,2.7,0,0,1,2.67-1.959h49.948A3.6,3.6,0,0,1,304.338,303.751Z" transform="translate(-231.607 -299.396)" fill="#4071c9"/>
                <path id="Trazado_18022" data-name="Trazado 18022" d="M270.646,322.816a6.034,6.034,0,0,0,6.111,6.827,7.768,7.768,0,0,0,7.543-6.827,6.034,6.034,0,0,0-6.11-6.827A7.769,7.769,0,0,0,270.646,322.816Z" transform="translate(-234.909 -301.081)" fill="#5290fb"/>
              </g>
            </g>
          </g>
        </g>
      </g>
      <g id="Grupo_7060" data-name="Grupo 7060" transform="translate(258.785 221.728)">
        <g id="Grupo_7058" data-name="Grupo 7058">
          <g id="Grupo_7055" data-name="Grupo 7055" transform="translate(15.405)">
            <path id="Trazado_18023" data-name="Trazado 18023" d="M318.491,249.748c-8.065-8.214-14.065,2.218-13.228,12.69.8,9.928,9.353,43.991,7.766,58.322h3.277C324.322,302.384,328.817,260.26,318.491,249.748Z" transform="translate(-305.185 -246.793)" fill="#7f8d9e" fill-rule="evenodd"/>
            <path id="Trazado_18024" data-name="Trazado 18024" d="M315.88,321.265c7.8-28.964-2.075-69-2.108-69.137a.463.463,0,0,0-.9.219c.032.136,9.922,40.218,2.06,68.918Z" transform="translate(-305.964 -247.299)" fill="#98a4b4" fill-rule="evenodd"/>
          </g>
          <g id="Grupo_7056" data-name="Grupo 7056" transform="translate(0 19.918)">
            <path id="Trazado_18025" data-name="Trazado 18025" d="M296.853,270.1c-8.5-4.5-10.642,5.323-7.329,13.451,2.747,6.736,14.877,26.661,19.464,39.464h4.321C313.675,305.319,306.886,275.412,296.853,270.1Z" transform="translate(-288.039 -268.963)" fill="#ced6d7" fill-rule="evenodd"/>
            <path id="Trazado_18026" data-name="Trazado 18026" d="M312.2,323.444c-2.811-23.928-18.724-49.938-18.782-50.031a.387.387,0,0,0-.662.4c.057.094,15.868,25.935,18.676,49.631Z" transform="translate(-288.512 -269.396)" fill="#e7ecec" fill-rule="evenodd"/>
          </g>
          <g id="Grupo_7057" data-name="Grupo 7057" transform="translate(26.351 31.611)">
            <path id="Trazado_18027" data-name="Trazado 18027" d="M335.753,282.776c8.237-3.6,9.543,5.708,5.884,13.05-2.477,4.968-11.4,17.688-17.409,28.507h-6.859C319.715,307.963,327.238,286.494,335.753,282.776Z" transform="translate(-317.369 -281.977)" fill="#e7ecec" fill-rule="evenodd"/>
            <path id="Trazado_18028" data-name="Trazado 18028" d="M320.1,324.741c5.848-19.831,19.317-38.521,19.371-38.6a.362.362,0,0,1,.589.421c-.053.075-13.38,18.57-19.215,38.176Z" transform="translate(-317.646 -282.385)" fill="#ced6d7" fill-rule="evenodd"/>
          </g>
        </g>
        <g id="Grupo_7059" data-name="Grupo 7059" transform="translate(14.484 67.419)">
          <rect id="Rectángulo_1189" data-name="Rectángulo 1189" width="26.759" height="8.583" rx="1.461" fill="#33385c"/>
          <path id="Trazado_18029" data-name="Trazado 18029" d="M309.761,327.228h15.855l4.14,3.736-3.382,13.027H309l-3.382-13.027Z" transform="translate(-304.309 -322.381)" fill="#33385c" fill-rule="evenodd"/>
          <path id="Trazado_18030" data-name="Trazado 18030" d="M329.756,331.387l-.7,2.677H306.317l-.7-2.677Z" transform="translate(-304.309 -322.804)" fill="#151d3d" fill-rule="evenodd"/>
        </g>
      </g>
      <rect id="Rectángulo_1190" data-name="Rectángulo 1190" width="920" height="47.376" transform="translate(0 470.123)" fill="#030822"/>
    </g>
    <g id="Grupo_7062" data-name="Grupo 7062" transform="translate(446.523 58.867)">
      <rect id="Rectángulo_1191" data-name="Rectángulo 1191" width="329.727" height="44.023" fill="#8d6e63"/>
      <text id="Resolución_0187_de_2006" data-name="Resolución 0187 de 2006" transform="translate(156.414 27.729)" fill="#fff" font-size="23" font-family="Montserrat-Bold, Montserrat" font-weight="700"><tspan x="-145.038" y="0">Resolución 0187 de 2006</tspan></text>
    </g>
    <g id="Grupo_7063" data-name="Grupo 7063" transform="translate(676.54 140.777)">
      <rect id="Rectángulo_618" data-name="Rectángulo 618" width="130.872" height="30.994" fill="#80cbc4"/>
      <path id="Polígono_3" data-name="Polígono 3" d="M824.195,203.346l-14.661-12.158h29.321Z" transform="translate(-758.759 -160.194)" fill="#67a39e"/>
      <rect id="Rectángulo_618-2" data-name="Rectángulo 618" width="130.872" height="30.994" transform="translate(0 43.152)" fill="#80cbc4"/>
      <path id="Polígono_3-2" data-name="Polígono 3" d="M824.195,251.376l-14.661-12.158h29.321Z" transform="translate(-758.759 -165.072)" fill="#67a39e"/>
      <rect id="Rectángulo_618-3" data-name="Rectángulo 618" width="130.872" height="30.994" transform="translate(0 86.304)" fill="#80cbc4"/>
      <path id="Polígono_3-3" data-name="Polígono 3" d="M824.195,299.406l-14.661-12.158h29.321Z" transform="translate(-758.759 -169.95)" fill="#67a39e"/>
      <rect id="Rectángulo_618-4" data-name="Rectángulo 618" width="130.872" height="30.994" transform="translate(0 129.455)" fill="#80cbc4"/>
      <path id="Polígono_3-4" data-name="Polígono 3" d="M824.195,347.436l-14.661-12.158h29.321Z" transform="translate(-758.759 -174.828)" fill="#67a39e"/>
      <rect id="Rectángulo_618-5" data-name="Rectángulo 618" width="130.872" height="30.994" transform="translate(0 172.607)" fill="#80cbc4"/>
      <path id="Polígono_3-5" data-name="Polígono 3" d="M824.195,395.466l-14.661-12.158h29.321Z" transform="translate(-758.759 -179.706)" fill="#67a39e"/>
      <rect id="Rectángulo_618-6" data-name="Rectángulo 618" width="130.872" height="30.994" transform="translate(0 215.759)" fill="#80cbc4"/>
      <path id="Polígono_3-6" data-name="Polígono 3" d="M824.195,443.5l-14.661-12.158h29.321Z" transform="translate(-758.759 -184.584)" fill="#67a39e"/>
      <rect id="Rectángulo_618-7" data-name="Rectángulo 618" width="130.872" height="30.994" transform="translate(0 258.911)" fill="#80cbc4"/>
      <text id="Producción_" data-name="Producción " transform="translate(58.396 16.973)" fill="#00223d" font-size="9" font-family="Montserrat-Bold, Montserrat" font-weight="700"><tspan x="-27.189" y="0">Producción </tspan></text>
      <text id="Procesamiento" transform="translate(57.412 60.125)" fill="#00223d" font-size="9" font-family="Montserrat-Bold, Montserrat" font-weight="700"><tspan x="-34.425" y="0">Procesamiento</tspan></text>
      <text id="Etiquetado" transform="translate(59.091 103.276)" fill="#00223d" font-size="9" font-family="Montserrat-Bold, Montserrat" font-weight="700"><tspan x="-25.402" y="0">Etiquetado</tspan></text>
      <text id="Almacenamiento" transform="translate(56.123 146.427)" fill="#00223d" font-size="9" font-family="Montserrat-Bold, Montserrat" font-weight="700"><tspan x="-38.943" y="0">Almacenamiento</tspan></text>
      <text id="Certificación" transform="translate(57.701 189.474)" fill="#00223d" font-size="9" font-family="Montserrat-Bold, Montserrat" font-weight="700"><tspan x="-29.358" y="0">Certificación</tspan></text>
      <text id="Importación" transform="translate(58.498 232.732)" fill="#00223d" font-size="9" font-family="Montserrat-Bold, Montserrat" font-weight="700"><tspan x="-28.044" y="0">Importación</tspan></text>
      <text id="Sistemas_de_control" data-name="Sistemas de
control" transform="translate(58.396 268.946)" fill="#00223d" font-size="9" font-family="Montserrat-Bold, Montserrat" font-weight="700"><tspan x="-27.67" y="0">Sistemas de</tspan><tspan x="-16.366" y="11">control</tspan></text>
    </g>
    <text id="Establece_el_reglamento_para_los_productos_agropecuarios_ecológicos_el_cual_tiene_en_cuenta_los_siguientes_aspectos:" data-name="Establece el reglamento para los productos agropecuarios ecológicos, el cual tiene en cuenta los siguientes aspectos:" transform="translate(415.361 138.712)" font-size="17" font-family="MyriadPro-Regular, Myriad Pro"><tspan x="0" y="13">Establece el reglamento para </tspan><tspan x="0" y="33.4">los productos agropecuarios </tspan><tspan x="0" y="53.8">ecológicos, el cual tiene en </tspan><tspan x="0" y="74.2">cuenta los siguientes aspectos:</tspan></text>
  </g>
</svg>
