<svg xmlns="http://www.w3.org/2000/svg" xmlns:xlink="http://www.w3.org/1999/xlink" width="914" height="514.125" viewBox="0 0 914 514.125">
  <defs>
    <linearGradient id="linear-gradient" y1="0.5" x2="1" y2="0.5" gradientUnits="objectBoundingBox">
      <stop offset="0" stop-color="#f3c9c7" stop-opacity="0"/>
      <stop offset="1" stop-color="#f3c9c7"/>
    </linearGradient>
  </defs>
  <g id="Grupo_7202" data-name="Grupo 7202" transform="translate(-1044)">
    <g id="Grupo_7200" data-name="Grupo 7200" transform="translate(1044)">
      <rect id="Rectángulo_1211" data-name="Rectángulo 1211" width="914" height="513" transform="translate(0)" fill="#f3c9c7"/>
      <g id="Grupo_7136" data-name="Grupo 7136" transform="translate(0)">
        <g id="Grupo_7133" data-name="Grupo 7133">
          <path id="Trazado_18118" data-name="Trazado 18118" d="M1079.183,514.125h.387v-7.269h43.95v7.269h.387v-7.269h43.95v7.269h.388v-7.269h43.949v7.269h.388v-7.269h43.95v7.269h.387v-7.269h43.95v7.269h.388v-7.269h43.949v7.269h.387v-7.269h43.95v7.269h.388v-7.269h43.949v7.269h.388v-7.269h43.949v7.269h.388v-7.269h43.949v7.269h.388v-7.269h35.183v-.389h-13.014V493.719h13.014v-.388h-35.183V480.582h35.183v-.387h-13.014v-12.75h13.014v-.387h-35.183V454.309h35.183v-.388h-13.014V441.172h13.014v-.387h-35.183v-12.75h35.183v-.387h-13.014V414.9h13.014v-.388h-35.183V401.76h35.183v-.387h-13.014V388.624h13.014v-.387h-35.183V375.488h35.183V375.1h-13.014V362.35h13.014v-.387h-35.183V349.214h35.183v-.387h-13.014V336.078h13.014v-.387h-35.183v-12.75h35.183v-.388h-13.014V309.8h13.014v-.387h-35.183v-12.75h35.183v-.387h-13.014V283.53h13.014v-.388h-35.183V270.393h35.183v-.387h-13.014V257.257h13.014v-.388h-35.183V244.12h35.183v-.389h-13.014V230.982h13.014v-.387h-35.183v-12.75h35.183v-.387h-13.014v-12.75h13.014v-.387h-35.183V191.572h35.183v-.388h-13.014V178.435h13.014v-.387h-35.183V165.3h35.183v-.388h-13.014V152.162h13.014v-.387h-35.183v-12.75h35.183v-.388h-13.014V125.888h13.014V125.5h-35.183V112.752h35.183v-.388h-13.014V99.615h13.014v-.388h-35.183V86.478h35.183V86.09h-13.014V73.341h13.014v-.388h-35.183V60.205h35.183v-.388h-13.014V47.067h13.014v-.388h-35.183V33.93h35.183v-.387h-13.014V20.794h13.014v-.388h-35.183V7.657h35.183V7.269h-13.014V0h-.388V7.269h-43.949V0h-.388V7.269h-43.95V0h-.388V7.269H1412.1V0h-.387V7.269h-43.95V0h-.387V7.269h-43.95V0h-.388V7.269h-43.948V0h-.389V7.269h-43.949V0h-.388V7.269h-43.949V0h-.388V7.269h-43.949V0h-.389V7.269H1101.74V0h-.388V7.269H1057.4V0h-.387V7.269H1044v.388h35.183V20.406H1044v.388h13.015V33.543H1044v.387h35.183V46.679H1044v.388h13.015v12.75H1044v.388h35.183V72.953H1044v.388h13.015V86.09H1044v.388h35.183V99.227H1044v.388h13.015v12.749H1044v.388h35.183V125.5H1044v.387h13.015v12.749H1044v.388h35.183v12.75H1044v.387h13.015v12.749H1044v.388h35.183v12.749H1044v.387h13.015v12.749H1044v.388h35.183v12.749H1044v.387h13.015v12.75H1044v.387h35.183v12.75H1044v.387h13.015v12.749H1044v.389h35.183v12.749H1044v.388h13.015v12.749H1044v.387h35.183v12.749H1044v.388h13.015v12.749H1044v.387h35.183v12.75H1044v.387h13.015v12.75H1044v.388h35.183v12.75H1044v.387h13.015v12.749H1044v.387h35.183v12.749H1044v.387h13.015V375.1H1044v.387h35.183v12.749H1044v.387h13.015v12.749H1044v.387h35.183v12.75H1044v.388h13.015v12.75H1044v.387h35.183v12.75H1044v.387h13.015v12.749H1044v.388h35.183v12.749H1044v.387h13.015v12.75H1044v.387h35.183v12.749H1044v.388h13.015v12.748H1044v.389h35.183v7.269ZM1057.4,493.719h43.95v12.748H1057.4V493.719Zm44.338,0h43.948v12.748H1101.74V493.719Zm44.337,0h43.949v12.748h-43.949V493.719Zm44.337,0h43.949v12.748h-43.949V493.719Zm44.337,0H1278.7v12.748h-43.949V493.719Zm44.338,0h43.948v12.748h-43.948V493.719Zm44.336,0h43.95v12.748h-43.95V493.719Zm44.337,0h43.95v12.748h-43.95V493.719Zm44.337,0h43.949v12.748H1412.1V493.719Zm44.337,0h43.95v12.748h-43.95V493.719Zm44.338,0h43.949v12.748h-43.949V493.719Zm-421.2-13.137h43.95v12.749h-43.95V480.582Zm44.337,0h43.95v12.749h-43.95V480.582Zm44.338,0h43.949v12.749h-43.949V480.582Zm44.337,0h43.95v12.749h-43.95V480.582Zm44.337,0h43.95v12.749h-43.95V480.582Zm44.338,0h43.949v12.749h-43.949V480.582Zm44.336,0h43.95v12.749h-43.95V480.582Zm44.338,0h43.949v12.749h-43.949V480.582Zm44.337,0h43.949v12.749h-43.949V480.582Zm44.337,0h43.949v12.749h-43.949V480.582Zm-421.2-13.137h43.95v12.75H1057.4v-12.75Zm44.338,0h43.948v12.75H1101.74v-12.75Zm44.337,0h43.949v12.75h-43.949v-12.75Zm44.337,0h43.949v12.75h-43.949v-12.75Zm44.337,0H1278.7v12.75h-43.949v-12.75Zm44.338,0h43.948v12.75h-43.948v-12.75Zm44.336,0h43.95v12.75h-43.95v-12.75Zm44.337,0h43.95v12.75h-43.95v-12.75Zm44.337,0h43.949v12.75H1412.1v-12.75Zm44.337,0h43.95v12.75h-43.95v-12.75Zm44.338,0h43.949v12.75h-43.949v-12.75Zm-421.2-13.136h43.95v12.749h-43.95V454.309Zm44.337,0h43.95v12.749h-43.95V454.309Zm44.338,0h43.949v12.749h-43.949V454.309Zm44.337,0h43.95v12.749h-43.95V454.309Zm44.337,0h43.95v12.749h-43.95V454.309Zm44.338,0h43.949v12.749h-43.949V454.309Zm44.336,0h43.95v12.749h-43.95V454.309Zm44.338,0h43.949v12.749h-43.949V454.309Zm44.337,0h43.949v12.749h-43.949V454.309Zm44.337,0h43.949v12.749h-43.949V454.309Zm-421.2-13.137h43.95v12.749H1057.4V441.172Zm44.338,0h43.948v12.749H1101.74V441.172Zm44.337,0h43.949v12.749h-43.949V441.172Zm44.337,0h43.949v12.749h-43.949V441.172Zm44.337,0H1278.7v12.749h-43.949V441.172Zm44.338,0h43.948v12.749h-43.948V441.172Zm44.336,0h43.95v12.749h-43.95V441.172Zm44.337,0h43.95v12.749h-43.95V441.172Zm44.337,0h43.949v12.749H1412.1V441.172Zm44.337,0h43.95v12.749h-43.95V441.172Zm44.338,0h43.949v12.749h-43.949V441.172Zm-421.2-13.137h43.95v12.75h-43.95v-12.75Zm44.337,0h43.95v12.75h-43.95v-12.75Zm44.338,0h43.949v12.75h-43.949v-12.75Zm44.337,0h43.95v12.75h-43.95v-12.75Zm44.337,0h43.95v12.75h-43.95v-12.75Zm44.338,0h43.949v12.75h-43.949v-12.75Zm44.336,0h43.95v12.75h-43.95v-12.75Zm44.338,0h43.949v12.75h-43.949v-12.75Zm44.337,0h43.949v12.75h-43.949v-12.75Zm44.337,0h43.949v12.75h-43.949v-12.75ZM1057.4,414.9h43.95v12.75H1057.4V414.9Zm44.338,0h43.948v12.75H1101.74V414.9Zm44.337,0h43.949v12.75h-43.949V414.9Zm44.337,0h43.949v12.75h-43.949V414.9Zm44.337,0H1278.7v12.75h-43.949V414.9Zm44.338,0h43.948v12.75h-43.948V414.9Zm44.336,0h43.95v12.75h-43.95V414.9Zm44.337,0h43.95v12.75h-43.95V414.9Zm44.337,0h43.949v12.75H1412.1V414.9Zm44.337,0h43.95v12.75h-43.95V414.9Zm44.338,0h43.949v12.75h-43.949V414.9Zm-421.2-13.138h43.95v12.75h-43.95V401.76Zm44.337,0h43.95v12.75h-43.95V401.76Zm44.338,0h43.949v12.75h-43.949V401.76Zm44.337,0h43.95v12.75h-43.95V401.76Zm44.337,0h43.95v12.75h-43.95V401.76Zm44.338,0h43.949v12.75h-43.949V401.76Zm44.336,0h43.95v12.75h-43.95V401.76Zm44.338,0h43.949v12.75h-43.949V401.76Zm44.337,0h43.949v12.75h-43.949V401.76Zm44.337,0h43.949v12.75h-43.949V401.76Zm-421.2-13.136h43.95v12.749H1057.4V388.624Zm44.338,0h43.948v12.749H1101.74V388.624Zm44.337,0h43.949v12.749h-43.949V388.624Zm44.337,0h43.949v12.749h-43.949V388.624Zm44.337,0H1278.7v12.749h-43.949V388.624Zm44.338,0h43.948v12.749h-43.948V388.624Zm44.336,0h43.95v12.749h-43.95V388.624Zm44.337,0h43.95v12.749h-43.95V388.624Zm44.337,0h43.949v12.749H1412.1V388.624Zm44.337,0h43.95v12.749h-43.95V388.624Zm44.338,0h43.949v12.749h-43.949V388.624Zm-421.2-13.136h43.95v12.749h-43.95V375.488Zm44.337,0h43.95v12.749h-43.95V375.488Zm44.338,0h43.949v12.749h-43.949V375.488Zm44.337,0h43.95v12.749h-43.95V375.488Zm44.337,0h43.95v12.749h-43.95V375.488Zm44.338,0h43.949v12.749h-43.949V375.488Zm44.336,0h43.95v12.749h-43.95V375.488Zm44.338,0h43.949v12.749h-43.949V375.488Zm44.337,0h43.949v12.749h-43.949V375.488Zm44.337,0h43.949v12.749h-43.949V375.488ZM1057.4,362.35h43.95V375.1H1057.4V362.35Zm44.338,0h43.948V375.1H1101.74V362.35Zm44.337,0h43.949V375.1h-43.949V362.35Zm44.337,0h43.949V375.1h-43.949V362.35Zm44.337,0H1278.7V375.1h-43.949V362.35Zm44.338,0h43.948V375.1h-43.948V362.35Zm44.336,0h43.95V375.1h-43.95V362.35Zm44.337,0h43.95V375.1h-43.95V362.35Zm44.337,0h43.949V375.1H1412.1V362.35Zm44.337,0h43.95V375.1h-43.95V362.35Zm44.338,0h43.949V375.1h-43.949V362.35Zm-421.2-13.136h43.95v12.749h-43.95V349.214Zm44.337,0h43.95v12.749h-43.95V349.214Zm44.338,0h43.949v12.749h-43.949V349.214Zm44.337,0h43.95v12.749h-43.95V349.214Zm44.337,0h43.95v12.749h-43.95V349.214Zm44.338,0h43.949v12.749h-43.949V349.214Zm44.336,0h43.95v12.749h-43.95V349.214Zm44.338,0h43.949v12.749h-43.949V349.214Zm44.337,0h43.949v12.749h-43.949V349.214Zm44.337,0h43.949v12.749h-43.949V349.214Zm-421.2-13.136h43.95v12.749H1057.4V336.078Zm44.338,0h43.948v12.749H1101.74V336.078Zm44.337,0h43.949v12.749h-43.949V336.078Zm44.337,0h43.949v12.749h-43.949V336.078Zm44.337,0H1278.7v12.749h-43.949V336.078Zm44.338,0h43.948v12.749h-43.948V336.078Zm44.336,0h43.95v12.749h-43.95V336.078Zm44.337,0h43.95v12.749h-43.95V336.078Zm44.337,0h43.949v12.749H1412.1V336.078Zm44.337,0h43.95v12.749h-43.95V336.078Zm44.338,0h43.949v12.749h-43.949V336.078Zm-421.2-13.137h43.95v12.75h-43.95v-12.75Zm44.337,0h43.95v12.75h-43.95v-12.75Zm44.338,0h43.949v12.75h-43.949v-12.75Zm44.337,0h43.95v12.75h-43.95v-12.75Zm44.337,0h43.95v12.75h-43.95v-12.75Zm44.338,0h43.949v12.75h-43.949v-12.75Zm44.336,0h43.95v12.75h-43.95v-12.75Zm44.338,0h43.949v12.75h-43.949v-12.75Zm44.337,0h43.949v12.75h-43.949v-12.75Zm44.337,0h43.949v12.75h-43.949v-12.75ZM1057.4,309.8h43.95v12.75H1057.4V309.8Zm44.338,0h43.948v12.75H1101.74V309.8Zm44.337,0h43.949v12.75h-43.949V309.8Zm44.337,0h43.949v12.75h-43.949V309.8Zm44.337,0H1278.7v12.75h-43.949V309.8Zm44.338,0h43.948v12.75h-43.948V309.8Zm44.336,0h43.95v12.75h-43.95V309.8Zm44.337,0h43.95v12.75h-43.95V309.8Zm44.337,0h43.949v12.75H1412.1V309.8Zm44.337,0h43.95v12.75h-43.95V309.8Zm44.338,0h43.949v12.75h-43.949V309.8Zm-421.2-13.137h43.95v12.75h-43.95v-12.75Zm44.337,0h43.95v12.75h-43.95v-12.75Zm44.338,0h43.949v12.75h-43.949v-12.75Zm44.337,0h43.95v12.75h-43.95v-12.75Zm44.337,0h43.95v12.75h-43.95v-12.75Zm44.338,0h43.949v12.75h-43.949v-12.75Zm44.336,0h43.95v12.75h-43.95v-12.75Zm44.338,0h43.949v12.75h-43.949v-12.75Zm44.337,0h43.949v12.75h-43.949v-12.75Zm44.337,0h43.949v12.75h-43.949v-12.75ZM1057.4,283.53h43.95v12.749H1057.4V283.53Zm44.338,0h43.948v12.749H1101.74V283.53Zm44.337,0h43.949v12.749h-43.949V283.53Zm44.337,0h43.949v12.749h-43.949V283.53Zm44.337,0H1278.7v12.749h-43.949V283.53Zm44.338,0h43.948v12.749h-43.948V283.53Zm44.336,0h43.95v12.749h-43.95V283.53Zm44.337,0h43.95v12.749h-43.95V283.53Zm44.337,0h43.949v12.749H1412.1V283.53Zm44.337,0h43.95v12.749h-43.95V283.53Zm44.338,0h43.949v12.749h-43.949V283.53Zm-421.2-13.137h43.95v12.749h-43.95V270.393Zm44.337,0h43.95v12.749h-43.95V270.393Zm44.338,0h43.949v12.749h-43.949V270.393Zm44.337,0h43.95v12.749h-43.95V270.393Zm44.337,0h43.95v12.749h-43.95V270.393Zm44.338,0h43.949v12.749h-43.949V270.393Zm44.336,0h43.95v12.749h-43.95V270.393Zm44.338,0h43.949v12.749h-43.949V270.393Zm44.337,0h43.949v12.749h-43.949V270.393Zm44.337,0h43.949v12.749h-43.949V270.393Zm-421.2-13.136h43.95v12.749H1057.4V257.257Zm44.338,0h43.948v12.749H1101.74V257.257Zm44.337,0h43.949v12.749h-43.949V257.257Zm44.337,0h43.949v12.749h-43.949V257.257Zm44.337,0H1278.7v12.749h-43.949V257.257Zm44.338,0h43.948v12.749h-43.948V257.257Zm44.336,0h43.95v12.749h-43.95V257.257Zm44.337,0h43.95v12.749h-43.95V257.257Zm44.337,0h43.949v12.749H1412.1V257.257Zm44.337,0h43.95v12.749h-43.95V257.257Zm44.338,0h43.949v12.749h-43.949V257.257Zm-421.2-13.137h43.95v12.749h-43.95V244.12Zm44.337,0h43.95v12.749h-43.95V244.12Zm44.338,0h43.949v12.749h-43.949V244.12Zm44.337,0h43.95v12.749h-43.95V244.12Zm44.337,0h43.95v12.749h-43.95V244.12Zm44.338,0h43.949v12.749h-43.949V244.12Zm44.336,0h43.95v12.749h-43.95V244.12Zm44.338,0h43.949v12.749h-43.949V244.12Zm44.337,0h43.949v12.749h-43.949V244.12Zm44.337,0h43.949v12.749h-43.949V244.12Zm-421.2-13.138h43.95v12.749H1057.4V230.982Zm44.338,0h43.948v12.749H1101.74V230.982Zm44.337,0h43.949v12.749h-43.949V230.982Zm44.337,0h43.949v12.749h-43.949V230.982Zm44.337,0H1278.7v12.749h-43.949V230.982Zm44.338,0h43.948v12.749h-43.948V230.982Zm44.336,0h43.95v12.749h-43.95V230.982Zm44.337,0h43.95v12.749h-43.95V230.982Zm44.337,0h43.949v12.749H1412.1V230.982Zm44.337,0h43.95v12.749h-43.95V230.982Zm44.338,0h43.949v12.749h-43.949V230.982Zm-421.2-13.137h43.95v12.75h-43.95v-12.75Zm44.337,0h43.95v12.75h-43.95v-12.75Zm44.338,0h43.949v12.75h-43.949v-12.75Zm44.337,0h43.95v12.75h-43.95v-12.75Zm44.337,0h43.95v12.75h-43.95v-12.75Zm44.338,0h43.949v12.75h-43.949v-12.75Zm44.336,0h43.95v12.75h-43.95v-12.75Zm44.338,0h43.949v12.75h-43.949v-12.75Zm44.337,0h43.949v12.75h-43.949v-12.75Zm44.337,0h43.949v12.75h-43.949v-12.75Zm-421.2-13.137h43.95v12.75H1057.4v-12.75Zm44.338,0h43.948v12.75H1101.74v-12.75Zm44.337,0h43.949v12.75h-43.949v-12.75Zm44.337,0h43.949v12.75h-43.949v-12.75Zm44.337,0H1278.7v12.75h-43.949v-12.75Zm44.338,0h43.948v12.75h-43.948v-12.75Zm44.336,0h43.95v12.75h-43.95v-12.75Zm44.337,0h43.95v12.75h-43.95v-12.75Zm44.337,0h43.949v12.75H1412.1v-12.75Zm44.337,0h43.95v12.75h-43.95v-12.75Zm44.338,0h43.949v12.75h-43.949v-12.75Zm-421.2-13.136h43.95v12.749h-43.95V191.572Zm44.337,0h43.95v12.749h-43.95V191.572Zm44.338,0h43.949v12.749h-43.949V191.572Zm44.337,0h43.95v12.749h-43.95V191.572Zm44.337,0h43.95v12.749h-43.95V191.572Zm44.338,0h43.949v12.749h-43.949V191.572Zm44.336,0h43.95v12.749h-43.95V191.572Zm44.338,0h43.949v12.749h-43.949V191.572Zm44.337,0h43.949v12.749h-43.949V191.572Zm44.337,0h43.949v12.749h-43.949V191.572Zm-421.2-13.137h43.95v12.749H1057.4V178.435Zm44.338,0h43.948v12.749H1101.74V178.435Zm44.337,0h43.949v12.749h-43.949V178.435Zm44.337,0h43.949v12.749h-43.949V178.435Zm44.337,0H1278.7v12.749h-43.949V178.435Zm44.338,0h43.948v12.749h-43.948V178.435Zm44.336,0h43.95v12.749h-43.95V178.435Zm44.337,0h43.95v12.749h-43.95V178.435Zm44.337,0h43.949v12.749H1412.1V178.435Zm44.337,0h43.95v12.749h-43.95V178.435Zm44.338,0h43.949v12.749h-43.949V178.435ZM1079.57,165.3h43.95v12.749h-43.95V165.3Zm44.337,0h43.95v12.749h-43.95V165.3Zm44.338,0h43.949v12.749h-43.949V165.3Zm44.337,0h43.95v12.749h-43.95V165.3Zm44.337,0h43.95v12.749h-43.95V165.3Zm44.338,0h43.949v12.749h-43.949V165.3Zm44.336,0h43.95v12.749h-43.95V165.3Zm44.338,0h43.949v12.749h-43.949V165.3Zm44.337,0h43.949v12.749h-43.949V165.3Zm44.337,0h43.949v12.749h-43.949V165.3Zm-421.2-13.137h43.95v12.749H1057.4V152.162Zm44.338,0h43.948v12.749H1101.74V152.162Zm44.337,0h43.949v12.749h-43.949V152.162Zm44.337,0h43.949v12.749h-43.949V152.162Zm44.337,0H1278.7v12.749h-43.949V152.162Zm44.338,0h43.948v12.749h-43.948V152.162Zm44.336,0h43.95v12.749h-43.95V152.162Zm44.337,0h43.95v12.749h-43.95V152.162Zm44.337,0h43.949v12.749H1412.1V152.162Zm44.337,0h43.95v12.749h-43.95V152.162Zm44.338,0h43.949v12.749h-43.949V152.162Zm-421.2-13.137h43.95v12.75h-43.95v-12.75Zm44.337,0h43.95v12.75h-43.95v-12.75Zm44.338,0h43.949v12.75h-43.949v-12.75Zm44.337,0h43.95v12.75h-43.95v-12.75Zm44.337,0h43.95v12.75h-43.95v-12.75Zm44.338,0h43.949v12.75h-43.949v-12.75Zm44.336,0h43.95v12.75h-43.95v-12.75Zm44.338,0h43.949v12.75h-43.949v-12.75Zm44.337,0h43.949v12.75h-43.949v-12.75Zm44.337,0h43.949v12.75h-43.949v-12.75Zm-421.2-13.137h43.95v12.749H1057.4V125.888Zm44.338,0h43.948v12.749H1101.74V125.888Zm44.337,0h43.949v12.749h-43.949V125.888Zm44.337,0h43.949v12.749h-43.949V125.888Zm44.337,0H1278.7v12.749h-43.949V125.888Zm44.338,0h43.948v12.749h-43.948V125.888Zm44.336,0h43.95v12.749h-43.95V125.888Zm44.337,0h43.95v12.749h-43.95V125.888Zm44.337,0h43.949v12.749H1412.1V125.888Zm44.337,0h43.95v12.749h-43.95V125.888Zm44.338,0h43.949v12.749h-43.949V125.888Zm-421.2-13.136h43.95V125.5h-43.95V112.752Zm44.337,0h43.95V125.5h-43.95V112.752Zm44.338,0h43.949V125.5h-43.949V112.752Zm44.337,0h43.95V125.5h-43.95V112.752Zm44.337,0h43.95V125.5h-43.95V112.752Zm44.338,0h43.949V125.5h-43.949V112.752Zm44.336,0h43.95V125.5h-43.95V112.752Zm44.338,0h43.949V125.5h-43.949V112.752Zm44.337,0h43.949V125.5h-43.949V112.752Zm44.337,0h43.949V125.5h-43.949V112.752ZM1057.4,99.615h43.95v12.749H1057.4V99.615Zm44.338,0h43.948v12.749H1101.74V99.615Zm44.337,0h43.949v12.749h-43.949V99.615Zm44.337,0h43.949v12.749h-43.949V99.615Zm44.337,0H1278.7v12.749h-43.949V99.615Zm44.338,0h43.948v12.749h-43.948V99.615Zm44.336,0h43.95v12.749h-43.95V99.615Zm44.337,0h43.95v12.749h-43.95V99.615Zm44.337,0h43.949v12.749H1412.1V99.615Zm44.337,0h43.95v12.749h-43.95V99.615Zm44.338,0h43.949v12.749h-43.949V99.615Zm-421.2-13.137h43.95V99.227h-43.95V86.478Zm44.337,0h43.95V99.227h-43.95V86.478Zm44.338,0h43.949V99.227h-43.949V86.478Zm44.337,0h43.95V99.227h-43.95V86.478Zm44.337,0h43.95V99.227h-43.95V86.478Zm44.338,0h43.949V99.227h-43.949V86.478Zm44.336,0h43.95V99.227h-43.95V86.478Zm44.338,0h43.949V99.227h-43.949V86.478Zm44.337,0h43.949V99.227h-43.949V86.478Zm44.337,0h43.949V99.227h-43.949V86.478ZM1057.4,73.341h43.95V86.09H1057.4V73.341Zm44.338,0h43.948V86.09H1101.74V73.341Zm44.337,0h43.949V86.09h-43.949V73.341Zm44.337,0h43.949V86.09h-43.949V73.341Zm44.337,0H1278.7V86.09h-43.949V73.341Zm44.338,0h43.948V86.09h-43.948V73.341Zm44.336,0h43.95V86.09h-43.95V73.341Zm44.337,0h43.95V86.09h-43.95V73.341Zm44.337,0h43.949V86.09H1412.1V73.341Zm44.337,0h43.95V86.09h-43.95V73.341Zm44.338,0h43.949V86.09h-43.949V73.341Zm-421.2-13.136h43.95V72.953h-43.95V60.205Zm44.337,0h43.95V72.953h-43.95V60.205Zm44.338,0h43.949V72.953h-43.949V60.205Zm44.337,0h43.95V72.953h-43.95V60.205Zm44.337,0h43.95V72.953h-43.95V60.205Zm44.338,0h43.949V72.953h-43.949V60.205Zm44.336,0h43.95V72.953h-43.95V60.205Zm44.338,0h43.949V72.953h-43.949V60.205Zm44.337,0h43.949V72.953h-43.949V60.205Zm44.337,0h43.949V72.953h-43.949V60.205ZM1057.4,47.067h43.95v12.75H1057.4V47.067Zm44.338,0h43.948v12.75H1101.74V47.067Zm44.337,0h43.949v12.75h-43.949V47.067Zm44.337,0h43.949v12.75h-43.949V47.067Zm44.337,0H1278.7v12.75h-43.949V47.067Zm44.338,0h43.948v12.75h-43.948V47.067Zm44.336,0h43.95v12.75h-43.95V47.067Zm44.337,0h43.95v12.75h-43.95V47.067Zm44.337,0h43.949v12.75H1412.1V47.067Zm44.337,0h43.95v12.75h-43.95V47.067Zm44.338,0h43.949v12.75h-43.949V47.067ZM1079.57,33.93h43.95V46.679h-43.95V33.93Zm44.337,0h43.95V46.679h-43.95V33.93Zm44.338,0h43.949V46.679h-43.949V33.93Zm44.337,0h43.95V46.679h-43.95V33.93Zm44.337,0h43.95V46.679h-43.95V33.93Zm44.338,0h43.949V46.679h-43.949V33.93Zm44.336,0h43.95V46.679h-43.95V33.93Zm44.338,0h43.949V46.679h-43.949V33.93Zm44.337,0h43.949V46.679h-43.949V33.93Zm44.337,0h43.949V46.679h-43.949V33.93ZM1057.4,20.794h43.95V33.543H1057.4V20.794Zm44.338,0h43.948V33.543H1101.74V20.794Zm44.337,0h43.949V33.543h-43.949V20.794Zm44.337,0h43.949V33.543h-43.949V20.794Zm44.337,0H1278.7V33.543h-43.949V20.794Zm44.338,0h43.948V33.543h-43.948V20.794Zm44.336,0h43.95V33.543h-43.95V20.794Zm44.337,0h43.95V33.543h-43.95V20.794Zm44.337,0h43.949V33.543H1412.1V20.794Zm44.337,0h43.95V33.543h-43.95V20.794Zm44.338,0h43.949V33.543h-43.949V20.794ZM1079.57,7.657h43.95V20.406h-43.95V7.657Zm44.337,0h43.95V20.406h-43.95V7.657Zm44.338,0h43.949V20.406h-43.949V7.657Zm44.337,0h43.95V20.406h-43.95V7.657Zm44.337,0h43.95V20.406h-43.95V7.657Zm44.338,0h43.949V20.406h-43.949V7.657Zm44.336,0h43.95V20.406h-43.95V7.657Zm44.338,0h43.949V20.406h-43.949V7.657Zm44.337,0h43.949V20.406h-43.949V7.657Zm44.337,0h43.949V20.406h-43.949Z" transform="translate(-1044)" fill="#e79b96" fill-rule="evenodd"/>
        </g>
        <rect id="Rectángulo_1212" data-name="Rectángulo 1212" width="2.206" height="514.125" transform="translate(251.006 0)" fill="#e79b96"/>
        <rect id="Rectángulo_1213" data-name="Rectángulo 1213" width="251.006" height="514.125" transform="translate(0 0)" fill="#e8eaf6"/>
        <rect id="Rectángulo_1214" data-name="Rectángulo 1214" width="24.624" height="514.125" transform="translate(226.383 0)" fill="#fff"/>
        <path id="Trazado_18119" data-name="Trazado 18119" d="M1251.093,427.323V407.557L1044,216.265v19.766l207.093,191.292Zm0-36.273L1044,199.757V160.225l207.093,191.292v39.532Zm0-162.768L1044,36.989V20.519l207.093,191.292v16.471Zm0-30.225V165.114L1072.34,0H1044V6.764Z" transform="translate(-1044)" fill="#f5f6fb" fill-rule="evenodd"/>
        <path id="Trazado_18120" data-name="Trazado 18120" d="M1101.463,514.125h8.272V503.653h62.406v10.472h8.272V503.653h62.407v10.472h8.272V0h-8.272V64.017h-62.407V0h-8.272V64.017h-62.406V0h-8.272V64.017H1044v6.736h57.463v64.309H1044V141.8h57.463v64.309H1044v6.737h57.463v70.936H1044v6.738h57.463v64.308H1044v6.737h57.463v64.308H1044v6.736h57.463v64.309H1044v6.736h57.463v10.472Zm8.272-253.39v-47.89h62.406v70.936h-62.406V260.735Zm70.678,0v-47.89h62.407v70.936h-62.407V260.735Zm-70.678,236.182V432.608h62.406v64.309Zm70.678,0V432.608h62.407v64.309Zm-70.678-71.046V361.564h62.406v64.308Zm70.678,0V361.564h62.407v64.308Zm-70.678-71.045V290.519h62.406v64.308Zm70.678,0V290.519h62.407v64.308Zm-70.678-148.719V141.8h62.406v64.309Zm70.678,0V141.8h62.407v64.309Zm-70.678-71.045V70.754h62.406v64.309Zm70.678,0V70.754h62.407v64.309Z" transform="translate(-1044)" fill="#c2c3e3" fill-rule="evenodd"/>
        <path id="Trazado_18121" data-name="Trazado 18121" d="M1103.921,514.125h8.272V501.8H1174.6v12.32h8.272V501.8h62.407v12.32h8.271V0h-8.271V62.168h-62.407V0H1174.6V62.168h-62.406V0h-8.272V62.168H1044v6.737h59.921v64.308H1044v6.737h59.921v64.308H1044v6.736h59.921v70.938H1044v6.736h59.921v64.309H1044v6.735h59.921v64.309H1044v6.736h59.921v64.308H1044V501.8h59.921v12.32Zm8.272-255.239V210.995H1174.6v70.938h-62.406V258.886Zm70.678,0V210.995h62.407v70.938h-62.407V258.886Zm-70.678,236.181V430.759H1174.6v64.308Zm70.678,0V430.759h62.407v64.308Zm-70.678-71.044V359.713H1174.6v64.309Zm70.678,0V359.713h62.407v64.309Zm-70.678-71.045V288.669H1174.6v64.309Zm70.678,0V288.669h62.407v64.309Zm-70.678-148.72V139.95H1174.6v64.308Zm70.678,0V139.95h62.407v64.308Zm-70.678-71.046V68.905H1174.6v64.308Zm70.678,0V68.905h62.407v64.308Z" transform="translate(-1044)" fill="#fff" fill-rule="evenodd"/>
        <rect id="Rectángulo_1215" data-name="Rectángulo 1215" width="2.206" height="514.125" transform="translate(224.176 0)" fill="#c2c3e3"/>
        <path id="Trazado_18122" data-name="Trazado 18122" d="M1044,222.536h73.019a2.753,2.753,0,0,1,2.744,2.745V465.423a18.11,18.11,0,0,0-10.027-3.023H1044Z" transform="translate(-1044 -23.905)" fill="#fdefe9" fill-rule="evenodd"/>
        <path id="Trazado_18123" data-name="Trazado 18123" d="M1121.612,279.478V471.539a18.11,18.11,0,0,0-10.027-3.023h-49.68a23.022,23.022,0,0,1-.687-5.59V302.683a23.273,23.273,0,0,1,23.2-23.205Z" transform="translate(-1045.85 -30.022)" fill="#fff" fill-rule="evenodd"/>
        <path id="Trazado_18124" data-name="Trazado 18124" d="M1044,427.858l2.152.274,18.562-2.8L1053.669,408H1044Z" transform="translate(-1044 -43.828)" fill="#3f4154" fill-rule="evenodd"/>
        <path id="Trazado_18125" data-name="Trazado 18125" d="M1262.313,302.477H1236.4a3.845,3.845,0,0,1-3.834-3.833h0a3.846,3.846,0,0,1,3.834-3.835h25.912a3.846,3.846,0,0,1,3.834,3.835h0A3.845,3.845,0,0,1,1262.313,302.477Z" transform="translate(-1064.256 -31.669)" fill="#00000f" fill-rule="evenodd"/>
        <path id="Rectángulo_1216" data-name="Rectángulo 1216" d="M2.143,0H26.257A2.144,2.144,0,0,1,28.4,2.144V8.239a2.143,2.143,0,0,1-2.143,2.143H2.143A2.143,2.143,0,0,1,0,8.239v-6.1A2.143,2.143,0,0,1,2.143,0Z" transform="translate(1.154 376.049)" fill="#fff"/>
        <rect id="Rectángulo_1217" data-name="Rectángulo 1217" width="28.4" height="10.381" rx="2.143" transform="translate(1.927 376.958)" fill="#fad0be"/>
        <rect id="Rectángulo_1218" data-name="Rectángulo 1218" width="28.4" height="10.382" rx="2.143" transform="translate(3.472 378.429)" fill="#fff"/>
        <path id="Trazado_18126" data-name="Trazado 18126" d="M1120.182,220.146H1044v28.888h76.182a7.634,7.634,0,0,0,7.613-7.612V227.758A7.634,7.634,0,0,0,1120.182,220.146Z" transform="translate(-1044 -23.648)" fill="#fff" fill-rule="evenodd"/>
        <g id="Grupo_7134" data-name="Grupo 7134" transform="translate(0 164.749)">
          <rect id="Rectángulo_1219" data-name="Rectángulo 1219" width="30.609" height="5.499" transform="translate(0 24.352)" fill="#fafcfc"/>
          <path id="Trazado_18127" data-name="Trazado 18127" d="M1069.873,212.111a1.188,1.188,0,0,1,0-2.377h42.363a4.635,4.635,0,0,1,3.278,1.364l0,0a4.647,4.647,0,0,1-3.283,7.925h-42.363a1.188,1.188,0,0,1,0-2.377h1.94a7.428,7.428,0,0,0,.934-.811,2.514,2.514,0,0,0,.874-1.875,2.879,2.879,0,0,0-1.119-1.853Z" transform="translate(-1046.652 -187.279)" fill="#ced6d7" fill-rule="evenodd"/>
          <path id="Trazado_18128" data-name="Trazado 18128" d="M1044,209.734h23.772a4.633,4.633,0,0,1,3.277,1.364l.005,0a4.647,4.647,0,0,1-3.283,7.925H1044v-2.377h23.772a2.27,2.27,0,0,0,0-4.54H1044Z" transform="translate(-1044 -187.279)" fill="#adbfc2" fill-rule="evenodd"/>
          <rect id="Rectángulo_1220" data-name="Rectángulo 1220" width="50.277" height="6.672" transform="translate(13.447 13.838)" fill="#fafcfc"/>
          <path id="Trazado_18129" data-name="Trazado 18129" d="M1066.41,200.386a1.442,1.442,0,0,0,0-2.883H1044v11.274h22.41a1.442,1.442,0,0,0,0-2.884h-2.356a9.14,9.14,0,0,1-1.134-.984,3.06,3.06,0,0,1-1.059-2.275,3.5,3.5,0,0,1,1.359-2.248Z" transform="translate(-1044 -185.966)" fill="#a7a8c9" fill-rule="evenodd"/>
          <path id="Trazado_18130" data-name="Trazado 18130" d="M1109.662,200.386a1.442,1.442,0,1,0,0-2.883h-41.983a5.622,5.622,0,0,0-3.977,1.654l-.005.005a5.638,5.638,0,0,0,3.982,9.615h41.983a1.442,1.442,0,0,0,0-2.884h-41.983a2.754,2.754,0,0,1,0-5.507Z" transform="translate(-1045.938 -185.966)" fill="#c2c3e3" fill-rule="evenodd"/>
          <rect id="Rectángulo_1221" data-name="Rectángulo 1221" width="26.338" height="6.827" transform="translate(0 2.355)" fill="#fafcfc"/>
          <path id="Trazado_18131" data-name="Trazado 18131" d="M1063.055,187.527a1.475,1.475,0,1,1,0-2.95h24.052a5.75,5.75,0,0,1,4.07,1.693l.006.005a5.769,5.769,0,0,1-4.076,9.838h-24.052a1.475,1.475,0,1,1,0-2.95h2.408a9.322,9.322,0,0,0,1.159-1.008,3.129,3.129,0,0,0,1.084-2.328,3.58,3.58,0,0,0-1.39-2.3Z" transform="translate(-1045.888 -184.577)" fill="#2c2f48" fill-rule="evenodd"/>
          <path id="Trazado_18132" data-name="Trazado 18132" d="M1044,184.577h17.85a5.749,5.749,0,0,1,4.07,1.693l0,.005a5.769,5.769,0,0,1-4.075,9.838H1044v-2.95h17.85a2.818,2.818,0,0,0,0-5.637H1044Z" transform="translate(-1044 -184.577)" fill="#3f4154" fill-rule="evenodd"/>
        </g>
        <path id="Trazado_18133" data-name="Trazado 18133" d="M1110.958,425.337l-24.9,4.856-18.85-4.856L1078.251,408H1122Z" transform="translate(-1046.493 -43.828)" fill="#575a6d" fill-rule="evenodd"/>
        <rect id="Rectángulo_1222" data-name="Rectángulo 1222" width="23.935" height="52.728" transform="translate(0 381.509)" fill="#575a6d"/>
        <rect id="Rectángulo_1223" data-name="Rectángulo 1223" width="43.752" height="52.728" transform="translate(20.714 381.509)" fill="#313448"/>
        <path id="Trazado_18134" data-name="Trazado 18134" d="M1080.644,481.5H1112.4V439.982h-24.761a7.018,7.018,0,0,0-7,7Z" transform="translate(-1047.936 -47.264)" fill="#3f4154" fill-rule="evenodd"/>
        <g id="Grupo_7135" data-name="Grupo 7135" transform="translate(135.531 247.755)">
          <path id="Trazado_18135" data-name="Trazado 18135" d="M1205.374,280.5h-5.583a3.959,3.959,0,0,0-3.949,3.949v4.7a3.957,3.957,0,0,0,3.949,3.948h5.583a3.957,3.957,0,0,0,3.948-3.948v-4.7a3.959,3.959,0,0,0-3.948-3.949Zm-5.583,1.532h5.583a2.429,2.429,0,0,1,2.417,2.417v4.7a2.429,2.429,0,0,1-2.417,2.417h-5.583a2.427,2.427,0,0,1-2.417-2.417v-4.7a2.427,2.427,0,0,1,2.417-2.417Z" transform="translate(-1195.842 -277.886)" fill="#e8e6ec" fill-rule="evenodd"/>
          <path id="Trazado_18136" data-name="Trazado 18136" d="M1201.315,287.116v6a3.687,3.687,0,0,0,3.676,3.677h5.429a3.686,3.686,0,0,0,3.675-3.677v-14.3a1.244,1.244,0,0,0-1.24-1.242h-10.3a1.246,1.246,0,0,0-1.242,1.242Z" transform="translate(-1196.43 -277.572)" fill="#fff" fill-rule="evenodd"/>
          <path id="Trazado_18137" data-name="Trazado 18137" d="M1204.5,283.442v6a3.662,3.662,0,0,0,.477,1.807,3.738,3.738,0,0,0,1.572,1.487,3.649,3.649,0,0,0,1.626.381h5.919a3.686,3.686,0,0,1-3.675,3.677h-5.429a3.687,3.687,0,0,1-3.676-3.677v-14.3a1.246,1.246,0,0,1,1.242-1.242h1.943v5.87Z" transform="translate(-1196.43 -277.572)" fill="#e8e6ec" fill-rule="evenodd"/>
        </g>
        <path id="Trazado_18138" data-name="Trazado 18138" d="M1224.006,263.311h0a1.606,1.606,0,0,1,1.6,1.6h0a1.606,1.606,0,0,1-1.6,1.6h0a1.606,1.606,0,0,1-1.6-1.6h0A1.606,1.606,0,0,1,1224.006,263.311Z" transform="translate(-1063.165 -28.285)" fill="#fff" fill-rule="evenodd"/>
        <path id="Trazado_18139" data-name="Trazado 18139" d="M1203.4,267.742h4.448a.615.615,0,0,0,.614-.614h0a.614.614,0,0,0-.614-.612h-5.985a1.607,1.607,0,0,1-1.6-1.6h0a1.606,1.606,0,0,1,1.6-1.6h15.564a1.606,1.606,0,0,1,1.6,1.6h0a1.607,1.607,0,0,1-1.6,1.6H1212a.613.613,0,0,0-.612.612h0a.615.615,0,0,0,.612.614h2.089a1.24,1.24,0,0,1,1.237,1.236h0a1.24,1.24,0,0,1-1.237,1.236h-3.454a2.465,2.465,0,0,0-2.457,2.458V273.8a.582.582,0,0,1-.581.58h0a.581.581,0,0,1-.58-.58v-2.144a1.445,1.445,0,0,0-1.442-1.441H1203.4a1.24,1.24,0,0,1-1.236-1.236h0A1.24,1.24,0,0,1,1203.4,267.742Z" transform="translate(-1060.786 -28.285)" fill="#fff" fill-rule="evenodd"/>
      </g>
      <rect id="Rectángulo_1224" data-name="Rectángulo 1224" width="141.929" height="514.125" transform="translate(250.713 0)" fill="url(#linear-gradient)"/>
      <rect id="Rectángulo_1225" data-name="Rectángulo 1225" width="521.104" height="514.125" transform="translate(392.896 0)" fill="#f3c9c7"/>
      <g id="Grupo_7193" data-name="Grupo 7193" transform="translate(18.193 136.2)">
        <g id="Grupo_7138" data-name="Grupo 7138" transform="translate(49.997 249.086)">
          <path id="Trazado_18140" data-name="Trazado 18140" d="M1137.344,511.169a17.782,17.782,0,0,1-.346-11.123c2.979-9.926-2.873-12.291-10.54-16.086s-7.879-13.338-1.675-20.779-3.374-14.54,1.241-26.1,16.881-2.7,18.86,8.441c1.421,8.007,11.842,7.1,14.871,17.573,2.633,9.094-9.087,16.408,3.415,21.442,3.993,1.607,6.015,4.922,6.918,8.688a18.433,18.433,0,0,1-2.149,13.795Z" transform="translate(-1120.396 -431.654)" fill="#3149b9"/>
          <g id="Grupo_7137" data-name="Grupo 7137" transform="translate(14.486 17.777)">
            <path id="Trazado_18141" data-name="Trazado 18141" d="M1155.236,511.118l-18.565-58.287a.967.967,0,1,1,1.843-.586l18.667,58.608Z" transform="translate(-1136.626 -451.571)" fill="#2039a5"/>
          </g>
        </g>
        <g id="Grupo_7140" data-name="Grupo 7140" transform="translate(0 246.096)">
          <path id="Trazado_18142" data-name="Trazado 18142" d="M1099.836,513.432a21.887,21.887,0,0,1-.109-2.544c.221-13.2-7.769-14.071-18.476-16.072s-14.265-13.624-9.233-24.888-9.16-16.655-7.5-32.418,19.759-9.137,26.032,3.828c4.508,9.322,16.966,4.606,24.3,16.4,6.369,10.235-5.468,23.25,11.595,25.1,5.45.589,9.073,3.953,11.481,8.257a23.642,23.642,0,0,1,.321,22.339Z" transform="translate(-1064.382 -428.305)" fill="#4071c9"/>
          <g id="Grupo_7139" data-name="Grupo 7139" transform="translate(15.55 20.902)">
            <path id="Trazado_18143" data-name="Trazado 18143" d="M1123.117,515.948l-41.109-62.315a1.231,1.231,0,0,1,2.057-1.355l42,63.67Z" transform="translate(-1081.804 -451.723)" fill="#3149b9"/>
          </g>
        </g>
        <g id="Grupo_7141" data-name="Grupo 7141" transform="translate(271.952 215.859)">
          <path id="Trazado_18144" data-name="Trazado 18144" d="M1373.385,510.483h-4.322l15.99-41.533a52.266,52.266,0,0,0-6.008-15.238c-6.6-11.54-11.59-25.007-3.135-24.074,7.337.81,12.517,16.345,12.158,31.479l5.745-14.921c.99-4.92,2.415-11.939,1.956-19.855-1.065-18.34,1.307-35.9,10.177-31.113s4.225,34.937-9.1,54.323l-2.956,7.679c9.465-14.3,27.532-25.923,34.473-20.915,6.9,4.978-5.831,11.624-18.47,15.757-9.62,3.145-15.2,7.409-17.811,9.851l-13.962,36.265c15.053-22.6,43.589-40.918,54.572-32.992,10.945,7.9-9.252,18.444-29.306,25-15.155,4.955-23.993,11.662-28.176,15.551Z" transform="translate(-1369.063 -394.428)" fill="#4071c9"/>
        </g>
        <g id="Grupo_7192" data-name="Grupo 7192" transform="translate(20.186)">
          <g id="Grupo_7191" data-name="Grupo 7191">
            <g id="Grupo_7183" data-name="Grupo 7183">
              <g id="Grupo_7142" data-name="Grupo 7142" transform="translate(0 222.772)">
                <path id="Trazado_18145" data-name="Trazado 18145" d="M1120.193,515.131h64.18a11.925,11.925,0,0,0-11.921-11.921h-.112s-13.62-1.777-13.62-12.9V423.928h-12.875v66.379c0,11.125-13.62,12.9-13.62,12.9h-.112A11.92,11.92,0,0,0,1120.193,515.131Z" transform="translate(-1090.563 -404.511)" fill="#3149b9"/>
                <path id="Trazado_18146" data-name="Trazado 18146" d="M1148.933,423.928v2.64l12.874,3.822v-6.462Z" transform="translate(-1093.65 -404.511)" fill="#2039a5"/>
                <path id="Trazado_18147" data-name="Trazado 18147" d="M1087,421.588h123.44a23.623,23.623,0,0,0-23.311-19.414l-38.409.1-38.408-.1A23.623,23.623,0,0,0,1087,421.588Z" transform="translate(-1086.997 -402.174)" fill="#4071c9"/>
              </g>
              <g id="Grupo_7182" data-name="Grupo 7182" transform="translate(15.129)">
                <g id="Grupo_7143" data-name="Grupo 7143" transform="translate(51.745 81.601)">
                  <path id="Trazado_18148" data-name="Trazado 18148" d="M1180.713,244.795c3.427,12.667,20.706,45.669,27.415,50.4,8.733,6.157,36.112,17.713,50.354,23.606,2.57,1.063-6.96,12.308-6.96,12.308s-36.831-9.367-51.837-18.945c-4.244-2.709-13.441-11.911-25.083-30.357-3.53-5.594-11.7-16.707-12.609-24.646C1160.948,248.022,1171.241,241.737,1180.713,244.795Z" transform="translate(-1161.919 -244.013)" fill="#e08820"/>
                </g>
                <g id="Grupo_7179" data-name="Grupo 7179" transform="translate(1.598)">
                  <g id="Grupo_7148" data-name="Grupo 7148" transform="translate(72.368 183.787)">
                    <g id="Grupo_7147" data-name="Grupo 7147" transform="translate(34.595 118.383)">
                      <path id="Trazado_18149" data-name="Trazado 18149" d="M1229.028,491.127l-.475,13.783s3.406,2.524,10.452,1.269l2.878-14.822Z" transform="translate(-1225.894 -491.127)" fill="#e7a592"/>
                      <g id="Grupo_7146" data-name="Grupo 7146" transform="translate(0 10.042)">
                        <g id="Grupo_7145" data-name="Grupo 7145">
                          <g id="Grupo_7144" data-name="Grupo 7144">
                            <path id="Trazado_18150" data-name="Trazado 18150" d="M1237.188,505.59s2.4-3.322,4.346-3.21,17.112,11.819,22.265,12.73,4.9,7.316,2.872,8.046c-2.3.83-40.393.116-40.393.116s-1.448-13.551-.192-17.214S1233.183,506.511,1237.188,505.59Z" transform="translate(-1225.574 -502.378)" fill="#e08820"/>
                          </g>
                        </g>
                      </g>
                    </g>
                    <path id="Trazado_18151" data-name="Trazado 18151" d="M1188.513,359.414s62.133-6.068,71.543,13.017c6.336,12.854-21.327,108.155-21.327,108.155-5.572,1.736-13.315-.682-16.339-3.707,0,0-4.922-13.257-.4-51.611.6-5.1,0-16.726,5.429-37.317l-40.6-17.925Z" transform="translate(-1186.815 -358.497)" fill="#222046"/>
                  </g>
                  <g id="Grupo_7152" data-name="Grupo 7152" transform="translate(0 65.421)">
                    <path id="Trazado_18152" data-name="Trazado 18152" d="M1132.311,226.7s-14.78,4.826-22.682,11.764-1.292,27.641-1.485,39.4,1.746,80.011,18.588,88.586c12.719,6.477,66.259-3.356,62.344-20.805a571.347,571.347,0,0,1-10.97-61.794c-2.263-19.035-1.308-33.1-3.427-41s-26.866-16.962-26.866-16.962Z" transform="translate(-1105.737 -225.886)" fill="#eaa928"/>
                    <g id="Grupo_7149" data-name="Grupo 7149" transform="translate(22.346 5.422)">
                      <path id="Trazado_18153" data-name="Trazado 18153" d="M1146.031,241.412c-7.708,0-14.819-8.193-15.127-8.553a.544.544,0,0,1,.827-.708c.074.087,7.521,8.667,14.965,8.149a.544.544,0,1,1,.075,1.085C1146.523,241.4,1146.276,241.412,1146.031,241.412Z" transform="translate(-1130.772 -231.961)" fill="#e08820"/>
                    </g>
                    <g id="Grupo_7150" data-name="Grupo 7150" transform="translate(30.379 68.403)">
                      <path id="Trazado_18154" data-name="Trazado 18154" d="M1140.315,341.13a.544.544,0,0,1-.062-1.084c19.911-2.291,28.159-36.755,28.24-37.1a.544.544,0,1,1,1.059.246c-.338,1.451-8.511,35.559-29.175,37.938A.517.517,0,0,1,1140.315,341.13Z" transform="translate(-1139.772 -302.521)" fill="#e08820"/>
                    </g>
                    <g id="Grupo_7151" data-name="Grupo 7151" transform="translate(38.306 78.864)">
                      <path id="Trazado_18155" data-name="Trazado 18155" d="M1149.2,331.96a.544.544,0,0,1-.286-1.007c10.59-6.529,12.164-16.153,12.179-16.249a.544.544,0,0,1,1.075.162c-.062.413-1.645,10.208-12.684,17.014A.542.542,0,0,1,1149.2,331.96Z" transform="translate(-1148.653 -314.241)" fill="#e08820"/>
                    </g>
                  </g>
                  <g id="Grupo_7174" data-name="Grupo 7174" transform="translate(9.293)">
                    <circle id="Elipse_826" data-name="Elipse 826" cx="21.812" cy="21.812" r="21.812" transform="translate(1.562 7.784)" fill="#323361"/>
                    <path id="Trazado_18156" data-name="Trazado 18156" d="M1160.978,178.277s6.177-1.706,5.363-7.7c-.694-5.1-6.686-1.795-6.16-5.783s1.7-7.613-3.461-8.61c-4.513-.872-4.589,2.22-10.514-2.266-7-5.3-12.378,6.973-18.625,7.341-9.215.544-10.378,5.755-11.285,9.925s2.641,7.093,2.641,7.093Z" transform="translate(-1116.148 -152.591)" fill="#323361"/>
                    <g id="Grupo_7156" data-name="Grupo 7156" transform="translate(40.193 33.394)">
                      <path id="Trazado_18157" data-name="Trazado 18157" d="M1162.507,192.31s3.455-4.607,6.025-.8-1.064,15.06-7.354,12.314Z" transform="translate(-1161.178 -190.004)" fill="#e2876c"/>
                      <g id="Grupo_7153" data-name="Grupo 7153" transform="translate(0.842 4.033)">
                        <path id="Trazado_18158" data-name="Trazado 18158" d="M1162.653,200.835a.532.532,0,0,0,.512-.388c.975-3.474,4.573-4.882,4.609-4.9a.532.532,0,0,0-.377-.994,9.151,9.151,0,0,0-5.256,5.6.531.531,0,0,0,.368.655A.537.537,0,0,0,1162.653,200.835Z" transform="translate(-1162.122 -194.523)" fill="#bb5c4a"/>
                      </g>
                      <g id="Grupo_7155" data-name="Grupo 7155" transform="translate(2.709 6.121)">
                        <g id="Grupo_7154" data-name="Grupo 7154">
                          <path id="Trazado_18159" data-name="Trazado 18159" d="M1166.51,199.336a.523.523,0,0,0,.287-.085.531.531,0,0,0,.159-.735,4.847,4.847,0,0,0-1.995-1.608.532.532,0,0,0-.434.971,3.842,3.842,0,0,1,1.535,1.213A.531.531,0,0,0,1166.51,199.336Z" transform="translate(-1164.213 -196.862)" fill="#bb5c4a"/>
                        </g>
                      </g>
                    </g>
                    <path id="Trazado_18160" data-name="Trazado 18160" d="M1134.592,216.181V227.37s4.723,6.245,9.234,6.634,7.129-6.277,7.129-6.277V216.968Z" transform="translate(-1118.129 -159.422)" fill="#e7a592"/>
                    <path id="Trazado_18161" data-name="Trazado 18161" d="M1134.592,216.181v4.965c3.028,3.361,8.405,4.2,16.364,3.025v-7.2Z" transform="translate(-1118.129 -159.422)" fill="#e2876c"/>
                    <path id="Trazado_18162" data-name="Trazado 18162" d="M1121.374,182.3a108.916,108.916,0,0,0,1.451,14.134c.207,1.084.441,2.1.7,3.019,2.355,8.245,8.244,22.383,24.733,16.494,7.282-2.6,10.657-10.711,12.162-18.96a79.754,79.754,0,0,0,1.1-15.309,11.68,11.68,0,0,0-5.927-9.94c-9.732-5.517-20-3.461-26.763-.861A11.645,11.645,0,0,0,1121.374,182.3Z" transform="translate(-1116.708 -154.273)" fill="#e7a592"/>
                    <g id="Grupo_7163" data-name="Grupo 7163" transform="translate(5.83 33.205)">
                      <g id="Grupo_7162" data-name="Grupo 7162">
                        <g id="Grupo_7157" data-name="Grupo 7157" transform="translate(5.817 0.402)">
                          <path id="Trazado_18163" data-name="Trazado 18163" d="M1142,192.563v.883a6.6,6.6,0,0,1-6.584,6.61h-.215a5.952,5.952,0,0,1-4.1-1.813,6.491,6.491,0,0,1-1.9-4.638v-1.043a2.353,2.353,0,0,1,.68-1.64,2.308,2.308,0,0,1,1.64-.68h8.161a2.314,2.314,0,0,1,2.092,1.322,2.264,2.264,0,0,1,.225.937A.452.452,0,0,1,1142,192.563Zm-.962,0a1.358,1.358,0,0,0-1.358-1.358h-8.161a1.357,1.357,0,0,0-1.358,1.358v1.043a5.513,5.513,0,0,0,1.614,3.947,5.022,5.022,0,0,0,3.444,1.541h.2a5.636,5.636,0,0,0,5.622-5.647Z" transform="translate(-1129.197 -190.243)" fill="#323361"/>
                        </g>
                        <g id="Grupo_7158" data-name="Grupo 7158" transform="translate(22.154 0.402)">
                          <path id="Trazado_18164" data-name="Trazado 18164" d="M1160.3,192.563v.883a6.6,6.6,0,0,1-6.584,6.61h-.219a5.945,5.945,0,0,1-4.094-1.813,6.5,6.5,0,0,1-1.906-4.638v-1.043a.2.2,0,0,1,0-.046,2.214,2.214,0,0,1,.2-.888,2.315,2.315,0,0,1,2.122-1.386h8.164a2.324,2.324,0,0,1,1.784.837,2.285,2.285,0,0,1,.446.86A2.115,2.115,0,0,1,1160.3,192.563Zm-.963,0a1.358,1.358,0,0,0-1.357-1.358h-8.164a1.358,1.358,0,0,0-1.358,1.358v1.043a5.524,5.524,0,0,0,1.614,3.947,5.023,5.023,0,0,0,3.444,1.541h.2a5.641,5.641,0,0,0,5.621-5.647Z" transform="translate(-1147.5 -190.243)" fill="#323361"/>
                        </g>
                        <g id="Grupo_7159" data-name="Grupo 7159">
                          <path id="Trazado_18165" data-name="Trazado 18165" d="M1122.68,189.8a11.512,11.512,0,0,1,5.534,1.07c.219.105.8.486.827.5l-.458.817c-.006,0-.645-.385-.9-.5a10.087,10.087,0,0,0-5.008-.927Z" transform="translate(-1122.68 -189.792)" fill="#323361"/>
                        </g>
                        <g id="Grupo_7160" data-name="Grupo 7160" transform="translate(17.655 1.364)">
                          <path id="Trazado_18166" data-name="Trazado 18166" d="M1142.776,192.714l-.316-.909a9.8,9.8,0,0,1,2.893-.485,6.477,6.477,0,0,1,2.64.506l-.42.866a5.646,5.646,0,0,0-2.22-.41A9,9,0,0,0,1142.776,192.714Z" transform="translate(-1142.46 -191.321)" fill="#323361"/>
                        </g>
                        <g id="Grupo_7161" data-name="Grupo 7161" transform="translate(34.043 0.245)">
                          <path id="Trazado_18167" data-name="Trazado 18167" d="M1165.106,190.067v.964a12.462,12.462,0,0,0-3.862,1.067l-.424-.863A13.024,13.024,0,0,1,1165.106,190.067Z" transform="translate(-1160.82 -190.067)" fill="#323361"/>
                        </g>
                      </g>
                    </g>
                    <path id="Trazado_18168" data-name="Trazado 18168" d="M1153.381,193.963c0,1.2.616,2.163,1.375,2.163s1.375-.968,1.375-2.163-.616-2.163-1.375-2.163S1153.381,192.768,1153.381,193.963Z" transform="translate(-1120.148 -156.803)" fill="#323361"/>
                    <path id="Trazado_18169" data-name="Trazado 18169" d="M1135.343,193.963c0,1.2.616,2.163,1.375,2.163s1.375-.968,1.375-2.163-.616-2.163-1.375-2.163S1135.343,192.768,1135.343,193.963Z" transform="translate(-1118.21 -156.803)" fill="#323361"/>
                    <path id="Trazado_18170" data-name="Trazado 18170" d="M1158.713,186.648s-5.723-2.262-10.13-.358l.368,2.046a18.579,18.579,0,0,1,9.446.677C1158.688,188.07,1159.085,187.618,1158.713,186.648Z" transform="translate(-1119.632 -156.129)" fill="#323361"/>
                    <path id="Trazado_18171" data-name="Trazado 18171" d="M1130.572,186.648s5.723-2.262,10.131-.358l-.369,2.046a18.576,18.576,0,0,0-9.445.677C1130.6,188.07,1130.2,187.618,1130.572,186.648Z" transform="translate(-1117.681 -156.129)" fill="#323361"/>
                    <g id="Grupo_7165" data-name="Grupo 7165" transform="translate(23.46 35.824)">
                      <g id="Grupo_7164" data-name="Grupo 7164">
                        <path id="Trazado_18172" data-name="Trazado 18172" d="M1144.686,203.126a5.679,5.679,0,0,1-1.924-.4.532.532,0,0,1,.4-.985,3.2,3.2,0,0,0,2.132.2.579.579,0,0,0,.261-.5,80.156,80.156,0,0,0-.321-8.14.532.532,0,1,1,1.059-.087,78.82,78.82,0,0,1,.32,8.338,1.621,1.621,0,0,1-.773,1.3A2.236,2.236,0,0,1,1144.686,203.126Z" transform="translate(-1142.432 -192.727)" fill="#e2876c"/>
                      </g>
                    </g>
                    <path id="Trazado_18173" data-name="Trazado 18173" d="M1150.72,207.4c-.434,2.185-1.878,6.207-6.743,6.207s-6.243-3.676-6.713-6.207Z" transform="translate(-1118.416 -158.479)" fill="#fff"/>
                    <g id="Grupo_7166" data-name="Grupo 7166" transform="translate(22.779 56.191)">
                      <path id="Trazado_18174" data-name="Trazado 18174" d="M1144.516,217.258a5.553,5.553,0,0,1-2.591-.727.532.532,0,1,1,.551-.91,4.519,4.519,0,0,0,2.04.573,4.312,4.312,0,0,0,1.934-.57.531.531,0,1,1,.559.9A5.315,5.315,0,0,1,1144.516,217.258Z" transform="translate(-1141.669 -215.545)" fill="#e2876c"/>
                    </g>
                    <path id="Trazado_18175" data-name="Trazado 18175" d="M1158.777,193.518c.4-2.192.8-5.022.51-6.471-.518-2.567-2.643-4.076-1.934-6.55s-1.907-5.144-3.836-5.586-6.425.512-10.855-1.591c-4.228-2.011-11.578-.572-12.778,2.141-1.449,3.286.524,3.6-3.432,7.149-1.575,1.417.294,5.095.561,7.487a16.03,16.03,0,0,1,.095,2.821l-.016.6h-4.735c-.521-3.71-.819-7.8-.983-11.223a11.645,11.645,0,0,1,7.459-11.421c6.763-2.6,17.029-4.659,26.766.86a11.678,11.678,0,0,1,5.923,9.94,84.672,84.672,0,0,1-.574,11.844Z" transform="translate(-1116.708 -154.273)" fill="#323361"/>
                    <g id="Grupo_7173" data-name="Grupo 7173" transform="translate(0.148 33.375)">
                      <path id="Trazado_18176" data-name="Trazado 18176" d="M1123.912,197.9a19.79,19.79,0,0,0-.289-3.7c-.3-1.667-.779-3.181-2.486-3.876a2.914,2.914,0,0,0-3.883.977c-2.569,3.81.293,15.664,6.583,12.917Z" transform="translate(-1116.314 -189.982)" fill="#e7a592"/>
                      <g id="Grupo_7169" data-name="Grupo 7169" transform="translate(2.07 3.621)">
                        <g id="Grupo_7168" data-name="Grupo 7168">
                          <g id="Grupo_7167" data-name="Grupo 7167">
                            <path id="Trazado_18177" data-name="Trazado 18177" d="M1122.87,201.2a.531.531,0,0,1-.426-.481c-.277-3.6-3.529-5.682-3.562-5.7a.531.531,0,0,1,.563-.9,9.153,9.153,0,0,1,4.059,6.523.532.532,0,0,1-.489.571A.554.554,0,0,1,1122.87,201.2Z" transform="translate(-1118.633 -194.039)" fill="#e2876c"/>
                          </g>
                        </g>
                      </g>
                      <g id="Grupo_7172" data-name="Grupo 7172" transform="translate(2.66 6.268)">
                        <g id="Grupo_7171" data-name="Grupo 7171">
                          <g id="Grupo_7170" data-name="Grupo 7170">
                            <path id="Trazado_18178" data-name="Trazado 18178" d="M1119.721,199.1a.531.531,0,0,1-.277-.891,4.841,4.841,0,0,1,2.271-1.187.532.532,0,1,1,.236,1.037,3.848,3.848,0,0,0-1.743.889A.532.532,0,0,1,1119.721,199.1Z" transform="translate(-1119.294 -197.005)" fill="#e2876c"/>
                          </g>
                        </g>
                      </g>
                    </g>
                  </g>
                  <g id="Grupo_7177" data-name="Grupo 7177" transform="translate(8.984 184.595)">
                    <g id="Grupo_7176" data-name="Grupo 7176" transform="translate(68.102 117.575)">
                      <path id="Trazado_18179" data-name="Trazado 18179" d="M1195.555,491.127l-.475,13.783s3.406,2.524,10.452,1.269l2.878-14.822Z" transform="translate(-1192.421 -491.127)" fill="#e7a592"/>
                      <g id="Grupo_7175" data-name="Grupo 7175" transform="translate(0 10.042)">
                        <path id="Trazado_18180" data-name="Trazado 18180" d="M1203.715,505.59s2.4-3.322,4.347-3.21,17.112,11.819,22.264,12.73,4.9,7.316,2.872,8.046c-2.306.83-40.393.116-40.393.116s-1.448-13.551-.192-17.214S1199.71,506.511,1203.715,505.59Z" transform="translate(-1192.101 -502.378)" fill="#eaa928"/>
                      </g>
                    </g>
                    <path id="Trazado_18181" data-name="Trazado 18181" d="M1116.525,360.794s96.616-7.35,106.025,11.735c6.336,12.854-21.327,108.155-21.327,108.155-5.572,1.736-13.315-.682-16.339-3.707,0,0-2.839-6.9,1.68-45.255.6-5.1-4.93-13.552.5-34.143h-50.5c-13.145,0-22-18.213-20.618-31.285Z" transform="translate(-1115.802 -359.402)" fill="#323361"/>
                  </g>
                  <g id="Grupo_7178" data-name="Grupo 7178" transform="translate(28.757 74.582)">
                    <path id="Trazado_18182" data-name="Trazado 18182" d="M1165.557,317.085l-7.407,20.288-13.365-19.285-1.078-61.719-.023-2.983,3.539-.63.639,4Z" transform="translate(-1138.57 -237.933)" fill="#fff"/>
                    <path id="Trazado_18183" data-name="Trazado 18183" d="M1147.86,256.753l-1.633,2.191-2.521-2.575-.023-2.983,3.539-.63Z" transform="translate(-1138.57 -237.933)" fill="#d2dfed" opacity="0.6"/>
                    <path id="Trazado_18184" data-name="Trazado 18184" d="M1137.955,247.651l7.074,7,4.985-7.156-5.826-11.345Z" transform="translate(-1137.955 -236.149)" fill="#fff"/>
                  </g>
                  <path id="Trazado_18185" data-name="Trazado 18185" d="M1133.849,224.875l-2.733,2.025a20.487,20.487,0,0,0-1.649,1.4c-1.574,1.5-2.115,2.507-1.6,5.024a5.994,5.994,0,0,0,.282.99h0l4.77,19.382,10.163-18.754S1136.232,233.6,1133.849,224.875Z" transform="translate(-1108.094 -160.356)" fill="#e08820"/>
                  <path id="Trazado_18186" data-name="Trazado 18186" d="M1152.067,224.875s6.774,6.553,5.436,12.588l-4.716,12.568-7.848-15.094S1151.036,232.831,1152.067,224.875Z" transform="translate(-1109.948 -160.356)" fill="#e08820"/>
                </g>
                <g id="Grupo_7181" data-name="Grupo 7181" transform="translate(0 75.569)">
                  <g id="Grupo_7180" data-name="Grupo 7180">
                    <path id="Trazado_18187" data-name="Trazado 18187" d="M1112.581,237.255c7.768,11.774,37.5,52.483,44.209,57.212,8.733,6.157,36.112,17.713,50.354,23.606,2.569,1.063-6.96,12.308-6.96,12.308s-36.831-9.367-51.837-18.945c-4.244-2.709-21.9-20.395-33.155-36.08-3.855-5.373-10.128-12.837-11.036-20.775C1103.112,245.444,1105.982,240.556,1112.581,237.255Z" transform="translate(-1103.947 -237.255)" fill="#e08820"/>
                  </g>
                </g>
              </g>
            </g>
            <g id="Grupo_7190" data-name="Grupo 7190" transform="translate(12.7 108.203)">
              <g id="Grupo_7187" data-name="Grupo 7187" transform="translate(0 64.23)">
                <g id="Grupo_7184" data-name="Grupo 7184" transform="translate(211.962 10.515)">
                  <path id="Trazado_18188" data-name="Trazado 18188" d="M1385.664,508.291l-46.785-145.8a3.775,3.775,0,1,1,7.189-2.307l47.525,148.112Z" transform="translate(-1338.697 -357.557)" fill="#323361"/>
                </g>
                <g id="Grupo_7186" data-name="Grupo 7186" transform="translate(0 10.515)">
                  <g id="Grupo_7185" data-name="Grupo 7185">
                    <path id="Trazado_18189" data-name="Trazado 18189" d="M1109.155,508.291h-7.929l47.525-148.112a3.775,3.775,0,1,1,7.189,2.307Z" transform="translate(-1101.226 -357.557)" fill="#323361"/>
                  </g>
                </g>
                <path id="Trazado_18190" data-name="Trazado 18190" d="M1117.223,359.922h244.558a7.072,7.072,0,0,0,7.072-7.073h0a7.072,7.072,0,0,0-7.072-7.072H1117.223a7.072,7.072,0,0,0-7.072,7.072h0A7.072,7.072,0,0,0,1117.223,359.922Z" transform="translate(-1102.185 -345.777)" fill="#3d4f7c"/>
              </g>
              <g id="Grupo_7188" data-name="Grupo 7188" transform="translate(53.755)">
                <rect id="Rectángulo_1226" data-name="Rectángulo 1226" width="75.847" height="9.884" rx="4.167" transform="translate(75.846 64.23) rotate(180)" fill="#3149b9"/>
                <path id="Trazado_18191" data-name="Trazado 18191" d="M1263.194,338.047l15.433-57.8a5.113,5.113,0,0,0-4.94-6.431h-33.959a5.113,5.113,0,0,0-4.923,3.73l-16.994,60.5Z" transform="translate(-1167.504 -273.817)" fill="#4071c9"/>
                <path id="Trazado_18192" data-name="Trazado 18192" d="M1234.354,277.551l-16.853,60h-3.881l16.853-60a5.12,5.12,0,0,1,4.924-3.734h3.881A5.12,5.12,0,0,0,1234.354,277.551Z" transform="translate(-1167.054 -273.817)" fill="#3149b9"/>
                <path id="Trazado_18193" data-name="Trazado 18193" d="M1246.609,311.866c-.883,3.813,1.492,6.9,5.3,6.9a9.215,9.215,0,0,0,8.5-6.9c.882-3.811-1.493-6.9-5.306-6.9A9.215,9.215,0,0,0,1246.609,311.866Z" transform="translate(-1170.578 -277.163)" fill="#5290fb"/>
              </g>
              <g id="Grupo_7189" data-name="Grupo 7189" transform="translate(154.994 22.831)">
                <path id="Trazado_18194" data-name="Trazado 18194" d="M1347.131,303.722l-9.975,35.126a2.684,2.684,0,0,1-2.653,1.946h-56.067a3.577,3.577,0,0,1-3.451-4.325l9.974-35.127a2.684,2.684,0,0,1,2.653-1.946h56.066A3.581,3.581,0,0,1,1347.131,303.722Z" transform="translate(-1274.874 -299.396)" fill="#3149b9"/>
                <path id="Trazado_18195" data-name="Trazado 18195" d="M1347.906,303.722l-9.975,35.126a2.684,2.684,0,0,1-2.653,1.946h-49.627a3.576,3.576,0,0,1-3.446-4.325l9.975-35.127a2.679,2.679,0,0,1,2.653-1.946h49.622A3.581,3.581,0,0,1,1347.906,303.722Z" transform="translate(-1275.649 -299.396)" fill="#4071c9"/>
                <path id="Trazado_18196" data-name="Trazado 18196" d="M1314.646,322.772a6,6,0,0,0,6.071,6.783,7.717,7.717,0,0,0,7.494-6.783,6,6,0,0,0-6.07-6.783A7.718,7.718,0,0,0,1314.646,322.772Z" transform="translate(-1279.142 -301.178)" fill="#5290fb"/>
              </g>
            </g>
          </g>
        </g>
      </g>
      <g id="Grupo_7199" data-name="Grupo 7199" transform="translate(257.097 220.282)">
        <g id="Grupo_7197" data-name="Grupo 7197">
          <g id="Grupo_7194" data-name="Grupo 7194" transform="translate(15.304)">
            <path id="Trazado_18197" data-name="Trazado 18197" d="M1362.4,249.729c-8.013-8.16-13.973,2.2-13.141,12.607.79,9.863,9.292,43.7,7.715,57.942h3.255C1368.2,302.021,1372.663,260.172,1362.4,249.729Z" transform="translate(-1349.185 -246.793)" fill="#7f8d9e" fill-rule="evenodd"/>
            <path id="Trazado_18198" data-name="Trazado 18198" d="M1359.861,320.812c7.751-28.775-2.062-68.551-2.094-68.687a.46.46,0,1,0-.894.218c.032.135,9.858,39.955,2.047,68.469Z" transform="translate(-1350.01 -247.328)" fill="#98a4b4" fill-rule="evenodd"/>
          </g>
          <g id="Grupo_7195" data-name="Grupo 7195" transform="translate(0 19.788)">
            <path id="Trazado_18199" data-name="Trazado 18199" d="M1340.8,270.089c-8.445-4.473-10.573,5.289-7.282,13.364,2.729,6.693,14.78,26.487,19.337,39.206h4.292C1357.508,305.082,1350.763,275.37,1340.8,270.089Z" transform="translate(-1332.039 -268.963)" fill="#ced6d7" fill-rule="evenodd"/>
            <path id="Trazado_18200" data-name="Trazado 18200" d="M1356.075,323.117c-2.793-23.772-18.6-49.612-18.659-49.7a.384.384,0,0,0-.658.4c.056.094,15.765,25.766,18.554,49.307Z" transform="translate(-1332.54 -269.421)" fill="#e7ecec" fill-rule="evenodd"/>
          </g>
          <g id="Grupo_7196" data-name="Grupo 7196" transform="translate(26.179 31.405)">
            <path id="Trazado_18201" data-name="Trazado 18201" d="M1379.633,282.771c8.183-3.575,9.481,5.671,5.845,12.965-2.461,4.936-11.326,17.572-17.3,28.322h-6.814C1363.7,307.794,1371.174,286.465,1379.633,282.771Z" transform="translate(-1361.369 -281.977)" fill="#e7ecec" fill-rule="evenodd"/>
            <path id="Trazado_18202" data-name="Trazado 18202" d="M1364.095,324.488c5.81-19.7,19.191-38.27,19.245-38.345a.36.36,0,0,1,.585.419c-.053.074-13.292,18.449-19.09,37.927Z" transform="translate(-1361.662 -282.409)" fill="#ced6d7" fill-rule="evenodd"/>
          </g>
        </g>
        <g id="Grupo_7198" data-name="Grupo 7198" transform="translate(14.39 66.98)">
          <rect id="Rectángulo_1227" data-name="Rectángulo 1227" width="26.585" height="8.527" rx="1.461" fill="#33385c"/>
          <path id="Trazado_18203" data-name="Trazado 18203" d="M1353.734,327.228h15.752l4.113,3.712-3.36,12.942h-17.258l-3.36-12.942Z" transform="translate(-1348.317 -322.413)" fill="#33385c" fill-rule="evenodd"/>
          <path id="Trazado_18204" data-name="Trazado 18204" d="M1373.6,331.387l-.691,2.659h-22.6l-.691-2.659Z" transform="translate(-1348.317 -322.86)" fill="#151d3d" fill-rule="evenodd"/>
        </g>
      </g>
      <rect id="Rectángulo_1228" data-name="Rectángulo 1228" width="914" height="47.067" transform="translate(0 467.057)" fill="#030822"/>
    </g>
    <g id="Grupo_7201" data-name="Grupo 7201" transform="translate(1487.611 58.484)">
      <rect id="Rectángulo_1229" data-name="Rectángulo 1229" width="327.576" height="43.736" transform="translate(0)" fill="#8d6e63"/>
      <text id="Resolución_199_de_2016" data-name="Resolución 199 de 2016" transform="translate(162.963 28.692)" fill="#fff" font-size="24" font-family="Montserrat-Bold, Montserrat" font-weight="700"><tspan x="-140.064" y="0">Resolución 199 de 2016</tspan></text>
    </g>
    <text id="Esta_resolución_modifica_específicamente_algunos_artículos_parágrafos_y_literales_de_la_Resolución_0187_de_2006." data-name="Esta resolución modifica específicamente algunos artículos, parágrafos y literales de la Resolución 0187 de 2006." transform="translate(1458.564 248.833)" font-size="17" font-family="MyriadPro-Regular, Myriad Pro"><tspan x="0" y="13">Esta resolución modifica específicamente algunos </tspan><tspan x="0" y="33.4">artículos, parágrafos y literales de la Resolución 0187 </tspan></text>
  </g>
</svg>
