<svg xmlns="http://www.w3.org/2000/svg" width="111.877" height="111.877" viewBox="0 0 111.877 111.877">
  <g id="Grupo_6375" data-name="Grupo 6375" transform="translate(-8 -8)">
    <g id="Grupo_6375-2" data-name="Grupo 6375" transform="translate(20.631 9.804)">
      <circle id="Elipse_775" data-name="Elipse 775" cx="7" cy="7" r="7" transform="translate(72.369 0.073)" fill="#ff826e"/>
      <ellipse id="Elipse_776" data-name="Elipse 776" cx="7" cy="7.5" rx="7" ry="7.5" transform="translate(36.369 32.073)" fill="#ff826e"/>
      <circle id="Elipse_777" data-name="Elipse 777" cx="7" cy="7" r="7" transform="translate(0.369 65.073)" fill="#ff826e"/>
    </g>
    <path id="Trazado_16179" data-name="Trazado 16179" d="M297.743,263.458v10.827l-4.493,1.155a26.029,26.029,0,0,1-2.49,6.027l2.364,3.988-7.669,7.651-3.988-2.346a26.029,26.029,0,0,1-6.027,2.49l-1.155,4.493H263.458L262.3,293.25a26.028,26.028,0,0,1-6.027-2.49l-3.988,2.346-7.669-7.651,2.364-3.988a26.027,26.027,0,0,1-2.49-6.027L240,274.285V263.458l4.493-1.155a27.859,27.859,0,0,1,1.57-4.259h8.373a18.045,18.045,0,1,0,14.436-7.218,18.124,18.124,0,0,0-7.218,1.5V240h12.631l1.155,4.493a26.027,26.027,0,0,1,6.027,2.49l3.988-2.364,7.669,7.669-2.364,3.988a26.028,26.028,0,0,1,2.49,6.027Z" transform="translate(-179.67 -179.67)" fill="#ffc729"/>
    <path id="Trazado_16180" data-name="Trazado 16180" d="M306.045,288a18.045,18.045,0,1,1-14.436,7.218h3.609a3.62,3.62,0,0,0,3.609-3.609V289.5A18.124,18.124,0,0,1,306.045,288Zm7.218,18.045a7.218,7.218,0,1,0-7.218,7.218A7.216,7.216,0,0,0,313.263,306.045Z" transform="translate(-216.843 -216.843)" fill="#fcd770"/>
    <path id="Trazado_16181" data-name="Trazado 16181" d="M372.09,83.609V98.045a3.62,3.62,0,0,1-3.609,3.609H339.609A3.62,3.62,0,0,1,336,98.045V83.609A3.62,3.62,0,0,1,339.609,80h28.872A3.62,3.62,0,0,1,372.09,83.609Z" transform="translate(-254.017 -55.76)" fill="#e6e9ed"/>
    <path id="Trazado_16182" data-name="Trazado 16182" d="M212.09,227.609v14.436a3.62,3.62,0,0,1-3.609,3.609H179.609A3.62,3.62,0,0,1,176,242.045V227.609A3.62,3.62,0,0,1,179.609,224h28.872A3.62,3.62,0,0,1,212.09,227.609Z" transform="translate(-130.106 -167.279)" fill="#e6e9ed"/>
    <path id="Trazado_16183" data-name="Trazado 16183" d="M16,386.045V371.609A3.62,3.62,0,0,1,19.609,368H48.481a3.62,3.62,0,0,1,3.609,3.609v14.436a3.62,3.62,0,0,1-3.609,3.609H19.609A3.62,3.62,0,0,1,16,386.045Z" transform="translate(-6.196 -278.799)" fill="#e6e9ed"/>
    <path id="Trazado_16184" data-name="Trazado 16184" d="M85.592,22.436a5.42,5.42,0,0,0-5.413,5.413V42.285A5.42,5.42,0,0,0,85.592,47.7h28.872a5.42,5.42,0,0,0,5.413-5.413V27.849a5.42,5.42,0,0,0-5.413-5.413H107.2a8.929,8.929,0,0,0,1.851-5.413,9.022,9.022,0,0,0-17.862-1.8H71.157a9.033,9.033,0,0,0-9.022,9.022V40.663A9.05,9.05,0,0,0,55.1,47.7H35.067a9.033,9.033,0,0,0-9.022,9.022V73.143a9.039,9.039,0,0,0-7.218,8.84A8.929,8.929,0,0,0,20.678,87.4H13.413A5.42,5.42,0,0,0,8,92.81v14.436a5.42,5.42,0,0,0,5.413,5.413H42.285a5.42,5.42,0,0,0,5.413-5.413V92.81A5.42,5.42,0,0,0,42.285,87.4H35.02a8.929,8.929,0,0,0,1.851-5.413,9.039,9.039,0,0,0-7.218-8.84V56.721a5.42,5.42,0,0,1,5.413-5.413H55.1a8.96,8.96,0,0,0,1.667,3.609H49.5a5.42,5.42,0,0,0-5.413,5.413V74.766A5.42,5.42,0,0,0,49.5,80.179H63.722c-.114.319-.235.635-.336.96l-4.861,1.25V96.015l4.861,1.249a26.952,26.952,0,0,0,1.859,4.5l-2.553,4.314,9.636,9.636,4.315-2.552a26.945,26.945,0,0,0,4.5,1.859l1.247,4.859H96.015l1.247-4.859a27.162,27.162,0,0,0,4.5-1.859l4.314,2.552,9.636-9.636-2.553-4.314a26.953,26.953,0,0,0,1.859-4.5l4.861-1.25V82.388l-4.861-1.249a26.953,26.953,0,0,0-1.859-4.5l2.553-4.315-9.636-9.636-4.314,2.553a26.82,26.82,0,0,0-4.5-1.859l-1.247-4.861H83.456a5.406,5.406,0,0,0-5.081-3.609H71.11A8.929,8.929,0,0,0,72.961,49.5a9.039,9.039,0,0,0-7.218-8.84V24.24a5.42,5.42,0,0,1,5.413-5.413H91.188a8.959,8.959,0,0,0,1.667,3.609ZM44.089,92.81v14.436a1.806,1.806,0,0,1-1.8,1.8H13.413a1.806,1.806,0,0,1-1.8-1.8V92.81a1.806,1.806,0,0,1,1.8-1.8H42.285A1.806,1.806,0,0,1,44.089,92.81ZM33.263,81.983a5.413,5.413,0,1,1-5.413-5.413A5.42,5.42,0,0,1,33.263,81.983ZM94.285,66.3l1.016.272a23.339,23.339,0,0,1,5.59,2.31l.913.527,3.7-2.189,5.677,5.677-2.187,3.7.527.913a23.205,23.205,0,0,1,2.31,5.588l.274,1.016,4.167,1.068v8.028l-4.167,1.07-.274,1.016a23.278,23.278,0,0,1-2.31,5.588l-.527.913,2.187,3.7-5.677,5.675-3.7-2.187-.913.527a23.24,23.24,0,0,1-5.588,2.31l-1.018.272-1.07,4.168H85.188l-1.07-4.168-1.018-.272a23.313,23.313,0,0,1-5.588-2.31l-.913-.527-3.7,2.187L67.225,105.5l2.187-3.7-.527-.913a23.2,23.2,0,0,1-2.31-5.588L66.3,94.285l-4.167-1.068V85.188l4.167-1.07.274-1.016a23.405,23.405,0,0,1,1.02-2.921h3.927a19.969,19.969,0,1,0,12.267-10.06V62.134h9.427Zm-10.5,8.463V73.9a16.25,16.25,0,1,1-8.079,6.276h2.665A5.42,5.42,0,0,0,83.788,74.766ZM80.179,60.33V74.766a1.806,1.806,0,0,1-1.8,1.8H49.5a1.806,1.806,0,0,1-1.8-1.8V60.33a1.807,1.807,0,0,1,1.8-1.8H78.375A1.807,1.807,0,0,1,80.179,60.33ZM69.352,49.5a5.413,5.413,0,1,1-5.413-5.413A5.42,5.42,0,0,1,69.352,49.5Zm46.916-21.654V42.285a1.807,1.807,0,0,1-1.8,1.8H85.592a1.807,1.807,0,0,1-1.8-1.8V27.849a1.807,1.807,0,0,1,1.8-1.8h28.872A1.807,1.807,0,0,1,116.268,27.849ZM94.615,17.022a5.413,5.413,0,1,1,5.413,5.413A5.42,5.42,0,0,1,94.615,17.022Z"/>
    <path id="Trazado_16185" data-name="Trazado 16185" d="M360,104h25.263v3.609H360Z" transform="translate(-272.603 -74.346)"/>
    <path id="Trazado_16186" data-name="Trazado 16186" d="M360,136h25.263v3.609H360Z" transform="translate(-272.603 -99.128)"/>
    <path id="Trazado_16187" data-name="Trazado 16187" d="M200,248h25.263v3.609H200Z" transform="translate(-148.693 -185.866)"/>
    <path id="Trazado_16188" data-name="Trazado 16188" d="M200,280h25.263v3.609H200Z" transform="translate(-148.693 -210.648)"/>
    <path id="Trazado_16189" data-name="Trazado 16189" d="M40,392H65.263v3.609H40Z" transform="translate(-24.782 -297.385)"/>
    <path id="Trazado_16190" data-name="Trazado 16190" d="M40,424H65.263v3.609H40Z" transform="translate(-24.782 -322.167)"/>
    <path id="Trazado_16191" data-name="Trazado 16191" d="M337.022,346.045A9.022,9.022,0,1,0,328,337.022,9.033,9.033,0,0,0,337.022,346.045Zm0-14.436a5.413,5.413,0,1,1-5.413,5.413A5.42,5.42,0,0,1,337.022,331.609Z" transform="translate(-247.821 -247.821)"/>
  </g>
</svg>
