<svg xmlns="http://www.w3.org/2000/svg" width="356" height="308.073" viewBox="0 0 356 308.073">
  <g id="Grupo_3160" data-name="Grupo 3160" transform="translate(-674 -1117)">
    <g id="Grupo_3154" data-name="Grupo 3154" transform="translate(94)">
      <path id="Trazado_4931" data-name="Trazado 4931" d="M1385.423,298.91h-89l44.5-77.08Z" transform="translate(-582.874 895.17)" fill="#ffeb3b"/>
      <path id="Trazado_4932" data-name="Trazado 4932" d="M1403.451,421.843h-178l44.5-77.073h89Z" transform="translate(-556.419 849.23)" fill="#ffe13b"/>
      <path id="Trazado_4933" data-name="Trazado 4933" d="M1421.476,544.78H1154.468l44.5-77.08h178Z" transform="translate(-529.972 803.3)" fill="#ffd93b"/>
      <path id="Trazado_4934" data-name="Trazado 4934" d="M1439.5,667.713h-356l44.5-77.073H1395Z" transform="translate(-503.498 757.36)" fill="#ffca3b"/>
      <g id="Grupo_3153" data-name="Grupo 3153" transform="translate(108 40)">
        <rect id="Rectángulo_1031" data-name="Rectángulo 1031" width="150" height="50" transform="translate(678 1091)" fill="#80deea"/>
        <rect id="Rectángulo_1032" data-name="Rectángulo 1032" width="150" height="50" transform="translate(678 1168)" fill="#80deea"/>
        <rect id="Rectángulo_1034" data-name="Rectángulo 1034" width="150" height="50" transform="translate(678 1245)" fill="#80deea"/>
        <rect id="Rectángulo_1035" data-name="Rectángulo 1035" width="150" height="50" transform="translate(678 1322)" fill="#80deea"/>
        <text id="Estrategias_de_Producto" data-name="Estrategias de
Producto" transform="translate(753 1112)" fill="#00223d" font-size="16" font-family="Montserrat-Bold, Montserrat" font-weight="700"><tspan x="-58.224" y="0">Estrategias de</tspan><tspan x="-37.6" y="19">Producto</tspan></text>
        <text id="Estrategias_de_Precio" data-name="Estrategias de
Precio" transform="translate(753 1189)" fill="#00223d" font-size="16" font-family="Montserrat-Bold, Montserrat" font-weight="700"><tspan x="-58.224" y="0">Estrategias de</tspan><tspan x="-25.832" y="19">Precio</tspan></text>
        <text id="Estrategias_de_Distribución" data-name="Estrategias de
Distribución" transform="translate(753 1266)" fill="#00223d" font-size="16" font-family="Montserrat-Bold, Montserrat" font-weight="700"><tspan x="-58.224" y="0">Estrategias de</tspan><tspan x="-49.448" y="19">Distribución</tspan></text>
        <text id="Estrategias_de_Comunicación" data-name="Estrategias de
Comunicación" transform="translate(753 1343)" fill="#00223d" font-size="16" font-family="Montserrat-Bold, Montserrat" font-weight="700"><tspan x="-58.224" y="0">Estrategias de</tspan><tspan x="-58.008" y="19">Comunicación</tspan></text>
      </g>
    </g>
  </g>
</svg>
