<svg xmlns="http://www.w3.org/2000/svg" width="731" height="545.533" viewBox="0 0 731 545.533">
  <g id="Grupo_7452" data-name="Grupo 7452" transform="translate(-205 -727.81)">
    <path id="Polígono_3" data-name="Polígono 3" d="M41,0,82,34H0Z" transform="translate(611 988) rotate(180)" fill="#52371b"/>
    <g id="Grupo_5517" data-name="Grupo 5517" transform="translate(0 -385)">
      <g id="Grupo_5516" data-name="Grupo 5516" transform="translate(205 1112.81)">
        <g id="Grupo_5511" data-name="Grupo 5511" transform="translate(365.5 0.785)">
          <g id="Grupo_5508" data-name="Grupo 5508" transform="translate(0 33.475)">
            <path id="Trazado_15167" data-name="Trazado 15167" d="M860.96,884.171V1059.9H495.46V879.559h365.5v4.612Z" transform="translate(-495.46 -867.626)" fill="#52371b"/>
            <path id="Trazado_15168" data-name="Trazado 15168" d="M495.46,880.6V996.776c3.84,0,7.68-.133,11.591-.222,3.911-.133,7.893-.177,11.875-.222,3.058,0,23.964.931,27.732,1.108a54.284,54.284,0,0,0,9.315-.222c3.058-.4,6.4-.576,9.529-.931,4.338-.488,8.533-.177,12.871-.266,5.831-.089,11.591-.532,17.351-.754,6.9-.266,13.8-.044,20.692,0,5.262.044,10.667.621,16,.31,4.48-.222,8.676-1.2,13.227-1.02,1.066.045,1.991.266,3.058.31.924.044,1.92-.089,2.844,0a15.005,15.005,0,0,0,2.916.311c1.778,0,3.058.621,4.764.665,1.991.044,3.982-.044,5.9,0,3.627,0,7.538-.266,11.022-.044,2.133.133,3.911.665,6.044.665,1.636-.045,3.271,0,4.906,0h7.111a50.712,50.712,0,0,0,5.191,0c.5-.089,1.351-.488,1.849-.532a22.43,22.43,0,0,1,2.986-.133,14.646,14.646,0,0,0,2.417-.044c.214-.044.5-.222.782-.266.427-.044.853.044,1.28,0,.64-.089,1.209-.355,1.92-.488s1.422-.089,2.134-.177a15.786,15.786,0,0,1,2.56-.266h4.906c1.849,0,3.7-.044,5.476,0a9.329,9.329,0,0,1,2.56.4,10,10,0,0,0,2.631.222c1.351,0,2.417.31,3.769.31h7.751c9.315,0,18.7-.222,28.088-.222h16.924c2.631,0,5.546-.177,8.106.089,2.275.222,4.338-.222,6.614-.177a91.5,91.5,0,0,1,9.244.177,13.833,13.833,0,0,0,3.84-.31c1.778-.311,3.484,0,5.333-.177.569-.044,1-.266,1.564-.31.711-.089,1.422,0,2.133-.044a26.935,26.935,0,0,0,3.2-.576,8.69,8.69,0,0,1,2.417-.311c1.209-.044,2.133-.31,3.342-.31,2.133,0,4.2-.045,6.328-.045h21.4V880.6Z" transform="translate(-495.46 -864.055)" fill="#694322"/>
          </g>
          <g id="Grupo_5509" data-name="Grupo 5509">
            <path id="Trazado_15170" data-name="Trazado 15170" d="M860.96,900.27H495.46V870.295c30.648-.887,47.287.222,80.282-.355,25.955-.488,48.852-.177,73.6.443,44.23,1.064,87.393-1.064,131.267-1.064,27.306,0,54.042.177,80.353.665V900.27Z" transform="translate(-495.46 -869.319)" fill="#619200"/>
            <path id="Trazado_15172" data-name="Trazado 15172" d="M495.46,879.218v23.4h365.5v-24.8c-3.769,0-7.537.083-11.306.083l-44.23.494c-5.049.082-10.1.082-15.075.165-20.906.165-41.741.247-62.576,0-11.448-.083-22.968-.247-34.346-.577h-.213c-3.769-.083-7.467-.165-11.164-.33-9.173-.33-17.92-.577-26.382-.659h-.284c-5.9-.083-11.591-.083-17.279,0h-.853a.09.09,0,0,0-.142,0h-.071c-12.871.082-25.528.412-38.825,1.071-4.409.247-8.746.412-13.013.577-30.221,1.319-57.1,1.813-84.691.742C498.873,879.383,497.167,879.3,495.46,879.218Z" transform="translate(-495.46 -855.036)" fill="#7a9b0d"/>
          </g>
          <g id="Grupo_5510" data-name="Grupo 5510" opacity="0.2" style="mix-blend-mode: overlay;isolation: isolate">
            <path id="Trazado_15173" data-name="Trazado 15173" d="M860.96,900.27H495.46V870.295c30.648-.887,47.287.222,80.282-.355,25.955-.488,48.852-.177,73.6.443,44.23,1.064,87.393-1.064,131.267-1.064,27.306,0,54.042.177,80.353.665V900.27Z" transform="translate(-495.46 -869.319)" fill="#619200"/>
          </g>
        </g>
        <g id="Grupo_5515" data-name="Grupo 5515">
          <g id="Grupo_5512" data-name="Grupo 5512" transform="translate(0 33.51)">
            <rect id="Rectángulo_1037" data-name="Rectángulo 1037" width="365.5" height="180.296" transform="translate(0 12.727)" fill="#52371b"/>
            <path id="Trazado_15176" data-name="Trazado 15176" d="M809.56,880.609V996.742a60.079,60.079,0,0,1-7.651-.59c-2.56-.31-5.077-1.495-7.566-1.849a35.617,35.617,0,0,0-3.769-.044c-1.351,0-2.276.222-3.555.31-2.418.177-5.049,0-7.467,0s-4.764-.044-7.182-.044h-3.911c-1.209.044-2.2.355-3.413.355a17.878,17.878,0,0,0-3.84.355c-1.28.266-2.631.266-3.911.488-1.564.266-3.271.311-4.835.444-3.555.222-7.111.488-10.667.754-10.737.843-23.039-.266-33.919-.222-2.773,0-5.547.089-8.32.177a52.523,52.523,0,0,0-7.538.4c-1.707.355-2.489.887-4.48.931-1.707,0-3.413-.177-5.12-.177H662.436a80.854,80.854,0,0,1-8.675,0c-1.564-.133-2.489-.443-4.124-.488a22.863,22.863,0,0,1-3.982-.355,35.426,35.426,0,0,0-8.177-.576H629.3c-2.631,0-5.191-.177-7.751,0-.5.044-.924.133-1.351.177-.355,0-.711-.044-1.137-.044-.356,0-.711.133-1.138.133a10.6,10.6,0,0,0-1.138.266c-.853.177-1.991.31-2.844.4-1.351.133-2.631.488-3.982.709a25.27,25.27,0,0,1-3.2.089c-1,.044-2.062-.044-3.058,0-1.564.089-2.987.31-4.551.31H585c-1.564,0-3.2-.133-4.764-.133-1.28-.044-2.56-.177-3.84-.177-.782.044-1.564.133-2.347.133-2.489,0-4.764-.843-7.253-.931-1.209-.044-2.489,0-3.769,0-12.657,0-25.386.089-37.972.177-1.849,0-3.485-.311-5.262-.311-2.275-.044-4.622-.088-6.9-.31-.64-.089-.853-.266-1.422-.355-.782-.089-1.707.044-2.489,0a68.236,68.236,0,0,1-7.537-1.02c-1.138-.222-2.276-.133-3.342-.31a25.079,25.079,0,0,0-4.906-.577c-10.311.044-21.048-.089-31,1.862-2.275.443-4.551.8-6.9,1.064a29.556,29.556,0,0,1-5.618.355c-1.422-.133-2.7-.4-4.2-.444H444.06V880.609Z" transform="translate(-444.06 -863.271)" fill="#694322"/>
          </g>
          <g id="Grupo_5513" data-name="Grupo 5513">
            <path id="Trazado_15178" data-name="Trazado 15178" d="M809.56,871.169v29.754H444.06V869.75c0,.177,85.046.8,91.517.8,50.2-.044,100.477-2.173,152.884-1.109,27.946.532,54.541.133,81.775.843C784.032,870.637,796.547,870.992,809.56,871.169Z" transform="translate(-444.06 -869.142)" fill="#619200"/>
            <path id="Trazado_15180" data-name="Trazado 15180" d="M809.56,878.787c-5.831,0-11.733.09-17.564.179h-.142c-10.738.178-21.475.536-32.141.984-4.693.179-9.742.358-15,.358a13.708,13.708,0,0,1-2.7,0h-.071c-.071.089-.071.089-.142,0-20.764.268-44.941-.447-69.118-1.253-30.79-.984-61.438-2.237-84.833-2.237-5.9,0-32.781.626-61.722,1.342h-.071c-11.022.268-22.257.626-32.781.894h-.213c-5.262.089-10.311.268-15.075.358-19.626.536-33.919.895-33.919.984v25.318h365.5V878.787Z" transform="translate(-444.06 -857.351)" fill="#7a9b0d"/>
          </g>
          <g id="Grupo_5514" data-name="Grupo 5514" opacity="0.2" style="mix-blend-mode: overlay;isolation: isolate">
            <path id="Trazado_15181" data-name="Trazado 15181" d="M809.56,871.169v29.754H444.06V869.75c0,.177,85.046.8,91.517.8,50.2-.044,100.477-2.173,152.884-1.109,27.946.532,54.541.133,81.775.843C784.032,870.637,796.547,870.992,809.56,871.169Z" transform="translate(-444.06 -869.142)" fill="#619200"/>
          </g>
        </g>
      </g>
    </g>
    <g id="Grupo_5518" data-name="Grupo 5518" transform="translate(0 -66)">
      <g id="Grupo_5516-2" data-name="Grupo 5516" transform="translate(205 1112.81)">
        <g id="Grupo_5511-2" data-name="Grupo 5511" transform="translate(365.5 0.785)">
          <g id="Grupo_5508-2" data-name="Grupo 5508" transform="translate(0 33.475)">
            <path id="Trazado_15167-2" data-name="Trazado 15167" d="M860.96,884.171V1059.9H495.46V879.559h365.5v4.612Z" transform="translate(-495.46 -867.626)" fill="#52371b"/>
            <path id="Trazado_15168-2" data-name="Trazado 15168" d="M495.46,880.6V996.776c3.84,0,7.68-.133,11.591-.222,3.911-.133,7.893-.177,11.875-.222,3.058,0,23.964.931,27.732,1.108a54.284,54.284,0,0,0,9.315-.222c3.058-.4,6.4-.576,9.529-.931,4.338-.488,8.533-.177,12.871-.266,5.831-.089,11.591-.532,17.351-.754,6.9-.266,13.8-.044,20.692,0,5.262.044,10.667.621,16,.31,4.48-.222,8.676-1.2,13.227-1.02,1.066.045,1.991.266,3.058.31.924.044,1.92-.089,2.844,0a15.005,15.005,0,0,0,2.916.311c1.778,0,3.058.621,4.764.665,1.991.044,3.982-.044,5.9,0,3.627,0,7.538-.266,11.022-.044,2.133.133,3.911.665,6.044.665,1.636-.045,3.271,0,4.906,0h7.111a50.712,50.712,0,0,0,5.191,0c.5-.089,1.351-.488,1.849-.532a22.43,22.43,0,0,1,2.986-.133,14.646,14.646,0,0,0,2.417-.044c.214-.044.5-.222.782-.266.427-.044.853.044,1.28,0,.64-.089,1.209-.355,1.92-.488s1.422-.089,2.134-.177a15.786,15.786,0,0,1,2.56-.266h4.906c1.849,0,3.7-.044,5.476,0a9.329,9.329,0,0,1,2.56.4,10,10,0,0,0,2.631.222c1.351,0,2.417.31,3.769.31h7.751c9.315,0,18.7-.222,28.088-.222h16.924c2.631,0,5.546-.177,8.106.089,2.275.222,4.338-.222,6.614-.177a91.5,91.5,0,0,1,9.244.177,13.833,13.833,0,0,0,3.84-.31c1.778-.311,3.484,0,5.333-.177.569-.044,1-.266,1.564-.31.711-.089,1.422,0,2.133-.044a26.935,26.935,0,0,0,3.2-.576,8.69,8.69,0,0,1,2.417-.311c1.209-.044,2.133-.31,3.342-.31,2.133,0,4.2-.045,6.328-.045h21.4V880.6Z" transform="translate(-495.46 -864.055)" fill="#694322"/>
          </g>
          <g id="Grupo_5509-2" data-name="Grupo 5509">
            <path id="Trazado_15170-2" data-name="Trazado 15170" d="M860.96,900.27H495.46V870.295c30.648-.887,47.287.222,80.282-.355,25.955-.488,48.852-.177,73.6.443,44.23,1.064,87.393-1.064,131.267-1.064,27.306,0,54.042.177,80.353.665V900.27Z" transform="translate(-495.46 -869.319)" fill="#619200"/>
            <path id="Trazado_15172-2" data-name="Trazado 15172" d="M495.46,879.218v23.4h365.5v-24.8c-3.769,0-7.537.083-11.306.083l-44.23.494c-5.049.082-10.1.082-15.075.165-20.906.165-41.741.247-62.576,0-11.448-.083-22.968-.247-34.346-.577h-.213c-3.769-.083-7.467-.165-11.164-.33-9.173-.33-17.92-.577-26.382-.659h-.284c-5.9-.083-11.591-.083-17.279,0h-.853a.09.09,0,0,0-.142,0h-.071c-12.871.082-25.528.412-38.825,1.071-4.409.247-8.746.412-13.013.577-30.221,1.319-57.1,1.813-84.691.742C498.873,879.383,497.167,879.3,495.46,879.218Z" transform="translate(-495.46 -855.036)" fill="#7a9b0d"/>
          </g>
          <g id="Grupo_5510-2" data-name="Grupo 5510" opacity="0.2" style="mix-blend-mode: overlay;isolation: isolate">
            <path id="Trazado_15173-2" data-name="Trazado 15173" d="M860.96,900.27H495.46V870.295c30.648-.887,47.287.222,80.282-.355,25.955-.488,48.852-.177,73.6.443,44.23,1.064,87.393-1.064,131.267-1.064,27.306,0,54.042.177,80.353.665V900.27Z" transform="translate(-495.46 -869.319)" fill="#619200"/>
          </g>
        </g>
        <g id="Grupo_5515-2" data-name="Grupo 5515">
          <g id="Grupo_5512-2" data-name="Grupo 5512" transform="translate(0 33.51)">
            <rect id="Rectángulo_1037-2" data-name="Rectángulo 1037" width="365.5" height="180.296" transform="translate(0 12.727)" fill="#52371b"/>
            <path id="Trazado_15176-2" data-name="Trazado 15176" d="M809.56,880.609V996.742a60.079,60.079,0,0,1-7.651-.59c-2.56-.31-5.077-1.495-7.566-1.849a35.617,35.617,0,0,0-3.769-.044c-1.351,0-2.276.222-3.555.31-2.418.177-5.049,0-7.467,0s-4.764-.044-7.182-.044h-3.911c-1.209.044-2.2.355-3.413.355a17.878,17.878,0,0,0-3.84.355c-1.28.266-2.631.266-3.911.488-1.564.266-3.271.311-4.835.444-3.555.222-7.111.488-10.667.754-10.737.843-23.039-.266-33.919-.222-2.773,0-5.547.089-8.32.177a52.523,52.523,0,0,0-7.538.4c-1.707.355-2.489.887-4.48.931-1.707,0-3.413-.177-5.12-.177H662.436a80.854,80.854,0,0,1-8.675,0c-1.564-.133-2.489-.443-4.124-.488a22.863,22.863,0,0,1-3.982-.355,35.426,35.426,0,0,0-8.177-.576H629.3c-2.631,0-5.191-.177-7.751,0-.5.044-.924.133-1.351.177-.355,0-.711-.044-1.137-.044-.356,0-.711.133-1.138.133a10.6,10.6,0,0,0-1.138.266c-.853.177-1.991.31-2.844.4-1.351.133-2.631.488-3.982.709a25.27,25.27,0,0,1-3.2.089c-1,.044-2.062-.044-3.058,0-1.564.089-2.987.31-4.551.31H585c-1.564,0-3.2-.133-4.764-.133-1.28-.044-2.56-.177-3.84-.177-.782.044-1.564.133-2.347.133-2.489,0-4.764-.843-7.253-.931-1.209-.044-2.489,0-3.769,0-12.657,0-25.386.089-37.972.177-1.849,0-3.485-.311-5.262-.311-2.275-.044-4.622-.088-6.9-.31-.64-.089-.853-.266-1.422-.355-.782-.089-1.707.044-2.489,0a68.236,68.236,0,0,1-7.537-1.02c-1.138-.222-2.276-.133-3.342-.31a25.079,25.079,0,0,0-4.906-.577c-10.311.044-21.048-.089-31,1.862-2.275.443-4.551.8-6.9,1.064a29.556,29.556,0,0,1-5.618.355c-1.422-.133-2.7-.4-4.2-.444H444.06V880.609Z" transform="translate(-444.06 -863.271)" fill="#694322"/>
          </g>
          <g id="Grupo_5513-2" data-name="Grupo 5513">
            <path id="Trazado_15178-2" data-name="Trazado 15178" d="M809.56,871.169v29.754H444.06V869.75c0,.177,85.046.8,91.517.8,50.2-.044,100.477-2.173,152.884-1.109,27.946.532,54.541.133,81.775.843C784.032,870.637,796.547,870.992,809.56,871.169Z" transform="translate(-444.06 -869.142)" fill="#619200"/>
            <path id="Trazado_15180-2" data-name="Trazado 15180" d="M809.56,878.787c-5.831,0-11.733.09-17.564.179h-.142c-10.738.178-21.475.536-32.141.984-4.693.179-9.742.358-15,.358a13.708,13.708,0,0,1-2.7,0h-.071c-.071.089-.071.089-.142,0-20.764.268-44.941-.447-69.118-1.253-30.79-.984-61.438-2.237-84.833-2.237-5.9,0-32.781.626-61.722,1.342h-.071c-11.022.268-22.257.626-32.781.894h-.213c-5.262.089-10.311.268-15.075.358-19.626.536-33.919.895-33.919.984v25.318h365.5V878.787Z" transform="translate(-444.06 -857.351)" fill="#7a9b0d"/>
          </g>
          <g id="Grupo_5514-2" data-name="Grupo 5514" opacity="0.2" style="mix-blend-mode: overlay;isolation: isolate">
            <path id="Trazado_15181-2" data-name="Trazado 15181" d="M809.56,871.169v29.754H444.06V869.75c0,.177,85.046.8,91.517.8,50.2-.044,100.477-2.173,152.884-1.109,27.946.532,54.541.133,81.775.843C784.032,870.637,796.547,870.992,809.56,871.169Z" transform="translate(-444.06 -869.142)" fill="#619200"/>
          </g>
        </g>
      </g>
    </g>
    <text id="Fertilidad_y_Actividad_Biológica_del_Suelo" data-name="Fertilidad y Actividad Biológica del Suelo" transform="translate(829 763)" fill="#fff" font-size="24" font-family="Montserrat-Bold, Montserrat" font-weight="700"><tspan x="-498.408" y="0">Fertilidad y Actividad Biológica del Suelo</tspan></text>
    <text id="Se_mantiene_mediante_el_cultivo_de_leguminosas_el_abonado_en_verde_y_las_plantas_de_enraizamiento_profundo." data-name="Se mantiene mediante el cultivo de leguminosas, el abonado en verde y las plantas de enraizamiento profundo." transform="translate(228 814)" fill="#fff" font-size="20" font-family="Montserrat-Regular, Montserrat"><tspan x="0" y="19">Se mantiene mediante el </tspan><tspan x="0" y="43">cultivo de leguminosas, el </tspan><tspan x="0" y="67">abonado en verde y las plantas </tspan><tspan x="0" y="91">de enraizamiento profundo.</tspan></text>
    <text id="Reduce_la_erosión_hídrica_del_suelo_fija_el_nitrógeno_atmosférico_y_supone_un_aporte_de_materia_orgánica_al_suelo." data-name="Reduce la erosión hídrica del suelo, fija el nitrógeno atmosférico y supone un aporte de materia orgánica al suelo." transform="translate(594 814)" fill="#fff" font-size="20" font-family="Montserrat-Regular, Montserrat"><tspan x="0" y="19">Reduce la erosión hídrica del </tspan><tspan x="0" y="43">suelo, fija el nitrógeno </tspan><tspan x="0" y="67">atmosférico y supone un </tspan><tspan x="0" y="91">aporte de materia orgánica al </tspan><tspan x="0" y="115">suelo.</tspan></text>
    <g id="Grupo_5524" data-name="Grupo 5524" transform="translate(-364.141 171.647)">
      <g id="Grupo_5519" data-name="Grupo 5519" transform="translate(583.14 838.286)">
        <path id="Trazado_15182" data-name="Trazado 15182" d="M625.562,872.166s5.615-11.242-8.183-31.173-34.239-14.819-34.239-14.819,7.154,18.907,19.42,28.106S623.013,864.5,625.562,872.166Z" transform="translate(-583.14 -825.587)" fill="#8dc63f"/>
        <path id="Trazado_15183" data-name="Trazado 15183" d="M601.955,867.977s-4.743-9.5,6.912-26.33,28.918-12.518,28.918-12.518-6.043,15.969-16.4,23.741S604.107,861.5,601.955,867.977Z" transform="translate(-558.578 -821.398)" fill="#72a433"/>
      </g>
      <g id="Grupo_5520" data-name="Grupo 5520" transform="translate(664.024 816.353)">
        <path id="Trazado_15184" data-name="Trazado 15184" d="M622.541,885.2a31.779,31.779,0,0,0,6.209-28.681,38.927,38.927,0,0,1,11.237-38.731S629.047,837,632.6,851.49s5.321,24.246.886,33.707Z" transform="translate(-609.838 -814.384)" fill="#8dc63f"/>
        <path id="Trazado_15185" data-name="Trazado 15185" d="M626.276,845.3s4.435-15.67,20.7-13.3C646.972,831.992,646.086,851.5,626.276,845.3Z" transform="translate(-604.702 -795.18)" fill="#72a433"/>
        <path id="Trazado_15186" data-name="Trazado 15186" d="M626.251,829.421s5.159-10.886,16.731-7.161C642.982,822.26,639.937,836.385,626.251,829.421Z" transform="translate(-604.736 -809.298)" fill="#72a433"/>
        <path id="Trazado_15187" data-name="Trazado 15187" d="M637.879,839.433s-7.363-14.375-20.686-10.52C617.193,828.913,621.751,847.5,637.879,839.433Z" transform="translate(-617.193 -799.983)" fill="#72a433"/>
        <path id="Trazado_15188" data-name="Trazado 15188" d="M634.568,827.738s-1.777-11.073-11.4-11.384C623.164,816.353,622.188,829.6,634.568,827.738Z" transform="translate(-609.006 -816.353)" fill="#72a433"/>
      </g>
      <g id="Grupo_5521" data-name="Grupo 5521" transform="translate(702.693 838.286)">
        <path id="Trazado_15189" data-name="Trazado 15189" d="M675.895,872.166s5.615-11.242-8.183-31.173-34.239-14.819-34.239-14.819,7.154,18.907,19.42,28.106S673.346,864.5,675.895,872.166Z" transform="translate(-633.473 -825.587)" fill="#8dc63f"/>
        <path id="Trazado_15190" data-name="Trazado 15190" d="M652.288,867.977s-4.743-9.5,6.912-26.33,28.921-12.518,28.921-12.518-6.043,15.969-16.4,23.741S654.44,861.5,652.288,867.977Z" transform="translate(-608.911 -821.398)" fill="#72a433"/>
      </g>
      <g id="Grupo_5522" data-name="Grupo 5522" transform="translate(783.577 816.353)">
        <path id="Trazado_15191" data-name="Trazado 15191" d="M672.875,885.2a31.786,31.786,0,0,0,6.209-28.681,38.926,38.926,0,0,1,11.235-38.731s-10.94,19.218-7.392,33.7,5.323,24.246.886,33.707Z" transform="translate(-660.17 -814.384)" fill="#8dc63f"/>
        <path id="Trazado_15192" data-name="Trazado 15192" d="M676.609,845.3s4.435-15.67,20.7-13.3C697.3,831.992,696.419,851.5,676.609,845.3Z" transform="translate(-655.035 -795.18)" fill="#72a433"/>
        <path id="Trazado_15193" data-name="Trazado 15193" d="M676.584,829.421s5.159-10.886,16.731-7.161C693.315,822.26,690.27,836.385,676.584,829.421Z" transform="translate(-655.069 -809.298)" fill="#72a433"/>
        <path id="Trazado_15194" data-name="Trazado 15194" d="M688.214,839.433s-7.363-14.375-20.688-10.52C667.526,828.913,672.084,847.5,688.214,839.433Z" transform="translate(-667.526 -799.983)" fill="#72a433"/>
        <path id="Trazado_15195" data-name="Trazado 15195" d="M684.9,827.738s-1.777-11.073-11.4-11.384C673.5,816.353,672.52,829.6,684.9,827.738Z" transform="translate(-659.338 -816.353)" fill="#72a433"/>
      </g>
      <g id="Grupo_5523" data-name="Grupo 5523" transform="translate(822.248 838.286)">
        <path id="Trazado_15196" data-name="Trazado 15196" d="M726.226,872.166s5.615-11.242-8.183-31.173-34.237-14.819-34.237-14.819,7.154,18.907,19.418,28.106S723.678,864.5,726.226,872.166Z" transform="translate(-683.807 -825.587)" fill="#8dc63f"/>
        <path id="Trazado_15197" data-name="Trazado 15197" d="M702.621,867.977s-4.741-9.5,6.912-26.33,28.921-12.518,28.921-12.518-6.043,15.969-16.4,23.741S704.775,861.5,702.621,867.977Z" transform="translate(-659.246 -821.398)" fill="#72a433"/>
      </g>
    </g>
    <text id="Se_seleccionan_las_especies_y_variedades_que_sean_resistentes_por_naturaleza_y_se_aplican_programas_de_rotación_de_cultivos." data-name="Se seleccionan las especies y variedades que sean resistentes por naturaleza y se aplican  programas de rotación de cultivos." transform="translate(228 1118)" fill="#fff" font-size="20" font-family="Montserrat-Regular, Montserrat"><tspan x="0" y="19">Se seleccionan las especies y </tspan><tspan x="0" y="43">variedades que sean </tspan><tspan x="0" y="67">resistentes por naturaleza y se </tspan><tspan x="0" y="91" xml:space="preserve">aplican  programas de rotación </tspan><tspan x="0" y="115">de cultivos.</tspan></text>
    <text id="Se_emplean_medios_mecánicos_de_cultivo_quema_de_malas_hierbas_y_protección_de_los_enemigos_naturales_de_los_parásitos_como_la_conservación_de_setos_o_nidos." data-name="Se emplean medios mecánicos de cultivo, quema de malas hierbas y protección de los enemigos naturales de los parásitos, como la conservación de setos o nidos." transform="translate(594 1118)" fill="#fff" font-size="20" font-family="Montserrat-Regular, Montserrat"><tspan x="0" y="19">Se emplean medios mecánicos </tspan><tspan x="0" y="43">de cultivo, quema de malas </tspan><tspan x="0" y="67">hierbas y protección de los </tspan><tspan x="0" y="91">enemigos naturales de los </tspan><tspan x="0" y="115">parásitos, como la </tspan><tspan x="0" y="139">conservación de setos o nidos.</tspan></text>
    <text id="Protección_de_plantas_contra_parásitos_y_enfermedades" data-name="Protección de plantas contra parásitos y enfermedades" transform="translate(918 1082)" fill="#fff" font-size="24" font-family="Montserrat-Bold, Montserrat" font-weight="700"><tspan x="-672.744" y="0">Protección de plantas contra parásitos y enfermedades</tspan></text>
    <g id="Grupo_5685" data-name="Grupo 5685" transform="translate(119.477 128.926)">
      <g id="Grupo_5556" data-name="Grupo 5556">
        <g id="Grupo_5552" data-name="Grupo 5552">
          <g id="Grupo_5549" data-name="Grupo 5549">
            <g id="Grupo_5525" data-name="Grupo 5525">
              <path id="Trazado_15198" data-name="Trazado 15198" d="M523.963,903.861s2.054-6.935,9.446-6.161Z"/>
            </g>
            <g id="Grupo_5526" data-name="Grupo 5526">
              <path id="Trazado_15199" data-name="Trazado 15199" d="M551.4,906.778s6.051-2.056,6.051-6.05-1.7-19.576-3.915-20.525-1.819,1.107-2.61,4.745.474,16.158-2.61,15.554-18.35-1.588-20.8.248a44.368,44.368,0,0,1-7.277,3.862,58.014,58.014,0,0,1,7.435,2.008c1.661.791,2.452,1.9,4.034,1.345s1.74-2.531,3.559-1.345,5.7,2.61,6.881,1.9,1.345-2.531,3.085-1.5S548.95,907.943,551.4,906.778Z" fill="#dba9a7"/>
            </g>
            <g id="Grupo_5527" data-name="Grupo 5527">
              <path id="Trazado_15200" data-name="Trazado 15200" d="M546.572,872.387a.166.166,0,0,1,.31-.113c.926,1.857,2.7,4.923,4.359,4.923,1.671,0,3.5-3.335,4.435-5.307a.126.126,0,0,1,.235.089,33.581,33.581,0,0,1-1.684,4.981c-.98,2,1.689,3.559.178,6.011-.793,1.286,1.435,21.355-2.921,21.2s-22.863-.779-25.4.791-5.853-.347-5.853-.347a20.692,20.692,0,0,1,8.45-7.562c5.606-2.61,13.459,1.426,16.781-1.264s3.48-12.736,3.48-12.736Z" fill="#c69691"/>
            </g>
            <g id="Grupo_5548" data-name="Grupo 5548">
              <g id="Grupo_5528" data-name="Grupo 5528">
                <path id="Trazado_15201" data-name="Trazado 15201" d="M541.592,896.812a1.126,1.126,0,0,1-.279.118A1.126,1.126,0,0,0,541.592,896.812Z" fill="#b46618"/>
              </g>
              <g id="Grupo_5529" data-name="Grupo 5529">
                <path id="Trazado_15202" data-name="Trazado 15202" d="M540.553,896.962a3.68,3.68,0,0,1-.726-.2A3.68,3.68,0,0,0,540.553,896.962Z" fill="#b46618"/>
              </g>
              <g id="Grupo_5530" data-name="Grupo 5530">
                <path id="Trazado_15203" data-name="Trazado 15203" d="M541.22,896.951a1.593,1.593,0,0,1-.22.031A1.593,1.593,0,0,0,541.22,896.951Z" fill="#b46618"/>
              </g>
              <g id="Grupo_5531" data-name="Grupo 5531">
                <path id="Trazado_15204" data-name="Trazado 15204" d="M539.34,896.555c-.1-.046-.191-.095-.285-.145C539.149,896.461,539.244,896.509,539.34,896.555Z" fill="#b46618"/>
              </g>
              <g id="Grupo_5532" data-name="Grupo 5532">
                <path id="Trazado_15205" data-name="Trazado 15205" d="M540.891,896.986a2.268,2.268,0,0,1-.244-.014A2.268,2.268,0,0,0,540.891,896.986Z" fill="#b46618"/>
              </g>
              <g id="Grupo_5533" data-name="Grupo 5533">
                <path id="Trazado_15206" data-name="Trazado 15206" d="M539.731,896.726c-.094-.038-.188-.078-.283-.121C539.543,896.649,539.637,896.688,539.731,896.726Z" fill="#b46618"/>
              </g>
              <g id="Grupo_5534" data-name="Grupo 5534">
                <path id="Trazado_15207" data-name="Trazado 15207" d="M532.838,896.214c-.067-.007-.134-.01-.2-.02C532.7,896.2,532.771,896.207,532.838,896.214Z" fill="#b46618"/>
              </g>
              <g id="Grupo_5535" data-name="Grupo 5535">
                <path id="Trazado_15208" data-name="Trazado 15208" d="M535.419,895.959l-.161.049Z" fill="#b46618"/>
              </g>
              <g id="Grupo_5536" data-name="Grupo 5536">
                <path id="Trazado_15209" data-name="Trazado 15209" d="M534.174,896.219c-.071.008-.142.017-.214.022C534.032,896.236,534.1,896.227,534.174,896.219Z" fill="#b46618"/>
              </g>
              <g id="Grupo_5537" data-name="Grupo 5537">
                <path id="Trazado_15210" data-name="Trazado 15210" d="M538.969,896.365c-.244-.133-.482-.277-.706-.423C538.487,896.088,538.725,896.232,538.969,896.365Z" fill="#b46618"/>
              </g>
              <g id="Grupo_5540" data-name="Grupo 5540">
                <g id="Grupo_5538" data-name="Grupo 5538">
                  <path id="Trazado_15211" data-name="Trazado 15211" d="M526.742,890.223c.154,5.275,6.315,9.7,11.018,6.39h0c2.378-1.672,3.465-5.026,1.783-7.563-1.587-2.394-5.226-3.09-7.1-.627-1.685,2.212-.046,6.385,3.111,5.256a2.384,2.384,0,0,0,1.4-3.328c-.749-1.265-2.836-1.367-3.248.24.412-1.607,2.5-1.505,3.248-.24a2.384,2.384,0,0,1-1.4,3.328c-3.157,1.129-4.8-3.044-3.111-5.256,1.877-2.463,5.516-1.767,7.1.627,1.682,2.537.595,5.891-1.783,7.563,1.031.82,5.692,1.066,6.451.724,1.113-.5,2.234-1.009,3.377-1.44.714-.269.463-3.693.394-4.343a12.22,12.22,0,0,0-9.113-10.539C533.644,879.677,526.56,884,526.742,890.223Z" fill="#976c69"/>
                </g>
                <g id="Grupo_5539" data-name="Grupo 5539">
                  <path id="Trazado_15212" data-name="Trazado 15212" d="M527.1,890.187a8.424,8.424,0,0,0,2.832,5.617,7.365,7.365,0,0,0,3.755,1.686,6.539,6.539,0,0,0,4.043-.926l0,.095c-.005,0-.086-.072-.092-.073.013,0,.031.036.046.036l.073-.093.047.037-.071,0c2.36-1.667,3.437-5.1,1.708-7.6-1.6-2.308-5.342-2.957-7.061-.412-1.6,2.37.589,6.736,3.615,4.873a2.251,2.251,0,0,0,.7-3.344,1.961,1.961,0,0,0-1.68-.619,1.475,1.475,0,0,0-.877.443c-.134.143-.334.751-.489.67.471-1.5,2.455-1.577,3.439-.527a2.2,2.2,0,0,1-.553,3.287c-2.876,2.008-6.342-1.566-4.784-4.5,1.477-2.781,5.689-2.368,7.5-.225,2.114,2.506,1.06,6.26-1.45,8.049l0-.1a7.292,7.292,0,0,0,3.289.5,7.37,7.37,0,0,0,3.015-.244c1.074-.517,2.141-1.052,3.23-1.536-.045.02-.045.019,0,0a.312.312,0,0,0-.114.079c.144-.171.122-.648.133-.854.023-.541.015-1.084-.01-1.625a19.538,19.538,0,0,0-.221-2.036A11.194,11.194,0,0,0,546,887.435a12.963,12.963,0,0,0-4.134-4.865,8.811,8.811,0,0,0-7.293-1.469,10.723,10.723,0,0,0-4.8,2.732,9.078,9.078,0,0,0-1.3,1.6A9.534,9.534,0,0,0,527.1,890.187Zm-.587.042c.152-4.457,3.109-7.4,7.049-8.905,4.945-1.887,10.665.915,13.439,5.089a10.8,10.8,0,0,1,1.434,3.42,12.2,12.2,0,0,1,.313,1.984,8.481,8.481,0,0,1-.31,4.106c-.4.782-1.494.944-2.248,1.226l-1.6.6a6.848,6.848,0,0,1-3.319.045,7.209,7.209,0,0,1-3.612-1.184,5.59,5.59,0,0,0,1.782-7.646c-1.627-2.329-5.4-2.948-6.952-.21-1.188,2.1.06,6.047,3,4.927a2.372,2.372,0,0,0,1.325-3.459,1.94,1.94,0,0,0-1.809-.792,1.484,1.484,0,0,0-1.016.622c-.093.141-.137.641-.345.528.456-1.71,2.784-1.5,3.447-.058.718,1.56-.673,3.158-2.2,3.357a2.948,2.948,0,0,1-3.109-2.862,3.671,3.671,0,0,1,2.539-3.936,5.6,5.6,0,0,1,6.391,2.831,5.087,5.087,0,0,1-.59,5.042,5,5,0,0,1-1.911,1.623c-.108.05-.446.254-.536.145-.063-.078.033-.185.108-.232,0-.009-.054-.02-.057-.022s.129.137.137.153a7.278,7.278,0,0,1-3.479,1.261,6.887,6.887,0,0,1-3.757-1A8.4,8.4,0,0,1,526.509,890.229Z" fill="#7f4e4d"/>
                </g>
              </g>
              <g id="Grupo_5541" data-name="Grupo 5541">
                <path id="Trazado_15213" data-name="Trazado 15213" d="M533.523,896.253c-.075,0-.149,0-.224,0C533.374,896.255,533.448,896.253,533.523,896.253Z" fill="#b46618"/>
              </g>
              <g id="Grupo_5542" data-name="Grupo 5542">
                <path id="Trazado_15214" data-name="Trazado 15214" d="M534.806,896.12l-.192.039Z" fill="#b46618"/>
              </g>
              <g id="Grupo_5543" data-name="Grupo 5543">
                <path id="Trazado_15215" data-name="Trazado 15215" d="M538.159,895.873c-.074-.048-.145-.1-.215-.145Z" fill="#b46618"/>
              </g>
              <g id="Grupo_5544" data-name="Grupo 5544">
                <path id="Trazado_15216" data-name="Trazado 15216" d="M536.012,895.736c-.04.018-.081.034-.121.05C535.931,895.77,535.972,895.754,536.012,895.736Z" fill="#b46618"/>
              </g>
              <g id="Grupo_5545" data-name="Grupo 5545">
                <path id="Trazado_15217" data-name="Trazado 15217" d="M537.825,895.645c-.06-.042-.117-.083-.173-.124C537.708,895.562,537.765,895.6,537.825,895.645Z" fill="#b46618"/>
              </g>
              <g id="Grupo_5546" data-name="Grupo 5546">
                <path id="Trazado_15218" data-name="Trazado 15218" d="M537.536,895.436c-.045-.033-.085-.063-.126-.095C537.451,895.373,537.491,895.4,537.536,895.436Z" fill="#b46618"/>
              </g>
              <g id="Grupo_5547" data-name="Grupo 5547">
                <path id="Trazado_15219" data-name="Trazado 15219" d="M536.58,895.455l-.071.038Z" fill="#b46618"/>
              </g>
            </g>
          </g>
          <g id="Grupo_5550" data-name="Grupo 5550">
            <path id="Trazado_15220" data-name="Trazado 15220" d="M529.292,886.454a.437.437,0,0,1-.384-.648,7.747,7.747,0,0,1,4.269-3.572.438.438,0,0,1,.245.842,6.975,6.975,0,0,0-3.745,3.15A.439.439,0,0,1,529.292,886.454Z" fill="#c69691"/>
          </g>
          <g id="Grupo_5551" data-name="Grupo 5551">
            <path id="Trazado_15221" data-name="Trazado 15221" d="M548.494,876.3a9.886,9.886,0,0,1,1.192,1.789,12.182,12.182,0,0,1,.878,2,7.732,7.732,0,0,1,.346,1.258,6.233,6.233,0,0,1,.1.849,4.193,4.193,0,0,1-.023.659c-.042.821-.129,1.638-.229,2.4s-.237,1.478-.379,2.088a14,14,0,0,1-.593,2.025l-.054.133a.427.427,0,0,1-.822-.179s.148-3.281.295-6.563a5.077,5.077,0,0,0,.012-.6,4.862,4.862,0,0,0-.054-.528c-.076-.379-.147-.752-.252-1.119-.185-.731-.4-1.414-.586-2-.373-1.166-.651-1.931-.651-1.931a.421.421,0,0,1,.709-.425Z" fill="#f3d5d5"/>
          </g>
        </g>
        <g id="Grupo_5555" data-name="Grupo 5555">
          <g id="Grupo_5553" data-name="Grupo 5553">
            <path id="Trazado_15222" data-name="Trazado 15222" d="M542.836,867.209a28.178,28.178,0,1,1-28.178,28.178,28.178,28.178,0,0,1,28.178-28.178Zm0-6.135a34.313,34.313,0,1,0,34.313,34.313,34.351,34.351,0,0,0-34.313-34.313Z" fill="#ce4339"/>
          </g>
          <g id="Grupo_5554" data-name="Grupo 5554">
            <rect id="Rectángulo_1038" data-name="Rectángulo 1038" width="59.623" height="3.285" transform="translate(520.599 914.859) rotate(-44.999)" fill="#ce4339"/>
          </g>
        </g>
      </g>
      <g id="Grupo_5617" data-name="Grupo 5617">
        <g id="Grupo_5613" data-name="Grupo 5613">
          <g id="Grupo_5584" data-name="Grupo 5584">
            <g id="Grupo_5557" data-name="Grupo 5557">
              <path id="Trazado_15223" data-name="Trazado 15223" d="M732.377,875.761l2.085.124a16.756,16.756,0,0,1,13.707,8.711l.248.457H747.36l-.041-.079a16.741,16.741,0,0,0-12.711-8.922Z" fill="#3d2c21"/>
            </g>
            <g id="Grupo_5558" data-name="Grupo 5558">
              <path id="Trazado_15224" data-name="Trazado 15224" d="M748.985,885.288l-.263-.779a4.286,4.286,0,0,1-.1-2.4l.364-1.478-.748.982a4.289,4.289,0,0,0-.752,3.637l.173.694Z" fill="#be6435"/>
            </g>
            <g id="Grupo_5570" data-name="Grupo 5570">
              <g id="Grupo_5559" data-name="Grupo 5559">
                <path id="Trazado_15225" data-name="Trazado 15225" d="M750.135,886.02v-2.734H748.2a1.749,1.749,0,0,0-1.749,1.749v.035a1.748,1.748,0,0,0,1.419,1.716,3.631,3.631,0,0,1,2.231-.766Z" fill="#c37044"/>
              </g>
              <g id="Grupo_5560" data-name="Grupo 5560">
                <path id="Trazado_15226" data-name="Trazado 15226" d="M750.135,886.819v-.8H750.1a3.631,3.631,0,0,0-2.231.766,1.79,1.79,0,0,0,.33.033Z" fill="#c37044"/>
              </g>
              <g id="Grupo_5561" data-name="Grupo 5561">
                <path id="Trazado_15227" data-name="Trazado 15227" d="M750.135,898.023H750.1a3.639,3.639,0,0,1-2.678-1.176.566.566,0,0,0-.008.116l.172,1.2a.554.554,0,0,0,.549.476h2Z" fill="#c16a3c"/>
              </g>
              <g id="Grupo_5562" data-name="Grupo 5562">
                <path id="Trazado_15228" data-name="Trazado 15228" d="M750.135,898.634h-1.84a.556.556,0,0,0-.55.636l.175,1.2a.555.555,0,0,0,.55.475h1.665Z" fill="#c77a51"/>
              </g>
              <g id="Grupo_5563" data-name="Grupo 5563">
                <path id="Trazado_15229" data-name="Trazado 15229" d="M750.135,900.946h-1.5a.556.556,0,0,0-.55.634l.172,1.2a.556.556,0,0,0,.55.477h1.332Z" fill="#c98059"/>
              </g>
              <g id="Grupo_5564" data-name="Grupo 5564">
                <path id="Trazado_15230" data-name="Trazado 15230" d="M750.135,903.252h-1.172a.555.555,0,0,0-.55.634l.172,1.2a.556.556,0,0,0,.55.476h1Z" fill="#cb8660"/>
              </g>
              <g id="Grupo_5565" data-name="Grupo 5565">
                <path id="Trazado_15231" data-name="Trazado 15231" d="M750.135,905.557h-.841a.555.555,0,0,0-.549.634l.172,1.2a.556.556,0,0,0,.55.477h.668Z" fill="#cd8c68"/>
              </g>
              <g id="Grupo_5566" data-name="Grupo 5566">
                <path id="Trazado_15232" data-name="Trazado 15232" d="M750.135,907.869h-.509a.555.555,0,0,0-.549.634l.172,1.2a.555.555,0,0,0,.549.476h.337Z" fill="#cf916e"/>
              </g>
              <g id="Grupo_5567" data-name="Grupo 5567">
                <path id="Trazado_15233" data-name="Trazado 15233" d="M750.135,911.565v-1.391h-.177a.556.556,0,0,0-.55.635l.121.842.073-.086Z" fill="#d29776"/>
              </g>
              <g id="Grupo_5568" data-name="Grupo 5568">
                <path id="Trazado_15234" data-name="Trazado 15234" d="M750.131,912.486a.489.489,0,0,1-.549-.452c-.018-.127-.035-.255-.053-.383a15.417,15.417,0,0,1-1.674,1.99,3.52,3.52,0,0,0,2.28,0v-1.155Z" fill="#c37044"/>
              </g>
              <g id="Grupo_5569" data-name="Grupo 5569">
                <path id="Trazado_15235" data-name="Trazado 15235" d="M750.131,912.487h0v-.921H749.6l-.073.086q.026.18.051.366C749.616,912.293,749.857,912.582,750.131,912.487Z" fill="#c37044"/>
              </g>
            </g>
            <g id="Grupo_5571" data-name="Grupo 5571">
              <path id="Trazado_15236" data-name="Trazado 15236" d="M747.885,905.753l-1.107-2.006.01.87Z" fill="#39291c"/>
            </g>
            <g id="Grupo_5582" data-name="Grupo 5582">
              <g id="Grupo_5581" data-name="Grupo 5581">
                <g id="Grupo_5572" data-name="Grupo 5572">
                  <path id="Trazado_15237" data-name="Trazado 15237" d="M746.491,889.14,729.4,882.391a1.746,1.746,0,0,0-2.357,1.949l.688,3.64a4.313,4.313,0,0,0,4.237,3.511h15.446Z" fill="#d4f0f1"/>
                </g>
                <g id="Grupo_5573" data-name="Grupo 5573">
                  <path id="Trazado_15238" data-name="Trazado 15238" d="M747.418,893.538l-5.086,4.815a4.126,4.126,0,0,1-6.2-.611l-2.478-3.495a1.746,1.746,0,0,1,1.425-2.756h12.341Z" fill="#c9ebec"/>
                </g>
                <g id="Grupo_5574" data-name="Grupo 5574">
                  <path id="Trazado_15239" data-name="Trazado 15239" d="M746.788,893.762l-4.221,9.9-5.75,7.351,6.332-7.205,4.27-7.787Z" fill="#3d2c21"/>
                </g>
                <g id="Grupo_5575" data-name="Grupo 5575">
                  <path id="Trazado_15240" data-name="Trazado 15240" d="M743.986,905.557l-.509-2.771-.328,1.019Z" fill="#3d2c21"/>
                </g>
                <g id="Grupo_5576" data-name="Grupo 5576">
                  <path id="Trazado_15241" data-name="Trazado 15241" d="M738.223,909.41l.341-.389.327,2.308Z" fill="#3d2c21"/>
                </g>
                <g id="Grupo_5577" data-name="Grupo 5577">
                  <path id="Trazado_15242" data-name="Trazado 15242" d="M747.007,895.933l-.706,8.721-1.951,5.264.083.291,2.355-5.593,1.287-7.106Z" fill="#3d2c21"/>
                </g>
                <g id="Grupo_5578" data-name="Grupo 5578">
                  <path id="Trazado_15243" data-name="Trazado 15243" d="M744.432,910.209l.163-.388.847,1.7Z" fill="#3d2c21"/>
                </g>
                <g id="Grupo_5579" data-name="Grupo 5579">
                  <path id="Trazado_15244" data-name="Trazado 15244" d="M741.547,915.013l2.885-4.8.619-1.84Z" fill="#3d2c21"/>
                </g>
                <g id="Grupo_5580" data-name="Grupo 5580">
                  <path id="Trazado_15245" data-name="Trazado 15245" d="M743.149,915.013l-.864-1.068.209-.3Z" fill="#3d2c21"/>
                </g>
              </g>
            </g>
            <g id="Grupo_5583" data-name="Grupo 5583">
              <path id="Trazado_15246" data-name="Trazado 15246" d="M748.2,886.819a1.79,1.79,0,0,1-.33-.033,3.641,3.641,0,0,0-1.419,2.885v4.7a3.66,3.66,0,0,0,3.65,3.651h.037v-11.2Z" fill="#c77a51"/>
            </g>
          </g>
          <g id="Grupo_5612" data-name="Grupo 5612">
            <g id="Grupo_5585" data-name="Grupo 5585">
              <path id="Trazado_15247" data-name="Trazado 15247" d="M767.893,875.761l-2.084.124A16.756,16.756,0,0,0,752.1,884.6l-.249.457h1.058l.041-.079a16.741,16.741,0,0,1,12.711-8.922Z" fill="#3d2c21"/>
            </g>
            <g id="Grupo_5586" data-name="Grupo 5586">
              <path id="Trazado_15248" data-name="Trazado 15248" d="M751.286,885.288l.263-.779a4.286,4.286,0,0,0,.1-2.4l-.364-1.478.748.982a4.293,4.293,0,0,1,.752,3.637l-.173.694Z" fill="#be6435"/>
            </g>
            <g id="Grupo_5598" data-name="Grupo 5598">
              <g id="Grupo_5587" data-name="Grupo 5587">
                <path id="Trazado_15249" data-name="Trazado 15249" d="M750.135,886.02v-2.734h1.939a1.749,1.749,0,0,1,1.749,1.749v.035a1.748,1.748,0,0,1-1.419,1.716,3.634,3.634,0,0,0-2.232-.766Z" fill="#bf5824"/>
              </g>
              <g id="Grupo_5588" data-name="Grupo 5588">
                <path id="Trazado_15250" data-name="Trazado 15250" d="M750.135,886.819v-.8h.037a3.634,3.634,0,0,1,2.232.766,1.79,1.79,0,0,1-.33.033Z" fill="#c16a3c"/>
              </g>
              <g id="Grupo_5589" data-name="Grupo 5589">
                <path id="Trazado_15251" data-name="Trazado 15251" d="M750.135,898.023h.037a3.636,3.636,0,0,0,2.678-1.176.5.5,0,0,1,.009.116l-.172,1.2a.554.554,0,0,1-.55.476h-2Z" fill="#c16a3c"/>
              </g>
              <g id="Grupo_5590" data-name="Grupo 5590">
                <path id="Trazado_15252" data-name="Trazado 15252" d="M750.135,898.634h1.841a.556.556,0,0,1,.55.636l-.176,1.2a.554.554,0,0,1-.549.475h-1.666Z" fill="#c37044"/>
              </g>
              <g id="Grupo_5591" data-name="Grupo 5591">
                <path id="Trazado_15253" data-name="Trazado 15253" d="M750.135,900.946h1.505a.556.556,0,0,1,.55.634l-.172,1.2a.556.556,0,0,1-.55.477h-1.333Z" fill="#c77a51"/>
              </g>
              <g id="Grupo_5592" data-name="Grupo 5592">
                <path id="Trazado_15254" data-name="Trazado 15254" d="M750.135,903.252h1.173a.555.555,0,0,1,.55.634l-.172,1.2a.556.556,0,0,1-.55.476h-1Z" fill="#c77a51"/>
              </g>
              <g id="Grupo_5593" data-name="Grupo 5593">
                <path id="Trazado_15255" data-name="Trazado 15255" d="M750.135,905.557h.841a.555.555,0,0,1,.55.634l-.172,1.2a.556.556,0,0,1-.55.477h-.669Z" fill="#c98059"/>
              </g>
              <g id="Grupo_5594" data-name="Grupo 5594">
                <path id="Trazado_15256" data-name="Trazado 15256" d="M750.135,907.869h.509a.555.555,0,0,1,.55.634l-.172,1.2a.556.556,0,0,1-.55.476h-.337Z" fill="#c98059"/>
              </g>
              <g id="Grupo_5595" data-name="Grupo 5595">
                <path id="Trazado_15257" data-name="Trazado 15257" d="M750.135,911.565v-1.391h.178a.555.555,0,0,1,.549.635l-.121.842-.072-.086Z" fill="#cb8660"/>
              </g>
              <g id="Grupo_5596" data-name="Grupo 5596">
                <path id="Trazado_15258" data-name="Trazado 15258" d="M750.14,912.486a.49.49,0,0,0,.549-.452c.017-.127.035-.255.052-.383a15.419,15.419,0,0,0,1.675,1.99,3.523,3.523,0,0,1-2.281,0v-1.155Z" fill="#c37044"/>
              </g>
              <g id="Grupo_5597" data-name="Grupo 5597">
                <path id="Trazado_15259" data-name="Trazado 15259" d="M750.14,912.487h-.005v-.921h.534l.072.086q-.026.18-.051.366C750.655,912.293,750.413,912.582,750.14,912.487Z" fill="#c37044"/>
              </g>
            </g>
            <g id="Grupo_5599" data-name="Grupo 5599">
              <path id="Trazado_15260" data-name="Trazado 15260" d="M752.386,905.753l1.107-2.006-.01.87Z" fill="#39291c"/>
            </g>
            <g id="Grupo_5610" data-name="Grupo 5610">
              <g id="Grupo_5609" data-name="Grupo 5609">
                <g id="Grupo_5600" data-name="Grupo 5600">
                  <path id="Trazado_15261" data-name="Trazado 15261" d="M753.78,889.14l17.087-6.749a1.746,1.746,0,0,1,2.357,1.949l-.688,3.64a4.313,4.313,0,0,1-4.238,3.511H752.852Z" fill="#c9ebec"/>
                </g>
                <g id="Grupo_5601" data-name="Grupo 5601">
                  <path id="Trazado_15262" data-name="Trazado 15262" d="M752.852,893.538l5.087,4.815a4.126,4.126,0,0,0,6.2-.611l2.478-3.495a1.746,1.746,0,0,0-1.425-2.756H752.852Z" fill="#b7e5e6"/>
                </g>
                <g id="Grupo_5602" data-name="Grupo 5602">
                  <path id="Trazado_15263" data-name="Trazado 15263" d="M753.483,893.762l4.221,9.9,5.75,7.351-6.332-7.205-4.27-7.787Z" fill="#3d2c21"/>
                </g>
                <g id="Grupo_5603" data-name="Grupo 5603">
                  <path id="Trazado_15264" data-name="Trazado 15264" d="M756.285,905.557l.509-2.771.328,1.019Z" fill="#3d2c21"/>
                </g>
                <g id="Grupo_5604" data-name="Grupo 5604">
                  <path id="Trazado_15265" data-name="Trazado 15265" d="M762.048,909.41l-.342-.389-.327,2.308Z" fill="#3d2c21"/>
                </g>
                <g id="Grupo_5605" data-name="Grupo 5605">
                  <path id="Trazado_15266" data-name="Trazado 15266" d="M753.264,895.933l.706,8.721,1.951,5.264-.082.291-2.355-5.593L752.2,897.51Z" fill="#3d2c21"/>
                </g>
                <g id="Grupo_5606" data-name="Grupo 5606">
                  <path id="Trazado_15267" data-name="Trazado 15267" d="M755.839,910.209l-.163-.388-.847,1.7Z" fill="#3d2c21"/>
                </g>
                <g id="Grupo_5607" data-name="Grupo 5607">
                  <path id="Trazado_15268" data-name="Trazado 15268" d="M758.723,915.013l-2.884-4.8-.619-1.84Z" fill="#3d2c21"/>
                </g>
                <g id="Grupo_5608" data-name="Grupo 5608">
                  <path id="Trazado_15269" data-name="Trazado 15269" d="M757.122,915.013l.864-1.068-.209-.3Z" fill="#3d2c21"/>
                </g>
              </g>
            </g>
            <g id="Grupo_5611" data-name="Grupo 5611">
              <path id="Trazado_15270" data-name="Trazado 15270" d="M752.074,886.819a1.79,1.79,0,0,0,.33-.033,3.641,3.641,0,0,1,1.419,2.885v4.7a3.662,3.662,0,0,1-3.651,3.651h-.037v-11.2Z" fill="#bf501b"/>
            </g>
          </g>
        </g>
        <g id="Grupo_5616" data-name="Grupo 5616">
          <g id="Grupo_5614" data-name="Grupo 5614">
            <path id="Trazado_15271" data-name="Trazado 15271" d="M750.135,867.209a28.178,28.178,0,1,1-28.177,28.178,28.177,28.177,0,0,1,28.177-28.178Zm0-6.135a34.313,34.313,0,1,0,34.313,34.313,34.351,34.351,0,0,0-34.313-34.313Z" fill="#ce4339"/>
          </g>
          <g id="Grupo_5615" data-name="Grupo 5615">
            <rect id="Rectángulo_1039" data-name="Rectángulo 1039" width="59.623" height="3.285" transform="translate(727.899 914.86) rotate(-45)" fill="#ce4339"/>
          </g>
        </g>
      </g>
      <g id="Grupo_5684" data-name="Grupo 5684">
        <g id="Grupo_5680" data-name="Grupo 5680">
          <g id="Grupo_5648" data-name="Grupo 5648">
            <g id="Grupo_5618" data-name="Grupo 5618">
              <path id="Trazado_15272" data-name="Trazado 15272" d="M632.875,899.3l5.968-3.713c0-.049-.007-.1,0-.145a21.185,21.185,0,0,1,.423-2.832l-7.489,6.482a.338.338,0,0,0-.078.5l.968-.507Z" fill="#3d2c21"/>
            </g>
            <g id="Grupo_5619" data-name="Grupo 5619">
              <path id="Trazado_15273" data-name="Trazado 15273" d="M632.875,899.3l-.647.4a.415.415,0,0,1-.533-.109l-.007,0,4.917,4.346c.03.031.054.064.083.095l.441-.441Z" fill="#3d2c21"/>
            </g>
            <g id="Grupo_5620" data-name="Grupo 5620">
              <path id="Trazado_15274" data-name="Trazado 15274" d="M632.228,899.7l.647-.4-.212-.214-.968.507A.415.415,0,0,0,632.228,899.7Z" fill="#3d2c21"/>
            </g>
            <g id="Grupo_5621" data-name="Grupo 5621">
              <path id="Trazado_15275" data-name="Trazado 15275" d="M634.365,907.33l3.011-2.189a3.373,3.373,0,0,0-.688-1.106l-3.174,3.175a.29.29,0,0,0-.013.41l.668-.486Z" fill="#583c1c"/>
            </g>
            <g id="Grupo_5622" data-name="Grupo 5622">
              <path id="Trazado_15276" data-name="Trazado 15276" d="M636.694,909.666l-2.329-2.336-.462.335a.29.29,0,0,1-.4-.045l-.005,0,4.055,3.6a2.8,2.8,0,0,1,.9,2.542l-.367,2.25.67-2.171a2.8,2.8,0,0,0-.692-2.8l-1.348-1.35-.09.192Z" fill="#583c1c"/>
            </g>
            <g id="Grupo_5623" data-name="Grupo 5623">
              <path id="Trazado_15277" data-name="Trazado 15277" d="M633.9,907.665l.462-.335-.2-.2-.668.486A.29.29,0,0,0,633.9,907.665Z" fill="#583c1c"/>
            </g>
            <g id="Grupo_5624" data-name="Grupo 5624">
              <path id="Trazado_15278" data-name="Trazado 15278" d="M642.129,910.47l-3.048,3.049a.2.2,0,0,0-.009.281l.459-.333.135.134,2.815-2.046-.334-1C642.137,910.527,642.137,910.5,642.129,910.47Z" fill="#674e31"/>
            </g>
            <g id="Grupo_5625" data-name="Grupo 5625">
              <path id="Trazado_15279" data-name="Trazado 15279" d="M639.072,913.8l0,0,2.787,2.471a1.921,1.921,0,0,1,.621,1.747l-.252,1.545.46-1.492a1.921,1.921,0,0,0-.475-1.923l-2.543-2.55-.318.231A.2.2,0,0,1,639.072,913.8Z" fill="#674e31"/>
            </g>
            <g id="Grupo_5626" data-name="Grupo 5626">
              <path id="Trazado_15280" data-name="Trazado 15280" d="M646.034,882.916l-1.5.2-.018-.128c-.021-.149-.058-.292-.084-.439a3,3,0,0,0-1.047.983v1.655a.961.961,0,0,1-.113.446,4.616,4.616,0,0,1,1.743-.351h1.466v-3.015h-.667c.016.063.041.122.056.186A1.412,1.412,0,0,0,646.034,882.916Z" fill="#a95c33"/>
            </g>
            <g id="Grupo_5627" data-name="Grupo 5627">
              <path id="Trazado_15281" data-name="Trazado 15281" d="M640.143,894.775l-1.3.809a1.425,1.425,0,0,0,1.42,1.4h6.22v-5.849h-5.758a1.423,1.423,0,0,0-1.388,1.091c-.03.128-.048.257-.075.385l.667-.577Z" fill="#bb8263"/>
            </g>
            <g id="Grupo_5628" data-name="Grupo 5628">
              <path id="Trazado_15282" data-name="Trazado 15282" d="M646.483,896.98h-6.229a1.429,1.429,0,0,0-1.423,1.533,21.162,21.162,0,0,0,.425,2.953l.122-.122.915,1.423a1.421,1.421,0,0,0,.4.062h5.787Z" fill="#c99e83"/>
            </g>
            <g id="Grupo_5629" data-name="Grupo 5629">
              <path id="Trazado_15283" data-name="Trazado 15283" d="M646.483,902.829h-4.929A1.425,1.425,0,0,0,640.2,904.7c.33,1,.724,2.187.995,3a1.423,1.423,0,0,0,1.352.973h3.935Z" fill="#bb8263"/>
            </g>
            <g id="Grupo_5630" data-name="Grupo 5630">
              <path id="Trazado_15284" data-name="Trazado 15284" d="M643.5,908.678a1.422,1.422,0,0,0-1.37,1.792l.981-.981.705,1.1-1.334.97.049.147a4.133,4.133,0,0,0,3.922,2.825h.031v-5.849Z" fill="#b37350"/>
            </g>
            <g id="Grupo_5631" data-name="Grupo 5631">
              <path id="Trazado_15285" data-name="Trazado 15285" d="M646.486,885.285v5.845H641.62a1.426,1.426,0,0,1-1.315-1.966c.067-.168.14-.329.214-.5.088-.208.175-.416.269-.624l.053-.114a5.48,5.48,0,0,1,.309-.544,4.593,4.593,0,0,1,1.181-1.228c.115-.08.235-.161.356-.235a3.907,3.907,0,0,1,.584-.288,4.534,4.534,0,0,1,1.745-.349Z" fill="#b37350"/>
            </g>
            <g id="Grupo_5632" data-name="Grupo 5632">
              <path id="Trazado_15286" data-name="Trazado 15286" d="M642.414,871.207a8.839,8.839,0,0,1-2.044,3.824c.14.082.269.179.405.266A14.282,14.282,0,0,0,642.414,871.207Z" fill="#3d2c21"/>
            </g>
            <g id="Grupo_5633" data-name="Grupo 5633">
              <path id="Trazado_15287" data-name="Trazado 15287" d="M638.843,895.584l1.3-.809-.214-2.745-.667.577a21.185,21.185,0,0,0-.423,2.832C638.836,895.488,638.842,895.535,638.843,895.584Z" fill="#bb8263"/>
            </g>
            <g id="Grupo_5634" data-name="Grupo 5634">
              <path id="Trazado_15288" data-name="Trazado 15288" d="M637.448,907.176l-.754,2.49.025.025,1.125-2.379a3.166,3.166,0,0,0,.067-2.559l-.535.388A3.157,3.157,0,0,1,637.448,907.176Z" fill="#3d2c21"/>
            </g>
            <g id="Grupo_5635" data-name="Grupo 5635">
              <path id="Trazado_15289" data-name="Trazado 15289" d="M639.306,901.729c-.02-.087-.031-.176-.05-.263l-2.127,2.128.194.2a3.35,3.35,0,0,1,.588.963l2.382-1.986A1.414,1.414,0,0,1,639.306,901.729Z" fill="#583c1c"/>
            </g>
            <g id="Grupo_5636" data-name="Grupo 5636">
              <path id="Trazado_15290" data-name="Trazado 15290" d="M639.256,901.466c.019.087.03.176.05.263a1.414,1.414,0,0,0,.987,1.038l-.915-1.423Z" fill="#c99e83"/>
            </g>
            <g id="Grupo_5637" data-name="Grupo 5637">
              <path id="Trazado_15291" data-name="Trazado 15291" d="M637.129,903.594l-.441.441a3.373,3.373,0,0,1,.688,1.106l.535-.388a3.35,3.35,0,0,0-.588-.963Z" fill="#583c1c"/>
            </g>
            <g id="Grupo_5638" data-name="Grupo 5638">
              <path id="Trazado_15292" data-name="Trazado 15292" d="M636.629,909.883l.091-.192-.025-.025Z" fill="#39291c"/>
            </g>
            <g id="Grupo_5639" data-name="Grupo 5639">
              <path id="Trazado_15293" data-name="Trazado 15293" d="M643.11,909.489l-.981.981c.008.028.008.057.018.086l.334,1,1.334-.97Z" fill="#b37350"/>
            </g>
            <g id="Grupo_5640" data-name="Grupo 5640">
              <path id="Trazado_15294" data-name="Trazado 15294" d="M639.072,913.8a.2.2,0,0,0,.276.032l.318-.231-.135-.134Z" fill="#674e31"/>
            </g>
            <g id="Grupo_5641" data-name="Grupo 5641">
              <path id="Trazado_15295" data-name="Trazado 15295" d="M642.688,885.872a4.155,4.155,0,0,1,.7-2.34v-.29a.975.975,0,0,0-.975-.975h-.02a.975.975,0,0,0-.976.975v1.945a.973.973,0,0,0,.917.969c.116-.083.232-.163.355-.234Z" fill="#3d2c21"/>
            </g>
            <g id="Grupo_5642" data-name="Grupo 5642">
              <path id="Trazado_15296" data-name="Trazado 15296" d="M642.688,885.922a4.492,4.492,0,0,1,.586-.289.961.961,0,0,0,.113-.446v-1.655a4.155,4.155,0,0,0-.7,2.34Z" fill="#a95c33"/>
            </g>
            <g id="Grupo_5643" data-name="Grupo 5643">
              <path id="Trazado_15297" data-name="Trazado 15297" d="M644.434,882.549a2.335,2.335,0,0,1,1.108-.282h.274a11.812,11.812,0,0,0-5.041-6.97,4.473,4.473,0,0,1-.279.37A11.724,11.724,0,0,1,644.434,882.549Z" fill="#a95c33"/>
            </g>
            <g id="Grupo_5644" data-name="Grupo 5644">
              <path id="Trazado_15298" data-name="Trazado 15298" d="M639.082,874.38l-.828-.354,1.372.962c.149.1.285.223.428.334q.166-.143.316-.291A11.416,11.416,0,0,0,639.082,874.38Z" fill="#a95c33"/>
            </g>
            <g id="Grupo_5645" data-name="Grupo 5645">
              <path id="Trazado_15299" data-name="Trazado 15299" d="M644.434,882.549c.026.147.063.29.084.439l.018.128,1.5-.2a1.412,1.412,0,0,1-.162-.463c-.015-.064-.04-.123-.056-.186h-.274A2.335,2.335,0,0,0,644.434,882.549Z" fill="#a95c33"/>
            </g>
            <g id="Grupo_5646" data-name="Grupo 5646">
              <path id="Trazado_15300" data-name="Trazado 15300" d="M640.775,875.3c-.136-.087-.265-.184-.405-.266q-.15.148-.316.291c.148.114.3.224.442.345A4.473,4.473,0,0,0,640.775,875.3Z" fill="#a95c33"/>
            </g>
            <g id="Grupo_5647" data-name="Grupo 5647">
              <path id="Trazado_15301" data-name="Trazado 15301" d="M635.46,883.079a15.93,15.93,0,0,1,.661-2.782c1.014-3.149,2.61-3,4.058-4.295a3.282,3.282,0,0,0,.317-.335c-.142-.121-.294-.231-.442-.345a9.212,9.212,0,0,1-2.135,1.329c-2.4,1.124-3.224,4.773-3.434,5.959-.042.236-.062.383-.062.383l.451.511.518.474,5.124,4.692c.09-.209.175-.419.273-.625l.054-.114a4.665,4.665,0,0,1,.306-.546Z" fill="#3d2c21"/>
            </g>
          </g>
          <g id="Grupo_5679" data-name="Grupo 5679">
            <g id="Grupo_5649" data-name="Grupo 5649">
              <path id="Trazado_15302" data-name="Trazado 15302" d="M660.1,899.3l-5.969-3.713a1.4,1.4,0,0,0,0-.145,21.192,21.192,0,0,0-.422-2.832l7.489,6.482a.337.337,0,0,1,.077.5l-.968-.507Z" fill="#3d2c21"/>
            </g>
            <g id="Grupo_5650" data-name="Grupo 5650">
              <path id="Trazado_15303" data-name="Trazado 15303" d="M660.1,899.3l.646.4a.414.414,0,0,0,.533-.109l.008,0-4.917,4.346c-.03.031-.054.064-.083.095l-.441-.441Z" fill="#3d2c21"/>
            </g>
            <g id="Grupo_5651" data-name="Grupo 5651">
              <path id="Trazado_15304" data-name="Trazado 15304" d="M660.743,899.7l-.646-.4.211-.214.968.507A.414.414,0,0,1,660.743,899.7Z" fill="#3d2c21"/>
            </g>
            <g id="Grupo_5652" data-name="Grupo 5652">
              <path id="Trazado_15305" data-name="Trazado 15305" d="M658.607,907.33l-3.012-2.189a3.393,3.393,0,0,1,.689-1.106l3.174,3.175a.291.291,0,0,1,.013.41l-.669-.486Z" fill="#583c1c"/>
            </g>
            <g id="Grupo_5653" data-name="Grupo 5653">
              <path id="Trazado_15306" data-name="Trazado 15306" d="M656.277,909.666l2.33-2.336.462.335a.29.29,0,0,0,.4-.045l.005,0-4.055,3.6a2.793,2.793,0,0,0-.905,2.542l.366,2.25-.669-2.171a2.8,2.8,0,0,1,.692-2.8l1.347-1.35.091.192Z" fill="#583c1c"/>
            </g>
            <g id="Grupo_5654" data-name="Grupo 5654">
              <path id="Trazado_15307" data-name="Trazado 15307" d="M659.069,907.665l-.462-.335.2-.2.669.486A.29.29,0,0,1,659.069,907.665Z" fill="#583c1c"/>
            </g>
            <g id="Grupo_5655" data-name="Grupo 5655">
              <path id="Trazado_15308" data-name="Trazado 15308" d="M650.842,910.47l3.049,3.049a.2.2,0,0,1,.008.281l-.459-.333-.134.134-2.815-2.046.334-1C650.834,910.527,650.835,910.5,650.842,910.47Z" fill="#674e31"/>
            </g>
            <g id="Grupo_5656" data-name="Grupo 5656">
              <path id="Trazado_15309" data-name="Trazado 15309" d="M653.9,913.8l0,0-2.786,2.471a1.921,1.921,0,0,0-.622,1.747l.252,1.545-.46-1.492a1.919,1.919,0,0,1,.476-1.923l2.543-2.55.317.231A.2.2,0,0,0,653.9,913.8Z" fill="#674e31"/>
            </g>
            <g id="Grupo_5657" data-name="Grupo 5657">
              <path id="Trazado_15310" data-name="Trazado 15310" d="M646.938,882.916l1.5.2.018-.128c.02-.149.058-.292.084-.439a3.012,3.012,0,0,1,1.047.983v1.655a.972.972,0,0,0,.112.446,4.615,4.615,0,0,0-1.742-.351h-1.467v-3.015h.668c-.016.063-.041.122-.057.186A1.394,1.394,0,0,1,646.938,882.916Z" fill="#a45228"/>
            </g>
            <g id="Grupo_5658" data-name="Grupo 5658">
              <path id="Trazado_15311" data-name="Trazado 15311" d="M652.829,894.775l1.3.809a1.424,1.424,0,0,1-1.419,1.4h-6.221v-5.849h5.759a1.423,1.423,0,0,1,1.388,1.091c.03.128.047.257.075.385l-.667-.577Z" fill="#b67856"/>
            </g>
            <g id="Grupo_5659" data-name="Grupo 5659">
              <path id="Trazado_15312" data-name="Trazado 15312" d="M646.488,896.98h6.229a1.43,1.43,0,0,1,1.424,1.533,21.155,21.155,0,0,1-.426,2.953l-.122-.122-.915,1.423a1.419,1.419,0,0,1-.4.062h-5.788Z" fill="#bf896b"/>
            </g>
            <g id="Grupo_5660" data-name="Grupo 5660">
              <path id="Trazado_15313" data-name="Trazado 15313" d="M646.488,902.829h4.929a1.425,1.425,0,0,1,1.354,1.873c-.331,1-.725,2.187-1,3a1.422,1.422,0,0,1-1.352.973h-3.935Z" fill="#b67856"/>
            </g>
            <g id="Grupo_5661" data-name="Grupo 5661">
              <path id="Trazado_15314" data-name="Trazado 15314" d="M649.473,908.678a1.421,1.421,0,0,1,1.369,1.792l-.98-.981-.705,1.1,1.334.97-.049.147a4.133,4.133,0,0,1-3.922,2.825h-.032v-5.849Z" fill="#b16f4a"/>
            </g>
            <g id="Grupo_5662" data-name="Grupo 5662">
              <path id="Trazado_15315" data-name="Trazado 15315" d="M646.486,885.285v5.845h4.866a1.426,1.426,0,0,0,1.315-1.966c-.067-.168-.141-.329-.215-.5-.087-.208-.174-.416-.268-.624l-.054-.114a5.292,5.292,0,0,0-.309-.544,4.564,4.564,0,0,0-1.181-1.228c-.114-.08-.235-.161-.356-.235a3.851,3.851,0,0,0-.583-.288,4.538,4.538,0,0,0-1.745-.349Z" fill="#b16f4a"/>
            </g>
            <g id="Grupo_5663" data-name="Grupo 5663">
              <path id="Trazado_15316" data-name="Trazado 15316" d="M650.558,871.207a8.84,8.84,0,0,0,2.044,3.824c-.141.082-.269.179-.406.266A14.3,14.3,0,0,1,650.558,871.207Z" fill="#3d2c21"/>
            </g>
            <g id="Grupo_5664" data-name="Grupo 5664">
              <path id="Trazado_15317" data-name="Trazado 15317" d="M654.128,895.584l-1.3-.809.214-2.745.667.577a21.192,21.192,0,0,1,.422,2.832A1.4,1.4,0,0,1,654.128,895.584Z" fill="#b67856"/>
            </g>
            <g id="Grupo_5665" data-name="Grupo 5665">
              <path id="Trazado_15318" data-name="Trazado 15318" d="M655.523,907.176l.754,2.49-.025.025-1.124-2.379a3.159,3.159,0,0,1-.067-2.559l.534.388A3.164,3.164,0,0,0,655.523,907.176Z" fill="#3d2c21"/>
            </g>
            <g id="Grupo_5666" data-name="Grupo 5666">
              <path id="Trazado_15319" data-name="Trazado 15319" d="M653.666,901.729c.02-.087.03-.176.049-.263l2.128,2.128-.194.2a3.327,3.327,0,0,0-.588.963l-2.383-1.986A1.413,1.413,0,0,0,653.666,901.729Z" fill="#583c1c"/>
            </g>
            <g id="Grupo_5667" data-name="Grupo 5667">
              <path id="Trazado_15320" data-name="Trazado 15320" d="M653.715,901.466a1,1,0,0,0-.049.263c.032.6-.431.941-.988,1.038l.915-1.423Z" fill="#bf896b"/>
            </g>
            <g id="Grupo_5668" data-name="Grupo 5668">
              <path id="Trazado_15321" data-name="Trazado 15321" d="M655.843,903.594l.441.441a3.393,3.393,0,0,0-.689,1.106l-.534-.388a3.327,3.327,0,0,1,.588-.963Z" fill="#583c1c"/>
            </g>
            <g id="Grupo_5669" data-name="Grupo 5669">
              <path id="Trazado_15322" data-name="Trazado 15322" d="M656.343,909.883l-.091-.192.025-.025Z" fill="#39291c"/>
            </g>
            <g id="Grupo_5670" data-name="Grupo 5670">
              <path id="Trazado_15323" data-name="Trazado 15323" d="M649.862,909.489l.98.981c-.007.028-.008.057-.017.086l-.334,1-1.334-.97Z" fill="#b37350"/>
            </g>
            <g id="Grupo_5671" data-name="Grupo 5671">
              <path id="Trazado_15324" data-name="Trazado 15324" d="M653.9,913.8a.2.2,0,0,1-.276.032l-.317-.231.134-.134Z" fill="#674e31"/>
            </g>
            <g id="Grupo_5672" data-name="Grupo 5672">
              <path id="Trazado_15325" data-name="Trazado 15325" d="M650.284,885.872a4.164,4.164,0,0,0-.7-2.34v-.29a.974.974,0,0,1,.975-.975h.02a.975.975,0,0,1,.975.975v1.945a.973.973,0,0,1-.916.969c-.116-.083-.233-.163-.355-.234Z" fill="#3d2c21"/>
            </g>
            <g id="Grupo_5673" data-name="Grupo 5673">
              <path id="Trazado_15326" data-name="Trazado 15326" d="M650.284,885.922a4.5,4.5,0,0,0-.587-.289.972.972,0,0,1-.112-.446v-1.655a4.164,4.164,0,0,1,.7,2.34Z" fill="#a45228"/>
            </g>
            <g id="Grupo_5674" data-name="Grupo 5674">
              <path id="Trazado_15327" data-name="Trazado 15327" d="M648.538,882.549a2.338,2.338,0,0,0-1.108-.282h-.274a11.81,11.81,0,0,1,5.04-6.97c.09.131.183.255.279.37C650.059,877.482,648.385,879.958,648.538,882.549Z" fill="#a45228"/>
            </g>
            <g id="Grupo_5675" data-name="Grupo 5675">
              <path id="Trazado_15328" data-name="Trazado 15328" d="M653.889,874.38l.829-.354-1.372.962c-.149.1-.285.223-.429.334q-.165-.143-.315-.291A11.489,11.489,0,0,1,653.889,874.38Z" fill="#a95c33"/>
            </g>
            <g id="Grupo_5676" data-name="Grupo 5676">
              <path id="Trazado_15329" data-name="Trazado 15329" d="M648.538,882.549c-.026.147-.064.29-.084.439l-.018.128-1.5-.2a1.394,1.394,0,0,0,.161-.463c.016-.064.041-.123.057-.186h.274A2.338,2.338,0,0,1,648.538,882.549Z" fill="#a45228"/>
            </g>
            <g id="Grupo_5677" data-name="Grupo 5677">
              <path id="Trazado_15330" data-name="Trazado 15330" d="M652.2,875.3c.137-.087.265-.184.406-.266q.15.148.315.291c-.148.114-.3.224-.442.345C652.379,875.552,652.286,875.428,652.2,875.3Z" fill="#a95c33"/>
            </g>
            <g id="Grupo_5678" data-name="Grupo 5678">
              <path id="Trazado_15331" data-name="Trazado 15331" d="M657.512,883.079a15.951,15.951,0,0,0-.662-2.782c-1.013-3.149-2.609-3-4.057-4.295a3.4,3.4,0,0,1-.318-.335c.142-.121.294-.231.442-.345a9.233,9.233,0,0,0,2.135,1.329c2.4,1.124,3.225,4.773,3.435,5.959.042.236.061.383.061.383l-.451.511-.518.474-5.124,4.692c-.09-.209-.175-.419-.272-.625l-.054-.114a4.542,4.542,0,0,0-.307-.546Z" fill="#3d2c21"/>
            </g>
          </g>
        </g>
        <g id="Grupo_5683" data-name="Grupo 5683">
          <g id="Grupo_5681" data-name="Grupo 5681">
            <path id="Trazado_15332" data-name="Trazado 15332" d="M646.486,867.209a28.178,28.178,0,1,1-28.178,28.178,28.178,28.178,0,0,1,28.178-28.178Zm0-6.135A34.313,34.313,0,1,0,680.8,895.387a34.352,34.352,0,0,0-34.312-34.313Z" fill="#ce4339"/>
          </g>
          <g id="Grupo_5682" data-name="Grupo 5682">
            <rect id="Rectángulo_1040" data-name="Rectángulo 1040" width="59.623" height="3.285" transform="translate(624.249 914.859) rotate(-44.999)" fill="#ce4339"/>
          </g>
        </g>
      </g>
    </g>
  </g>
</svg>
