<svg xmlns="http://www.w3.org/2000/svg" width="567.079" height="686.487" viewBox="0 0 567.079 686.487">
  <g id="Grupo_7452" data-name="Grupo 7452" transform="translate(-291.961 -1168)">
    <path id="Trazado_16195" data-name="Trazado 16195" d="M1302.319,13.675H1198.588A17.039,17.039,0,0,0,1181.6,30.664V217.173a17.039,17.039,0,0,0,16.989,16.989h137.1a17.039,17.039,0,0,0,16.989-16.989V64.036Z" transform="translate(-696.599 1164.325)" fill="#f0f0f0"/>
    <path id="Trazado_16195-2" data-name="Trazado 16195" d="M1302.319,38.675H1198.588A17.039,17.039,0,0,0,1181.6,55.664V217.173a17.039,17.039,0,0,0,16.989,16.989h137.1a17.039,17.039,0,0,0,16.989-16.989V89.036Z" transform="translate(-696.599 1392.325)" fill="#f0f0f0"/>
    <path id="Trazado_16212" data-name="Trazado 16212" d="M1302.319,38.675H1198.588A17.039,17.039,0,0,0,1181.6,55.664V217.173a17.039,17.039,0,0,0,16.989,16.989h137.1a17.039,17.039,0,0,0,16.989-16.989V89.036Z" transform="translate(-696.638 1620.325)" fill="#f0f0f0"/>
    <path id="Trazado_16213" data-name="Trazado 16213" d="M1302.319,38.675H1198.588A17.039,17.039,0,0,0,1181.6,55.664V217.173a17.039,17.039,0,0,0,16.989,16.989h137.1a17.039,17.039,0,0,0,16.989-16.989V89.036Z" transform="translate(-503.638 1620.325)" fill="#f0f0f0"/>
    <path id="Trazado_16211" data-name="Trazado 16211" d="M1302.319,38.675H1198.588A17.039,17.039,0,0,0,1181.6,55.664V217.173a17.039,17.039,0,0,0,16.989,16.989h137.1a17.039,17.039,0,0,0,16.989-16.989V89.036Z" transform="translate(-889.638 1164.325)" fill="#f0f0f0"/>
    <g id="Grupo_6378" data-name="Grupo 6378" transform="translate(494.961 1193)">
      <g id="Trazado_16194" data-name="Trazado 16194" transform="translate(-1120.164 -63.675)" fill="none" stroke-linecap="round" stroke-linejoin="round">
        <path d="M1240.884,72.047a17.039,17.039,0,0,0,16.989,16.989h33.37l-50.359-50.361Z" stroke="none"/>
        <path d="M 1279.172119140625 84.03575134277344 L 1245.884033203125 50.74637985229492 L 1245.884033203125 72.04666137695312 C 1245.884033203125 75.23029327392578 1247.13623046875 78.23586273193359 1249.410034179688 80.50968170166016 C 1251.683837890625 82.78350830078125 1254.689453125 84.03575134277344 1257.873046875 84.03575134277344 L 1279.172119140625 84.03575134277344 M 1291.242919921875 89.03575134277344 L 1257.873046875 89.03575134277344 C 1248.529052734375 89.03575134277344 1240.884033203125 81.39066314697266 1240.884033203125 72.04666137695312 L 1240.884033203125 38.67499542236328 L 1291.242919921875 89.03575134277344 Z" stroke="none" fill="#7cb342"/>
      </g>
      <g id="Trazado_16195-3" data-name="Trazado 16195" transform="translate(-1181.599 -38.675)" fill="none" stroke-linecap="round" stroke-linejoin="round">
        <path d="M1302.319,13.675H1198.588A17.039,17.039,0,0,0,1181.6,30.664V217.173a17.039,17.039,0,0,0,16.989,16.989h137.1a17.039,17.039,0,0,0,16.989-16.989V64.036Z" stroke="none"/>
        <path d="M 1198.588012695312 18.67497253417969 C 1195.404418945312 18.67497253417969 1192.398803710938 19.92721557617188 1190.125122070312 22.2010498046875 C 1187.851196289062 24.47488403320312 1186.598999023438 27.48043823242188 1186.598999023438 30.66407775878906 L 1186.598999023438 217.1725463867188 C 1186.598999023438 220.3561706542969 1187.851196289062 223.3617401123047 1190.125122070312 225.6355743408203 C 1192.398803710938 227.9094085693359 1195.404418945312 229.1616516113281 1198.588012695312 229.1616516113281 L 1335.688720703125 229.1616516113281 C 1338.872314453125 229.1616516113281 1341.877807617188 227.9094085693359 1344.151611328125 225.6355743408203 C 1346.425537109375 223.3617401123047 1347.677734375 220.3561706542969 1347.677734375 217.1725463867188 L 1347.677734375 66.10675048828125 L 1300.247680664062 18.67497253417969 L 1198.588012695312 18.67497253417969 M 1198.588012695312 13.67497253417969 L 1302.31884765625 13.67497253417969 L 1352.677734375 64.03575134277344 L 1352.677734375 217.1725463867188 C 1352.677734375 226.5165405273438 1345.03271484375 234.1616516113281 1335.688720703125 234.1616516113281 L 1198.588012695312 234.1616516113281 C 1189.244018554688 234.1616516113281 1181.598999023438 226.5165405273438 1181.598999023438 217.1725463867188 L 1181.598999023438 30.66407775878906 C 1181.598999023438 21.32008361816406 1189.244018554688 13.67497253417969 1198.588012695312 13.67497253417969 Z" stroke="none" fill="#7cb342"/>
      </g>
    </g>
    <g id="Grupo_6391" data-name="Grupo 6391" transform="translate(494.961 1421)">
      <g id="Trazado_16194-2" data-name="Trazado 16194" transform="translate(-1120.164 -38.675)" fill="none" stroke-linecap="round" stroke-linejoin="round">
        <path d="M1240.884,72.047a17.039,17.039,0,0,0,16.989,16.989h33.37l-50.359-50.361Z" stroke="none"/>
        <path d="M 1279.172119140625 84.03575134277344 L 1245.884033203125 50.74637985229492 L 1245.884033203125 72.04666137695312 C 1245.884033203125 75.23029327392578 1247.13623046875 78.23586273193359 1249.410034179688 80.50968170166016 C 1251.683837890625 82.78350830078125 1254.689453125 84.03575134277344 1257.873046875 84.03575134277344 L 1279.172119140625 84.03575134277344 M 1291.242919921875 89.03575134277344 L 1257.873046875 89.03575134277344 C 1248.529052734375 89.03575134277344 1240.884033203125 81.39066314697266 1240.884033203125 72.04666137695312 L 1240.884033203125 38.67499542236328 L 1291.242919921875 89.03575134277344 Z" stroke="none" fill="#7cb342"/>
      </g>
      <g id="Trazado_16195-4" data-name="Trazado 16195" transform="translate(-1181.599 -38.675)" fill="none" stroke-linecap="round" stroke-linejoin="round">
        <path d="M1302.319,38.675H1198.588A17.039,17.039,0,0,0,1181.6,55.664V217.173a17.039,17.039,0,0,0,16.989,16.989h137.1a17.039,17.039,0,0,0,16.989-16.989V89.036Z" stroke="none"/>
        <path d="M 1198.588012695312 43.67498779296875 C 1195.404418945312 43.67498779296875 1192.398803710938 44.92721557617188 1190.125 47.20103454589844 C 1187.851196289062 49.47489929199219 1186.598999023438 52.48045349121094 1186.598999023438 55.66409301757812 L 1186.598999023438 217.1725463867188 C 1186.598999023438 220.3561859130859 1187.851196289062 223.3617401123047 1190.125 225.6355743408203 C 1192.398803710938 227.9093933105469 1195.404418945312 229.16162109375 1198.588012695312 229.16162109375 L 1335.688720703125 229.16162109375 C 1338.872314453125 229.16162109375 1341.8779296875 227.9093933105469 1344.151611328125 225.6355743408203 C 1346.425537109375 223.3617401123047 1347.677734375 220.3561859130859 1347.677734375 217.1725463867188 L 1347.677734375 91.10675048828125 L 1300.247680664062 43.67498779296875 L 1198.588012695312 43.67498779296875 M 1198.588012695312 38.67498779296875 L 1302.31884765625 38.67498779296875 L 1352.677734375 89.03575134277344 L 1352.677734375 217.1725463867188 C 1352.677734375 226.5165405273438 1345.03271484375 234.16162109375 1335.688720703125 234.16162109375 L 1198.588012695312 234.16162109375 C 1189.244018554688 234.16162109375 1181.598999023438 226.5165405273438 1181.598999023438 217.1725463867188 L 1181.598999023438 55.66409301757812 C 1181.598999023438 46.320068359375 1189.244018554688 38.67498779296875 1198.588012695312 38.67498779296875 Z" stroke="none" fill="#7cb342"/>
      </g>
    </g>
    <g id="Grupo_6393" data-name="Grupo 6393" transform="translate(494.961 1649)">
      <g id="Trazado_16194-3" data-name="Trazado 16194" transform="translate(-1120.164 -38.675)" fill="none" stroke-linecap="round" stroke-linejoin="round">
        <path d="M1240.884,72.047a17.039,17.039,0,0,0,16.989,16.989h33.37l-50.359-50.361Z" stroke="none"/>
        <path d="M 1279.172119140625 84.03575134277344 L 1245.884033203125 50.74637985229492 L 1245.884033203125 72.04666137695312 C 1245.884033203125 75.23029327392578 1247.13623046875 78.23586273193359 1249.410034179688 80.50968170166016 C 1251.683837890625 82.78350830078125 1254.689453125 84.03575134277344 1257.873046875 84.03575134277344 L 1279.172119140625 84.03575134277344 M 1291.242919921875 89.03575134277344 L 1257.873046875 89.03575134277344 C 1248.529052734375 89.03575134277344 1240.884033203125 81.39066314697266 1240.884033203125 72.04666137695312 L 1240.884033203125 38.67499542236328 L 1291.242919921875 89.03575134277344 Z" stroke="none" fill="#7cb342"/>
      </g>
      <g id="Trazado_16195-5" data-name="Trazado 16195" transform="translate(-1181.599 -38.675)" fill="none" stroke-linecap="round" stroke-linejoin="round">
        <path d="M1302.319,38.675H1198.588A17.039,17.039,0,0,0,1181.6,55.664V217.173a17.039,17.039,0,0,0,16.989,16.989h137.1a17.039,17.039,0,0,0,16.989-16.989V89.036Z" stroke="none"/>
        <path d="M 1198.588012695312 43.67498779296875 C 1195.404418945312 43.67498779296875 1192.398803710938 44.92721557617188 1190.125 47.20103454589844 C 1187.851196289062 49.47489929199219 1186.598999023438 52.48045349121094 1186.598999023438 55.66409301757812 L 1186.598999023438 217.1725463867188 C 1186.598999023438 220.3561859130859 1187.851196289062 223.3617401123047 1190.125 225.6355743408203 C 1192.398803710938 227.9093933105469 1195.404418945312 229.16162109375 1198.588012695312 229.16162109375 L 1335.688720703125 229.16162109375 C 1338.872314453125 229.16162109375 1341.8779296875 227.9093933105469 1344.151611328125 225.6355743408203 C 1346.425537109375 223.3617401123047 1347.677734375 220.3561859130859 1347.677734375 217.1725463867188 L 1347.677734375 91.10675048828125 L 1300.247680664062 43.67498779296875 L 1198.588012695312 43.67498779296875 M 1198.588012695312 38.67498779296875 L 1302.31884765625 38.67498779296875 L 1352.677734375 89.03575134277344 L 1352.677734375 217.1725463867188 C 1352.677734375 226.5165405273438 1345.03271484375 234.16162109375 1335.688720703125 234.16162109375 L 1198.588012695312 234.16162109375 C 1189.244018554688 234.16162109375 1181.598999023438 226.5165405273438 1181.598999023438 217.1725463867188 L 1181.598999023438 55.66409301757812 C 1181.598999023438 46.320068359375 1189.244018554688 38.67498779296875 1198.588012695312 38.67498779296875 Z" stroke="none" fill="#7cb342"/>
      </g>
    </g>
    <g id="Grupo_6394" data-name="Grupo 6394" transform="translate(687.961 1649)">
      <g id="Trazado_16194-4" data-name="Trazado 16194" transform="translate(-1120.164 -38.675)" fill="none" stroke-linecap="round" stroke-linejoin="round">
        <path d="M1240.884,72.047a17.039,17.039,0,0,0,16.989,16.989h33.37l-50.359-50.361Z" stroke="none"/>
        <path d="M 1279.172119140625 84.03575134277344 L 1245.884033203125 50.74637985229492 L 1245.884033203125 72.04666137695312 C 1245.884033203125 75.23029327392578 1247.13623046875 78.23586273193359 1249.410034179688 80.50968170166016 C 1251.683837890625 82.78350830078125 1254.689453125 84.03575134277344 1257.873046875 84.03575134277344 L 1279.172119140625 84.03575134277344 M 1291.242919921875 89.03575134277344 L 1257.873046875 89.03575134277344 C 1248.529052734375 89.03575134277344 1240.884033203125 81.39066314697266 1240.884033203125 72.04666137695312 L 1240.884033203125 38.67499542236328 L 1291.242919921875 89.03575134277344 Z" stroke="none" fill="#7cb342"/>
      </g>
      <g id="Trazado_16195-6" data-name="Trazado 16195" transform="translate(-1181.599 -38.675)" fill="none" stroke-linecap="round" stroke-linejoin="round">
        <path d="M1302.319,38.675H1198.588A17.039,17.039,0,0,0,1181.6,55.664V217.173a17.039,17.039,0,0,0,16.989,16.989h137.1a17.039,17.039,0,0,0,16.989-16.989V89.036Z" stroke="none"/>
        <path d="M 1198.588012695312 43.67498779296875 C 1195.404418945312 43.67498779296875 1192.398803710938 44.92721557617188 1190.125 47.20103454589844 C 1187.851196289062 49.47489929199219 1186.598999023438 52.48045349121094 1186.598999023438 55.66409301757812 L 1186.598999023438 217.1725463867188 C 1186.598999023438 220.3561859130859 1187.851196289062 223.3617401123047 1190.125 225.6355743408203 C 1192.398803710938 227.9093933105469 1195.404418945312 229.16162109375 1198.588012695312 229.16162109375 L 1335.688720703125 229.16162109375 C 1338.872314453125 229.16162109375 1341.8779296875 227.9093933105469 1344.151611328125 225.6355743408203 C 1346.425537109375 223.3617401123047 1347.677734375 220.3561859130859 1347.677734375 217.1725463867188 L 1347.677734375 91.10675048828125 L 1300.247680664062 43.67498779296875 L 1198.588012695312 43.67498779296875 M 1198.588012695312 38.67498779296875 L 1302.31884765625 38.67498779296875 L 1352.677734375 89.03575134277344 L 1352.677734375 217.1725463867188 C 1352.677734375 226.5165405273438 1345.03271484375 234.16162109375 1335.688720703125 234.16162109375 L 1198.588012695312 234.16162109375 C 1189.244018554688 234.16162109375 1181.598999023438 226.5165405273438 1181.598999023438 217.1725463867188 L 1181.598999023438 55.66409301757812 C 1181.598999023438 46.320068359375 1189.244018554688 38.67498779296875 1198.588012695312 38.67498779296875 Z" stroke="none" fill="#7cb342"/>
      </g>
    </g>
    <path id="Trazado_16202" data-name="Trazado 16202" d="M1148.886,94.75" transform="translate(-709.502 1193.516)" fill="none" stroke="#008a00" stroke-linecap="round" stroke-linejoin="round" stroke-width="5"/>
    <g id="Grupo_6384" data-name="Grupo 6384" transform="translate(646.04 1311.499)">
      <path id="Trazado_16207" data-name="Trazado 16207" d="M1312.847,327.786h42.32a157.082,157.082,0,0,0,56.585-15.944c28.293-14.456,56.586-41.876,56.586-93.737s-28.292-79.281-56.586-93.736a157.041,157.041,0,0,0-56.585-15.944h-42.32" transform="translate(-1270.526 -108.425)" fill="none" stroke="#7cb342" stroke-linecap="round" stroke-linejoin="round" stroke-width="7"/>
    </g>
    <g id="Grupo_6385" data-name="Grupo 6385" transform="translate(297.429 1529.661)">
      <path id="Trazado_16208" data-name="Trazado 16208" d="M1263.143,236.838H1178.5a157.091,157.091,0,0,0-56.585,15.944c-28.292,14.454-56.586,41.875-56.586,93.737s28.294,79.281,56.586,93.736A157.091,157.091,0,0,0,1178.5,456.2h42.322" transform="translate(-1065.329 -236.838)" fill="none" stroke="#7cb342" stroke-linecap="round" stroke-linejoin="round" stroke-width="7"/>
    </g>
    <g id="Grupo_6386" data-name="Grupo 6386" transform="translate(688.36 1515.498)">
      <path id="Trazado_16209" data-name="Trazado 16209" d="M1309.945,228.5l-14.508,15.362,14.508,15.362" transform="translate(-1295.437 -228.502)" fill="none" stroke="#7cb342" stroke-linecap="round" stroke-linejoin="round" stroke-width="7"/>
    </g>
    <g id="Grupo_6387" data-name="Grupo 6387" transform="translate(438.412 1733.661)">
      <path id="Trazado_16210" data-name="Trazado 16210" d="M1148.314,387.639l14.508-15.362-14.508-15.362" transform="translate(-1148.314 -356.915)" fill="none" stroke="#7cb342" stroke-linecap="round" stroke-linejoin="round" stroke-width="7"/>
    </g>
    <text id="Establecer_un_sistema_de_información_nacional_para_las_especies_vegetales._" data-name="Establecer un sistema de información nacional para las especies vegetales. " transform="translate(319 1258)" fill="#00223d" font-size="14" font-family="Montserrat-Regular, Montserrat"><tspan x="20.298" y="14">Establecer un </tspan><tspan x="30.091" y="32">sistema de </tspan><tspan x="25.898" y="50">información </tspan><tspan x="9.735" y="68">nacional para las </tspan><tspan x="37.784" y="86">especies </tspan></text>
    <text id="Servir_de_herramienta_para_la_formulación_implementación_seguimiento_y_evaluación_de_políticas_y_programas_de_sanidad_vegetal_e_inocuidad." data-name="Servir de herramienta para
la formulación, implementación, seguimiento y evaluación de políticas y programas de sanidad vegetal e inocuidad." transform="translate(509 1210)" fill="#00223d" font-size="14" font-family="Montserrat-Regular, Montserrat"><tspan x="39.836" y="14">Servir de </tspan><tspan x="10.086" y="30">herramienta para</tspan><tspan x="18.451" y="46">la formulación, </tspan><tspan x="11.101" y="62">implementación, </tspan><tspan x="20.901" y="78">seguimiento y </tspan><tspan x="22.119" y="94">evaluación de </tspan><tspan x="35.461" y="110">políticas y </tspan><tspan x="21.895" y="126">programas de </tspan><tspan x="9.071" y="142">sanidad vegetal e </tspan><tspan x="34.047" y="158">inocuidad.</tspan></text>
    <text id="Impulsar_el_desarrollo_del_sector_agrícola_en_mercados_internos_y_externos._" data-name="Impulsar el desarrollo del
sector agrícola en mercados internos y externos. " transform="translate(509 1482)" fill="#00223d" font-size="14" font-family="Montserrat-Regular, Montserrat"><tspan x="33.482" y="14">Impulsar el </tspan><tspan x="24.501" y="30">desarrollo del</tspan><tspan x="9.745" y="46">sector agrícola en </tspan><tspan x="0.47" y="62">mercados internos y </tspan><tspan x="39.726" y="78">externos. </tspan></text>
    <g id="Grupo_6392" data-name="Grupo 6392" transform="translate(302 1193)">
      <g id="Trazado_16194-5" data-name="Trazado 16194" transform="translate(-1120.164 -38.675)" fill="none" stroke-linecap="round" stroke-linejoin="round">
        <path d="M1240.884,72.047a17.039,17.039,0,0,0,16.989,16.989h33.37l-50.359-50.361Z" stroke="none"/>
        <path d="M 1279.172119140625 84.03575134277344 L 1245.884033203125 50.74637985229492 L 1245.884033203125 72.04666137695312 C 1245.884033203125 75.23029327392578 1247.13623046875 78.23586273193359 1249.410034179688 80.50968170166016 C 1251.683837890625 82.78350830078125 1254.689453125 84.03575134277344 1257.873046875 84.03575134277344 L 1279.172119140625 84.03575134277344 M 1291.242919921875 89.03575134277344 L 1257.873046875 89.03575134277344 C 1248.529052734375 89.03575134277344 1240.884033203125 81.39066314697266 1240.884033203125 72.04666137695312 L 1240.884033203125 38.67499542236328 L 1291.242919921875 89.03575134277344 Z" stroke="none" fill="#7cb342"/>
      </g>
      <g id="Trazado_16195-7" data-name="Trazado 16195" transform="translate(-1181.599 -38.675)" fill="none" stroke-linecap="round" stroke-linejoin="round">
        <path d="M1302.319,38.675H1198.588A17.039,17.039,0,0,0,1181.6,55.664V217.173a17.039,17.039,0,0,0,16.989,16.989h137.1a17.039,17.039,0,0,0,16.989-16.989V89.036Z" stroke="none"/>
        <path d="M 1198.588012695312 43.67498779296875 C 1195.404418945312 43.67498779296875 1192.398803710938 44.92721557617188 1190.125 47.20103454589844 C 1187.851196289062 49.47489929199219 1186.598999023438 52.48045349121094 1186.598999023438 55.66409301757812 L 1186.598999023438 217.1725463867188 C 1186.598999023438 220.3561859130859 1187.851196289062 223.3617401123047 1190.125 225.6355743408203 C 1192.398803710938 227.9093933105469 1195.404418945312 229.16162109375 1198.588012695312 229.16162109375 L 1335.688720703125 229.16162109375 C 1338.872314453125 229.16162109375 1341.8779296875 227.9093933105469 1344.151611328125 225.6355743408203 C 1346.425537109375 223.3617401123047 1347.677734375 220.3561859130859 1347.677734375 217.1725463867188 L 1347.677734375 91.10675048828125 L 1300.247680664062 43.67498779296875 L 1198.588012695312 43.67498779296875 M 1198.588012695312 38.67498779296875 L 1302.31884765625 38.67498779296875 L 1352.677734375 89.03575134277344 L 1352.677734375 217.1725463867188 C 1352.677734375 226.5165405273438 1345.03271484375 234.16162109375 1335.688720703125 234.16162109375 L 1198.588012695312 234.16162109375 C 1189.244018554688 234.16162109375 1181.598999023438 226.5165405273438 1181.598999023438 217.1725463867188 L 1181.598999023438 55.66409301757812 C 1181.598999023438 46.320068359375 1189.244018554688 38.67498779296875 1198.588012695312 38.67498779296875 Z" stroke="none" fill="#7cb342"/>
      </g>
    </g>
    <text id="Articular_la_gestión_de_autoridades_públicas_y_actores_del_sector_privado_para_fomentar_la_Innovación_para_la_trazabilidad_vegetal._" data-name="Articular la gestión de autoridades públicas y actores del sector privado para fomentar la Innovación para la trazabilidad vegetal. " transform="translate(509 1701)" fill="#00223d" font-size="14" font-family="Montserrat-Regular, Montserrat"><tspan x="6.084" y="14">Articular la gestión </tspan><tspan x="19.377" y="32">de autoridades </tspan><tspan x="8.975" y="50">públicas y actores </tspan><tspan x="8.842" y="68">del sector privado </tspan><tspan x="14.085" y="86">para fomentar la </tspan><tspan x="8.177" y="104">Innovación para la </tspan><tspan x="0.813" y="122">trazabilidad vegetal. </tspan></text>
    <text id="Servir_de_apoyo_para_autoridades_públicas_en_las_actividades_de_inspección_vigilancia_y_control." data-name="Servir de apoyo para autoridades públicas en las actividades de inspección, vigilancia y control." transform="translate(703 1701)" fill="#00223d" font-size="14" font-family="Montserrat-Regular, Montserrat"><tspan x="15.592" y="14">Servir de apoyo </tspan><tspan x="10.741" y="32">para autoridades </tspan><tspan x="18.826" y="50">públicas en las </tspan><tspan x="19.26" y="68">actividades de </tspan><tspan x="30.453" y="86">inspección, </tspan><tspan x="2.551" y="104">vigilancia y control.</tspan></text>
  </g>
</svg>
