<svg id="Grupo_1014" data-name="Grupo 1014" xmlns="http://www.w3.org/2000/svg" width="60.879" height="68.683" viewBox="0 0 60.879 68.683">
  <g id="Grupo_1005" data-name="Grupo 1005" transform="translate(15.862 14.659)">
    <g id="Grupo_1004" data-name="Grupo 1004">
      <path id="Trazado_1470" data-name="Trazado 1470" d="M157.4,110.072l-.008-.008a1.512,1.512,0,1,0,.008.008Z" transform="translate(-154.823 -109.625)" fill="#7cb342"/>
    </g>
  </g>
  <g id="Grupo_1007" data-name="Grupo 1007" transform="translate(28.94 51.671)">
    <g id="Grupo_1006" data-name="Grupo 1006">
      <path id="Trazado_1471" data-name="Trazado 1471" d="M261.2,398.632a23.282,23.282,0,0,0-14.106-4.707,1.506,1.506,0,1,0,0,3.011,20.294,20.294,0,0,1,12.3,4.1,1.505,1.505,0,1,0,1.81-2.406Z" transform="translate(-245.593 -393.925)" fill="#7cb342"/>
    </g>
  </g>
  <g id="Grupo_1009" data-name="Grupo 1009" transform="translate(45.812 59.563)">
    <g id="Grupo_1008" data-name="Grupo 1008">
      <path id="Trazado_1472" data-name="Trazado 1472" d="M365.374,449.267a1.506,1.506,0,0,0-2.351,1.881l0,0a1.506,1.506,0,1,0,2.349-1.883Z" transform="translate(-362.693 -448.702)" fill="#7cb342"/>
    </g>
  </g>
  <g id="Grupo_1011" data-name="Grupo 1011" transform="translate(0 0)">
    <g id="Grupo_1010" data-name="Grupo 1010" transform="translate(0)">
      <path id="Trazado_1473" data-name="Trazado 1473" d="M93.732,52.2a31.889,31.889,0,0,0-17.064-5.767V29.668c.6.031,1.35.056,2.216.056,5.05,0,14.029-.844,19.923-6.231,7.99-7.3,6.841-20.225,6.631-22.065A1.355,1.355,0,0,0,105,.507a1.547,1.547,0,0,0-.93-.41C103.466.043,89.1-1.139,80.759,6.474a20.742,20.742,0,0,0-5.584,9.088A20.743,20.743,0,0,0,69.59,6.474C61.464-.948,47.6-.011,46.35.091a1.555,1.555,0,0,0-1,.416,1.352,1.352,0,0,0-.432.911c-.2,1.763-1.384,14.754,6.63,22.076h0c5.895,5.387,14.873,6.231,19.923,6.231.855,0,1.6-.024,2.191-.055V46.431A31.89,31.89,0,0,0,56.593,52.2,28.956,28.956,0,0,0,45.653,66.883a1.324,1.324,0,0,0,.237,1.237,1.545,1.545,0,0,0,1.207.564h56.133a1.545,1.545,0,0,0,1.207-.564,1.324,1.324,0,0,0,.237-1.237A28.96,28.96,0,0,0,93.732,52.2ZM77.082,20.542c.559-3.6,2.017-8.623,5.787-12.067C86.679,5,92.1,3.658,95.984,3.149a41.4,41.4,0,0,1,6.549-.328c.2,3.365.211,13.147-5.836,18.672-5.133,4.691-13.362,5.412-17.919,5.413l7.458-6.944a1.335,1.335,0,0,0,0-1.982,1.586,1.586,0,0,0-2.129,0l-7.4,6.893A33.322,33.322,0,0,1,77.082,20.542Zm-12.972-.58,7.462,6.948c-4.554,0-12.773-.714-17.919-5.417h0C47.608,15.97,47.616,6.186,47.817,2.821a41.429,41.429,0,0,1,6.549.328c3.88.509,9.306,1.846,13.116,5.326,3.77,3.445,5.228,8.464,5.787,12.068a33.362,33.362,0,0,1,.378,4.334l-7.408-6.9a1.586,1.586,0,0,0-2.129,0A1.334,1.334,0,0,0,64.109,19.962ZM49.193,65.88c4.05-9.91,14.45-16.68,25.969-16.68s21.918,6.771,25.969,16.68Z" transform="translate(-44.736 0)" fill="#7cb342"/>
    </g>
  </g>
  <g id="Grupo_1013" data-name="Grupo 1013" transform="translate(42 14.663)">
    <g id="Grupo_1012" data-name="Grupo 1012">
      <path id="Trazado_1474" data-name="Trazado 1474" d="M338.809,110.09a1.51,1.51,0,1,0,0,2.133l.008-.008A1.5,1.5,0,0,0,338.809,110.09Z" transform="translate(-336.235 -109.651)" fill="#7cb342"/>
    </g>
  </g>
</svg>
