<svg xmlns="http://www.w3.org/2000/svg" width="69.427" height="70" viewBox="0 0 69.427 70">
  <g id="Grupo_1054" data-name="Grupo 1054" transform="translate(-2.094 0)">
    <g id="Grupo_1053" data-name="Grupo 1053" transform="translate(2.094 0)">
      <path id="Trazado_1503" data-name="Trazado 1503" d="M60.963,348.279a9.314,9.314,0,0,0-14.755,1.729,10.624,10.624,0,0,1-9.821,5.462,10.624,10.624,0,0,1-9.821-5.462,9.314,9.314,0,0,0-14.755-1.729l-9.337,9.74a1.367,1.367,0,0,0-.38.946v7.854a1.367,1.367,0,0,0,1.367,1.367H47.172a1.367,1.367,0,0,0,0-2.734H4.828v-5.937l8.957-9.343A6.579,6.579,0,0,1,24.2,351.383,13.342,13.342,0,0,0,36.387,358.2a13.342,13.342,0,0,0,12.184-6.821,6.579,6.579,0,0,1,10.418-1.212l8.956,9.343v5.937H59.2a1.367,1.367,0,0,0,0,2.734H69.312a1.367,1.367,0,0,0,1.367-1.367v-7.854a1.367,1.367,0,0,0-.38-.946Z" transform="translate(-2.094 -298.186)" fill="#7cb342"/>
      <path id="Trazado_1504" data-name="Trazado 1504" d="M184.171,256.032a4.376,4.376,0,1,0,4.376,4.376,4.381,4.381,0,0,0-4.376-4.376Zm0,6.019a1.642,1.642,0,1,1,1.642-1.642A1.644,1.644,0,0,1,184.171,262.051Z" transform="translate(-155.499 -221.028)" fill="#7cb342"/>
      <path id="Trazado_1505" data-name="Trazado 1505" d="M245.829,322.69a4.376,4.376,0,1,0-4.376-4.376,4.382,4.382,0,0,0,4.376,4.376Zm0-6.019a1.642,1.642,0,1,1-1.642,1.642A1.644,1.644,0,0,1,245.829,316.671Z" transform="translate(-208.728 -271.016)" fill="#7cb342"/>
      <path id="Trazado_1506" data-name="Trazado 1506" d="M156.761,12.924,144.238.4a1.367,1.367,0,0,0-1.912-.021l-5.191,4.964a1.386,1.386,0,0,0-.05,1.924l-.9.839-9.479.9a17.747,17.747,0,0,0-10.827,5.082l-13.453,13.4a3.777,3.777,0,0,0-1.131,2.692,3.839,3.839,0,0,0,3.828,3.842,14.11,14.11,0,0,0,10.033-4.149l8.89-8.49a.061.061,0,0,1,.043-.016H130.7c.032,0,.045,0,.06.041s.007.048-.017.07l-3.931,3.505a4.972,4.972,0,0,0,6,7.889L146.271,24.2a1.366,1.366,0,0,0,.251-.208l3.6-3.8a1.392,1.392,0,0,0,1.558-.264l5.078-5.078a1.367,1.367,0,0,0,0-1.933Zm-12.109,9.071-13.318,8.577a2.238,2.238,0,0,1-2.7-3.552l3.929-3.5a2.8,2.8,0,0,0-1.863-4.887H124.09a2.782,2.782,0,0,0-1.933.775l-8.9,8.5-.023.022a11.4,11.4,0,0,1-8.111,3.36,1.094,1.094,0,0,1-1.094-1.108,1.035,1.035,0,0,1,.325-.754l13.454-13.4a15.006,15.006,0,0,1,9.155-4.3l9.943-.941a1.367,1.367,0,0,0,.8-.362l1.307-1.22,9.118,9.118Zm6.065-4.96L140.035,6.353,143.25,3.28,153.861,13.89Z" transform="translate(-87.734 0)" fill="#7cb342"/>
      <path id="Trazado_1507" data-name="Trazado 1507" d="M369.179,492.968a1.366,1.366,0,1,0-.554,1.69,1.377,1.377,0,0,0,.554-1.69Z" transform="translate(-316.722 -424.857)" fill="#7cb342"/>
    </g>
  </g>
</svg>
