<svg xmlns="http://www.w3.org/2000/svg" width="69.955" height="69.999" viewBox="0 0 69.955 69.999">
  <g id="Grupo_1019" data-name="Grupo 1019" transform="translate(-0.16 -0.001)">
    <g id="Grupo_1018" data-name="Grupo 1018" transform="translate(0.16 0.001)">
      <path id="Trazado_1480" data-name="Trazado 1480" d="M69.57,376.924,64.349,373a4.542,4.542,0,0,0-2.712-.906h-4.4a4.541,4.541,0,0,0-2.712.906l-2.949,2.218a7.112,7.112,0,0,1-1.488.858l2.142-4.254a1.367,1.367,0,1,0-2.443-1.229l-2.225,4.421-2.3-4.435a1.367,1.367,0,0,0-2.428,1.258l2.325,4.489A7.152,7.152,0,0,1,43,375.216L40.048,373a4.541,4.541,0,0,0-2.712-.906h-4.4a4.542,4.542,0,0,0-2.712.906l-2.949,2.218a7.135,7.135,0,0,1-1.854,1l2.214-4.4a1.367,1.367,0,0,0-2.443-1.229l-2.225,4.421-2.3-4.435a1.367,1.367,0,0,0-2.428,1.258l2.263,4.368a7.133,7.133,0,0,1-1.81-.985L15.747,373a4.542,4.542,0,0,0-2.712-.906h-4.4A4.541,4.541,0,0,0,5.926,373L.705,376.924a1.368,1.368,0,0,0-.545,1.093v9.842a1.367,1.367,0,0,0,1.367,1.367H7.022a1.367,1.367,0,0,0,0-2.735H2.895V378.7l4.675-3.516a1.789,1.789,0,0,1,1.069-.357h4.4a1.791,1.791,0,0,1,1.069.357l2.949,2.218a9.968,9.968,0,0,0,11.868,0l2.949-2.218a1.79,1.79,0,0,1,1.069-.357h4.4a1.79,1.79,0,0,1,1.069.357l2.949,2.218a9.968,9.968,0,0,0,11.868,0l2.95-2.218a1.79,1.79,0,0,1,1.069-.357h4.4a1.79,1.79,0,0,1,1.069.357L67.38,378.7v7.793H19.041a1.367,1.367,0,0,0,0,2.735H68.748a1.367,1.367,0,0,0,1.367-1.367v-9.842a1.367,1.367,0,0,0-.546-1.093Z" transform="translate(-0.16 -319.274)" fill="#7cb342"/>
      <path id="Trazado_1481" data-name="Trazado 1481" d="M124.288,43.287a1.381,1.381,0,0,0,2-1.211v-1.5h3.962a1.367,1.367,0,0,0,1.367-1.367v-.516l16.232,3.438.884,1.139a3.587,3.587,0,0,0,5.42.227l5.813-6.317a1.367,1.367,0,0,0-2.012-1.851l-5.812,6.317A.823.823,0,0,1,150.9,41.6L136.25,22.72,148.537,9.365l17.437,16.044a.82.82,0,0,1,.055,1.145,1.367,1.367,0,1,0,2.039,1.822,3.566,3.566,0,0,0-.242-4.98L162.4,18.4l1.919-8.9a5.54,5.54,0,0,0-1.658-5.224L159.6,1.456a5.525,5.525,0,0,0-7.8.325L147.5,6.449C142.057,11.2,134.882,9.4,134.813,9.383A1.368,1.368,0,0,0,133.29,10c-3.846,6.374-.179,13.037-.021,13.318l.013.02q.028.048.061.094l.024.034.013.019,4.913,6.332-6.674.424v-.184a1.367,1.367,0,0,0-1.367-1.367h-3.962V27.276a1.381,1.381,0,0,0-1.979-1.223c-3.679,1.84-5.9,5.006-5.93,8.467C118.348,38.051,120.556,41.328,124.288,43.287ZM153.812,3.632a2.787,2.787,0,0,1,3.934-.164l3.063,2.818a2.794,2.794,0,0,1,.837,2.635l-1.581,7.333-9.676-8.9Zm-18.628,8.612a19.069,19.069,0,0,0,7.191-.221L139.95,14.66,134.9,20.148a10.8,10.8,0,0,1,.284-7.9Zm5.126,20.183,4.789,6.328L131.62,35.9V32.979Zm-11.424-1v6.421h-2.595V31.422Zm-5.329-1.638V39.5a6.576,6.576,0,0,1-2.439-4.954,6.294,6.294,0,0,1,2.439-4.763Z" transform="translate(-102.219 -0.001)" fill="#7cb342"/>
      <path id="Trazado_1482" data-name="Trazado 1482" d="M25.885,246.03a1.367,1.367,0,0,0,1.367-1.367v-1.409a6.469,6.469,0,0,1,6.462-6.462,1.367,1.367,0,1,0,0-2.734,9.207,9.207,0,0,0-9.2,9.2v1.409A1.367,1.367,0,0,0,25.885,246.03Z" transform="translate(-21.188 -202.058)" fill="#7cb342"/>
      <path id="Trazado_1483" data-name="Trazado 1483" d="M66.21,281.088v4.1a1.367,1.367,0,1,0,2.734,0v-4.1a1.564,1.564,0,0,1,1.562-1.562,1.367,1.367,0,0,0,0-2.735A4.3,4.3,0,0,0,66.21,281.088Z" transform="translate(-57.18 -238.949)" fill="#7cb342"/>
      <path id="Trazado_1484" data-name="Trazado 1484" d="M437.794,223.111a1.367,1.367,0,1,0-.149,1.7,1.381,1.381,0,0,0,.149-1.7Z" transform="translate(-375.8 -192.085)" fill="#7cb342"/>
      <path id="Trazado_1485" data-name="Trazado 1485" d="M87.3,492.888a1.366,1.366,0,1,0-.74,1.784A1.379,1.379,0,0,0,87.3,492.888Z" transform="translate(-73.12 -424.776)" fill="#7cb342"/>
      <path id="Trazado_1486" data-name="Trazado 1486" d="M320.245,138.818c-.175-.044-1.1-.261-7.294-1.678a1.381,1.381,0,0,0-1.638,1.639l1.665,7.25a5.929,5.929,0,1,0,7.267-7.21Zm1.669,5.728a3.173,3.173,0,0,1-.936,2.259,3.226,3.226,0,0,1-5.35-1.455l-1.162-5.057c2.381.546,4.856,1.114,5.08,1.169a3.221,3.221,0,0,1,2.367,3.085Z" transform="translate(-268.744 -118.361)" fill="#7cb342"/>
    </g>
  </g>
</svg>
