<svg xmlns="http://www.w3.org/2000/svg" width="54.531" height="70" viewBox="0 0 54.531 70">
  <g id="Page-1" transform="translate(-51.193 0.017)">
    <g id="_011---Apple-Core" data-name="011---Apple-Core" transform="translate(51.193 -0.017)">
      <path id="Shape" d="M52.245,23.461a2.242,2.242,0,0,0,2.5-.028,7.432,7.432,0,0,1,4.241-1.282,7.7,7.7,0,0,1,1.848.249,52.127,52.127,0,0,1,1.721,13.751,48.308,48.308,0,0,1-2.53,16.257,7.561,7.561,0,0,1-.878.076,7.107,7.107,0,0,1-3.976-1.191,2.224,2.224,0,0,0-2.554.093,2.367,2.367,0,0,0-.854,2.474c1.578,6.019,7.145,16.124,26.7,16.124s25.121-10.105,26.7-16.129a2.367,2.367,0,0,0-.854-2.474,2.224,2.224,0,0,0-2.554-.093,7.108,7.108,0,0,1-3.976,1.2,7.561,7.561,0,0,1-.878-.076,48.308,48.308,0,0,1-2.53-16.257A52.127,52.127,0,0,1,96.088,22.4a7.7,7.7,0,0,1,1.848-.249,7.432,7.432,0,0,1,4.239,1.283,2.242,2.242,0,0,0,2.5.028,2.309,2.309,0,0,0,1.023-2.3c-1.262-8.615-7.454-14.181-15.772-14.181-5.535,0-8.738,1.227-10.494,2.333A11.5,11.5,0,0,0,73.2.068a1.127,1.127,0,0,0-1.479.645,1.178,1.178,0,0,0,.628,1.519A9.1,9.1,0,0,1,77.1,9.085c-1.835-1.041-4.96-2.1-10.1-2.1-8.317,0-14.509,5.566-15.776,14.18a2.309,2.309,0,0,0,1.025,2.3Zm50.721,29.786c-1.409,5.379-6.467,14.4-24.5,14.4s-23.1-9.023-24.517-14.394a9.3,9.3,0,0,0,5.2,1.561,9.459,9.459,0,0,0,6.249-2.29,9.469,9.469,0,0,0,6.249,2.29,9.174,9.174,0,0,0,6.786-2.863,9.642,9.642,0,0,0,13.095.573,9.469,9.469,0,0,0,6.25,2.29,9.17,9.17,0,0,0,5.191-1.569Zm-8.758-1.673A6.794,6.794,0,0,1,93,50.749a2.216,2.216,0,0,0-2.94,0,7.236,7.236,0,0,1-4.779,1.735,7.16,7.16,0,0,1-5.216-2.154,2.23,2.23,0,0,0-3.2,0,7.16,7.16,0,0,1-5.216,2.154,7.236,7.236,0,0,1-4.778-1.735,2.216,2.216,0,0,0-2.94,0,6.8,6.8,0,0,1-1.211.826,53.123,53.123,0,0,0,2.113-15.424A56.63,56.63,0,0,0,63.5,23.668c.1.076.211.135.307.218a2.227,2.227,0,0,0,2.945,0,7.339,7.339,0,0,1,4.822-1.735,7.246,7.246,0,0,1,5.261,2.157,2.215,2.215,0,0,0,3.208,0,7.583,7.583,0,0,1,10.126-.419,2.227,2.227,0,0,0,2.945,0c.1-.083.208-.142.307-.218a56.624,56.624,0,0,0-1.327,12.48A53.122,53.122,0,0,0,94.208,51.575ZM67,9.318c8.269,0,10.492,2.974,10.5,2.984a1.129,1.129,0,0,0,.943.516h.043a1.173,1.173,0,0,0,.929-.5c.022-.03,2.245-3,10.514-3,7.239,0,12.423,4.672,13.514,12.176a9.846,9.846,0,0,0-11.8.61,9.6,9.6,0,0,0-6.331-2.287,9.325,9.325,0,0,0-6.844,2.86,9.5,9.5,0,0,0-6.887-2.86,9.635,9.635,0,0,0-6.3,2.287,9.806,9.806,0,0,0-11.807-.59c1.107-7.524,6.291-12.2,13.53-12.2Z" transform="translate(-51.193 0.017)" fill="#7cb342"/>
      <path id="Shape-2" data-name="Shape" d="M106.147,90.556a8.511,8.511,0,0,1,6.842-3,1.136,1.136,0,0,0,0-2.272,10.71,10.71,0,0,0-8.6,3.825,1.136,1.136,0,1,0,1.755,1.443Z" transform="translate(-97.082 -73.591)" fill="#7cb342"/>
      <path id="Shape-3" data-name="Shape" d="M173.574,196.282a1.136,1.136,0,0,0-.963,1.286,55.248,55.248,0,0,1,.539,7.791,53.113,53.113,0,0,1-.909,10.01,1.136,1.136,0,0,0,.9,1.33,1.174,1.174,0,0,0,.216.021,1.136,1.136,0,0,0,1.115-.921,55.376,55.376,0,0,0,.95-10.44,57.429,57.429,0,0,0-.568-8.114,1.136,1.136,0,0,0-1.279-.963Z" transform="translate(-156.106 -169.135)" fill="#7cb342"/>
      <path id="Shape-4" data-name="Shape" d="M318.541,197.367a1.136,1.136,0,1,0-2.248-.323,57.449,57.449,0,0,0-.562,8.114,55.379,55.379,0,0,0,.951,10.44,1.136,1.136,0,0,0,1.115.921,1.173,1.173,0,0,0,.216-.02,1.136,1.136,0,0,0,.9-1.33,53.109,53.109,0,0,1-.91-10.01,55.246,55.246,0,0,1,.539-7.791Z" transform="translate(-280.51 -168.934)" fill="#7cb342"/>
      <path id="Shape-5" data-name="Shape" d="M223.9,230.824a1.136,1.136,0,0,0-1.606,1.606l1.136,1.136a1.136,1.136,0,0,0,1.606-1.606Z" transform="translate(-199.234 -198.946)" fill="#7cb342"/>
      <path id="Shape-6" data-name="Shape" d="M223.245,273.49l-1.136,1.136a1.136,1.136,0,1,0,1.606,1.606l1.136-1.136a1.136,1.136,0,0,0-1.606-1.606Z" transform="translate(-199.052 -235.771)" fill="#7cb342"/>
      <path id="Shape-7" data-name="Shape" d="M266.564,273.49a1.136,1.136,0,0,0-1.606,1.606l1.136,1.136a1.136,1.136,0,0,0,1.606-1.606Z" transform="translate(-236.221 -235.772)" fill="#7cb342"/>
      <path id="Shape-8" data-name="Shape" d="M265.912,230.824l-1.136,1.136a1.136,1.136,0,1,0,1.606,1.606l1.136-1.136a1.136,1.136,0,0,0-1.606-1.606Z" transform="translate(-236.039 -198.946)" fill="#7cb342"/>
      <circle id="Oval" cx="1.136" cy="1.136" r="1.136" transform="translate(19.315 11.679)" fill="#7cb342"/>
    </g>
  </g>
</svg>
