<svg xmlns="http://www.w3.org/2000/svg" width="74" height="53.074" viewBox="0 0 74 53.074">
  <g id="Grupo_6155" data-name="Grupo 6155" transform="translate(-24 -88.338)">
    <path id="Trazado_15624" data-name="Trazado 15624" d="M103.413,201.6a1.265,1.265,0,0,0,.4.065,7.7,7.7,0,0,0,1.565-.187A3.7,3.7,0,0,0,108,199.749a3.129,3.129,0,0,0-.048-2.862,3.827,3.827,0,0,0-.9-6.4,2.944,2.944,0,0,0-3.278-.073c-1.714,1.046-3.3,4.313-2.942,7.509a4.021,4.021,0,0,0,2.588,3.671Zm1.672-9.02a.516.516,0,0,1,.266-.095.529.529,0,0,1,.29.113c.418.279,1.12.829,1.123,1.38,0,.608-.758,1.325-1.128,1.578a1.265,1.265,0,0,0-.346,1.751c.522.782.522,1.17.477,1.253a2.7,2.7,0,0,1-1.718.567,1.935,1.935,0,0,1-.71-1.483c-.187-1.648.6-4.363,1.747-5.064Z" transform="translate(-64.634 -85.548)" fill="#7cb342"/>
    <path id="Trazado_15625" data-name="Trazado 15625" d="M27.237,99.363C25.089,101.337,24,104.419,24,108.523v12.649a1.265,1.265,0,1,0,2.53,0V108.523c0-3.368.814-5.823,2.419-7.3a5.97,5.97,0,0,1,2.567-1.364c-3.018,6.659.4,17.547,1.247,20l-3.6,8.4a1.264,1.264,0,0,0-.085.706l1.265,7.59a1.254,1.254,0,0,0,.047.192l1.265,3.795a1.265,1.265,0,0,0,1.2.865h6.325a1.265,1.265,0,0,0,1.131-1.831l-2.4-4.793v-6.767l.228-.227a17.408,17.408,0,0,0,4.832,1.161v1.073a1.265,1.265,0,1,0,2.53,0v-1.085c.117-.012.235-.024.353-.039A12.312,12.312,0,0,0,50.1,127.56l.831.831a1.265,1.265,0,1,0,1.789-1.789l-.473-.473A16.439,16.439,0,0,0,55,123.221c6.239,4.088,13.987,2.873,17.219,2.1l1.115,11.158a1.26,1.26,0,0,0,.059.274l1.265,3.795a1.265,1.265,0,0,0,1.2.864h6.325a1.265,1.265,0,0,0,1.131-1.831l-2.4-4.793V123.636a3.857,3.857,0,0,0,1.072-.47c2.016-1.271,3.355-4.443,3.978-9.427.58-4.64,1.943-6.508,2.984-7.258a2.521,2.521,0,0,1,1.767-.527l1.882.627a3.8,3.8,0,0,0,4.357-1.5l.4-.606a3.806,3.806,0,0,0-.262-4.558c-2.161-2.55-6.2-7.241-8.961-10a4.343,4.343,0,0,0-4.034-1.508A5.923,5.923,0,0,0,80.6,91.238a1.264,1.264,0,0,0-.695-.4l-6.325-1.265a1.265,1.265,0,0,0-1.423,1.71l1.258,3.144c.01.025.021.049.032.074l-.321.107H56.888a1.273,1.273,0,0,0-.208.017l-7.4,1.233-8.661-1.237a1.253,1.253,0,0,0-.179-.013A9.679,9.679,0,0,0,33.43,97.1a9.067,9.067,0,0,0-6.193,2.266Zm6.529,39.519-.843-2.53h2.945l1.265,2.53Zm11.77-12.488a12.817,12.817,0,0,1-5.536-.62c1.665-1.762,5.032-4.827,8.612-5.21a6.2,6.2,0,0,1,4.362,1.142A10.968,10.968,0,0,1,45.537,126.394Zm31.237,12.488-.843-2.53h2.945l1.265,2.53Zm18.4-37.322a1.266,1.266,0,0,1,.087,1.517l-.405.608a1.266,1.266,0,0,1-1.451.5l-1.962-.655q-.046-.016-.094-.027a3,3,0,0,0-.409-.067A16.65,16.65,0,0,0,88.3,97.7a11.614,11.614,0,0,1-1.123-5.151c2.635,2.74,6.069,6.733,8,9.008ZM78.8,93.2l1.338,2.676h-.852a3.777,3.777,0,0,1-3.523-2.386l-.39-.976Zm-6.873,3.941h1.4a1.265,1.265,0,0,0,.4-.065l1.2-.4A6.3,6.3,0,0,0,79.288,98.4h2.9a1.265,1.265,0,0,0,1.131-1.831l-1.3-2.6a1.251,1.251,0,0,0,.079-.158c.34-.85,1.394-2.672,2.5-2.919.034,3.9.571,6.666,1.6,8.211a14.655,14.655,0,0,1,2.247,4.762,5.6,5.6,0,0,0-.852.482c-1.737,1.19-2.973,3.381-3.688,6.527a3.743,3.743,0,0,1-2.981,1.44c-.971,0-1.063-.189-1.451-.983-.694-1.423-1.642-2.811-4.874-2.811a.97.97,0,0,1-.739-.354c-1.269-1.3-1.976-5.386-1.93-11.031ZM45.5,97.874l3.616.516a1.259,1.259,0,0,0,.387,0l7.486-1.248h5.516a5.177,5.177,0,0,0-.693,2.954,4.388,4.388,0,0,0,1.9,3.118,3.042,3.042,0,0,1,1.456,2.359c.032,1.82-1.929,3.822-2.723,4.473-3.532,2.465-6.337,3.246-8.335,2.322-3.044-1.407-3.553-6.437-3.558-6.485a1.265,1.265,0,0,0-.5-.9L47.022,102.7A3.811,3.811,0,0,1,45.5,99.669Zm27.828,24.563c-2.747,0-3.819-4.049-3.833-4.1a1.265,1.265,0,0,0-2.453.617,11.172,11.172,0,0,0,1.261,2.894,8.13,8.13,0,0,0,1.125,1.433,26.318,26.318,0,0,1-2.861.272c-4.681.183-8.519-.944-11.4-3.347a8.868,8.868,0,0,0-6.833-2.152c-5.853.632-10.78,6.6-11.367,7.341L35.754,126.6a1.265,1.265,0,0,0-.37.894v6.325H32.45l-.817-4.9,3.649-8.514a1.266,1.266,0,0,0,.025-.935,49.213,49.213,0,0,1-2.012-7.783c-.912-5.4-.514-9.51,1.153-11.9,1.231-1.765,3.165-2.632,5.908-2.651l2.618.374v2.156a6.352,6.352,0,0,0,2.53,5.06l2.61,1.958c.256,1.643,1.289,6.279,4.93,7.97a6.68,6.68,0,0,0,2.848.611c2.33,0,5.024-1.062,8.046-3.178.022-.016.044-.032.065-.049.384-.308,3.754-3.1,3.7-6.506a5.467,5.467,0,0,0-2.467-4.348,1.961,1.961,0,0,1-.9-1.342,4.2,4.2,0,0,1,1.216-2.705H69.4c-.07,8.212,1.381,11.5,2.647,12.8a3.51,3.51,0,0,0,2.551,1.119c1.921,0,2.177.524,2.6,1.391a3.631,3.631,0,0,0,3.724,2.4,6.245,6.245,0,0,0,2.407-.465c-.64,4.2-1.709,5.816-2.407,6.433v-3.438a1.265,1.265,0,1,0-2.53,0v16.444H75.616l-1.025-10.246a1.123,1.123,0,0,0-1.259-1.138Z" fill="#7cb342"/>
  </g>
</svg>
