<svg xmlns="http://www.w3.org/2000/svg" xmlns:xlink="http://www.w3.org/1999/xlink" width="914" height="514.125" viewBox="0 0 914 514.125">
  <defs>
    <linearGradient id="linear-gradient" y1="0.5" x2="1" y2="0.5" gradientUnits="objectBoundingBox">
      <stop offset="0" stop-color="#f3c9c7" stop-opacity="0"/>
      <stop offset="1" stop-color="#f3c9c7"/>
    </linearGradient>
  </defs>
  <g id="Grupo_7064" data-name="Grupo 7064" transform="translate(0)">
    <g id="Grupo_7131" data-name="Grupo 7131" transform="translate(0)">
      <rect id="Rectángulo_1192" data-name="Rectángulo 1192" width="914" height="513" fill="#f3c9c7"/>
      <g id="Grupo_7067" data-name="Grupo 7067" transform="translate(0)">
        <g id="Grupo_7064-2" data-name="Grupo 7064">
          <path id="Trazado_18031" data-name="Trazado 18031" d="M35.183,514.125h.387v-7.269H79.52v7.269h.387v-7.269h43.95v7.269h.388v-7.269h43.949v7.269h.388v-7.269h43.95v7.269h.387v-7.269h43.95v7.269h.388v-7.269h43.949v7.269h.387v-7.269h43.95v7.269h.388v-7.269H389.88v7.269h.388v-7.269h43.949v7.269h.388v-7.269h43.949v7.269h.388v-7.269h35.183v-.389H501.111V493.719h13.014v-.388H478.942V480.582h35.183v-.387H501.111v-12.75h13.014v-.387H478.942V454.309h35.183v-.388H501.111V441.172h13.014v-.387H478.942v-12.75h35.183v-.387H501.111V414.9h13.014v-.388H478.942V401.76h35.183v-.387H501.111V388.624h13.014v-.387H478.942V375.488h35.183V375.1H501.111V362.35h13.014v-.387H478.942V349.214h35.183v-.387H501.111V336.078h13.014v-.387H478.942v-12.75h35.183v-.388H501.111V309.8h13.014v-.387H478.942v-12.75h35.183v-.387H501.111V283.53h13.014v-.388H478.942V270.393h35.183v-.387H501.111V257.257h13.014v-.388H478.942V244.12h35.183v-.389H501.111V230.982h13.014v-.387H478.942v-12.75h35.183v-.387H501.111v-12.75h13.014v-.387H478.942V191.572h35.183v-.388H501.111V178.435h13.014v-.387H478.942V165.3h35.183v-.388H501.111V152.162h13.014v-.387H478.942v-12.75h35.183v-.388H501.111V125.888h13.014V125.5H478.942V112.752h35.183v-.388H501.111V99.615h13.014v-.388H478.942V86.478h35.183V86.09H501.111V73.341h13.014v-.388H478.942V60.205h35.183v-.388H501.111V47.067h13.014v-.388H478.942V33.93h35.183v-.387H501.111V20.794h13.014v-.388H478.942V7.657h35.183V7.269H501.111V0h-.388V7.269H456.774V0h-.388V7.269h-43.95V0h-.388V7.269H368.1V0h-.387V7.269h-43.95V0h-.387V7.269h-43.95V0h-.388V7.269H235.089V0H234.7V7.269H190.751V0h-.388V7.269H146.414V0h-.388V7.269H102.077V0h-.389V7.269H57.74V0h-.388V7.269H13.4V0h-.387V7.269H0v.388H35.183V20.406H0v.388H13.015V33.543H0v.387H35.183V46.679H0v.388H13.015v12.75H0v.388H35.183V72.953H0v.388H13.015V86.09H0v.388H35.183V99.227H0v.388H13.015v12.749H0v.388H35.183V125.5H0v.387H13.015v12.749H0v.388H35.183v12.75H0v.387H13.015v12.749H0v.388H35.183v12.749H0v.387H13.015v12.749H0v.388H35.183v12.749H0v.387H13.015v12.75H0v.387H35.183v12.75H0v.387H13.015v12.749H0v.389H35.183v12.749H0v.388H13.015v12.749H0v.387H35.183v12.749H0v.388H13.015v12.749H0v.387H35.183v12.75H0v.387H13.015v12.75H0v.388H35.183v12.75H0v.387H13.015v12.749H0v.387H35.183v12.749H0v.387H13.015V375.1H0v.387H35.183v12.749H0v.387H13.015v12.749H0v.387H35.183v12.75H0v.388H13.015v12.75H0v.387H35.183v12.75H0v.387H13.015v12.749H0v.388H35.183v12.749H0v.387H13.015v12.75H0v.387H35.183v12.749H0v.388H13.015v12.748H0v.389H35.183v7.269ZM13.4,493.719h43.95v12.748H13.4V493.719Zm44.338,0h43.948v12.748H57.74V493.719Zm44.337,0h43.949v12.748H102.077V493.719Zm44.337,0h43.949v12.748H146.414V493.719Zm44.337,0H234.7v12.748H190.751V493.719Zm44.338,0h43.948v12.748H235.089V493.719Zm44.336,0h43.95v12.748h-43.95V493.719Zm44.337,0h43.95v12.748h-43.95V493.719Zm44.337,0h43.949v12.748H368.1V493.719Zm44.337,0h43.95v12.748h-43.95V493.719Zm44.338,0h43.949v12.748H456.774V493.719ZM35.57,480.582H79.52v12.749H35.57V480.582Zm44.337,0h43.95v12.749H79.907V480.582Zm44.338,0h43.949v12.749H124.245V480.582Zm44.337,0h43.95v12.749h-43.95V480.582Zm44.337,0h43.95v12.749h-43.95V480.582Zm44.338,0h43.949v12.749H257.257V480.582Zm44.336,0h43.95v12.749h-43.95V480.582Zm44.338,0H389.88v12.749H345.931V480.582Zm44.337,0h43.949v12.749H390.268V480.582Zm44.337,0h43.949v12.749H434.605V480.582ZM13.4,467.445h43.95v12.75H13.4v-12.75Zm44.338,0h43.948v12.75H57.74v-12.75Zm44.337,0h43.949v12.75H102.077v-12.75Zm44.337,0h43.949v12.75H146.414v-12.75Zm44.337,0H234.7v12.75H190.751v-12.75Zm44.338,0h43.948v12.75H235.089v-12.75Zm44.336,0h43.95v12.75h-43.95v-12.75Zm44.337,0h43.95v12.75h-43.95v-12.75Zm44.337,0h43.949v12.75H368.1v-12.75Zm44.337,0h43.95v12.75h-43.95v-12.75Zm44.338,0h43.949v12.75H456.774v-12.75ZM35.57,454.309H79.52v12.749H35.57V454.309Zm44.337,0h43.95v12.749H79.907V454.309Zm44.338,0h43.949v12.749H124.245V454.309Zm44.337,0h43.95v12.749h-43.95V454.309Zm44.337,0h43.95v12.749h-43.95V454.309Zm44.338,0h43.949v12.749H257.257V454.309Zm44.336,0h43.95v12.749h-43.95V454.309Zm44.338,0H389.88v12.749H345.931V454.309Zm44.337,0h43.949v12.749H390.268V454.309Zm44.337,0h43.949v12.749H434.605V454.309ZM13.4,441.172h43.95v12.749H13.4V441.172Zm44.338,0h43.948v12.749H57.74V441.172Zm44.337,0h43.949v12.749H102.077V441.172Zm44.337,0h43.949v12.749H146.414V441.172Zm44.337,0H234.7v12.749H190.751V441.172Zm44.338,0h43.948v12.749H235.089V441.172Zm44.336,0h43.95v12.749h-43.95V441.172Zm44.337,0h43.95v12.749h-43.95V441.172Zm44.337,0h43.949v12.749H368.1V441.172Zm44.337,0h43.95v12.749h-43.95V441.172Zm44.338,0h43.949v12.749H456.774V441.172ZM35.57,428.035H79.52v12.75H35.57v-12.75Zm44.337,0h43.95v12.75H79.907v-12.75Zm44.338,0h43.949v12.75H124.245v-12.75Zm44.337,0h43.95v12.75h-43.95v-12.75Zm44.337,0h43.95v12.75h-43.95v-12.75Zm44.338,0h43.949v12.75H257.257v-12.75Zm44.336,0h43.95v12.75h-43.95v-12.75Zm44.338,0H389.88v12.75H345.931v-12.75Zm44.337,0h43.949v12.75H390.268v-12.75Zm44.337,0h43.949v12.75H434.605v-12.75ZM13.4,414.9h43.95v12.75H13.4V414.9Zm44.338,0h43.948v12.75H57.74V414.9Zm44.337,0h43.949v12.75H102.077V414.9Zm44.337,0h43.949v12.75H146.414V414.9Zm44.337,0H234.7v12.75H190.751V414.9Zm44.338,0h43.948v12.75H235.089V414.9Zm44.336,0h43.95v12.75h-43.95V414.9Zm44.337,0h43.95v12.75h-43.95V414.9Zm44.337,0h43.949v12.75H368.1V414.9Zm44.337,0h43.95v12.75h-43.95V414.9Zm44.338,0h43.949v12.75H456.774V414.9ZM35.57,401.76H79.52v12.75H35.57V401.76Zm44.337,0h43.95v12.75H79.907V401.76Zm44.338,0h43.949v12.75H124.245V401.76Zm44.337,0h43.95v12.75h-43.95V401.76Zm44.337,0h43.95v12.75h-43.95V401.76Zm44.338,0h43.949v12.75H257.257V401.76Zm44.336,0h43.95v12.75h-43.95V401.76Zm44.338,0H389.88v12.75H345.931V401.76Zm44.337,0h43.949v12.75H390.268V401.76Zm44.337,0h43.949v12.75H434.605V401.76ZM13.4,388.624h43.95v12.749H13.4V388.624Zm44.338,0h43.948v12.749H57.74V388.624Zm44.337,0h43.949v12.749H102.077V388.624Zm44.337,0h43.949v12.749H146.414V388.624Zm44.337,0H234.7v12.749H190.751V388.624Zm44.338,0h43.948v12.749H235.089V388.624Zm44.336,0h43.95v12.749h-43.95V388.624Zm44.337,0h43.95v12.749h-43.95V388.624Zm44.337,0h43.949v12.749H368.1V388.624Zm44.337,0h43.95v12.749h-43.95V388.624Zm44.338,0h43.949v12.749H456.774V388.624ZM35.57,375.488H79.52v12.749H35.57V375.488Zm44.337,0h43.95v12.749H79.907V375.488Zm44.338,0h43.949v12.749H124.245V375.488Zm44.337,0h43.95v12.749h-43.95V375.488Zm44.337,0h43.95v12.749h-43.95V375.488Zm44.338,0h43.949v12.749H257.257V375.488Zm44.336,0h43.95v12.749h-43.95V375.488Zm44.338,0H389.88v12.749H345.931V375.488Zm44.337,0h43.949v12.749H390.268V375.488Zm44.337,0h43.949v12.749H434.605V375.488ZM13.4,362.35h43.95V375.1H13.4V362.35Zm44.338,0h43.948V375.1H57.74V362.35Zm44.337,0h43.949V375.1H102.077V362.35Zm44.337,0h43.949V375.1H146.414V362.35Zm44.337,0H234.7V375.1H190.751V362.35Zm44.338,0h43.948V375.1H235.089V362.35Zm44.336,0h43.95V375.1h-43.95V362.35Zm44.337,0h43.95V375.1h-43.95V362.35Zm44.337,0h43.949V375.1H368.1V362.35Zm44.337,0h43.95V375.1h-43.95V362.35Zm44.338,0h43.949V375.1H456.774V362.35ZM35.57,349.214H79.52v12.749H35.57V349.214Zm44.337,0h43.95v12.749H79.907V349.214Zm44.338,0h43.949v12.749H124.245V349.214Zm44.337,0h43.95v12.749h-43.95V349.214Zm44.337,0h43.95v12.749h-43.95V349.214Zm44.338,0h43.949v12.749H257.257V349.214Zm44.336,0h43.95v12.749h-43.95V349.214Zm44.338,0H389.88v12.749H345.931V349.214Zm44.337,0h43.949v12.749H390.268V349.214Zm44.337,0h43.949v12.749H434.605V349.214ZM13.4,336.078h43.95v12.749H13.4V336.078Zm44.338,0h43.948v12.749H57.74V336.078Zm44.337,0h43.949v12.749H102.077V336.078Zm44.337,0h43.949v12.749H146.414V336.078Zm44.337,0H234.7v12.749H190.751V336.078Zm44.338,0h43.948v12.749H235.089V336.078Zm44.336,0h43.95v12.749h-43.95V336.078Zm44.337,0h43.95v12.749h-43.95V336.078Zm44.337,0h43.949v12.749H368.1V336.078Zm44.337,0h43.95v12.749h-43.95V336.078Zm44.338,0h43.949v12.749H456.774V336.078ZM35.57,322.941H79.52v12.75H35.57v-12.75Zm44.337,0h43.95v12.75H79.907v-12.75Zm44.338,0h43.949v12.75H124.245v-12.75Zm44.337,0h43.95v12.75h-43.95v-12.75Zm44.337,0h43.95v12.75h-43.95v-12.75Zm44.338,0h43.949v12.75H257.257v-12.75Zm44.336,0h43.95v12.75h-43.95v-12.75Zm44.338,0H389.88v12.75H345.931v-12.75Zm44.337,0h43.949v12.75H390.268v-12.75Zm44.337,0h43.949v12.75H434.605v-12.75ZM13.4,309.8h43.95v12.75H13.4V309.8Zm44.338,0h43.948v12.75H57.74V309.8Zm44.337,0h43.949v12.75H102.077V309.8Zm44.337,0h43.949v12.75H146.414V309.8Zm44.337,0H234.7v12.75H190.751V309.8Zm44.338,0h43.948v12.75H235.089V309.8Zm44.336,0h43.95v12.75h-43.95V309.8Zm44.337,0h43.95v12.75h-43.95V309.8Zm44.337,0h43.949v12.75H368.1V309.8Zm44.337,0h43.95v12.75h-43.95V309.8Zm44.338,0h43.949v12.75H456.774V309.8ZM35.57,296.666H79.52v12.75H35.57v-12.75Zm44.337,0h43.95v12.75H79.907v-12.75Zm44.338,0h43.949v12.75H124.245v-12.75Zm44.337,0h43.95v12.75h-43.95v-12.75Zm44.337,0h43.95v12.75h-43.95v-12.75Zm44.338,0h43.949v12.75H257.257v-12.75Zm44.336,0h43.95v12.75h-43.95v-12.75Zm44.338,0H389.88v12.75H345.931v-12.75Zm44.337,0h43.949v12.75H390.268v-12.75Zm44.337,0h43.949v12.75H434.605v-12.75ZM13.4,283.53h43.95v12.749H13.4V283.53Zm44.338,0h43.948v12.749H57.74V283.53Zm44.337,0h43.949v12.749H102.077V283.53Zm44.337,0h43.949v12.749H146.414V283.53Zm44.337,0H234.7v12.749H190.751V283.53Zm44.338,0h43.948v12.749H235.089V283.53Zm44.336,0h43.95v12.749h-43.95V283.53Zm44.337,0h43.95v12.749h-43.95V283.53Zm44.337,0h43.949v12.749H368.1V283.53Zm44.337,0h43.95v12.749h-43.95V283.53Zm44.338,0h43.949v12.749H456.774V283.53ZM35.57,270.393H79.52v12.749H35.57V270.393Zm44.337,0h43.95v12.749H79.907V270.393Zm44.338,0h43.949v12.749H124.245V270.393Zm44.337,0h43.95v12.749h-43.95V270.393Zm44.337,0h43.95v12.749h-43.95V270.393Zm44.338,0h43.949v12.749H257.257V270.393Zm44.336,0h43.95v12.749h-43.95V270.393Zm44.338,0H389.88v12.749H345.931V270.393Zm44.337,0h43.949v12.749H390.268V270.393Zm44.337,0h43.949v12.749H434.605V270.393ZM13.4,257.257h43.95v12.749H13.4V257.257Zm44.338,0h43.948v12.749H57.74V257.257Zm44.337,0h43.949v12.749H102.077V257.257Zm44.337,0h43.949v12.749H146.414V257.257Zm44.337,0H234.7v12.749H190.751V257.257Zm44.338,0h43.948v12.749H235.089V257.257Zm44.336,0h43.95v12.749h-43.95V257.257Zm44.337,0h43.95v12.749h-43.95V257.257Zm44.337,0h43.949v12.749H368.1V257.257Zm44.337,0h43.95v12.749h-43.95V257.257Zm44.338,0h43.949v12.749H456.774V257.257ZM35.57,244.12H79.52v12.749H35.57V244.12Zm44.337,0h43.95v12.749H79.907V244.12Zm44.338,0h43.949v12.749H124.245V244.12Zm44.337,0h43.95v12.749h-43.95V244.12Zm44.337,0h43.95v12.749h-43.95V244.12Zm44.338,0h43.949v12.749H257.257V244.12Zm44.336,0h43.95v12.749h-43.95V244.12Zm44.338,0H389.88v12.749H345.931V244.12Zm44.337,0h43.949v12.749H390.268V244.12Zm44.337,0h43.949v12.749H434.605V244.12ZM13.4,230.982h43.95v12.749H13.4V230.982Zm44.338,0h43.948v12.749H57.74V230.982Zm44.337,0h43.949v12.749H102.077V230.982Zm44.337,0h43.949v12.749H146.414V230.982Zm44.337,0H234.7v12.749H190.751V230.982Zm44.338,0h43.948v12.749H235.089V230.982Zm44.336,0h43.95v12.749h-43.95V230.982Zm44.337,0h43.95v12.749h-43.95V230.982Zm44.337,0h43.949v12.749H368.1V230.982Zm44.337,0h43.95v12.749h-43.95V230.982Zm44.338,0h43.949v12.749H456.774V230.982ZM35.57,217.845H79.52v12.75H35.57v-12.75Zm44.337,0h43.95v12.75H79.907v-12.75Zm44.338,0h43.949v12.75H124.245v-12.75Zm44.337,0h43.95v12.75h-43.95v-12.75Zm44.337,0h43.95v12.75h-43.95v-12.75Zm44.338,0h43.949v12.75H257.257v-12.75Zm44.336,0h43.95v12.75h-43.95v-12.75Zm44.338,0H389.88v12.75H345.931v-12.75Zm44.337,0h43.949v12.75H390.268v-12.75Zm44.337,0h43.949v12.75H434.605v-12.75ZM13.4,204.708h43.95v12.75H13.4v-12.75Zm44.338,0h43.948v12.75H57.74v-12.75Zm44.337,0h43.949v12.75H102.077v-12.75Zm44.337,0h43.949v12.75H146.414v-12.75Zm44.337,0H234.7v12.75H190.751v-12.75Zm44.338,0h43.948v12.75H235.089v-12.75Zm44.336,0h43.95v12.75h-43.95v-12.75Zm44.337,0h43.95v12.75h-43.95v-12.75Zm44.337,0h43.949v12.75H368.1v-12.75Zm44.337,0h43.95v12.75h-43.95v-12.75Zm44.338,0h43.949v12.75H456.774v-12.75ZM35.57,191.572H79.52v12.749H35.57V191.572Zm44.337,0h43.95v12.749H79.907V191.572Zm44.338,0h43.949v12.749H124.245V191.572Zm44.337,0h43.95v12.749h-43.95V191.572Zm44.337,0h43.95v12.749h-43.95V191.572Zm44.338,0h43.949v12.749H257.257V191.572Zm44.336,0h43.95v12.749h-43.95V191.572Zm44.338,0H389.88v12.749H345.931V191.572Zm44.337,0h43.949v12.749H390.268V191.572Zm44.337,0h43.949v12.749H434.605V191.572ZM13.4,178.435h43.95v12.749H13.4V178.435Zm44.338,0h43.948v12.749H57.74V178.435Zm44.337,0h43.949v12.749H102.077V178.435Zm44.337,0h43.949v12.749H146.414V178.435Zm44.337,0H234.7v12.749H190.751V178.435Zm44.338,0h43.948v12.749H235.089V178.435Zm44.336,0h43.95v12.749h-43.95V178.435Zm44.337,0h43.95v12.749h-43.95V178.435Zm44.337,0h43.949v12.749H368.1V178.435Zm44.337,0h43.95v12.749h-43.95V178.435Zm44.338,0h43.949v12.749H456.774V178.435ZM35.57,165.3H79.52v12.749H35.57V165.3Zm44.337,0h43.95v12.749H79.907V165.3Zm44.338,0h43.949v12.749H124.245V165.3Zm44.337,0h43.95v12.749h-43.95V165.3Zm44.337,0h43.95v12.749h-43.95V165.3Zm44.338,0h43.949v12.749H257.257V165.3Zm44.336,0h43.95v12.749h-43.95V165.3Zm44.338,0H389.88v12.749H345.931V165.3Zm44.337,0h43.949v12.749H390.268V165.3Zm44.337,0h43.949v12.749H434.605V165.3ZM13.4,152.162h43.95v12.749H13.4V152.162Zm44.338,0h43.948v12.749H57.74V152.162Zm44.337,0h43.949v12.749H102.077V152.162Zm44.337,0h43.949v12.749H146.414V152.162Zm44.337,0H234.7v12.749H190.751V152.162Zm44.338,0h43.948v12.749H235.089V152.162Zm44.336,0h43.95v12.749h-43.95V152.162Zm44.337,0h43.95v12.749h-43.95V152.162Zm44.337,0h43.949v12.749H368.1V152.162Zm44.337,0h43.95v12.749h-43.95V152.162Zm44.338,0h43.949v12.749H456.774V152.162ZM35.57,139.025H79.52v12.75H35.57v-12.75Zm44.337,0h43.95v12.75H79.907v-12.75Zm44.338,0h43.949v12.75H124.245v-12.75Zm44.337,0h43.95v12.75h-43.95v-12.75Zm44.337,0h43.95v12.75h-43.95v-12.75Zm44.338,0h43.949v12.75H257.257v-12.75Zm44.336,0h43.95v12.75h-43.95v-12.75Zm44.338,0H389.88v12.75H345.931v-12.75Zm44.337,0h43.949v12.75H390.268v-12.75Zm44.337,0h43.949v12.75H434.605v-12.75ZM13.4,125.888h43.95v12.749H13.4V125.888Zm44.338,0h43.948v12.749H57.74V125.888Zm44.337,0h43.949v12.749H102.077V125.888Zm44.337,0h43.949v12.749H146.414V125.888Zm44.337,0H234.7v12.749H190.751V125.888Zm44.338,0h43.948v12.749H235.089V125.888Zm44.336,0h43.95v12.749h-43.95V125.888Zm44.337,0h43.95v12.749h-43.95V125.888Zm44.337,0h43.949v12.749H368.1V125.888Zm44.337,0h43.95v12.749h-43.95V125.888Zm44.338,0h43.949v12.749H456.774V125.888ZM35.57,112.752H79.52V125.5H35.57V112.752Zm44.337,0h43.95V125.5H79.907V112.752Zm44.338,0h43.949V125.5H124.245V112.752Zm44.337,0h43.95V125.5h-43.95V112.752Zm44.337,0h43.95V125.5h-43.95V112.752Zm44.338,0h43.949V125.5H257.257V112.752Zm44.336,0h43.95V125.5h-43.95V112.752Zm44.338,0H389.88V125.5H345.931V112.752Zm44.337,0h43.949V125.5H390.268V112.752Zm44.337,0h43.949V125.5H434.605V112.752ZM13.4,99.615h43.95v12.749H13.4V99.615Zm44.338,0h43.948v12.749H57.74V99.615Zm44.337,0h43.949v12.749H102.077V99.615Zm44.337,0h43.949v12.749H146.414V99.615Zm44.337,0H234.7v12.749H190.751V99.615Zm44.338,0h43.948v12.749H235.089V99.615Zm44.336,0h43.95v12.749h-43.95V99.615Zm44.337,0h43.95v12.749h-43.95V99.615Zm44.337,0h43.949v12.749H368.1V99.615Zm44.337,0h43.95v12.749h-43.95V99.615Zm44.338,0h43.949v12.749H456.774V99.615ZM35.57,86.478H79.52V99.227H35.57V86.478Zm44.337,0h43.95V99.227H79.907V86.478Zm44.338,0h43.949V99.227H124.245V86.478Zm44.337,0h43.95V99.227h-43.95V86.478Zm44.337,0h43.95V99.227h-43.95V86.478Zm44.338,0h43.949V99.227H257.257V86.478Zm44.336,0h43.95V99.227h-43.95V86.478Zm44.338,0H389.88V99.227H345.931V86.478Zm44.337,0h43.949V99.227H390.268V86.478Zm44.337,0h43.949V99.227H434.605V86.478ZM13.4,73.341h43.95V86.09H13.4V73.341Zm44.338,0h43.948V86.09H57.74V73.341Zm44.337,0h43.949V86.09H102.077V73.341Zm44.337,0h43.949V86.09H146.414V73.341Zm44.337,0H234.7V86.09H190.751V73.341Zm44.338,0h43.948V86.09H235.089V73.341Zm44.336,0h43.95V86.09h-43.95V73.341Zm44.337,0h43.95V86.09h-43.95V73.341Zm44.337,0h43.949V86.09H368.1V73.341Zm44.337,0h43.95V86.09h-43.95V73.341Zm44.338,0h43.949V86.09H456.774V73.341ZM35.57,60.205H79.52V72.953H35.57V60.205Zm44.337,0h43.95V72.953H79.907V60.205Zm44.338,0h43.949V72.953H124.245V60.205Zm44.337,0h43.95V72.953h-43.95V60.205Zm44.337,0h43.95V72.953h-43.95V60.205Zm44.338,0h43.949V72.953H257.257V60.205Zm44.336,0h43.95V72.953h-43.95V60.205Zm44.338,0H389.88V72.953H345.931V60.205Zm44.337,0h43.949V72.953H390.268V60.205Zm44.337,0h43.949V72.953H434.605V60.205ZM13.4,47.067h43.95v12.75H13.4V47.067Zm44.338,0h43.948v12.75H57.74V47.067Zm44.337,0h43.949v12.75H102.077V47.067Zm44.337,0h43.949v12.75H146.414V47.067Zm44.337,0H234.7v12.75H190.751V47.067Zm44.338,0h43.948v12.75H235.089V47.067Zm44.336,0h43.95v12.75h-43.95V47.067Zm44.337,0h43.95v12.75h-43.95V47.067Zm44.337,0h43.949v12.75H368.1V47.067Zm44.337,0h43.95v12.75h-43.95V47.067Zm44.338,0h43.949v12.75H456.774V47.067ZM35.57,33.93H79.52V46.679H35.57V33.93Zm44.337,0h43.95V46.679H79.907V33.93Zm44.338,0h43.949V46.679H124.245V33.93Zm44.337,0h43.95V46.679h-43.95V33.93Zm44.337,0h43.95V46.679h-43.95V33.93Zm44.338,0h43.949V46.679H257.257V33.93Zm44.336,0h43.95V46.679h-43.95V33.93Zm44.338,0H389.88V46.679H345.931V33.93Zm44.337,0h43.949V46.679H390.268V33.93Zm44.337,0h43.949V46.679H434.605V33.93ZM13.4,20.794h43.95V33.543H13.4V20.794Zm44.338,0h43.948V33.543H57.74V20.794Zm44.337,0h43.949V33.543H102.077V20.794Zm44.337,0h43.949V33.543H146.414V20.794Zm44.337,0H234.7V33.543H190.751V20.794Zm44.338,0h43.948V33.543H235.089V20.794Zm44.336,0h43.95V33.543h-43.95V20.794Zm44.337,0h43.95V33.543h-43.95V20.794Zm44.337,0h43.949V33.543H368.1V20.794Zm44.337,0h43.95V33.543h-43.95V20.794Zm44.338,0h43.949V33.543H456.774V20.794ZM35.57,7.657H79.52V20.406H35.57V7.657Zm44.337,0h43.95V20.406H79.907V7.657Zm44.338,0h43.949V20.406H124.245V7.657Zm44.337,0h43.95V20.406h-43.95V7.657Zm44.337,0h43.95V20.406h-43.95V7.657Zm44.338,0h43.949V20.406H257.257V7.657Zm44.336,0h43.95V20.406h-43.95V7.657Zm44.338,0H389.88V20.406H345.931V7.657Zm44.337,0h43.949V20.406H390.268V7.657Zm44.337,0h43.949V20.406H434.605Z" fill="#e79b96" fill-rule="evenodd"/>
        </g>
        <rect id="Rectángulo_1193" data-name="Rectángulo 1193" width="2.206" height="514.125" transform="translate(251.006 0)" fill="#e79b96"/>
        <rect id="Rectángulo_1194" data-name="Rectángulo 1194" width="251.006" height="514.125" transform="translate(0 0)" fill="#e8eaf6"/>
        <rect id="Rectángulo_1195" data-name="Rectángulo 1195" width="24.624" height="514.125" transform="translate(226.383 0)" fill="#fff"/>
        <path id="Trazado_18032" data-name="Trazado 18032" d="M207.093,427.323V407.556L0,216.264v19.766L207.093,427.323Zm0-36.273L0,199.757V160.225L207.093,351.517v39.532Zm0-162.768L0,36.989V20.519L207.093,211.811v16.471Zm0-30.225V165.114L28.34,0H0V6.764Z" fill="#f5f6fb" fill-rule="evenodd"/>
        <path id="Trazado_18033" data-name="Trazado 18033" d="M57.463,514.125h8.272V503.653h62.405v10.472h8.272V503.653h62.407v10.472h8.272V0h-8.272V64.017H136.414V0h-8.272V64.017H65.736V0H57.463V64.017H0v6.736H57.463v64.309H0V141.8H57.463v64.309H0v6.737H57.463v70.936H0v6.738H57.463v64.308H0v6.737H57.463v64.308H0v6.736H57.463v64.309H0v6.736H57.463v10.472Zm8.272-253.39V212.845h62.405v70.936H65.736V260.735Zm70.678,0V212.845h62.407v70.936H136.414V260.735ZM65.736,496.917V432.608h62.405v64.309Zm70.678,0V432.608h62.407v64.309ZM65.736,425.871V361.564h62.405v64.308Zm70.678,0V361.564h62.407v64.308ZM65.736,354.827V290.519h62.405v64.308Zm70.678,0V290.519h62.407v64.308ZM65.736,206.108V141.8h62.405v64.309Zm70.678,0V141.8h62.407v64.309ZM65.736,135.063V70.754h62.405v64.309Zm70.678,0V70.754h62.407v64.309Z" fill="#c2c3e3" fill-rule="evenodd"/>
        <path id="Trazado_18034" data-name="Trazado 18034" d="M59.921,514.125h8.272V501.8H130.6v12.32h8.272V501.8h62.407v12.32h8.271V0h-8.271V62.168H138.871V0H130.6V62.168H68.193V0H59.921V62.168H0v6.737H59.921v64.308H0v6.737H59.921v64.308H0v6.736H59.921v70.938H0v6.736H59.921v64.309H0v6.735H59.921v64.309H0v6.736H59.921v64.308H0V501.8H59.921v12.32Zm8.272-255.239V210.995H130.6v70.938H68.193V258.886Zm70.678,0V210.995h62.407v70.938H138.871V258.886ZM68.193,495.067V430.759H130.6v64.308Zm70.678,0V430.759h62.407v64.308ZM68.193,424.023V359.713H130.6v64.309Zm70.678,0V359.713h62.407v64.309ZM68.193,352.978V288.669H130.6v64.309Zm70.678,0V288.669h62.407v64.309ZM68.193,204.258V139.95H130.6v64.308Zm70.678,0V139.95h62.407v64.308ZM68.193,133.213V68.905H130.6v64.308Zm70.678,0V68.905h62.407v64.308Z" fill="#fff" fill-rule="evenodd"/>
        <rect id="Rectángulo_1196" data-name="Rectángulo 1196" width="2.206" height="514.125" transform="translate(224.176 0)" fill="#c2c3e3"/>
        <path id="Trazado_18035" data-name="Trazado 18035" d="M0,222.536H73.019a2.753,2.753,0,0,1,2.744,2.745V465.423A18.11,18.11,0,0,0,65.736,462.4H0Z" transform="translate(0 -23.905)" fill="#fdefe9" fill-rule="evenodd"/>
        <path id="Trazado_18036" data-name="Trazado 18036" d="M77.613,279.478V471.539a18.11,18.11,0,0,0-10.027-3.023H17.905a23.024,23.024,0,0,1-.687-5.59V302.683a23.273,23.273,0,0,1,23.2-23.205Z" transform="translate(-1.85 -30.022)" fill="#fff" fill-rule="evenodd"/>
        <path id="Trazado_18037" data-name="Trazado 18037" d="M0,427.858l2.152.274,18.562-2.8L9.669,408H0Z" transform="translate(0 -43.828)" fill="#3f4154" fill-rule="evenodd"/>
        <path id="Trazado_18038" data-name="Trazado 18038" d="M218.313,302.477H192.4a3.845,3.845,0,0,1-3.834-3.833h0a3.846,3.846,0,0,1,3.834-3.835h25.912a3.846,3.846,0,0,1,3.834,3.835h0A3.845,3.845,0,0,1,218.313,302.477Z" transform="translate(-20.256 -31.669)" fill="#00000f" fill-rule="evenodd"/>
        <path id="Rectángulo_1197" data-name="Rectángulo 1197" d="M2.143,0H26.257A2.144,2.144,0,0,1,28.4,2.144V8.239a2.143,2.143,0,0,1-2.143,2.143H2.143A2.143,2.143,0,0,1,0,8.239v-6.1A2.143,2.143,0,0,1,2.143,0Z" transform="translate(1.154 376.049)" fill="#fff"/>
        <rect id="Rectángulo_1198" data-name="Rectángulo 1198" width="28.4" height="10.381" rx="2.143" transform="translate(1.927 376.958)" fill="#fad0be"/>
        <rect id="Rectángulo_1199" data-name="Rectángulo 1199" width="28.4" height="10.382" rx="2.143" transform="translate(3.472 378.429)" fill="#fff"/>
        <path id="Trazado_18039" data-name="Trazado 18039" d="M76.182,220.146H0v28.888H76.182a7.634,7.634,0,0,0,7.613-7.612V227.758A7.634,7.634,0,0,0,76.182,220.146Z" transform="translate(0 -23.649)" fill="#fff" fill-rule="evenodd"/>
        <g id="Grupo_7065" data-name="Grupo 7065" transform="translate(0 164.749)">
          <rect id="Rectángulo_1200" data-name="Rectángulo 1200" width="30.609" height="5.499" transform="translate(0 24.352)" fill="#fafcfc"/>
          <path id="Trazado_18040" data-name="Trazado 18040" d="M25.873,212.111a1.188,1.188,0,0,1,0-2.377H68.236a4.635,4.635,0,0,1,3.278,1.364l0,0a4.647,4.647,0,0,1-3.283,7.925H25.873a1.188,1.188,0,0,1,0-2.377h1.94a7.427,7.427,0,0,0,.934-.811,2.514,2.514,0,0,0,.874-1.875,2.879,2.879,0,0,0-1.119-1.853Z" transform="translate(-2.652 -187.279)" fill="#ced6d7" fill-rule="evenodd"/>
          <path id="Trazado_18041" data-name="Trazado 18041" d="M0,209.734H23.772A4.633,4.633,0,0,1,27.05,211.1l.005,0a4.647,4.647,0,0,1-3.283,7.925H0v-2.377H23.772a2.27,2.27,0,0,0,0-4.54H0Z" transform="translate(0 -187.279)" fill="#adbfc2" fill-rule="evenodd"/>
          <rect id="Rectángulo_1201" data-name="Rectángulo 1201" width="50.277" height="6.672" transform="translate(13.447 13.838)" fill="#fafcfc"/>
          <path id="Trazado_18042" data-name="Trazado 18042" d="M22.41,200.386a1.442,1.442,0,0,0,0-2.883H0v11.274H22.41a1.442,1.442,0,0,0,0-2.884H20.054a9.144,9.144,0,0,1-1.134-.984,3.06,3.06,0,0,1-1.059-2.275,3.5,3.5,0,0,1,1.359-2.248Z" transform="translate(0 -185.966)" fill="#a7a8c9" fill-rule="evenodd"/>
          <path id="Trazado_18043" data-name="Trazado 18043" d="M65.662,200.386a1.442,1.442,0,1,0,0-2.883H23.679a5.622,5.622,0,0,0-3.976,1.654l-.005.005a5.638,5.638,0,0,0,3.982,9.615H65.662a1.442,1.442,0,0,0,0-2.884H23.679a2.754,2.754,0,0,1,0-5.507Z" transform="translate(-1.938 -185.966)" fill="#c2c3e3" fill-rule="evenodd"/>
          <rect id="Rectángulo_1202" data-name="Rectángulo 1202" width="26.338" height="6.827" transform="translate(0 2.355)" fill="#fafcfc"/>
          <path id="Trazado_18044" data-name="Trazado 18044" d="M19.055,187.527a1.475,1.475,0,1,1,0-2.95H43.108a5.75,5.75,0,0,1,4.07,1.693l.006.005a5.769,5.769,0,0,1-4.076,9.838H19.055a1.475,1.475,0,1,1,0-2.95h2.408a9.317,9.317,0,0,0,1.159-1.008,3.129,3.129,0,0,0,1.084-2.328,3.58,3.58,0,0,0-1.39-2.3Z" transform="translate(-1.888 -184.577)" fill="#2c2f48" fill-rule="evenodd"/>
          <path id="Trazado_18045" data-name="Trazado 18045" d="M0,184.577H17.85a5.749,5.749,0,0,1,4.07,1.693l0,.005a5.769,5.769,0,0,1-4.075,9.838H0v-2.95H17.85a2.818,2.818,0,0,0,0-5.637H0Z" transform="translate(0 -184.577)" fill="#3f4154" fill-rule="evenodd"/>
        </g>
        <path id="Trazado_18046" data-name="Trazado 18046" d="M66.958,425.337l-24.9,4.856-18.85-4.856L34.251,408H78Z" transform="translate(-2.493 -43.828)" fill="#575a6d" fill-rule="evenodd"/>
        <rect id="Rectángulo_1203" data-name="Rectángulo 1203" width="23.935" height="52.728" transform="translate(0 381.509)" fill="#575a6d"/>
        <rect id="Rectángulo_1204" data-name="Rectángulo 1204" width="43.752" height="52.728" transform="translate(20.714 381.509)" fill="#313448"/>
        <path id="Trazado_18047" data-name="Trazado 18047" d="M36.644,481.5H68.4V439.982H43.641a7.018,7.018,0,0,0-7,7Z" transform="translate(-3.936 -47.264)" fill="#3f4154" fill-rule="evenodd"/>
        <g id="Grupo_7066" data-name="Grupo 7066" transform="translate(135.531 247.755)">
          <path id="Trazado_18048" data-name="Trazado 18048" d="M161.374,280.5h-5.583a3.959,3.959,0,0,0-3.949,3.949v4.7a3.957,3.957,0,0,0,3.949,3.948h5.583a3.957,3.957,0,0,0,3.948-3.948v-4.7a3.959,3.959,0,0,0-3.948-3.949Zm-5.583,1.532h5.583a2.429,2.429,0,0,1,2.417,2.417v4.7a2.429,2.429,0,0,1-2.417,2.417h-5.583a2.427,2.427,0,0,1-2.417-2.417v-4.7a2.427,2.427,0,0,1,2.417-2.417Z" transform="translate(-151.842 -277.886)" fill="#e8e6ec" fill-rule="evenodd"/>
          <path id="Trazado_18049" data-name="Trazado 18049" d="M157.315,287.116v6a3.686,3.686,0,0,0,3.676,3.677h5.429a3.686,3.686,0,0,0,3.675-3.677v-14.3a1.244,1.244,0,0,0-1.24-1.242h-10.3a1.246,1.246,0,0,0-1.242,1.242Z" transform="translate(-152.43 -277.572)" fill="#fff" fill-rule="evenodd"/>
          <path id="Trazado_18050" data-name="Trazado 18050" d="M160.5,283.442v6a3.662,3.662,0,0,0,.478,1.807,3.737,3.737,0,0,0,1.572,1.487,3.649,3.649,0,0,0,1.626.381h5.919a3.686,3.686,0,0,1-3.675,3.677h-5.429a3.686,3.686,0,0,1-3.676-3.677v-14.3a1.246,1.246,0,0,1,1.242-1.242H160.5v5.87Z" transform="translate(-152.43 -277.572)" fill="#e8e6ec" fill-rule="evenodd"/>
        </g>
        <path id="Trazado_18051" data-name="Trazado 18051" d="M180.006,263.311h0a1.606,1.606,0,0,1,1.6,1.6h0a1.606,1.606,0,0,1-1.6,1.6h0a1.606,1.606,0,0,1-1.6-1.6h0A1.606,1.606,0,0,1,180.006,263.311Z" transform="translate(-19.165 -28.285)" fill="#fff" fill-rule="evenodd"/>
        <path id="Trazado_18052" data-name="Trazado 18052" d="M159.4,267.742h4.448a.615.615,0,0,0,.614-.614h0a.614.614,0,0,0-.614-.612H157.86a1.607,1.607,0,0,1-1.6-1.6h0a1.606,1.606,0,0,1,1.6-1.6h15.564a1.606,1.606,0,0,1,1.6,1.6h0a1.607,1.607,0,0,1-1.6,1.6H168a.613.613,0,0,0-.612.612h0a.615.615,0,0,0,.612.614h2.089a1.24,1.24,0,0,1,1.237,1.236h0a1.24,1.24,0,0,1-1.237,1.236H166.63a2.465,2.465,0,0,0-2.457,2.458V273.8a.582.582,0,0,1-.581.58h0a.581.581,0,0,1-.58-.58v-2.144a1.445,1.445,0,0,0-1.442-1.441H159.4a1.24,1.24,0,0,1-1.236-1.236h0A1.24,1.24,0,0,1,159.4,267.742Z" transform="translate(-16.786 -28.285)" fill="#fff" fill-rule="evenodd"/>
      </g>
      <rect id="Rectángulo_1205" data-name="Rectángulo 1205" width="141.929" height="514.125" transform="translate(250.713 0)" fill="url(#linear-gradient)"/>
      <rect id="Rectángulo_1206" data-name="Rectángulo 1206" width="521.104" height="514.125" transform="translate(392.896 0)" fill="#f3c9c7"/>
      <g id="Grupo_7124" data-name="Grupo 7124" transform="translate(18.193 136.2)">
        <g id="Grupo_7069" data-name="Grupo 7069" transform="translate(49.997 249.085)">
          <path id="Trazado_18053" data-name="Trazado 18053" d="M93.344,511.169A17.782,17.782,0,0,1,93,500.046c2.979-9.926-2.873-12.291-10.54-16.086s-7.879-13.338-1.675-20.779-3.374-14.54,1.241-26.1,16.881-2.7,18.86,8.441c1.421,8.007,11.842,7.1,14.871,17.573,2.633,9.094-9.087,16.408,3.415,21.442,3.993,1.607,6.015,4.922,6.918,8.688a18.434,18.434,0,0,1-2.149,13.795Z" transform="translate(-76.396 -431.654)" fill="#3149b9"/>
          <g id="Grupo_7068" data-name="Grupo 7068" transform="translate(14.486 17.777)">
            <path id="Trazado_18054" data-name="Trazado 18054" d="M111.236,511.118,92.672,452.831a.967.967,0,1,1,1.843-.586l18.667,58.608Z" transform="translate(-92.626 -451.571)" fill="#2039a5"/>
          </g>
        </g>
        <g id="Grupo_7071" data-name="Grupo 7071" transform="translate(0 246.096)">
          <path id="Trazado_18055" data-name="Trazado 18055" d="M55.836,513.432a21.878,21.878,0,0,1-.109-2.544c.221-13.2-7.769-14.071-18.476-16.072s-14.265-13.624-9.233-24.888-9.16-16.655-7.5-32.418,19.759-9.137,26.032,3.828c4.508,9.322,16.966,4.606,24.3,16.4,6.369,10.235-5.468,23.25,11.595,25.1,5.45.589,9.073,3.953,11.481,8.257a23.641,23.641,0,0,1,.321,22.339Z" transform="translate(-20.382 -428.305)" fill="#4071c9"/>
          <g id="Grupo_7070" data-name="Grupo 7070" transform="translate(15.551 20.902)">
            <path id="Trazado_18056" data-name="Trazado 18056" d="M79.117,515.948,38.008,453.632a1.231,1.231,0,0,1,2.056-1.355l42,63.67Z" transform="translate(-37.804 -451.723)" fill="#3149b9"/>
          </g>
        </g>
        <g id="Grupo_7072" data-name="Grupo 7072" transform="translate(271.952 215.858)">
          <path id="Trazado_18057" data-name="Trazado 18057" d="M329.385,510.483h-4.322l15.991-41.533a52.264,52.264,0,0,0-6.008-15.238c-6.605-11.54-11.59-25.007-3.135-24.074,7.337.81,12.517,16.345,12.158,31.479l5.745-14.921c.99-4.92,2.415-11.939,1.956-19.855-1.065-18.34,1.307-35.9,10.177-31.113s4.225,34.937-9.1,54.323l-2.956,7.679c9.465-14.3,27.532-25.923,34.473-20.915,6.9,4.978-5.831,11.624-18.47,15.757-9.62,3.145-15.2,7.409-17.81,9.851l-13.962,36.265c15.053-22.6,43.589-40.918,54.572-32.992,10.945,7.9-9.252,18.444-29.306,25-15.155,4.955-23.993,11.662-28.176,15.551Z" transform="translate(-325.063 -394.428)" fill="#4071c9"/>
        </g>
        <g id="Grupo_7123" data-name="Grupo 7123" transform="translate(20.186)">
          <g id="Grupo_7122" data-name="Grupo 7122">
            <g id="Grupo_7114" data-name="Grupo 7114">
              <g id="Grupo_7073" data-name="Grupo 7073" transform="translate(0 222.772)">
                <path id="Trazado_18058" data-name="Trazado 18058" d="M76.193,515.131h64.18a11.925,11.925,0,0,0-11.921-11.921h-.112s-13.62-1.777-13.62-12.9V423.928H101.846v66.379c0,11.125-13.62,12.9-13.62,12.9h-.112A11.92,11.92,0,0,0,76.193,515.131Z" transform="translate(-46.563 -404.511)" fill="#3149b9"/>
                <path id="Trazado_18059" data-name="Trazado 18059" d="M104.933,423.928v2.64l12.874,3.822v-6.462Z" transform="translate(-49.65 -404.511)" fill="#2039a5"/>
                <path id="Trazado_18060" data-name="Trazado 18060" d="M43,421.588h123.44a23.623,23.623,0,0,0-23.311-19.414l-38.409.1-38.409-.1A23.623,23.623,0,0,0,43,421.588Z" transform="translate(-42.997 -402.174)" fill="#4071c9"/>
              </g>
              <g id="Grupo_7113" data-name="Grupo 7113" transform="translate(15.129)">
                <g id="Grupo_7074" data-name="Grupo 7074" transform="translate(51.745 81.601)">
                  <path id="Trazado_18061" data-name="Trazado 18061" d="M136.713,244.795c3.427,12.667,20.706,45.669,27.415,50.4,8.733,6.157,36.112,17.713,50.354,23.606,2.57,1.063-6.96,12.308-6.96,12.308s-36.831-9.367-51.836-18.945c-4.244-2.709-13.441-11.911-25.083-30.357-3.53-5.594-11.7-16.707-12.609-24.646C116.948,248.022,127.241,241.737,136.713,244.795Z" transform="translate(-117.919 -244.013)" fill="#e08820"/>
                </g>
                <g id="Grupo_7110" data-name="Grupo 7110" transform="translate(1.598)">
                  <g id="Grupo_7079" data-name="Grupo 7079" transform="translate(72.368 183.787)">
                    <g id="Grupo_7078" data-name="Grupo 7078" transform="translate(34.595 118.383)">
                      <path id="Trazado_18062" data-name="Trazado 18062" d="M185.028,491.127l-.475,13.783s3.406,2.524,10.452,1.269l2.878-14.822Z" transform="translate(-181.894 -491.127)" fill="#e7a592"/>
                      <g id="Grupo_7077" data-name="Grupo 7077" transform="translate(0 10.042)">
                        <g id="Grupo_7076" data-name="Grupo 7076">
                          <g id="Grupo_7075" data-name="Grupo 7075">
                            <path id="Trazado_18063" data-name="Trazado 18063" d="M193.188,505.59s2.4-3.322,4.346-3.21,17.113,11.819,22.264,12.73,4.9,7.316,2.872,8.046c-2.3.83-40.393.116-40.393.116s-1.448-13.551-.192-17.214S189.183,506.511,193.188,505.59Z" transform="translate(-181.574 -502.378)" fill="#e08820"/>
                          </g>
                        </g>
                      </g>
                    </g>
                    <path id="Trazado_18064" data-name="Trazado 18064" d="M144.513,359.414s62.133-6.068,71.543,13.017c6.336,12.854-21.327,108.155-21.327,108.155-5.572,1.736-13.315-.682-16.339-3.707,0,0-4.922-13.257-.4-51.611.6-5.1,0-16.726,5.429-37.317l-40.6-17.925Z" transform="translate(-142.815 -358.497)" fill="#222046"/>
                  </g>
                  <g id="Grupo_7083" data-name="Grupo 7083" transform="translate(0 65.421)">
                    <path id="Trazado_18065" data-name="Trazado 18065" d="M88.311,226.7s-14.78,4.826-22.682,11.764-1.292,27.641-1.485,39.4,1.746,80.011,18.588,88.586c12.719,6.477,66.259-3.356,62.344-20.805a571.363,571.363,0,0,1-10.97-61.794c-2.263-19.035-1.308-33.1-3.427-41s-26.866-16.962-26.866-16.962Z" transform="translate(-61.737 -225.886)" fill="#eaa928"/>
                    <g id="Grupo_7080" data-name="Grupo 7080" transform="translate(22.346 5.422)">
                      <path id="Trazado_18066" data-name="Trazado 18066" d="M102.031,241.412c-7.708,0-14.819-8.193-15.127-8.553a.544.544,0,0,1,.827-.708c.074.087,7.521,8.667,14.965,8.149a.544.544,0,1,1,.075,1.085C102.523,241.4,102.276,241.412,102.031,241.412Z" transform="translate(-86.772 -231.961)" fill="#e08820"/>
                    </g>
                    <g id="Grupo_7081" data-name="Grupo 7081" transform="translate(30.379 68.403)">
                      <path id="Trazado_18067" data-name="Trazado 18067" d="M96.315,341.13a.544.544,0,0,1-.062-1.084c19.911-2.291,28.159-36.755,28.24-37.1a.544.544,0,1,1,1.059.246c-.338,1.451-8.511,35.559-29.175,37.938A.517.517,0,0,1,96.315,341.13Z" transform="translate(-95.772 -302.521)" fill="#e08820"/>
                    </g>
                    <g id="Grupo_7082" data-name="Grupo 7082" transform="translate(38.306 78.864)">
                      <path id="Trazado_18068" data-name="Trazado 18068" d="M105.2,331.96a.544.544,0,0,1-.286-1.007c10.59-6.529,12.164-16.153,12.179-16.249a.544.544,0,0,1,1.076.162c-.062.413-1.645,10.208-12.684,17.014A.542.542,0,0,1,105.2,331.96Z" transform="translate(-104.653 -314.241)" fill="#e08820"/>
                    </g>
                  </g>
                  <g id="Grupo_7105" data-name="Grupo 7105" transform="translate(9.293)">
                    <circle id="Elipse_825" data-name="Elipse 825" cx="21.812" cy="21.812" r="21.812" transform="translate(1.562 7.784)" fill="#323361"/>
                    <path id="Trazado_18069" data-name="Trazado 18069" d="M116.978,178.277s6.178-1.706,5.363-7.7c-.694-5.1-6.686-1.795-6.16-5.783s1.7-7.613-3.461-8.61c-4.513-.872-4.589,2.22-10.514-2.266-7-5.3-12.378,6.973-18.625,7.341-9.215.544-10.378,5.755-11.285,9.925s2.641,7.093,2.641,7.093Z" transform="translate(-72.148 -152.591)" fill="#323361"/>
                    <g id="Grupo_7087" data-name="Grupo 7087" transform="translate(40.193 33.394)">
                      <path id="Trazado_18070" data-name="Trazado 18070" d="M118.507,192.31s3.455-4.607,6.025-.8-1.064,15.06-7.354,12.314Z" transform="translate(-117.178 -190.004)" fill="#e2876c"/>
                      <g id="Grupo_7084" data-name="Grupo 7084" transform="translate(0.842 4.033)">
                        <path id="Trazado_18071" data-name="Trazado 18071" d="M118.653,200.835a.532.532,0,0,0,.512-.388c.975-3.474,4.573-4.882,4.609-4.9a.532.532,0,0,0-.377-.994,9.152,9.152,0,0,0-5.256,5.6.531.531,0,0,0,.368.655A.538.538,0,0,0,118.653,200.835Z" transform="translate(-118.122 -194.523)" fill="#bb5c4a"/>
                      </g>
                      <g id="Grupo_7086" data-name="Grupo 7086" transform="translate(2.709 6.121)">
                        <g id="Grupo_7085" data-name="Grupo 7085">
                          <path id="Trazado_18072" data-name="Trazado 18072" d="M122.511,199.336a.523.523,0,0,0,.287-.085.531.531,0,0,0,.159-.735,4.848,4.848,0,0,0-1.995-1.608.532.532,0,1,0-.434.971,3.842,3.842,0,0,1,1.535,1.213A.531.531,0,0,0,122.511,199.336Z" transform="translate(-120.213 -196.862)" fill="#bb5c4a"/>
                        </g>
                      </g>
                    </g>
                    <path id="Trazado_18073" data-name="Trazado 18073" d="M90.592,216.181V227.37s4.723,6.245,9.235,6.634,7.129-6.277,7.129-6.277V216.968Z" transform="translate(-74.129 -159.422)" fill="#e7a592"/>
                    <path id="Trazado_18074" data-name="Trazado 18074" d="M90.592,216.181v4.965c3.029,3.361,8.405,4.2,16.364,3.025v-7.2Z" transform="translate(-74.129 -159.422)" fill="#e2876c"/>
                    <path id="Trazado_18075" data-name="Trazado 18075" d="M77.374,182.3a108.864,108.864,0,0,0,1.451,14.134c.207,1.084.441,2.1.7,3.019,2.355,8.245,8.244,22.383,24.732,16.494,7.283-2.6,10.657-10.711,12.162-18.96a79.737,79.737,0,0,0,1.1-15.309,11.68,11.68,0,0,0-5.927-9.94c-9.732-5.517-20-3.461-26.763-.861A11.644,11.644,0,0,0,77.374,182.3Z" transform="translate(-72.708 -154.273)" fill="#e7a592"/>
                    <g id="Grupo_7094" data-name="Grupo 7094" transform="translate(5.83 33.205)">
                      <g id="Grupo_7093" data-name="Grupo 7093">
                        <g id="Grupo_7088" data-name="Grupo 7088" transform="translate(5.817 0.402)">
                          <path id="Trazado_18076" data-name="Trazado 18076" d="M98,192.563v.883a6.6,6.6,0,0,1-6.585,6.61H91.2a5.951,5.951,0,0,1-4.1-1.813,6.491,6.491,0,0,1-1.9-4.638v-1.043a2.352,2.352,0,0,1,.68-1.64,2.308,2.308,0,0,1,1.64-.68h8.161a2.314,2.314,0,0,1,2.092,1.322,2.267,2.267,0,0,1,.225.937A.454.454,0,0,1,98,192.563Zm-.962,0a1.358,1.358,0,0,0-1.358-1.358H87.517a1.357,1.357,0,0,0-1.358,1.358v1.043a5.513,5.513,0,0,0,1.614,3.947,5.022,5.022,0,0,0,3.444,1.541h.2a5.636,5.636,0,0,0,5.622-5.647Z" transform="translate(-85.197 -190.243)" fill="#323361"/>
                        </g>
                        <g id="Grupo_7089" data-name="Grupo 7089" transform="translate(22.154 0.402)">
                          <path id="Trazado_18077" data-name="Trazado 18077" d="M116.3,192.563v.883a6.6,6.6,0,0,1-6.585,6.61H109.5a5.945,5.945,0,0,1-4.094-1.813,6.494,6.494,0,0,1-1.907-4.638v-1.043a.2.2,0,0,1,0-.046,2.214,2.214,0,0,1,.2-.888,2.316,2.316,0,0,1,2.122-1.386h8.164a2.324,2.324,0,0,1,1.784.837,2.286,2.286,0,0,1,.446.86A2.119,2.119,0,0,1,116.3,192.563Zm-.963,0a1.358,1.358,0,0,0-1.357-1.358h-8.164a1.358,1.358,0,0,0-1.358,1.358v1.043a5.524,5.524,0,0,0,1.614,3.947,5.022,5.022,0,0,0,3.444,1.541h.2a5.641,5.641,0,0,0,5.621-5.647Z" transform="translate(-103.5 -190.243)" fill="#323361"/>
                        </g>
                        <g id="Grupo_7090" data-name="Grupo 7090">
                          <path id="Trazado_18078" data-name="Trazado 18078" d="M78.68,189.8a11.512,11.512,0,0,1,5.534,1.07c.219.105.8.486.827.5l-.458.817c-.006,0-.645-.385-.9-.5a10.088,10.088,0,0,0-5.008-.927Z" transform="translate(-78.68 -189.792)" fill="#323361"/>
                        </g>
                        <g id="Grupo_7091" data-name="Grupo 7091" transform="translate(17.655 1.364)">
                          <path id="Trazado_18079" data-name="Trazado 18079" d="M98.776,192.714l-.316-.909a9.8,9.8,0,0,1,2.893-.485,6.475,6.475,0,0,1,2.64.506l-.42.866a5.647,5.647,0,0,0-2.22-.41A9,9,0,0,0,98.776,192.714Z" transform="translate(-98.46 -191.321)" fill="#323361"/>
                        </g>
                        <g id="Grupo_7092" data-name="Grupo 7092" transform="translate(34.043 0.245)">
                          <path id="Trazado_18080" data-name="Trazado 18080" d="M121.106,190.067v.964a12.462,12.462,0,0,0-3.862,1.067l-.424-.863A13.022,13.022,0,0,1,121.106,190.067Z" transform="translate(-116.82 -190.067)" fill="#323361"/>
                        </g>
                      </g>
                    </g>
                    <path id="Trazado_18081" data-name="Trazado 18081" d="M109.381,193.963c0,1.2.616,2.163,1.375,2.163s1.375-.968,1.375-2.163-.616-2.163-1.375-2.163S109.381,192.768,109.381,193.963Z" transform="translate(-76.148 -156.803)" fill="#323361"/>
                    <path id="Trazado_18082" data-name="Trazado 18082" d="M91.343,193.963c0,1.2.616,2.163,1.375,2.163s1.375-.968,1.375-2.163-.616-2.163-1.375-2.163S91.343,192.768,91.343,193.963Z" transform="translate(-74.21 -156.803)" fill="#323361"/>
                    <path id="Trazado_18083" data-name="Trazado 18083" d="M114.713,186.648s-5.723-2.262-10.13-.358l.368,2.046a18.579,18.579,0,0,1,9.446.677C114.688,188.07,115.085,187.618,114.713,186.648Z" transform="translate(-75.632 -156.129)" fill="#323361"/>
                    <path id="Trazado_18084" data-name="Trazado 18084" d="M86.572,186.648s5.723-2.262,10.131-.358l-.369,2.046a18.576,18.576,0,0,0-9.445.677C86.6,188.07,86.2,187.618,86.572,186.648Z" transform="translate(-73.681 -156.129)" fill="#323361"/>
                    <g id="Grupo_7096" data-name="Grupo 7096" transform="translate(23.46 35.824)">
                      <g id="Grupo_7095" data-name="Grupo 7095">
                        <path id="Trazado_18085" data-name="Trazado 18085" d="M100.686,203.126a5.679,5.679,0,0,1-1.924-.4.532.532,0,0,1,.4-.985,3.2,3.2,0,0,0,2.131.2.578.578,0,0,0,.262-.5,80.144,80.144,0,0,0-.321-8.14.532.532,0,1,1,1.059-.087,78.819,78.819,0,0,1,.32,8.338,1.62,1.62,0,0,1-.773,1.3A2.236,2.236,0,0,1,100.686,203.126Z" transform="translate(-98.432 -192.727)" fill="#e2876c"/>
                      </g>
                    </g>
                    <path id="Trazado_18086" data-name="Trazado 18086" d="M106.72,207.4c-.434,2.185-1.878,6.207-6.743,6.207s-6.243-3.676-6.713-6.207Z" transform="translate(-74.416 -158.479)" fill="#fff"/>
                    <g id="Grupo_7097" data-name="Grupo 7097" transform="translate(22.779 56.191)">
                      <path id="Trazado_18087" data-name="Trazado 18087" d="M100.516,217.258a5.553,5.553,0,0,1-2.591-.727.532.532,0,1,1,.551-.91,4.519,4.519,0,0,0,2.04.573,4.312,4.312,0,0,0,1.934-.57.531.531,0,1,1,.559.9A5.316,5.316,0,0,1,100.516,217.258Z" transform="translate(-97.669 -215.545)" fill="#e2876c"/>
                    </g>
                    <path id="Trazado_18088" data-name="Trazado 18088" d="M114.777,193.518c.4-2.192.8-5.022.51-6.471-.518-2.567-2.643-4.076-1.934-6.55s-1.907-5.144-3.836-5.586-6.425.512-10.855-1.591c-4.228-2.011-11.579-.572-12.778,2.141-1.449,3.286.524,3.6-3.432,7.149-1.575,1.417.294,5.095.561,7.487a16.017,16.017,0,0,1,.095,2.821l-.016.6H78.355c-.521-3.71-.819-7.8-.983-11.223a11.645,11.645,0,0,1,7.459-11.421c6.763-2.6,17.029-4.659,26.766.86a11.678,11.678,0,0,1,5.923,9.94,84.69,84.69,0,0,1-.574,11.844Z" transform="translate(-72.708 -154.273)" fill="#323361"/>
                    <g id="Grupo_7104" data-name="Grupo 7104" transform="translate(0.148 33.375)">
                      <path id="Trazado_18089" data-name="Trazado 18089" d="M79.912,197.9a19.791,19.791,0,0,0-.289-3.7c-.3-1.667-.779-3.181-2.486-3.876a2.914,2.914,0,0,0-3.883.977c-2.569,3.81.293,15.664,6.583,12.917Z" transform="translate(-72.314 -189.982)" fill="#e7a592"/>
                      <g id="Grupo_7100" data-name="Grupo 7100" transform="translate(2.07 3.621)">
                        <g id="Grupo_7099" data-name="Grupo 7099">
                          <g id="Grupo_7098" data-name="Grupo 7098">
                            <path id="Trazado_18090" data-name="Trazado 18090" d="M78.87,201.2a.531.531,0,0,1-.426-.481c-.277-3.6-3.529-5.682-3.562-5.7a.531.531,0,0,1,.563-.9,9.153,9.153,0,0,1,4.059,6.523.532.532,0,0,1-.489.571A.554.554,0,0,1,78.87,201.2Z" transform="translate(-74.633 -194.039)" fill="#e2876c"/>
                          </g>
                        </g>
                      </g>
                      <g id="Grupo_7103" data-name="Grupo 7103" transform="translate(2.66 6.268)">
                        <g id="Grupo_7102" data-name="Grupo 7102">
                          <g id="Grupo_7101" data-name="Grupo 7101">
                            <path id="Trazado_18091" data-name="Trazado 18091" d="M75.721,199.1a.531.531,0,0,1-.277-.891,4.841,4.841,0,0,1,2.271-1.187.532.532,0,1,1,.236,1.037,3.849,3.849,0,0,0-1.743.889A.532.532,0,0,1,75.721,199.1Z" transform="translate(-75.294 -197.005)" fill="#e2876c"/>
                          </g>
                        </g>
                      </g>
                    </g>
                  </g>
                  <g id="Grupo_7108" data-name="Grupo 7108" transform="translate(8.984 184.595)">
                    <g id="Grupo_7107" data-name="Grupo 7107" transform="translate(68.102 117.575)">
                      <path id="Trazado_18092" data-name="Trazado 18092" d="M151.555,491.127l-.475,13.783s3.406,2.524,10.452,1.269l2.878-14.822Z" transform="translate(-148.421 -491.127)" fill="#e7a592"/>
                      <g id="Grupo_7106" data-name="Grupo 7106" transform="translate(0 10.042)">
                        <path id="Trazado_18093" data-name="Trazado 18093" d="M159.715,505.59s2.4-3.322,4.347-3.21,17.112,11.819,22.264,12.73,4.9,7.316,2.872,8.046c-2.306.83-40.393.116-40.393.116s-1.448-13.551-.192-17.214S155.71,506.511,159.715,505.59Z" transform="translate(-148.101 -502.378)" fill="#eaa928"/>
                      </g>
                    </g>
                    <path id="Trazado_18094" data-name="Trazado 18094" d="M72.525,360.794s96.616-7.35,106.025,11.735c6.336,12.854-21.327,108.155-21.327,108.155-5.571,1.736-13.315-.682-16.339-3.707,0,0-2.839-6.9,1.68-45.255.6-5.1-4.93-13.552.5-34.143h-50.5c-13.145,0-22-18.213-20.618-31.285Z" transform="translate(-71.802 -359.402)" fill="#323361"/>
                  </g>
                  <g id="Grupo_7109" data-name="Grupo 7109" transform="translate(28.757 74.582)">
                    <path id="Trazado_18095" data-name="Trazado 18095" d="M121.557,317.085l-7.407,20.288-13.365-19.285-1.079-61.719-.023-2.983,3.539-.63.639,4Z" transform="translate(-94.57 -237.933)" fill="#fff"/>
                    <path id="Trazado_18096" data-name="Trazado 18096" d="M103.86,256.753l-1.633,2.191-2.521-2.575-.023-2.983,3.539-.63Z" transform="translate(-94.57 -237.933)" fill="#d2dfed" opacity="0.6"/>
                    <path id="Trazado_18097" data-name="Trazado 18097" d="M93.955,247.651l7.075,7,4.985-7.156-5.826-11.345Z" transform="translate(-93.955 -236.149)" fill="#fff"/>
                  </g>
                  <path id="Trazado_18098" data-name="Trazado 18098" d="M89.849,224.875,87.116,226.9a20.482,20.482,0,0,0-1.649,1.4c-1.574,1.5-2.115,2.507-1.6,5.024a5.994,5.994,0,0,0,.282.99h0l4.77,19.382,10.163-18.754S92.232,233.6,89.849,224.875Z" transform="translate(-64.094 -160.356)" fill="#e08820"/>
                  <path id="Trazado_18099" data-name="Trazado 18099" d="M108.067,224.875s6.774,6.553,5.436,12.588l-4.716,12.568-7.848-15.094S107.036,232.831,108.067,224.875Z" transform="translate(-65.948 -160.356)" fill="#e08820"/>
                </g>
                <g id="Grupo_7112" data-name="Grupo 7112" transform="translate(0 75.569)">
                  <g id="Grupo_7111" data-name="Grupo 7111">
                    <path id="Trazado_18100" data-name="Trazado 18100" d="M68.581,237.255c7.768,11.774,37.5,52.483,44.208,57.212,8.733,6.157,36.112,17.713,50.354,23.606,2.569,1.063-6.96,12.308-6.96,12.308s-36.831-9.367-51.836-18.945c-4.244-2.709-21.9-20.395-33.155-36.08-3.855-5.373-10.128-12.837-11.036-20.775C59.112,245.444,61.982,240.556,68.581,237.255Z" transform="translate(-59.947 -237.255)" fill="#e08820"/>
                  </g>
                </g>
              </g>
            </g>
            <g id="Grupo_7121" data-name="Grupo 7121" transform="translate(12.7 108.203)">
              <g id="Grupo_7118" data-name="Grupo 7118" transform="translate(0 64.23)">
                <g id="Grupo_7115" data-name="Grupo 7115" transform="translate(211.962 10.515)">
                  <path id="Trazado_18101" data-name="Trazado 18101" d="M341.664,508.291l-46.784-145.8a3.775,3.775,0,1,1,7.189-2.307l47.525,148.112Z" transform="translate(-294.697 -357.557)" fill="#323361"/>
                </g>
                <g id="Grupo_7117" data-name="Grupo 7117" transform="translate(0 10.515)">
                  <g id="Grupo_7116" data-name="Grupo 7116">
                    <path id="Trazado_18102" data-name="Trazado 18102" d="M65.155,508.291H57.226l47.525-148.112a3.775,3.775,0,1,1,7.189,2.307Z" transform="translate(-57.226 -357.557)" fill="#323361"/>
                  </g>
                </g>
                <path id="Trazado_18103" data-name="Trazado 18103" d="M73.223,359.922H317.781a7.072,7.072,0,0,0,7.072-7.073h0a7.072,7.072,0,0,0-7.072-7.072H73.223a7.072,7.072,0,0,0-7.072,7.072h0A7.072,7.072,0,0,0,73.223,359.922Z" transform="translate(-58.185 -345.777)" fill="#3d4f7c"/>
              </g>
              <g id="Grupo_7119" data-name="Grupo 7119" transform="translate(53.754)">
                <rect id="Rectángulo_1207" data-name="Rectángulo 1207" width="75.847" height="9.884" rx="4.167" transform="translate(75.847 64.23) rotate(180)" fill="#3149b9"/>
                <path id="Trazado_18104" data-name="Trazado 18104" d="M219.194,338.047l15.433-57.8a5.113,5.113,0,0,0-4.94-6.431H195.728a5.113,5.113,0,0,0-4.923,3.73l-16.994,60.5Z" transform="translate(-123.504 -273.817)" fill="#4071c9"/>
                <path id="Trazado_18105" data-name="Trazado 18105" d="M190.354,277.551l-16.853,60H169.62l16.853-60a5.12,5.12,0,0,1,4.924-3.734h3.881A5.12,5.12,0,0,0,190.354,277.551Z" transform="translate(-123.054 -273.817)" fill="#3149b9"/>
                <path id="Trazado_18106" data-name="Trazado 18106" d="M202.609,311.866c-.883,3.813,1.492,6.9,5.3,6.9a9.215,9.215,0,0,0,8.5-6.9c.882-3.811-1.493-6.9-5.305-6.9A9.215,9.215,0,0,0,202.609,311.866Z" transform="translate(-126.578 -277.163)" fill="#5290fb"/>
              </g>
              <g id="Grupo_7120" data-name="Grupo 7120" transform="translate(154.994 22.831)">
                <path id="Trazado_18107" data-name="Trazado 18107" d="M303.131,303.722l-9.975,35.126a2.684,2.684,0,0,1-2.653,1.946H234.437a3.577,3.577,0,0,1-3.452-4.325l9.975-35.127a2.683,2.683,0,0,1,2.653-1.946h56.066A3.581,3.581,0,0,1,303.131,303.722Z" transform="translate(-230.874 -299.396)" fill="#3149b9"/>
                <path id="Trazado_18108" data-name="Trazado 18108" d="M303.906,303.722l-9.975,35.126a2.684,2.684,0,0,1-2.653,1.946H241.652a3.576,3.576,0,0,1-3.446-4.325l9.975-35.127a2.679,2.679,0,0,1,2.653-1.946h49.622A3.581,3.581,0,0,1,303.906,303.722Z" transform="translate(-231.649 -299.396)" fill="#4071c9"/>
                <path id="Trazado_18109" data-name="Trazado 18109" d="M270.645,322.772a6,6,0,0,0,6.071,6.783,7.717,7.717,0,0,0,7.494-6.783,5.994,5.994,0,0,0-6.07-6.783A7.718,7.718,0,0,0,270.645,322.772Z" transform="translate(-235.142 -301.178)" fill="#5290fb"/>
              </g>
            </g>
          </g>
        </g>
      </g>
      <g id="Grupo_7130" data-name="Grupo 7130" transform="translate(257.097 220.282)">
        <g id="Grupo_7128" data-name="Grupo 7128">
          <g id="Grupo_7125" data-name="Grupo 7125" transform="translate(15.304)">
            <path id="Trazado_18110" data-name="Trazado 18110" d="M318.4,249.729c-8.013-8.16-13.973,2.2-13.141,12.607.79,9.863,9.292,43.7,7.715,57.942h3.255C324.2,302.021,328.663,260.172,318.4,249.729Z" transform="translate(-305.185 -246.793)" fill="#7f8d9e" fill-rule="evenodd"/>
            <path id="Trazado_18111" data-name="Trazado 18111" d="M315.861,320.812c7.751-28.775-2.062-68.551-2.094-68.687a.46.46,0,0,0-.894.218c.032.135,9.858,39.955,2.047,68.469Z" transform="translate(-306.009 -247.328)" fill="#98a4b4" fill-rule="evenodd"/>
          </g>
          <g id="Grupo_7126" data-name="Grupo 7126" transform="translate(0 19.788)">
            <path id="Trazado_18112" data-name="Trazado 18112" d="M296.8,270.089c-8.445-4.473-10.573,5.289-7.282,13.364,2.729,6.693,14.78,26.487,19.337,39.206h4.292C313.508,305.082,306.763,275.37,296.8,270.089Z" transform="translate(-288.039 -268.963)" fill="#ced6d7" fill-rule="evenodd"/>
            <path id="Trazado_18113" data-name="Trazado 18113" d="M312.076,323.117c-2.793-23.772-18.6-49.612-18.659-49.7a.384.384,0,0,0-.658.4c.056.094,15.765,25.766,18.554,49.307Z" transform="translate(-288.54 -269.421)" fill="#e7ecec" fill-rule="evenodd"/>
          </g>
          <g id="Grupo_7127" data-name="Grupo 7127" transform="translate(26.179 31.405)">
            <path id="Trazado_18114" data-name="Trazado 18114" d="M335.633,282.771c8.183-3.575,9.481,5.671,5.845,12.965-2.461,4.936-11.326,17.572-17.3,28.322h-6.814C319.7,307.794,327.174,286.465,335.633,282.771Z" transform="translate(-317.369 -281.977)" fill="#e7ecec" fill-rule="evenodd"/>
            <path id="Trazado_18115" data-name="Trazado 18115" d="M320.1,324.488c5.81-19.7,19.191-38.27,19.245-38.345a.36.36,0,0,1,.585.419c-.053.074-13.292,18.449-19.09,37.927Z" transform="translate(-317.662 -282.409)" fill="#ced6d7" fill-rule="evenodd"/>
          </g>
        </g>
        <g id="Grupo_7129" data-name="Grupo 7129" transform="translate(14.39 66.98)">
          <rect id="Rectángulo_1208" data-name="Rectángulo 1208" width="26.585" height="8.527" rx="1.461" fill="#33385c"/>
          <path id="Trazado_18116" data-name="Trazado 18116" d="M309.734,327.228h15.752l4.113,3.712-3.36,12.942H308.981l-3.36-12.942Z" transform="translate(-304.317 -322.413)" fill="#33385c" fill-rule="evenodd"/>
          <path id="Trazado_18117" data-name="Trazado 18117" d="M329.6,331.387l-.691,2.659h-22.6l-.691-2.659Z" transform="translate(-304.317 -322.86)" fill="#151d3d" fill-rule="evenodd"/>
        </g>
      </g>
      <rect id="Rectángulo_1209" data-name="Rectángulo 1209" width="914" height="47.067" transform="translate(0 467.057)" fill="#030822"/>
    </g>
    <g id="Grupo_7132" data-name="Grupo 7132" transform="translate(443.611 58.484)">
      <rect id="Rectángulo_1210" data-name="Rectángulo 1210" width="327.576" height="43.736" fill="#8d6e63"/>
      <text id="Resolución_0698_de_2011" data-name="Resolución 0698 de 2011" transform="translate(162.929 28.692)" fill="#fff" font-size="24" font-family="Montserrat-Bold, Montserrat" font-weight="700"><tspan x="-148.5" y="0">Resolución 0698 de 2011</tspan></text>
    </g>
    <text id="La_cual_establece_los_requisitos_para_registrar_y_controlar_las_personas_naturales_o_jurídicas_que_se_dediquen_a_realizar_ensayos_de_eficacia_producir_o_importar_bioinsumos_de_uso_agrícola_así_como_el_registro_de_estos_productos." data-name="La cual establece los requisitos para registrar y controlar las personas naturales o jurídicas que se dediquen a realizar ensayos de eficacia, producir o importar bioinsumos de uso agrícola, así como el registro de estos productos." transform="translate(414.564 248.833)" font-size="17" font-family="MyriadPro-Regular, Myriad Pro"><tspan x="0" y="13">La cual establece los requisitos para registrar y </tspan><tspan x="0" y="33.4">controlar las personas naturales o jurídicas que se </tspan><tspan x="0" y="53.8">dediquen a realizar ensayos de eficacia, producir o </tspan><tspan x="0" y="74.2">importar bioinsumos de uso agrícola, así como el </tspan></text>
  </g>
</svg>
