<svg xmlns="http://www.w3.org/2000/svg" xmlns:xlink="http://www.w3.org/1999/xlink" width="920" height="517.5" viewBox="0 0 920 517.5">
  <defs>
    <linearGradient id="linear-gradient" y1="0.5" x2="1" y2="0.5" gradientUnits="objectBoundingBox">
      <stop offset="0" stop-color="#f3c9c7" stop-opacity="0"/>
      <stop offset="1" stop-color="#f3c9c7"/>
    </linearGradient>
  </defs>
  <g id="Grupo_6916" data-name="Grupo 6916" transform="translate(2088 1206.63)">
    <g id="Grupo_6913" data-name="Grupo 6913" transform="translate(-2088 -1206.63)">
      <rect id="Rectángulo_1134" data-name="Rectángulo 1134" width="920" height="516" fill="#f3c9c7"/>
      <g id="Grupo_6849" data-name="Grupo 6849" transform="translate(0)">
        <g id="Grupo_6846" data-name="Grupo 6846" transform="translate(0 0)">
          <path id="Trazado_17703" data-name="Trazado 17703" d="M-2052.586-689.131h.39v-7.316h44.238v7.316h.39v-7.316h44.238v7.316h.391v-7.316h44.237v7.316h.391v-7.316h44.238v7.316h.39v-7.316h44.238v7.316h.391v-7.316h44.237v7.316h.39v-7.316h44.238v7.316h.391v-7.316h44.237v7.316h.391v-7.316h44.237v7.316h.391v-7.316h44.237v7.316h.391v-7.316h35.414v-.392h-13.1v-12.832h13.1v-.39h-35.414v-12.832h35.414v-.39h-13.1v-12.833h13.1v-.391h-35.414V-749.34h35.414v-.39h-13.1v-12.832h13.1v-.39h-35.414v-12.833h35.414v-.391h-13.1v-12.833h13.1v-.39h-35.414v-12.833h35.414v-.39h-13.1v-12.832h13.1v-.391h-35.414v-12.831h35.414v-.391h-13.1V-841.9h13.1v-.39h-35.414v-12.832h35.414v-.39h-13.1v-12.832h13.1v-.391h-35.414V-881.57h35.414v-.39h-13.1v-12.833h13.1v-.39h-35.414v-12.834h35.414v-.39h-13.1V-921.24h13.1v-.39h-35.414v-12.832h35.414v-.39h-13.1v-12.833h13.1v-.39h-35.414v-12.833h35.414v-.391h-13.1v-12.833h13.1v-.39h-35.414v-12.833h35.414v-.391h-13.1v-12.832h13.1v-.39h-35.414V-1013.8h35.414v-.391h-13.1v-12.832h13.1v-.39h-35.414v-12.833h35.414v-.391h-13.1v-12.832h13.1v-.39h-35.414v-12.834h35.414v-.39h-13.1v-12.832h13.1v-.391h-35.414v-12.832h35.414v-.39h-13.1v-12.832h13.1v-.392h-35.414v-12.832h35.414v-.391h-13.1v-12.832h13.1v-.39h-35.414v-12.833h35.414v-.391h-13.1v-12.833h13.1v-.39h-35.414v-12.832h35.414v-.391h-13.1V-1185.7h13.1v-.39h-35.414v-12.832h35.414v-.391h-13.1v-7.317h-.391v7.317h-44.237v-7.317h-.391v7.317h-44.238v-7.317h-.391v7.317h-44.237v-7.317h-.39v7.317h-44.238v-7.317h-.39v7.317h-44.238v-7.317h-.391v7.317h-44.237v-7.317h-.391v7.317H-1896v-7.317h-.391v7.317h-44.237v-7.317h-.391v7.317h-44.237v-7.317h-.392v7.317h-44.236v-7.317h-.391v7.317h-44.238v-7.317h-.39v7.317H-2088v.391h35.414v12.832H-2088v.39h13.1v12.832H-2088v.391h35.414v12.832H-2088v.39h13.1v12.833H-2088v.391h35.414v12.833H-2088v.39h13.1v12.832H-2088v.391h35.414v12.832H-2088v.392h13.1v12.832H-2088v.39h35.414v12.832H-2088v.391h13.1v12.832H-2088v.39h35.414v12.834H-2088v.39h13.1v12.832H-2088v.391h35.414v12.833H-2088v.39h13.1v12.832H-2088v.391h35.414v12.832H-2088v.39h13.1v12.832H-2088v.391h35.414v12.833H-2088v.39h13.1V-961.3H-2088v.391h35.414v12.833H-2088v.39h13.1v12.833H-2088v.39h35.414v12.832H-2088v.39h13.1v12.832H-2088v.39h35.414v12.834H-2088v.39h13.1v12.833H-2088v.39h35.414v12.833H-2088v.391h13.1v12.832H-2088v.39h35.414v12.832H-2088v.39h13.1v12.833H-2088v.391h35.414v12.831H-2088v.391h13.1v12.832H-2088v.39h35.414V-789.4H-2088v.39h13.1v12.833H-2088v.391h35.414v12.833H-2088v.39h13.1v12.832H-2088v.39h35.414v12.832H-2088v.391h13.1v12.833H-2088v.39h35.414v12.832H-2088v.39h13.1v12.832H-2088v.392h35.414v7.316Zm-21.923-20.54h44.238v12.832h-44.238v-12.832Zm44.629,0h44.236v12.832h-44.236v-12.832Zm44.628,0h44.237v12.832h-44.237v-12.832Zm44.628,0h44.237v12.832h-44.237v-12.832Zm44.628,0h44.237v12.832H-1896v-12.832Zm44.629,0h44.237v12.832h-44.237v-12.832Zm44.627,0h44.238v12.832h-44.238v-12.832Zm44.628,0h44.238v12.832h-44.238v-12.832Zm44.628,0h44.237v12.832h-44.237v-12.832Zm44.628,0h44.238v12.832h-44.238v-12.832Zm44.629,0h44.237v12.832h-44.237v-12.832ZM-2052.2-722.893h44.238v12.832H-2052.2v-12.832Zm44.628,0h44.238v12.832h-44.238v-12.832Zm44.629,0h44.237v12.832h-44.237v-12.832Zm44.628,0h44.238v12.832h-44.238v-12.832Zm44.628,0h44.238v12.832h-44.238v-12.832Zm44.629,0h44.237v12.832h-44.237v-12.832Zm44.627,0h44.238v12.832h-44.238v-12.832Zm44.629,0h44.237v12.832H-1739.8v-12.832Zm44.628,0h44.237v12.832h-44.237v-12.832Zm44.628,0h44.237v12.832h-44.237v-12.832Zm-423.968-13.223h44.238v12.833h-44.238v-12.833Zm44.629,0h44.236v12.833h-44.236v-12.833Zm44.628,0h44.237v12.833h-44.237v-12.833Zm44.628,0h44.237v12.833h-44.237v-12.833Zm44.628,0h44.237v12.833H-1896v-12.833Zm44.629,0h44.237v12.833h-44.237v-12.833Zm44.627,0h44.238v12.833h-44.238v-12.833Zm44.628,0h44.238v12.833h-44.238v-12.833Zm44.628,0h44.237v12.833h-44.237v-12.833Zm44.628,0h44.238v12.833h-44.238v-12.833Zm44.629,0h44.237v12.833h-44.237v-12.833ZM-2052.2-749.34h44.238v12.832H-2052.2V-749.34Zm44.628,0h44.238v12.832h-44.238V-749.34Zm44.629,0h44.237v12.832h-44.237V-749.34Zm44.628,0h44.238v12.832h-44.238V-749.34Zm44.628,0h44.238v12.832h-44.238V-749.34Zm44.629,0h44.237v12.832h-44.237V-749.34Zm44.627,0h44.238v12.832h-44.238V-749.34Zm44.629,0h44.237v12.832H-1739.8V-749.34Zm44.628,0h44.237v12.832h-44.237V-749.34Zm44.628,0h44.237v12.832h-44.237V-749.34Zm-423.968-13.222h44.238v12.832h-44.238v-12.832Zm44.629,0h44.236v12.832h-44.236v-12.832Zm44.628,0h44.237v12.832h-44.237v-12.832Zm44.628,0h44.237v12.832h-44.237v-12.832Zm44.628,0h44.237v12.832H-1896v-12.832Zm44.629,0h44.237v12.832h-44.237v-12.832Zm44.627,0h44.238v12.832h-44.238v-12.832Zm44.628,0h44.238v12.832h-44.238v-12.832Zm44.628,0h44.237v12.832h-44.237v-12.832Zm44.628,0h44.238v12.832h-44.238v-12.832Zm44.629,0h44.237v12.832h-44.237v-12.832ZM-2052.2-775.785h44.238v12.833H-2052.2v-12.833Zm44.628,0h44.238v12.833h-44.238v-12.833Zm44.629,0h44.237v12.833h-44.237v-12.833Zm44.628,0h44.238v12.833h-44.238v-12.833Zm44.628,0h44.238v12.833h-44.238v-12.833Zm44.629,0h44.237v12.833h-44.237v-12.833Zm44.627,0h44.238v12.833h-44.238v-12.833Zm44.629,0h44.237v12.833H-1739.8v-12.833Zm44.628,0h44.237v12.833h-44.237v-12.833Zm44.628,0h44.237v12.833h-44.237v-12.833Zm-423.968-13.224h44.238v12.833h-44.238v-12.833Zm44.629,0h44.236v12.833h-44.236v-12.833Zm44.628,0h44.237v12.833h-44.237v-12.833Zm44.628,0h44.237v12.833h-44.237v-12.833Zm44.628,0h44.237v12.833H-1896v-12.833Zm44.629,0h44.237v12.833h-44.237v-12.833Zm44.627,0h44.238v12.833h-44.238v-12.833Zm44.628,0h44.238v12.833h-44.238v-12.833Zm44.628,0h44.237v12.833h-44.237v-12.833Zm44.628,0h44.238v12.833h-44.238v-12.833Zm44.629,0h44.237v12.833h-44.237v-12.833ZM-2052.2-802.233h44.238V-789.4H-2052.2v-12.833Zm44.628,0h44.238V-789.4h-44.238v-12.833Zm44.629,0h44.237V-789.4h-44.237v-12.833Zm44.628,0h44.238V-789.4h-44.238v-12.833Zm44.628,0h44.238V-789.4h-44.238v-12.833Zm44.629,0h44.237V-789.4h-44.237v-12.833Zm44.627,0h44.238V-789.4h-44.238v-12.833Zm44.629,0h44.237V-789.4H-1739.8v-12.833Zm44.628,0h44.237V-789.4h-44.237v-12.833Zm44.628,0h44.237V-789.4h-44.237v-12.833Zm-423.968-13.222h44.238v12.832h-44.238v-12.832Zm44.629,0h44.236v12.832h-44.236v-12.832Zm44.628,0h44.237v12.832h-44.237v-12.832Zm44.628,0h44.237v12.832h-44.237v-12.832Zm44.628,0h44.237v12.832H-1896v-12.832Zm44.629,0h44.237v12.832h-44.237v-12.832Zm44.627,0h44.238v12.832h-44.238v-12.832Zm44.628,0h44.238v12.832h-44.238v-12.832Zm44.628,0h44.237v12.832h-44.237v-12.832Zm44.628,0h44.238v12.832h-44.238v-12.832Zm44.629,0h44.237v12.832h-44.237v-12.832ZM-2052.2-828.677h44.238v12.831H-2052.2v-12.831Zm44.628,0h44.238v12.831h-44.238v-12.831Zm44.629,0h44.237v12.831h-44.237v-12.831Zm44.628,0h44.238v12.831h-44.238v-12.831Zm44.628,0h44.238v12.831h-44.238v-12.831Zm44.629,0h44.237v12.831h-44.237v-12.831Zm44.627,0h44.238v12.831h-44.238v-12.831Zm44.629,0h44.237v12.831H-1739.8v-12.831Zm44.628,0h44.237v12.831h-44.237v-12.831Zm44.628,0h44.237v12.831h-44.237v-12.831ZM-2074.51-841.9h44.238v12.833h-44.238V-841.9Zm44.629,0h44.236v12.833h-44.236V-841.9Zm44.628,0h44.237v12.833h-44.237V-841.9Zm44.628,0h44.237v12.833h-44.237V-841.9Zm44.628,0h44.237v12.833H-1896V-841.9Zm44.629,0h44.237v12.833h-44.237V-841.9Zm44.627,0h44.238v12.833h-44.238V-841.9Zm44.628,0h44.238v12.833h-44.238V-841.9Zm44.628,0h44.237v12.833h-44.237V-841.9Zm44.628,0h44.238v12.833h-44.238V-841.9Zm44.629,0h44.237v12.833h-44.237V-841.9ZM-2052.2-855.124h44.238v12.832H-2052.2v-12.832Zm44.628,0h44.238v12.832h-44.238v-12.832Zm44.629,0h44.237v12.832h-44.237v-12.832Zm44.628,0h44.238v12.832h-44.238v-12.832Zm44.628,0h44.238v12.832h-44.238v-12.832Zm44.629,0h44.237v12.832h-44.237v-12.832Zm44.627,0h44.238v12.832h-44.238v-12.832Zm44.629,0h44.237v12.832H-1739.8v-12.832Zm44.628,0h44.237v12.832h-44.237v-12.832Zm44.628,0h44.237v12.832h-44.237v-12.832Zm-423.968-13.222h44.238v12.832h-44.238v-12.832Zm44.629,0h44.236v12.832h-44.236v-12.832Zm44.628,0h44.237v12.832h-44.237v-12.832Zm44.628,0h44.237v12.832h-44.237v-12.832Zm44.628,0h44.237v12.832H-1896v-12.832Zm44.629,0h44.237v12.832h-44.237v-12.832Zm44.627,0h44.238v12.832h-44.238v-12.832Zm44.628,0h44.238v12.832h-44.238v-12.832Zm44.628,0h44.237v12.832h-44.237v-12.832Zm44.628,0h44.238v12.832h-44.238v-12.832Zm44.629,0h44.237v12.832h-44.237v-12.832ZM-2052.2-881.57h44.238v12.833H-2052.2V-881.57Zm44.628,0h44.238v12.833h-44.238V-881.57Zm44.629,0h44.237v12.833h-44.237V-881.57Zm44.628,0h44.238v12.833h-44.238V-881.57Zm44.628,0h44.238v12.833h-44.238V-881.57Zm44.629,0h44.237v12.833h-44.237V-881.57Zm44.627,0h44.238v12.833h-44.238V-881.57Zm44.629,0h44.237v12.833H-1739.8V-881.57Zm44.628,0h44.237v12.833h-44.237V-881.57Zm44.628,0h44.237v12.833h-44.237V-881.57Zm-423.968-13.223h44.238v12.833h-44.238v-12.833Zm44.629,0h44.236v12.833h-44.236v-12.833Zm44.628,0h44.237v12.833h-44.237v-12.833Zm44.628,0h44.237v12.833h-44.237v-12.833Zm44.628,0h44.237v12.833H-1896v-12.833Zm44.629,0h44.237v12.833h-44.237v-12.833Zm44.627,0h44.238v12.833h-44.238v-12.833Zm44.628,0h44.238v12.833h-44.238v-12.833Zm44.628,0h44.237v12.833h-44.237v-12.833Zm44.628,0h44.238v12.833h-44.238v-12.833Zm44.629,0h44.237v12.833h-44.237v-12.833ZM-2052.2-908.017h44.238v12.834H-2052.2v-12.834Zm44.628,0h44.238v12.834h-44.238v-12.834Zm44.629,0h44.237v12.834h-44.237v-12.834Zm44.628,0h44.238v12.834h-44.238v-12.834Zm44.628,0h44.238v12.834h-44.238v-12.834Zm44.629,0h44.237v12.834h-44.237v-12.834Zm44.627,0h44.238v12.834h-44.238v-12.834Zm44.629,0h44.237v12.834H-1739.8v-12.834Zm44.628,0h44.237v12.834h-44.237v-12.834Zm44.628,0h44.237v12.834h-44.237v-12.834ZM-2074.51-921.24h44.238v12.832h-44.238V-921.24Zm44.629,0h44.236v12.832h-44.236V-921.24Zm44.628,0h44.237v12.832h-44.237V-921.24Zm44.628,0h44.237v12.832h-44.237V-921.24Zm44.628,0h44.237v12.832H-1896V-921.24Zm44.629,0h44.237v12.832h-44.237V-921.24Zm44.627,0h44.238v12.832h-44.238V-921.24Zm44.628,0h44.238v12.832h-44.238V-921.24Zm44.628,0h44.237v12.832h-44.237V-921.24Zm44.628,0h44.238v12.832h-44.238V-921.24Zm44.629,0h44.237v12.832h-44.237V-921.24ZM-2052.2-934.462h44.238v12.832H-2052.2v-12.832Zm44.628,0h44.238v12.832h-44.238v-12.832Zm44.629,0h44.237v12.832h-44.237v-12.832Zm44.628,0h44.238v12.832h-44.238v-12.832Zm44.628,0h44.238v12.832h-44.238v-12.832Zm44.629,0h44.237v12.832h-44.237v-12.832Zm44.627,0h44.238v12.832h-44.238v-12.832Zm44.629,0h44.237v12.832H-1739.8v-12.832Zm44.628,0h44.237v12.832h-44.237v-12.832Zm44.628,0h44.237v12.832h-44.237v-12.832Zm-423.968-13.223h44.238v12.833h-44.238v-12.833Zm44.629,0h44.236v12.833h-44.236v-12.833Zm44.628,0h44.237v12.833h-44.237v-12.833Zm44.628,0h44.237v12.833h-44.237v-12.833Zm44.628,0h44.237v12.833H-1896v-12.833Zm44.629,0h44.237v12.833h-44.237v-12.833Zm44.627,0h44.238v12.833h-44.238v-12.833Zm44.628,0h44.238v12.833h-44.238v-12.833Zm44.628,0h44.237v12.833h-44.237v-12.833Zm44.628,0h44.238v12.833h-44.238v-12.833Zm44.629,0h44.237v12.833h-44.237v-12.833ZM-2052.2-960.908h44.238v12.833H-2052.2v-12.833Zm44.628,0h44.238v12.833h-44.238v-12.833Zm44.629,0h44.237v12.833h-44.237v-12.833Zm44.628,0h44.238v12.833h-44.238v-12.833Zm44.628,0h44.238v12.833h-44.238v-12.833Zm44.629,0h44.237v12.833h-44.237v-12.833Zm44.627,0h44.238v12.833h-44.238v-12.833Zm44.629,0h44.237v12.833H-1739.8v-12.833Zm44.628,0h44.237v12.833h-44.237v-12.833Zm44.628,0h44.237v12.833h-44.237v-12.833Zm-423.968-13.223h44.238V-961.3h-44.238v-12.833Zm44.629,0h44.236V-961.3h-44.236v-12.833Zm44.628,0h44.237V-961.3h-44.237v-12.833Zm44.628,0h44.237V-961.3h-44.237v-12.833Zm44.628,0h44.237V-961.3H-1896v-12.833Zm44.629,0h44.237V-961.3h-44.237v-12.833Zm44.627,0h44.238V-961.3h-44.238v-12.833Zm44.628,0h44.238V-961.3h-44.238v-12.833Zm44.628,0h44.237V-961.3h-44.237v-12.833Zm44.628,0h44.238V-961.3h-44.238v-12.833Zm44.629,0h44.237V-961.3h-44.237v-12.833ZM-2052.2-987.355h44.238v12.833H-2052.2v-12.833Zm44.628,0h44.238v12.833h-44.238v-12.833Zm44.629,0h44.237v12.833h-44.237v-12.833Zm44.628,0h44.238v12.833h-44.238v-12.833Zm44.628,0h44.238v12.833h-44.238v-12.833Zm44.629,0h44.237v12.833h-44.237v-12.833Zm44.627,0h44.238v12.833h-44.238v-12.833Zm44.629,0h44.237v12.833H-1739.8v-12.833Zm44.628,0h44.237v12.833h-44.237v-12.833Zm44.628,0h44.237v12.833h-44.237v-12.833Zm-423.968-13.223h44.238v12.832h-44.238v-12.832Zm44.629,0h44.236v12.832h-44.236v-12.832Zm44.628,0h44.237v12.832h-44.237v-12.832Zm44.628,0h44.237v12.832h-44.237v-12.832Zm44.628,0h44.237v12.832H-1896v-12.832Zm44.629,0h44.237v12.832h-44.237v-12.832Zm44.627,0h44.238v12.832h-44.238v-12.832Zm44.628,0h44.238v12.832h-44.238v-12.832Zm44.628,0h44.237v12.832h-44.237v-12.832Zm44.628,0h44.238v12.832h-44.238v-12.832Zm44.629,0h44.237v12.832h-44.237v-12.832ZM-2052.2-1013.8h44.238v12.832H-2052.2V-1013.8Zm44.628,0h44.238v12.832h-44.238V-1013.8Zm44.629,0h44.237v12.832h-44.237V-1013.8Zm44.628,0h44.238v12.832h-44.238V-1013.8Zm44.628,0h44.238v12.832h-44.238V-1013.8Zm44.629,0h44.237v12.832h-44.237V-1013.8Zm44.627,0h44.238v12.832h-44.238V-1013.8Zm44.629,0h44.237v12.832H-1739.8V-1013.8Zm44.628,0h44.237v12.832h-44.237V-1013.8Zm44.628,0h44.237v12.832h-44.237V-1013.8Zm-423.968-13.223h44.238v12.832h-44.238v-12.832Zm44.629,0h44.236v12.832h-44.236v-12.832Zm44.628,0h44.237v12.832h-44.237v-12.832Zm44.628,0h44.237v12.832h-44.237v-12.832Zm44.628,0h44.237v12.832H-1896v-12.832Zm44.629,0h44.237v12.832h-44.237v-12.832Zm44.627,0h44.238v12.832h-44.238v-12.832Zm44.628,0h44.238v12.832h-44.238v-12.832Zm44.628,0h44.237v12.832h-44.237v-12.832Zm44.628,0h44.238v12.832h-44.238v-12.832Zm44.629,0h44.237v12.832h-44.237v-12.832Zm-423.969-13.222h44.238v12.833H-2052.2v-12.833Zm44.628,0h44.238v12.833h-44.238v-12.833Zm44.629,0h44.237v12.833h-44.237v-12.833Zm44.628,0h44.238v12.833h-44.238v-12.833Zm44.628,0h44.238v12.833h-44.238v-12.833Zm44.629,0h44.237v12.833h-44.237v-12.833Zm44.627,0h44.238v12.833h-44.238v-12.833Zm44.629,0h44.237v12.833H-1739.8v-12.833Zm44.628,0h44.237v12.833h-44.237v-12.833Zm44.628,0h44.237v12.833h-44.237v-12.833Zm-423.968-13.223h44.238v12.832h-44.238v-12.832Zm44.629,0h44.236v12.832h-44.236v-12.832Zm44.628,0h44.237v12.832h-44.237v-12.832Zm44.628,0h44.237v12.832h-44.237v-12.832Zm44.628,0h44.237v12.832H-1896v-12.832Zm44.629,0h44.237v12.832h-44.237v-12.832Zm44.627,0h44.238v12.832h-44.238v-12.832Zm44.628,0h44.238v12.832h-44.238v-12.832Zm44.628,0h44.237v12.832h-44.237v-12.832Zm44.628,0h44.238v12.832h-44.238v-12.832Zm44.629,0h44.237v12.832h-44.237v-12.832Zm-423.969-13.224h44.238v12.834H-2052.2v-12.834Zm44.628,0h44.238v12.834h-44.238v-12.834Zm44.629,0h44.237v12.834h-44.237v-12.834Zm44.628,0h44.238v12.834h-44.238v-12.834Zm44.628,0h44.238v12.834h-44.238v-12.834Zm44.629,0h44.237v12.834h-44.237v-12.834Zm44.627,0h44.238v12.834h-44.238v-12.834Zm44.629,0h44.237v12.834H-1739.8v-12.834Zm44.628,0h44.237v12.834h-44.237v-12.834Zm44.628,0h44.237v12.834h-44.237v-12.834Zm-423.968-13.222h44.238v12.832h-44.238v-12.832Zm44.629,0h44.236v12.832h-44.236v-12.832Zm44.628,0h44.237v12.832h-44.237v-12.832Zm44.628,0h44.237v12.832h-44.237v-12.832Zm44.628,0h44.237v12.832H-1896v-12.832Zm44.629,0h44.237v12.832h-44.237v-12.832Zm44.627,0h44.238v12.832h-44.238v-12.832Zm44.628,0h44.238v12.832h-44.238v-12.832Zm44.628,0h44.237v12.832h-44.237v-12.832Zm44.628,0h44.238v12.832h-44.238v-12.832Zm44.629,0h44.237v12.832h-44.237v-12.832Zm-423.969-13.223h44.238v12.832H-2052.2v-12.832Zm44.628,0h44.238v12.832h-44.238v-12.832Zm44.629,0h44.237v12.832h-44.237v-12.832Zm44.628,0h44.238v12.832h-44.238v-12.832Zm44.628,0h44.238v12.832h-44.238v-12.832Zm44.629,0h44.237v12.832h-44.237v-12.832Zm44.627,0h44.238v12.832h-44.238v-12.832Zm44.629,0h44.237v12.832H-1739.8v-12.832Zm44.628,0h44.237v12.832h-44.237v-12.832Zm44.628,0h44.237v12.832h-44.237v-12.832Zm-423.968-13.222h44.238v12.832h-44.238v-12.832Zm44.629,0h44.236v12.832h-44.236v-12.832Zm44.628,0h44.237v12.832h-44.237v-12.832Zm44.628,0h44.237v12.832h-44.237v-12.832Zm44.628,0h44.237v12.832H-1896v-12.832Zm44.629,0h44.237v12.832h-44.237v-12.832Zm44.627,0h44.238v12.832h-44.238v-12.832Zm44.628,0h44.238v12.832h-44.238v-12.832Zm44.628,0h44.237v12.832h-44.237v-12.832Zm44.628,0h44.238v12.832h-44.238v-12.832Zm44.629,0h44.237v12.832h-44.237v-12.832Zm-423.969-13.224h44.238v12.832H-2052.2v-12.832Zm44.628,0h44.238v12.832h-44.238v-12.832Zm44.629,0h44.237v12.832h-44.237v-12.832Zm44.628,0h44.238v12.832h-44.238v-12.832Zm44.628,0h44.238v12.832h-44.238v-12.832Zm44.629,0h44.237v12.832h-44.237v-12.832Zm44.627,0h44.238v12.832h-44.238v-12.832Zm44.629,0h44.237v12.832H-1739.8v-12.832Zm44.628,0h44.237v12.832h-44.237v-12.832Zm44.628,0h44.237v12.832h-44.237v-12.832Zm-423.968-13.223h44.238v12.832h-44.238v-12.832Zm44.629,0h44.236v12.832h-44.236v-12.832Zm44.628,0h44.237v12.832h-44.237v-12.832Zm44.628,0h44.237v12.832h-44.237v-12.832Zm44.628,0h44.237v12.832H-1896v-12.832Zm44.629,0h44.237v12.832h-44.237v-12.832Zm44.627,0h44.238v12.832h-44.238v-12.832Zm44.628,0h44.238v12.832h-44.238v-12.832Zm44.628,0h44.237v12.832h-44.237v-12.832Zm44.628,0h44.238v12.832h-44.238v-12.832Zm44.629,0h44.237v12.832h-44.237v-12.832ZM-2052.2-1146.03h44.238v12.833H-2052.2v-12.833Zm44.628,0h44.238v12.833h-44.238v-12.833Zm44.629,0h44.237v12.833h-44.237v-12.833Zm44.628,0h44.238v12.833h-44.238v-12.833Zm44.628,0h44.238v12.833h-44.238v-12.833Zm44.629,0h44.237v12.833h-44.237v-12.833Zm44.627,0h44.238v12.833h-44.238v-12.833Zm44.629,0h44.237v12.833H-1739.8v-12.833Zm44.628,0h44.237v12.833h-44.237v-12.833Zm44.628,0h44.237v12.833h-44.237v-12.833Zm-423.968-13.224h44.238v12.833h-44.238v-12.833Zm44.629,0h44.236v12.833h-44.236v-12.833Zm44.628,0h44.237v12.833h-44.237v-12.833Zm44.628,0h44.237v12.833h-44.237v-12.833Zm44.628,0h44.237v12.833H-1896v-12.833Zm44.629,0h44.237v12.833h-44.237v-12.833Zm44.627,0h44.238v12.833h-44.238v-12.833Zm44.628,0h44.238v12.833h-44.238v-12.833Zm44.628,0h44.237v12.833h-44.237v-12.833Zm44.628,0h44.238v12.833h-44.238v-12.833Zm44.629,0h44.237v12.833h-44.237v-12.833Zm-423.969-13.222h44.238v12.832H-2052.2v-12.832Zm44.628,0h44.238v12.832h-44.238v-12.832Zm44.629,0h44.237v12.832h-44.237v-12.832Zm44.628,0h44.238v12.832h-44.238v-12.832Zm44.628,0h44.238v12.832h-44.238v-12.832Zm44.629,0h44.237v12.832h-44.237v-12.832Zm44.627,0h44.238v12.832h-44.238v-12.832Zm44.629,0h44.237v12.832H-1739.8v-12.832Zm44.628,0h44.237v12.832h-44.237v-12.832Zm44.628,0h44.237v12.832h-44.237v-12.832ZM-2074.51-1185.7h44.238v12.832h-44.238V-1185.7Zm44.629,0h44.236v12.832h-44.236V-1185.7Zm44.628,0h44.237v12.832h-44.237V-1185.7Zm44.628,0h44.237v12.832h-44.237V-1185.7Zm44.628,0h44.237v12.832H-1896V-1185.7Zm44.629,0h44.237v12.832h-44.237V-1185.7Zm44.627,0h44.238v12.832h-44.238V-1185.7Zm44.628,0h44.238v12.832h-44.238V-1185.7Zm44.628,0h44.237v12.832h-44.237V-1185.7Zm44.628,0h44.238v12.832h-44.238V-1185.7Zm44.629,0h44.237v12.832h-44.237V-1185.7Zm-423.969-13.222h44.238v12.832H-2052.2v-12.832Zm44.628,0h44.238v12.832h-44.238v-12.832Zm44.629,0h44.237v12.832h-44.237v-12.832Zm44.628,0h44.238v12.832h-44.238v-12.832Zm44.628,0h44.238v12.832h-44.238v-12.832Zm44.629,0h44.237v12.832h-44.237v-12.832Zm44.627,0h44.238v12.832h-44.238v-12.832Zm44.629,0h44.237v12.832H-1739.8v-12.832Zm44.628,0h44.237v12.832h-44.237v-12.832Zm44.628,0h44.237v12.832h-44.237Z" transform="translate(2088 1206.63)" fill="#e79b96" fill-rule="evenodd"/>
        </g>
        <rect id="Rectángulo_1135" data-name="Rectángulo 1135" width="2.221" height="517.5" transform="translate(252.654)" fill="#e79b96"/>
        <rect id="Rectángulo_1136" data-name="Rectángulo 1136" width="252.654" height="517.5" fill="#e8eaf6"/>
        <rect id="Rectángulo_1137" data-name="Rectángulo 1137" width="24.785" height="517.5" transform="translate(227.869)" fill="#fff"/>
        <path id="Trazado_17704" data-name="Trazado 17704" d="M-1879.547-776.5v-19.9L-2088-988.946v19.9L-1879.547-776.5Zm0-36.512L-2088-1005.561v-39.792l208.453,192.548v39.792Zm0-163.837L-2088-1169.4v-16.579l208.453,192.547v16.579Zm0-30.424v-33.159l-179.927-166.2H-2088v6.808Z" transform="translate(2088 1206.63)" fill="#f5f6fb" fill-rule="evenodd"/>
        <path id="Trazado_17705" data-name="Trazado 17705" d="M-2030.159-689.131h8.327v-10.54h62.815v10.54h8.327v-10.54h62.817v10.54h8.327v-517.5h-8.327v64.438h-62.817v-64.438h-8.327v64.438h-62.815v-64.438h-8.327v64.438H-2088v6.781h57.841v64.73H-2088v6.78h57.841v64.732H-2088v6.781h57.841v71.4H-2088v6.781h57.841v64.73H-2088v6.781h57.841v64.73H-2088v6.781h57.841v64.731H-2088v6.781h57.841v10.54Zm8.327-255.053v-48.2h62.815v71.4h-62.815v-23.2Zm71.142,0v-48.2h62.817v71.4h-62.817v-23.2Zm-71.142,237.732v-64.731h62.815v64.731Zm71.142,0v-64.731h62.817v64.731Zm-71.142-71.512v-64.73h62.815v64.73Zm71.142,0v-64.73h62.817v64.73Zm-71.142-71.511V-914.2h62.815v64.73Zm71.142,0V-914.2h62.817v64.73Zm-71.142-149.694V-1063.9h62.815v64.732Zm71.142,0V-1063.9h62.817v64.732Zm-71.142-71.512v-64.73h62.815v64.73Zm71.142,0v-64.73h62.817v64.73Z" transform="translate(2088 1206.63)" fill="#c2c3e3" fill-rule="evenodd"/>
        <path id="Trazado_17706" data-name="Trazado 17706" d="M-2027.686-689.131h8.327v-12.4h62.815v12.4h8.327v-12.4h62.817v12.4h8.325v-517.5h-8.325v62.576h-62.817v-62.576h-8.327v62.576h-62.815v-62.576h-8.327v62.576H-2088v6.781h60.314v64.73H-2088v6.781h60.314v64.731H-2088v6.781h60.314v71.4H-2088v6.782h60.314v64.73H-2088v6.78h60.314v64.731H-2088v6.781h60.314v64.73H-2088v6.782h60.314v12.4Zm8.327-256.914v-48.2h62.815v71.4h-62.815v-23.2Zm71.142,0v-48.2h62.817v71.4h-62.817v-23.2Zm-71.142,237.732v-64.73h62.815v64.73Zm71.142,0v-64.73h62.817v64.73Zm-71.142-71.511v-64.731h62.815v64.731Zm71.142,0v-64.731h62.817v64.731Zm-71.142-71.511v-64.73h62.815v64.73Zm71.142,0v-64.73h62.817v64.73Zm-71.142-149.695v-64.731h62.815v64.731Zm71.142,0v-64.731h62.817v64.731Zm-71.142-71.512v-64.73h62.815v64.73Zm71.142,0v-64.73h62.817v64.73Z" transform="translate(2088 1206.63)" fill="#fff" fill-rule="evenodd"/>
        <rect id="Rectángulo_1138" data-name="Rectángulo 1138" width="2.221" height="517.5" transform="translate(225.648)" fill="#c2c3e3"/>
        <path id="Trazado_17707" data-name="Trazado 17707" d="M-2088-984.094h73.5a2.771,2.771,0,0,1,2.762,2.763v241.718a18.229,18.229,0,0,0-10.093-3.043H-2088Z" transform="translate(2088 1184.029)" fill="#fdefe9" fill-rule="evenodd"/>
        <path id="Trazado_17708" data-name="Trazado 17708" d="M-2009.991-927.152V-733.83a18.229,18.229,0,0,0-10.093-3.043h-50.006a23.173,23.173,0,0,1-.692-5.627V-903.8a23.425,23.425,0,0,1,23.357-23.357Z" transform="translate(2086.251 1178.246)" fill="#fff" fill-rule="evenodd"/>
        <path id="Trazado_17709" data-name="Trazado 17709" d="M-2088-778.642l2.166.276,18.684-2.814-11.117-17.452H-2088Z" transform="translate(2088 1165.193)" fill="#3f4154" fill-rule="evenodd"/>
        <path id="Trazado_17710" data-name="Trazado 17710" d="M-1869.492-904.1h-26.082a3.87,3.87,0,0,1-3.859-3.858h0a3.871,3.871,0,0,1,3.859-3.861h26.082a3.871,3.871,0,0,1,3.859,3.861h0A3.87,3.87,0,0,1-1869.492-904.1Z" transform="translate(2068.849 1176.689)" fill="#00000f" fill-rule="evenodd"/>
        <path id="Rectángulo_1139" data-name="Rectángulo 1139" d="M2.143,0h24.3a2.144,2.144,0,0,1,2.144,2.144V8.307a2.143,2.143,0,0,1-2.143,2.143H2.143A2.143,2.143,0,0,1,0,8.307V2.143A2.143,2.143,0,0,1,2.143,0Z" transform="translate(1.161 378.518)" fill="#fff"/>
        <rect id="Rectángulo_1140" data-name="Rectángulo 1140" width="28.587" height="10.449" rx="2.143" transform="translate(1.94 379.432)" fill="#fad0be"/>
        <rect id="Rectángulo_1141" data-name="Rectángulo 1141" width="28.587" height="10.45" rx="2.143" transform="translate(3.495 380.913)" fill="#fff"/>
        <path id="Trazado_17711" data-name="Trazado 17711" d="M-2011.318-986.485H-2088v29.078h76.682a7.684,7.684,0,0,0,7.663-7.662v-13.753A7.685,7.685,0,0,0-2011.318-986.485Z" transform="translate(2088 1184.271)" fill="#fff" fill-rule="evenodd"/>
        <g id="Grupo_6847" data-name="Grupo 6847" transform="translate(0 165.831)">
          <rect id="Rectángulo_1142" data-name="Rectángulo 1142" width="30.809" height="5.535" transform="translate(0 24.511)" fill="#fafcfc"/>
          <path id="Trazado_17712" data-name="Trazado 17712" d="M-2062.119-994.5a1.2,1.2,0,0,1-1.2-1.2,1.2,1.2,0,0,1,1.2-1.2h42.641a4.666,4.666,0,0,1,3.3,1.373l0,0a4.666,4.666,0,0,1,1.373,3.3,4.665,4.665,0,0,1-1.373,3.3,4.649,4.649,0,0,1-3.3,1.377h-42.641a1.2,1.2,0,0,1-1.2-1.2,1.2,1.2,0,0,1,1.2-1.2h1.953a7.538,7.538,0,0,0,.94-.816,2.53,2.53,0,0,0,.88-1.888,2.9,2.9,0,0,0-1.126-1.865Z" transform="translate(2085.493 1019.498)" fill="#ced6d7" fill-rule="evenodd"/>
          <path id="Trazado_17713" data-name="Trazado 17713" d="M-2088-996.9h23.928a4.663,4.663,0,0,1,3.3,1.373l.005,0a4.665,4.665,0,0,1,1.373,3.3,4.665,4.665,0,0,1-1.373,3.3,4.651,4.651,0,0,1-3.3,1.377H-2088v-2.393h23.928a2.279,2.279,0,0,0,1.613-.671,2.27,2.27,0,0,0,.672-1.613,2.285,2.285,0,0,0-.67-1.615,2.282,2.282,0,0,0-1.615-.669H-2088Z" transform="translate(2088 1019.498)" fill="#adbfc2" fill-rule="evenodd"/>
          <rect id="Rectángulo_1143" data-name="Rectángulo 1143" width="50.607" height="6.716" transform="translate(13.535 13.928)" fill="#fafcfc"/>
          <path id="Trazado_17714" data-name="Trazado 17714" d="M-2065.443-1006.225a1.451,1.451,0,0,0,1.45-1.452,1.45,1.45,0,0,0-1.45-1.451H-2088v11.348h22.557a1.451,1.451,0,0,0,1.45-1.452,1.45,1.45,0,0,0-1.45-1.45h-2.371a9.219,9.219,0,0,1-1.141-.991,3.076,3.076,0,0,1-1.065-2.289,3.518,3.518,0,0,1,1.367-2.263Z" transform="translate(2088 1020.74)" fill="#a7a8c9" fill-rule="evenodd"/>
          <path id="Trazado_17715" data-name="Trazado 17715" d="M-2022.025-1006.225a1.452,1.452,0,0,0,1.451-1.452,1.451,1.451,0,0,0-1.451-1.451h-42.259a5.659,5.659,0,0,0-4,1.665l-.005.006a5.659,5.659,0,0,0-1.665,4,5.662,5.662,0,0,0,1.665,4,5.645,5.645,0,0,0,4.008,1.67h42.259a1.452,1.452,0,0,0,1.451-1.452,1.451,1.451,0,0,0-1.451-1.45h-42.259a2.766,2.766,0,0,1-1.956-.816,2.752,2.752,0,0,1-.815-1.957,2.767,2.767,0,0,1,.813-1.959,2.768,2.768,0,0,1,1.958-.812Z" transform="translate(2086.167 1020.74)" fill="#c2c3e3" fill-rule="evenodd"/>
          <rect id="Rectángulo_1144" data-name="Rectángulo 1144" width="26.511" height="6.872" transform="translate(0 2.37)" fill="#fafcfc"/>
          <path id="Trazado_17716" data-name="Trazado 17716" d="M-2068.935-1019.084a1.485,1.485,0,0,1-1.485-1.484,1.486,1.486,0,0,1,1.485-1.485h24.211a5.79,5.79,0,0,1,4.1,1.7l.007.006a5.788,5.788,0,0,1,1.7,4.1,5.79,5.79,0,0,1-1.7,4.1,5.772,5.772,0,0,1-4.1,1.71h-24.211a1.486,1.486,0,0,1-1.485-1.484,1.486,1.486,0,0,1,1.485-1.485h2.425a9.326,9.326,0,0,0,1.167-1.013,3.149,3.149,0,0,0,1.092-2.344,3.6,3.6,0,0,0-1.4-2.315Z" transform="translate(2086.215 1022.053)" fill="#2c2f48" fill-rule="evenodd"/>
          <path id="Trazado_17717" data-name="Trazado 17717" d="M-2088-1022.053h17.967a5.789,5.789,0,0,1,4.1,1.7l0,.006a5.782,5.782,0,0,1,1.7,4.1,5.784,5.784,0,0,1-1.7,4.1,5.767,5.767,0,0,1-4.1,1.71H-2088v-2.969h17.967a2.833,2.833,0,0,0,2-.835,2.818,2.818,0,0,0,.834-2,2.84,2.84,0,0,0-.831-2.005,2.844,2.844,0,0,0-2.005-.831H-2088Z" transform="translate(2088 1022.053)" fill="#3f4154" fill-rule="evenodd"/>
        </g>
        <path id="Trazado_17718" data-name="Trazado 17718" d="M-2020.754-781.18l-25.065,4.888-18.974-4.888,11.117-17.452h44.039Z" transform="translate(2085.643 1165.193)" fill="#575a6d" fill-rule="evenodd"/>
        <rect id="Rectángulo_1145" data-name="Rectángulo 1145" width="24.092" height="53.074" transform="translate(0 384.013)" fill="#575a6d"/>
        <rect id="Rectángulo_1146" data-name="Rectángulo 1146" width="44.039" height="53.074" transform="translate(20.85 384.013)" fill="#313448"/>
        <path id="Trazado_17719" data-name="Trazado 17719" d="M-2051.356-724.857h31.966v-41.792h-24.923a7.064,7.064,0,0,0-7.043,7.043Z" transform="translate(2084.278 1161.945)" fill="#3f4154" fill-rule="evenodd"/>
        <g id="Grupo_6848" data-name="Grupo 6848" transform="translate(136.421 249.38)">
          <path id="Trazado_17720" data-name="Trazado 17720" d="M-1926.563-926.134h-5.62a3.966,3.966,0,0,0-2.808,1.167,3.964,3.964,0,0,0-1.167,2.808v4.73a3.967,3.967,0,0,0,1.167,2.809,3.965,3.965,0,0,0,2.808,1.166h5.62a3.962,3.962,0,0,0,2.807-1.166,3.963,3.963,0,0,0,1.167-2.809v-4.73a3.96,3.96,0,0,0-1.167-2.808,3.963,3.963,0,0,0-2.807-1.167Zm-5.62,1.541h5.62a2.426,2.426,0,0,1,1.717.716,2.428,2.428,0,0,1,.716,1.718v4.73a2.428,2.428,0,0,1-.716,1.718,2.425,2.425,0,0,1-1.717.715h-5.62a2.426,2.426,0,0,1-1.718-.715,2.432,2.432,0,0,1-.715-1.718v-4.73a2.427,2.427,0,0,1,.715-1.718A2.428,2.428,0,0,1-1932.183-924.593Z" transform="translate(1936.158 928.762)" fill="#e8e6ec" fill-rule="evenodd"/>
          <path id="Trazado_17721" data-name="Trazado 17721" d="M-1930.685-919.451v6.039a3.711,3.711,0,0,0,3.7,3.7h5.464a3.711,3.711,0,0,0,3.7-3.7v-14.4a1.253,1.253,0,0,0-1.248-1.25h-10.365a1.254,1.254,0,0,0-1.25,1.25Z" transform="translate(1935.602 929.059)" fill="#fff" fill-rule="evenodd"/>
          <path id="Trazado_17722" data-name="Trazado 17722" d="M-1927.479-923.15v6.039a3.679,3.679,0,0,0,.481,1.818,3.751,3.751,0,0,0,1.582,1.5,3.663,3.663,0,0,0,1.637.384h5.958a3.711,3.711,0,0,1-3.7,3.7h-5.464a3.711,3.711,0,0,1-3.7-3.7v-14.4a1.254,1.254,0,0,1,1.25-1.25h1.956v5.909Z" transform="translate(1935.602 929.059)" fill="#e8e6ec" fill-rule="evenodd"/>
        </g>
        <path id="Trazado_17723" data-name="Trazado 17723" d="M-1907.983-943.319h0a1.616,1.616,0,0,1,1.612,1.612h0a1.616,1.616,0,0,1-1.612,1.613h0a1.616,1.616,0,0,1-1.612-1.613h0A1.616,1.616,0,0,1-1907.983-943.319Z" transform="translate(2069.88 1179.888)" fill="#fff" fill-rule="evenodd"/>
        <path id="Trazado_17724" data-name="Trazado 17724" d="M-1928.582-938.86h4.477a.619.619,0,0,0,.618-.617h0a.619.619,0,0,0-.618-.617h-6.024a1.617,1.617,0,0,1-1.612-1.613h0a1.617,1.617,0,0,1,1.612-1.612h15.666a1.616,1.616,0,0,1,1.613,1.612h0a1.617,1.617,0,0,1-1.613,1.613h-5.464a.618.618,0,0,0-.616.617h0a.619.619,0,0,0,.616.617h2.1a1.249,1.249,0,0,1,1.245,1.245h0a1.248,1.248,0,0,1-1.245,1.244h-3.477a2.481,2.481,0,0,0-2.474,2.474v1.134a.586.586,0,0,1-.585.585h0a.585.585,0,0,1-.584-.585v-2.157a1.455,1.455,0,0,0-1.451-1.451h-2.187a1.248,1.248,0,0,1-1.245-1.244h0A1.249,1.249,0,0,1-1928.582-938.86Z" transform="translate(2072.13 1179.888)" fill="#fff" fill-rule="evenodd"/>
      </g>
      <rect id="Rectángulo_1147" data-name="Rectángulo 1147" width="142.86" height="517.5" transform="translate(252.358)" fill="url(#linear-gradient)"/>
      <rect id="Rectángulo_1148" data-name="Rectángulo 1148" width="524.525" height="517.5" transform="translate(395.475)" fill="#f3c9c7"/>
      <g id="Grupo_6906" data-name="Grupo 6906" transform="translate(18.312 137.094)">
        <g id="Grupo_6851" data-name="Grupo 6851" transform="translate(50.326 250.72)">
          <path id="Trazado_17725" data-name="Trazado 17725" d="M-1994.544-694.939a17.9,17.9,0,0,1-.349-11.2c3-9.992-2.892-12.372-10.609-16.192s-7.93-13.425-1.686-20.916-3.4-14.635,1.249-26.273,16.992-2.713,18.984,8.5c1.431,8.06,11.92,7.143,14.969,17.688,2.651,9.152-9.147,16.515,3.438,21.583,4.019,1.617,6.054,4.953,6.964,8.745a18.554,18.554,0,0,1-2.164,13.885Z" transform="translate(2011.603 774.976)" fill="#3149b9"/>
          <g id="Grupo_6850" data-name="Grupo 6850" transform="translate(14.581 17.894)">
            <path id="Trazado_17726" data-name="Trazado 17726" d="M-1976.641-695.121l-18.687-58.67a.975.975,0,0,1,.633-1.223.973.973,0,0,1,1.223.633l18.79,58.994Z" transform="translate(1995.374 755.06)" fill="#2039a5"/>
          </g>
        </g>
        <g id="Grupo_6853" data-name="Grupo 6853" transform="translate(0 247.711)">
          <path id="Trazado_17727" data-name="Trazado 17727" d="M-2031.931-692.639a21.967,21.967,0,0,1-.11-2.561c.223-13.282-7.82-14.163-18.6-16.177s-14.359-13.715-9.293-25.052-9.219-16.763-7.55-32.631,19.888-9.2,26.2,3.853c4.538,9.384,17.078,4.637,24.458,16.506,6.41,10.3-5.5,23.4,11.671,25.264,5.486.593,9.133,3.978,11.557,8.311a23.8,23.8,0,0,1,.323,22.486Z" transform="translate(2067.618 778.326)" fill="#4071c9"/>
          <g id="Grupo_6852" data-name="Grupo 6852" transform="translate(15.653 21.04)">
            <path id="Trazado_17728" data-name="Trazado 17728" d="M-2008.612-690.261l-41.379-62.725a1.239,1.239,0,0,1,.353-1.717,1.24,1.24,0,0,1,1.717.353l42.279,64.089Z" transform="translate(2050.196 754.908)" fill="#3149b9"/>
          </g>
        </g>
        <g id="Grupo_6854" data-name="Grupo 6854" transform="translate(273.737 217.275)">
          <path id="Trazado_17729" data-name="Trazado 17729" d="M-1758.587-695.385h-4.35l16.1-41.807a52.6,52.6,0,0,0-6.047-15.337c-6.648-11.616-11.666-25.172-3.155-24.232,7.385.815,12.6,16.452,12.238,31.685l5.782-15.02c1-4.951,2.431-12.017,1.969-19.985-1.072-18.461,1.315-36.138,10.244-31.317s4.252,35.167-9.161,54.68l-2.976,7.728c9.527-14.391,27.712-26.093,34.7-21.051,6.943,5.01-5.87,11.7-18.591,15.859-9.683,3.166-15.3,7.458-17.928,9.916l-14.053,36.5c15.152-22.747,43.875-41.187,54.93-33.21,11.017,7.95-9.313,18.565-29.5,25.165-15.255,4.986-24.15,11.738-28.361,15.652Z" transform="translate(1762.937 812.202)" fill="#4071c9"/>
        </g>
        <g id="Grupo_6905" data-name="Grupo 6905" transform="translate(20.318)">
          <g id="Grupo_6904" data-name="Grupo 6904">
            <g id="Grupo_6896" data-name="Grupo 6896">
              <g id="Grupo_6855" data-name="Grupo 6855" transform="translate(0 224.234)">
                <path id="Trazado_17730" data-name="Trazado 17730" d="M-2011.807-690.9h64.6a11.964,11.964,0,0,0-3.515-8.484,11.941,11.941,0,0,0-8.484-3.516h-.112s-13.709-1.789-13.709-12.987V-782.7h-12.959v66.816c0,11.2-13.709,12.987-13.709,12.987h-.112A12,12,0,0,0-2011.807-690.9Z" transform="translate(2041.631 802.247)" fill="#3149b9"/>
                <path id="Trazado_17731" data-name="Trazado 17731" d="M-1983.066-782.7v2.658l12.958,3.847v-6.5Z" transform="translate(2038.712 802.247)" fill="#2039a5"/>
                <path id="Trazado_17732" data-name="Trazado 17732" d="M-2045-784.915h124.25a23.777,23.777,0,0,0-23.464-19.541l-38.661.1-38.661-.1A23.777,23.777,0,0,0-2045-784.915Z" transform="translate(2045.003 804.456)" fill="#4071c9"/>
              </g>
              <g id="Grupo_6895" data-name="Grupo 6895" transform="translate(15.228)">
                <g id="Grupo_6856" data-name="Grupo 6856" transform="translate(52.084 82.136)">
                  <path id="Trazado_17733" data-name="Trazado 17733" d="M-1951.163-961.831c3.45,12.751,20.842,45.969,27.594,50.729,8.791,6.2,36.349,17.83,50.685,23.761,2.587,1.07-7.006,12.388-7.006,12.388s-37.073-9.427-52.177-19.068c-4.272-2.727-13.529-11.99-25.248-30.557-3.553-5.63-11.779-16.817-12.692-24.807C-1971.058-958.581-1960.7-964.908-1951.163-961.831Z" transform="translate(1970.081 962.617)" fill="#e08820"/>
                </g>
                <g id="Grupo_6892" data-name="Grupo 6892" transform="translate(1.608)">
                  <g id="Grupo_6861" data-name="Grupo 6861" transform="translate(72.843 184.993)">
                    <g id="Grupo_6860" data-name="Grupo 6860" transform="translate(34.822 119.16)">
                      <path id="Trazado_17734" data-name="Trazado 17734" d="M-1902.969-715.5l-.478,13.874s3.429,2.541,10.521,1.278l2.9-14.92Z" transform="translate(1906.123 715.503)" fill="#e7a592"/>
                      <g id="Grupo_6859" data-name="Grupo 6859" transform="translate(0 10.108)">
                        <g id="Grupo_6858" data-name="Grupo 6858">
                          <g id="Grupo_6857" data-name="Grupo 6857">
                            <path id="Trazado_17735" data-name="Trazado 17735" d="M-1894.735-701.018s2.417-3.345,4.375-3.231,17.225,11.9,22.411,12.813,4.928,7.365,2.891,8.1c-2.32.836-40.658.118-40.658.118s-1.457-13.64-.193-17.327S-1898.767-700.092-1894.735-701.018Z" transform="translate(1906.426 704.252)" fill="#e08820"/>
                          </g>
                        </g>
                      </g>
                    </g>
                    <path id="Trazado_17736" data-name="Trazado 17736" d="M-1943.476-847.211s62.541-6.107,72.012,13.1c6.378,12.938-21.467,108.865-21.467,108.865-5.609,1.748-13.4-.686-16.446-3.73,0,0-4.954-13.345-.4-51.95.6-5.13,0-16.835,5.464-37.562l-40.868-18.043Z" transform="translate(1945.185 848.134)" fill="#222046"/>
                  </g>
                  <g id="Grupo_6865" data-name="Grupo 6865" transform="translate(0 65.851)">
                    <path id="Trazado_17737" data-name="Trazado 17737" d="M-1999.514-979.928s-14.878,4.858-22.831,11.841-1.3,27.824-1.5,39.657,1.758,80.536,18.71,89.167c12.8,6.519,66.694-3.379,62.753-20.942a575.08,575.08,0,0,1-11.042-62.2c-2.278-19.16-1.316-33.314-3.45-41.268s-27.042-17.072-27.042-17.072Z" transform="translate(2026.263 980.744)" fill="#eaa928"/>
                    <g id="Grupo_6862" data-name="Grupo 6862" transform="translate(22.493 5.458)">
                      <path id="Trazado_17738" data-name="Trazado 17738" d="M-1985.869-965.157c-7.759,0-14.917-8.247-15.227-8.609a.546.546,0,0,1,.059-.771.548.548,0,0,1,.773.058c.074.087,7.57,8.724,15.063,8.2a.549.549,0,0,1,.584.508.548.548,0,0,1-.508.584C-1985.373-965.165-1985.622-965.157-1985.869-965.157Z" transform="translate(2001.227 974.669)" fill="#e08820"/>
                    </g>
                    <g id="Grupo_6863" data-name="Grupo 6863" transform="translate(30.578 68.852)">
                      <path id="Trazado_17739" data-name="Trazado 17739" d="M-1991.682-865.246a.547.547,0,0,1-.543-.485.547.547,0,0,1,.481-.606c20.041-2.306,28.344-37,28.426-37.348a.547.547,0,0,1,.657-.409.548.548,0,0,1,.41.658c-.34,1.46-8.567,35.793-29.366,38.187A.508.508,0,0,1-1991.682-865.246Z" transform="translate(1992.228 904.109)" fill="#e08820"/>
                    </g>
                    <g id="Grupo_6864" data-name="Grupo 6864" transform="translate(38.557 79.381)">
                      <path id="Trazado_17740" data-name="Trazado 17740" d="M-1982.8-874.553a.547.547,0,0,1-.466-.261.546.546,0,0,1,.179-.753c10.659-6.572,12.244-16.259,12.259-16.357a.544.544,0,0,1,.622-.459.547.547,0,0,1,.46.622c-.063.417-1.656,10.275-12.768,17.126A.538.538,0,0,1-1982.8-874.553Z" transform="translate(1983.347 892.389)" fill="#e08820"/>
                    </g>
                  </g>
                  <g id="Grupo_6887" data-name="Grupo 6887" transform="translate(9.354)">
                    <circle id="Elipse_819" data-name="Elipse 819" cx="21.955" cy="21.955" r="21.955" transform="translate(1.573 7.835)" fill="#323361"/>
                    <path id="Trazado_17741" data-name="Trazado 17741" d="M-1970.728-1028.185s6.218-1.716,5.4-7.751c-.7-5.135-6.73-1.806-6.2-5.82s1.709-7.664-3.483-8.667c-4.543-.878-4.619,2.235-10.583-2.28-7.046-5.335-12.459,7.019-18.747,7.39-9.276.547-10.446,5.793-11.359,9.99s2.658,7.139,2.658,7.139Z" transform="translate(2015.852 1054.039)" fill="#323361"/>
                    <g id="Grupo_6869" data-name="Grupo 6869" transform="translate(40.457 33.613)">
                      <path id="Trazado_17742" data-name="Trazado 17742" d="M-1969.484-1014.305s3.478-4.637,6.064-.8-1.071,15.159-7.4,12.395Z" transform="translate(1970.822 1016.626)" fill="#e2876c"/>
                      <g id="Grupo_6866" data-name="Grupo 6866" transform="translate(0.848 4.06)">
                        <path id="Trazado_17743" data-name="Trazado 17743" d="M-1969.343-1005.754a.536.536,0,0,0,.516-.391c.981-3.5,4.6-4.914,4.639-4.927a.535.535,0,0,0,.31-.69.535.535,0,0,0-.689-.311,9.211,9.211,0,0,0-5.291,5.639.535.535,0,0,0,.37.659A.544.544,0,0,0-1969.343-1005.754Z" transform="translate(1969.878 1012.107)" fill="#bb5c4a"/>
                      </g>
                      <g id="Grupo_6868" data-name="Grupo 6868" transform="translate(2.727 6.161)">
                        <g id="Grupo_6867" data-name="Grupo 6867">
                          <path id="Trazado_17744" data-name="Trazado 17744" d="M-1965.474-1007.277a.534.534,0,0,0,.289-.085.535.535,0,0,0,.16-.739,4.878,4.878,0,0,0-2.008-1.619.535.535,0,0,0-.707.27.535.535,0,0,0,.27.707,3.876,3.876,0,0,1,1.545,1.222A.537.537,0,0,0-1965.474-1007.277Z" transform="translate(1967.787 1009.768)" fill="#bb5c4a"/>
                        </g>
                      </g>
                    </g>
                    <path id="Trazado_17745" data-name="Trazado 17745" d="M-1997.408-990.449v11.263s4.754,6.286,9.3,6.676,7.176-6.318,7.176-6.318v-10.83Z" transform="translate(2013.978 1047.58)" fill="#e7a592"/>
                    <path id="Trazado_17746" data-name="Trazado 17746" d="M-1997.408-990.449v5c3.048,3.383,8.46,4.227,16.471,3.044v-7.249Z" transform="translate(2013.978 1047.58)" fill="#e2876c"/>
                    <path id="Trazado_17747" data-name="Trazado 17747" d="M-2010.625-1024.241a109.545,109.545,0,0,0,1.461,14.226c.209,1.092.444,2.119.706,3.039,2.37,8.3,8.3,22.53,24.895,16.6,7.33-2.616,10.727-10.781,12.242-19.085a80.257,80.257,0,0,0,1.107-15.409,11.757,11.757,0,0,0-5.966-10.005c-9.8-5.554-20.133-3.483-26.939-.867A11.721,11.721,0,0,0-2010.625-1024.241Z" transform="translate(2015.322 1052.449)" fill="#e7a592"/>
                    <g id="Grupo_6876" data-name="Grupo 6876" transform="translate(5.869 33.423)">
                      <g id="Grupo_6875" data-name="Grupo 6875">
                        <g id="Grupo_6870" data-name="Grupo 6870" transform="translate(5.855 0.404)">
                          <path id="Trazado_17748" data-name="Trazado 17748" d="M-1989.918-1014.052v.888a6.612,6.612,0,0,1-1.967,4.729,6.562,6.562,0,0,1-4.66,1.925h-.217a5.987,5.987,0,0,1-4.125-1.825A6.53,6.53,0,0,1-2002.8-1013v-1.05a2.292,2.292,0,0,1,.154-.827,2.293,2.293,0,0,1,.53-.823,2.321,2.321,0,0,1,1.651-.686h8.214a2.328,2.328,0,0,1,2.106,1.332,2.282,2.282,0,0,1,.227.943A.523.523,0,0,1-1989.918-1014.052Zm-.969,0a1.366,1.366,0,0,0-1.366-1.366h-8.214a1.365,1.365,0,0,0-1.367,1.366v1.05a5.551,5.551,0,0,0,1.624,3.973,5.055,5.055,0,0,0,3.466,1.551h.2a5.606,5.606,0,0,0,3.979-1.644,5.661,5.661,0,0,0,1.68-4.041Z" transform="translate(2002.803 1016.388)" fill="#323361"/>
                        </g>
                        <g id="Grupo_6871" data-name="Grupo 6871" transform="translate(22.299 0.404)">
                          <path id="Trazado_17749" data-name="Trazado 17749" d="M-1971.612-1014.052v.888a6.629,6.629,0,0,1-1.967,4.729,6.564,6.564,0,0,1-4.661,1.925h-.22a5.981,5.981,0,0,1-4.121-1.825A6.534,6.534,0,0,1-1984.5-1013v-1.05a.207.207,0,0,1,0-.046,2.227,2.227,0,0,1,.2-.894,2.331,2.331,0,0,1,2.135-1.4h8.217a2.34,2.34,0,0,1,1.8.844,2.29,2.29,0,0,1,.449.865A2.141,2.141,0,0,1-1971.612-1014.052Zm-.969,0a1.366,1.366,0,0,0-1.366-1.366h-8.217a1.366,1.366,0,0,0-1.367,1.366v1.05a5.562,5.562,0,0,0,1.624,3.973,5.056,5.056,0,0,0,3.466,1.551h.2a5.591,5.591,0,0,0,3.976-1.644,5.648,5.648,0,0,0,1.683-4.041Z" transform="translate(1984.5 1016.388)" fill="#323361"/>
                        </g>
                        <g id="Grupo_6872" data-name="Grupo 6872">
                          <path id="Trazado_17750" data-name="Trazado 17750" d="M-2009.32-1016.825a11.588,11.588,0,0,1,5.571,1.077c.22.106.808.488.833.5l-.461.823c-.006,0-.65-.387-.9-.5a10.151,10.151,0,0,0-5.041-.934Z" transform="translate(2009.32 1016.837)" fill="#323361"/>
                        </g>
                        <g id="Grupo_6873" data-name="Grupo 6873" transform="translate(17.771 1.372)">
                          <path id="Trazado_17751" data-name="Trazado 17751" d="M-1989.222-1013.907l-.318-.916a9.9,9.9,0,0,1,2.912-.488,6.537,6.537,0,0,1,2.657.509l-.423.871a5.718,5.718,0,0,0-2.234-.411A9.058,9.058,0,0,0-1989.222-1013.907Z" transform="translate(1989.54 1015.31)" fill="#323361"/>
                        </g>
                        <g id="Grupo_6874" data-name="Grupo 6874" transform="translate(34.266 0.246)">
                          <path id="Trazado_17752" data-name="Trazado 17752" d="M-1966.865-1016.564v.971a12.544,12.544,0,0,0-3.888,1.074l-.427-.869A13.126,13.126,0,0,1-1966.865-1016.564Z" transform="translate(1971.18 1016.564)" fill="#323361"/>
                        </g>
                      </g>
                    </g>
                    <path id="Trazado_17753" data-name="Trazado 17753" d="M-1978.619-1012.653c0,1.2.62,2.177,1.385,2.177s1.384-.975,1.384-2.177-.62-2.177-1.384-2.177S-1978.619-1013.855-1978.619-1012.653Z" transform="translate(2012.07 1050.057)" fill="#323361"/>
                    <path id="Trazado_17754" data-name="Trazado 17754" d="M-1996.657-1012.653c0,1.2.62,2.177,1.385,2.177s1.384-.975,1.384-2.177-.62-2.177-1.384-2.177S-1996.657-1013.855-1996.657-1012.653Z" transform="translate(2013.902 1050.057)" fill="#323361"/>
                    <path id="Trazado_17755" data-name="Trazado 17755" d="M-1973.22-1019.974s-5.761-2.277-10.2-.36l.37,2.058a18.712,18.712,0,0,1,9.508.682C-1973.246-1018.544-1972.846-1019-1973.22-1019.974Z" transform="translate(2012.558 1050.694)" fill="#323361"/>
                    <path id="Trazado_17756" data-name="Trazado 17756" d="M-2001.427-1019.974s5.761-2.277,10.2-.36l-.371,2.058a18.708,18.708,0,0,0-9.507.682C-2001.4-1018.544-2001.8-1019-2001.427-1019.974Z" transform="translate(2014.402 1050.694)" fill="#323361"/>
                    <g id="Grupo_6878" data-name="Grupo 6878" transform="translate(23.614 36.059)">
                      <g id="Grupo_6877" data-name="Grupo 6877">
                        <path id="Trazado_17757" data-name="Trazado 17757" d="M-1987.3-1003.436a5.708,5.708,0,0,1-1.937-.408.535.535,0,0,1-.292-.7.535.535,0,0,1,.7-.293,3.212,3.212,0,0,0,2.145.2.58.58,0,0,0,.263-.5,80.665,80.665,0,0,0-.323-8.194.535.535,0,0,1,.49-.577.533.533,0,0,1,.577.49,79.267,79.267,0,0,1,.322,8.391,1.633,1.633,0,0,1-.778,1.306A2.259,2.259,0,0,1-1987.3-1003.436Z" transform="translate(1989.568 1013.903)" fill="#e2876c"/>
                      </g>
                    </g>
                    <path id="Trazado_17758" data-name="Trazado 17758" d="M-1981.192-999.23c-.436,2.2-1.89,6.248-6.787,6.248s-6.284-3.7-6.757-6.248Z" transform="translate(2013.707 1048.472)" fill="#fff"/>
                    <g id="Grupo_6879" data-name="Grupo 6879" transform="translate(22.929 56.559)">
                      <path id="Trazado_17759" data-name="Trazado 17759" d="M-1987.465-989.362a5.6,5.6,0,0,1-2.608-.73.536.536,0,0,1-.181-.735.534.534,0,0,1,.735-.181,4.551,4.551,0,0,0,2.054.576,4.349,4.349,0,0,0,1.947-.573.535.535,0,0,1,.737.173.536.536,0,0,1-.174.737A5.354,5.354,0,0,1-1987.465-989.362Z" transform="translate(1990.331 991.086)" fill="#e2876c"/>
                    </g>
                    <path id="Trazado_17760" data-name="Trazado 17760" d="M-1972.977-1012.946c.4-2.207.8-5.055.513-6.515-.521-2.583-2.66-4.1-1.947-6.593s-1.92-5.177-3.861-5.621-6.467.516-10.926-1.6c-4.256-2.023-11.654-.576-12.862,2.156-1.458,3.307.527,3.62-3.454,7.2-1.586,1.426.3,5.128.564,7.536a16.155,16.155,0,0,1,.1,2.839l-.016.6h-4.766c-.525-3.735-.825-7.852-.989-11.3a11.722,11.722,0,0,1,7.508-11.5c6.807-2.616,17.14-4.689,26.941.867a11.753,11.753,0,0,1,5.962,10,85.274,85.274,0,0,1-.578,11.922Z" transform="translate(2015.322 1052.449)" fill="#323361"/>
                    <g id="Grupo_6886" data-name="Grupo 6886" transform="translate(0.149 33.593)">
                      <path id="Trazado_17761" data-name="Trazado 17761" d="M-2008.038-1008.68a19.93,19.93,0,0,0-.291-3.72c-.3-1.678-.784-3.2-2.5-3.9a2.932,2.932,0,0,0-3.908.984c-2.586,3.834.295,15.767,6.626,13Z" transform="translate(2015.686 1016.648)" fill="#e7a592"/>
                      <g id="Grupo_6882" data-name="Grupo 6882" transform="translate(2.083 3.645)">
                        <g id="Grupo_6881" data-name="Grupo 6881">
                          <g id="Grupo_6880" data-name="Grupo 6880">
                            <path id="Trazado_17762" data-name="Trazado 17762" d="M-2009.1-1005.378a.536.536,0,0,1-.429-.484c-.278-3.621-3.552-5.72-3.586-5.74a.535.535,0,0,1-.169-.738.534.534,0,0,1,.736-.17,9.209,9.209,0,0,1,4.085,6.566.534.534,0,0,1-.492.574A.561.561,0,0,1-2009.1-1005.378Z" transform="translate(2013.367 1012.591)" fill="#e2876c"/>
                          </g>
                        </g>
                      </g>
                      <g id="Grupo_6885" data-name="Grupo 6885" transform="translate(2.677 6.309)">
                        <g id="Grupo_6884" data-name="Grupo 6884">
                          <g id="Grupo_6883" data-name="Grupo 6883">
                            <path id="Trazado_17763" data-name="Trazado 17763" d="M-2012.276-1007.52a.534.534,0,0,1-.267-.141.535.535,0,0,1-.012-.757,4.882,4.882,0,0,1,2.285-1.194.535.535,0,0,1,.641.4.535.535,0,0,1-.4.64,3.879,3.879,0,0,0-1.754.9A.536.536,0,0,1-2012.276-1007.52Z" transform="translate(2012.706 1009.625)" fill="#e2876c"/>
                          </g>
                        </g>
                      </g>
                    </g>
                  </g>
                  <g id="Grupo_6890" data-name="Grupo 6890" transform="translate(9.043 185.806)">
                    <g id="Grupo_6889" data-name="Grupo 6889" transform="translate(68.549 118.347)">
                      <path id="Trazado_17764" data-name="Trazado 17764" d="M-1936.442-715.5l-.479,13.874s3.429,2.541,10.521,1.278l2.9-14.92Z" transform="translate(1939.597 715.503)" fill="#e7a592"/>
                      <g id="Grupo_6888" data-name="Grupo 6888" transform="translate(0 10.108)">
                        <path id="Trazado_17765" data-name="Trazado 17765" d="M-1928.208-701.018s2.416-3.345,4.375-3.231,17.224,11.9,22.41,12.813,4.928,7.365,2.891,8.1c-2.321.836-40.658.118-40.658.118s-1.457-13.64-.193-17.327S-1932.24-700.092-1928.208-701.018Z" transform="translate(1939.899 704.252)" fill="#eaa928"/>
                      </g>
                    </g>
                    <path id="Trazado_17766" data-name="Trazado 17766" d="M-2015.47-845.828s97.25-7.4,106.721,11.813c6.378,12.937-21.467,108.864-21.467,108.864-5.608,1.748-13.4-.686-16.446-3.73,0,0-2.858-6.946,1.691-45.552.6-5.13-4.962-13.641.5-34.368H-1995.3c-13.232,0-22.143-18.332-20.753-31.49Z" transform="translate(2016.197 847.229)" fill="#323361"/>
                  </g>
                  <g id="Grupo_6891" data-name="Grupo 6891" transform="translate(28.946 75.071)">
                    <path id="Trazado_17767" data-name="Trazado 17767" d="M-1966.3-889.123l-7.456,20.421-13.453-19.412-1.086-62.124-.023-3,3.562-.635.643,4.024Z" transform="translate(1993.463 968.795)" fill="#fff"/>
                    <path id="Trazado_17768" data-name="Trazado 17768" d="M-1984.112-949.851l-1.644,2.205-2.537-2.592-.023-3,3.562-.635Z" transform="translate(1993.463 968.795)" fill="#d2dfed" opacity="0.6"/>
                    <path id="Trazado_17769" data-name="Trazado 17769" d="M-1994.045-958.9l7.121,7.044,5.017-7.2-5.864-11.419Z" transform="translate(1994.045 970.481)" fill="#fff"/>
                  </g>
                  <path id="Trazado_17770" data-name="Trazado 17770" d="M-1998.11-981.756l-2.751,2.038a20.8,20.8,0,0,0-1.66,1.4c-1.584,1.506-2.129,2.525-1.608,5.058a6.045,6.045,0,0,0,.284,1h0l4.8,19.51,10.229-18.878S-1995.712-972.975-1998.11-981.756Z" transform="translate(2024.035 1046.698)" fill="#e08820"/>
                  <path id="Trazado_17771" data-name="Trazado 17771" d="M-1979.886-981.756s6.818,6.6,5.472,12.672l-4.747,12.651-7.9-15.194S-1980.924-973.746-1979.886-981.756Z" transform="translate(2022.281 1046.698)" fill="#e08820"/>
                </g>
                <g id="Grupo_6894" data-name="Grupo 6894" transform="translate(0 76.064)">
                  <g id="Grupo_6893" data-name="Grupo 6893">
                    <path id="Trazado_17772" data-name="Trazado 17772" d="M-2019.362-969.376c7.819,11.852,37.746,52.827,44.5,57.588,8.79,6.2,36.349,17.83,50.684,23.761,2.586,1.07-7.006,12.388-7.006,12.388s-37.073-9.427-52.177-19.068c-4.272-2.728-22.042-20.528-33.372-36.317-3.88-5.409-10.195-12.921-11.108-20.911C-2028.893-961.132-2026-966.053-2019.362-969.376Z" transform="translate(2028.053 969.376)" fill="#e08820"/>
                  </g>
                </g>
              </g>
            </g>
            <g id="Grupo_6903" data-name="Grupo 6903" transform="translate(12.784 108.914)">
              <g id="Grupo_6900" data-name="Grupo 6900" transform="translate(0 64.651)">
                <g id="Grupo_6897" data-name="Grupo 6897" transform="translate(213.353 10.584)">
                  <path id="Trazado_17773" data-name="Trazado 17773" d="M-1746.028-697.349l-47.092-146.762a3.8,3.8,0,0,1,2.456-4.779,3.8,3.8,0,0,1,4.78,2.457l47.837,149.084Z" transform="translate(1793.302 849.073)" fill="#323361"/>
                </g>
                <g id="Grupo_6899" data-name="Grupo 6899" transform="translate(0 10.584)">
                  <g id="Grupo_6898" data-name="Grupo 6898">
                    <path id="Trazado_17774" data-name="Trazado 17774" d="M-2022.793-697.349h-7.981l47.837-149.084a3.8,3.8,0,0,1,4.779-2.457,3.8,3.8,0,0,1,2.457,4.779Z" transform="translate(2030.774 849.073)" fill="#323361"/>
                  </g>
                </g>
                <path id="Trazado_17775" data-name="Trazado 17775" d="M-2014.731-846.616h246.164a7.118,7.118,0,0,0,7.118-7.118h0a7.118,7.118,0,0,0-7.118-7.118h-246.164a7.118,7.118,0,0,0-7.118,7.118h0A7.118,7.118,0,0,0-2014.731-846.616Z" transform="translate(2029.867 860.853)" fill="#3d4f7c"/>
              </g>
              <g id="Grupo_6901" data-name="Grupo 6901" transform="translate(54.107)">
                <rect id="Rectángulo_1149" data-name="Rectángulo 1149" width="76.344" height="9.949" rx="4.167" transform="translate(76.344 64.651) rotate(180)" fill="#3149b9"/>
                <path id="Trazado_17776" data-name="Trazado 17776" d="M-1868.508-868.161l15.534-58.176a5.147,5.147,0,0,0-4.972-6.474h-34.182a5.148,5.148,0,0,0-4.955,3.755l-17.105,60.9Z" transform="translate(1964.826 932.813)" fill="#4071c9"/>
                <path id="Trazado_17777" data-name="Trazado 17777" d="M-1897.51-929.056l-16.963,60.393h-3.907l16.964-60.393a5.153,5.153,0,0,1,4.957-3.757h3.906A5.154,5.154,0,0,0-1897.51-929.056Z" transform="translate(1965.252 932.813)" fill="#3149b9"/>
                <path id="Trazado_17778" data-name="Trazado 17778" d="M-1885.39-894.718c-.888,3.837,1.5,6.948,5.339,6.948a9.276,9.276,0,0,0,8.556-6.948c.888-3.836-1.5-6.948-5.34-6.948A9.276,9.276,0,0,0-1885.39-894.718Z" transform="translate(1961.92 929.65)" fill="#5290fb"/>
              </g>
              <g id="Grupo_6902" data-name="Grupo 6902" transform="translate(156.012 22.981)">
                <path id="Trazado_17779" data-name="Trazado 17779" d="M-1784.395-902.88l-10.04,35.358a2.7,2.7,0,0,1-2.67,1.959h-56.435a3.6,3.6,0,0,1-3.474-4.355l10.04-35.358a2.7,2.7,0,0,1,2.67-1.958h56.434A3.6,3.6,0,0,1-1784.395-902.88Z" transform="translate(1857.126 907.234)" fill="#3149b9"/>
                <path id="Trazado_17780" data-name="Trazado 17780" d="M-1783.661-902.88l-10.04,35.358a2.7,2.7,0,0,1-2.67,1.959h-49.953a3.6,3.6,0,0,1-3.469-4.355l10.04-35.358a2.7,2.7,0,0,1,2.67-1.958h49.948A3.6,3.6,0,0,1-1783.661-902.88Z" transform="translate(1856.393 907.234)" fill="#4071c9"/>
                <path id="Trazado_17781" data-name="Trazado 17781" d="M-1817.354-883.814a6.034,6.034,0,0,0,6.111,6.827,7.768,7.768,0,0,0,7.543-6.827,6.034,6.034,0,0,0-6.11-6.827A7.768,7.768,0,0,0-1817.354-883.814Z" transform="translate(1853.091 905.549)" fill="#5290fb"/>
              </g>
            </g>
          </g>
        </g>
      </g>
      <g id="Grupo_6912" data-name="Grupo 6912" transform="translate(258.785 221.728)">
        <g id="Grupo_6910" data-name="Grupo 6910">
          <g id="Grupo_6907" data-name="Grupo 6907" transform="translate(15.405)">
            <path id="Trazado_17782" data-name="Trazado 17782" d="M-1769.509-956.883c-8.065-8.213-14.065,2.219-13.228,12.69.8,9.928,9.353,43.991,7.766,58.322h3.276C-1763.678-904.247-1759.183-946.371-1769.509-956.883Z" transform="translate(1782.815 959.837)" fill="#7f8d9e" fill-rule="evenodd"/>
            <path id="Trazado_17783" data-name="Trazado 17783" d="M-1772.12-885.365c7.8-28.965-2.075-69-2.108-69.138a.463.463,0,0,0-.56-.341.463.463,0,0,0-.341.561c.032.136,9.922,40.218,2.06,68.918Z" transform="translate(1782.035 959.331)" fill="#98a4b4" fill-rule="evenodd"/>
          </g>
          <g id="Grupo_6908" data-name="Grupo 6908" transform="translate(0 19.918)">
            <path id="Trazado_17784" data-name="Trazado 17784" d="M-1791.147-936.534c-8.5-4.5-10.642,5.323-7.329,13.451,2.747,6.736,14.877,26.661,19.464,39.464h4.32C-1774.325-901.311-1781.114-931.219-1791.147-936.534Z" transform="translate(1799.961 937.667)" fill="#ced6d7" fill-rule="evenodd"/>
            <path id="Trazado_17785" data-name="Trazado 17785" d="M-1775.8-883.186c-2.811-23.928-18.724-49.938-18.782-50.032a.389.389,0,0,0-.532-.13.388.388,0,0,0-.13.532c.057.094,15.868,25.935,18.676,49.631Z" transform="translate(1799.487 937.234)" fill="#e7ecec" fill-rule="evenodd"/>
          </g>
          <g id="Grupo_6909" data-name="Grupo 6909" transform="translate(26.351 31.61)">
            <path id="Trazado_17786" data-name="Trazado 17786" d="M-1752.247-923.855c8.237-3.6,9.543,5.708,5.884,13.05-2.477,4.968-11.4,17.688-17.409,28.508h-6.859C-1768.285-898.667-1760.762-920.136-1752.247-923.855Z" transform="translate(1770.631 924.654)" fill="#e7ecec" fill-rule="evenodd"/>
            <path id="Trazado_17787" data-name="Trazado 17787" d="M-1767.9-881.889c5.848-19.832,19.317-38.521,19.371-38.6a.363.363,0,0,1,.505-.083.361.361,0,0,1,.084.5c-.053.075-13.38,18.57-19.215,38.176Z" transform="translate(1770.354 924.246)" fill="#ced6d7" fill-rule="evenodd"/>
          </g>
        </g>
        <g id="Grupo_6911" data-name="Grupo 6911" transform="translate(14.484 67.419)">
          <rect id="Rectángulo_1150" data-name="Rectángulo 1150" width="26.759" height="8.583" rx="1.461" fill="#33385c"/>
          <path id="Trazado_17788" data-name="Trazado 17788" d="M-1778.239-879.4h15.855l4.14,3.736-3.382,13.027H-1779l-3.382-13.027Z" transform="translate(1783.691 884.249)" fill="#33385c" fill-rule="evenodd"/>
          <path id="Trazado_17789" data-name="Trazado 17789" d="M-1758.244-875.243l-.7,2.677h-22.744l-.7-2.677Z" transform="translate(1783.691 883.826)" fill="#151d3d" fill-rule="evenodd"/>
        </g>
      </g>
      <rect id="Rectángulo_1151" data-name="Rectángulo 1151" width="920" height="47.376" transform="translate(0 470.123)" fill="#030822"/>
    </g>
    <g id="Grupo_6914" data-name="Grupo 6914" transform="translate(-1641.477 -1147.763)">
      <rect id="Rectángulo_1152" data-name="Rectángulo 1152" width="329.726" height="44.023" fill="#8d6e63"/>
      <text id="Resolución_0150_de_2003" data-name="Resolución 0150 de 2003" transform="translate(150.312 26.729)" fill="#fff" font-size="22" font-family="Montserrat-Bold, Montserrat" font-weight="700"><tspan x="-139.018" y="0">Resolución 0150 de 2003</tspan></text>
    </g>
    <g id="Grupo_6915" data-name="Grupo 6915" transform="translate(-1411.46 -1065.854)">
      <rect id="Rectángulo_618" data-name="Rectángulo 618" width="130.872" height="30.994" transform="translate(0 0)" fill="#80cbc4"/>
      <path id="Polígono_3" data-name="Polígono 3" d="M-1263.805-1003.284l-14.661-12.158h29.321Z" transform="translate(1329.241 1046.436)" fill="#67a39e"/>
      <rect id="Rectángulo_618-2" data-name="Rectángulo 618" width="130.872" height="30.994" transform="translate(0 43.152)" fill="#80cbc4"/>
      <path id="Polígono_3-2" data-name="Polígono 3" d="M-1263.805-955.254l-14.661-12.158h29.321Z" transform="translate(1329.241 1041.558)" fill="#67a39e"/>
      <rect id="Rectángulo_618-3" data-name="Rectángulo 618" width="130.872" height="30.994" transform="translate(0 86.304)" fill="#80cbc4"/>
      <path id="Polígono_3-3" data-name="Polígono 3" d="M-1263.805-907.224l-14.661-12.158h29.321Z" transform="translate(1329.241 1036.68)" fill="#67a39e"/>
      <rect id="Rectángulo_618-4" data-name="Rectángulo 618" width="130.872" height="30.994" transform="translate(0 129.455)" fill="#80cbc4"/>
      <path id="Polígono_3-4" data-name="Polígono 3" d="M-1263.805-859.194l-14.661-12.158h29.321Z" transform="translate(1329.241 1031.802)" fill="#67a39e"/>
      <rect id="Rectángulo_618-5" data-name="Rectángulo 618" width="130.872" height="30.994" transform="translate(0 172.607)" fill="#80cbc4"/>
      <path id="Polígono_3-5" data-name="Polígono 3" d="M-1263.805-811.165l-14.661-12.157h29.321Z" transform="translate(1329.241 1026.924)" fill="#67a39e"/>
      <rect id="Rectángulo_618-6" data-name="Rectángulo 618" width="130.872" height="30.994" transform="translate(0 215.759)" fill="#80cbc4"/>
      <path id="Polígono_3-6" data-name="Polígono 3" d="M-1263.805-763.135l-14.661-12.158h29.321Z" transform="translate(1329.241 1022.046)" fill="#67a39e"/>
      <rect id="Rectángulo_618-7" data-name="Rectángulo 618" width="130.872" height="30.994" transform="translate(0 258.911)" fill="#80cbc4"/>
      <text id="Terminología" transform="translate(57.802 16.973)" fill="#00223d" font-size="9" font-family="Montserrat-Bold, Montserrat" font-weight="700"><tspan x="-30.123" y="0">Terminología</tspan></text>
      <text id="Clasificación" transform="translate(57.701 60.125)" fill="#00223d" font-size="9" font-family="Montserrat-Bold, Montserrat" font-weight="700"><tspan x="-29.074" y="0">Clasificación</tspan></text>
      <text id="Composición" transform="translate(58.701 103.276)" fill="#00223d" font-size="9" font-family="Montserrat-Bold, Montserrat" font-weight="700"><tspan x="-29.817" y="0">Composición</tspan></text>
      <text id="Etiquetado" transform="translate(59.091 146.427)" fill="#00223d" font-size="9" font-family="Montserrat-Bold, Montserrat" font-weight="700"><tspan x="-25.402" y="0">Etiquetado</tspan></text>
      <text id="Tolerancias" transform="translate(59.193 189.474)" fill="#00223d" font-size="9" font-family="Montserrat-Bold, Montserrat" font-weight="700"><tspan x="-25.803" y="0">Tolerancias</tspan></text>
      <text id="Contenidos_Mínimos" data-name="Contenidos
Mínimos" transform="translate(59.193 226.04)" fill="#00223d" font-size="9" font-family="Montserrat-Bold, Montserrat" font-weight="700"><tspan x="-26.145" y="0">Contenidos</tspan><tspan x="-19.458" y="11">Mínimos</tspan></text>
      <text id="Parámetros_de_Verificación" data-name="Parámetros de
Verificación" transform="translate(57.31 268.946)" fill="#00223d" font-size="9" font-family="Montserrat-Bold, Montserrat" font-weight="700"><tspan x="-33.376" y="0">Parámetros de</tspan><tspan x="-27.18" y="11">Verificación</tspan></text>
    </g>
    <text id="A_través_de_esta_normativa_se_orienta_la_comercialización_y_uso_racional_de_productos_agroecológicos_minimizando_los_daños_a_la_salud_a_la_sanidad_agropecuaria_y_al_ambiente._Además_establece_los_requisitos_y_los_procedimientos_armonizados_con_las_regla" data-name="A través de esta normativa se orienta la comercialización y uso racional de productos agroecológicos, minimizando los daños a la salud, a la sanidad agropecuaria y al ambiente. Además, establece los requisitos y los procedimientos armonizados con las regla" transform="translate(-1672.64 -1067.918)" font-size="17" font-family="MyriadPro-Regular, Myriad Pro"><tspan x="0" y="13">A través de esta normativa se </tspan><tspan x="0" y="33.4">orienta la comercialización y </tspan><tspan x="0" y="53.8">uso racional de productos </tspan><tspan x="0" y="74.2">agroecológicos, minimizando </tspan><tspan x="0" y="94.6">los daños a la salud, a la </tspan><tspan x="0" y="115">sanidad agropecuaria y al </tspan><tspan x="0" y="135.4">ambiente. Además, establece </tspan><tspan x="0" y="155.8">los requisitos y los </tspan><tspan x="0" y="176.2">procedimientos armonizados </tspan><tspan x="0" y="196.6">con las reglamentaciones </tspan><tspan x="0" y="217">internacionales vigentes, que </tspan><tspan x="0" y="237.4">rigen tanto para el control </tspan></text>
  </g>
</svg>
