<svg xmlns="http://www.w3.org/2000/svg" xmlns:xlink="http://www.w3.org/1999/xlink" width="920" height="517.5" viewBox="0 0 920 517.5">
  <defs>
    <linearGradient id="linear-gradient" y1="0.5" x2="1" y2="0.5" gradientUnits="objectBoundingBox">
      <stop offset="0" stop-color="#f3c9c7" stop-opacity="0"/>
      <stop offset="1" stop-color="#f3c9c7"/>
    </linearGradient>
  </defs>
  <g id="Grupo_6993" data-name="Grupo 6993" transform="translate(2088 600.63)">
    <g id="Grupo_6983" data-name="Grupo 6983" transform="translate(-2088 -600.63)">
      <rect id="Rectángulo_1153" data-name="Rectángulo 1153" width="920" height="517" fill="#f3c9c7"/>
      <g id="Grupo_6920" data-name="Grupo 6920" transform="translate(0)">
        <g id="Grupo_6917" data-name="Grupo 6917" transform="translate(0 0)">
          <path id="Trazado_17790" data-name="Trazado 17790" d="M-2052.586-83.131h.39v-7.316h44.238v7.316h.39v-7.316h44.238v7.316h.391v-7.316h44.237v7.316h.391v-7.316h44.238v7.316h.39v-7.316h44.238v7.316h.391v-7.316h44.237v7.316h.39v-7.316h44.238v7.316h.391v-7.316h44.237v7.316h.391v-7.316h44.237v7.316h.391v-7.316h44.237v7.316h.391v-7.316h35.414v-.392h-13.1v-12.832h13.1v-.39h-35.414v-12.832h35.414v-.39h-13.1v-12.833h13.1v-.391h-35.414V-143.34h35.414v-.39h-13.1v-12.832h13.1v-.39h-35.414v-12.833h35.414v-.391h-13.1v-12.833h13.1v-.39h-35.414v-12.833h35.414v-.39h-13.1v-12.832h13.1v-.391h-35.414v-12.831h35.414v-.391h-13.1V-235.9h13.1v-.39h-35.414v-12.832h35.414v-.39h-13.1v-12.832h13.1v-.391h-35.414V-275.57h35.414v-.39h-13.1v-12.833h13.1v-.39h-35.414v-12.834h35.414v-.39h-13.1V-315.24h13.1v-.39h-35.414v-12.832h35.414v-.39h-13.1v-12.833h13.1v-.39h-35.414v-12.833h35.414v-.391h-13.1v-12.832h13.1v-.39h-35.414v-12.833h35.414v-.391h-13.1v-12.832h13.1v-.39h-35.414V-407.8h35.414v-.391h-13.1v-12.832h13.1v-.39h-35.414v-12.832h35.414v-.391h-13.1v-12.832h13.1v-.39h-35.414v-12.834h35.414v-.39h-13.1v-12.832h13.1v-.391h-35.414v-12.832h35.414v-.39h-13.1v-12.832h13.1v-.392h-35.414v-12.832h35.414v-.391h-13.1v-12.832h13.1v-.39h-35.414V-540.03h35.414v-.391h-13.1v-12.833h13.1v-.39h-35.414v-12.832h35.414v-.391h-13.1V-579.7h13.1v-.39h-35.414v-12.832h35.414v-.391h-13.1v-7.317h-.391v7.317h-44.237v-7.317h-.391v7.317h-44.238v-7.317h-.391v7.317h-44.237v-7.317h-.39v7.317h-44.238v-7.317h-.39v7.317h-44.238v-7.317h-.391v7.317h-44.236v-7.317h-.392v7.317H-1896v-7.317h-.391v7.317h-44.237v-7.317h-.391v7.317h-44.237v-7.317h-.392v7.317h-44.236v-7.317h-.391v7.317h-44.238v-7.317h-.39v7.317H-2088v.391h35.414v12.832H-2088v.39h13.1v12.832H-2088v.391h35.414v12.832H-2088v.39h13.1v12.833H-2088v.391h35.414V-527.2H-2088v.39h13.1v12.832H-2088v.391h35.414v12.832H-2088v.392h13.1v12.832H-2088v.39h35.414v12.832H-2088v.391h13.1v12.832H-2088v.39h35.414v12.834H-2088v.39h13.1v12.832H-2088v.391h35.414v12.832H-2088v.39h13.1v12.832H-2088v.391h35.414v12.832H-2088v.39h13.1v12.832H-2088v.391h35.414v12.833H-2088v.39h13.1V-355.3H-2088v.391h35.414v12.833H-2088v.39h13.1v12.833H-2088v.39h35.414v12.832H-2088v.39h13.1v12.832H-2088v.39h35.414v12.834H-2088v.39h13.1v12.833H-2088v.39h35.414v12.833H-2088v.391h13.1v12.832H-2088v.39h35.414v12.832H-2088v.39h13.1v12.833H-2088v.391h35.414v12.831H-2088v.391h13.1v12.832H-2088v.39h35.414V-183.4H-2088v.39h13.1v12.833H-2088v.391h35.414v12.833H-2088v.39h13.1v12.832H-2088v.39h35.414v12.832H-2088v.391h13.1v12.833H-2088v.39h35.414v12.832H-2088v.39h13.1v12.832H-2088v.392h35.414v7.316Zm-21.924-20.54h44.238v12.832h-44.238v-12.832Zm44.629,0h44.236v12.832h-44.236v-12.832Zm44.628,0h44.237v12.832h-44.237v-12.832Zm44.628,0h44.237v12.832h-44.237v-12.832Zm44.628,0h44.237v12.832H-1896v-12.832Zm44.629,0h44.236v12.832h-44.236v-12.832Zm44.627,0h44.238v12.832h-44.238v-12.832Zm44.628,0h44.238v12.832h-44.238v-12.832Zm44.628,0h44.237v12.832h-44.237v-12.832Zm44.628,0h44.238v12.832h-44.238v-12.832Zm44.629,0h44.237v12.832h-44.237v-12.832ZM-2052.2-116.893h44.238v12.832H-2052.2v-12.832Zm44.628,0h44.238v12.832h-44.238v-12.832Zm44.629,0h44.237v12.832h-44.237v-12.832Zm44.628,0h44.238v12.832h-44.238v-12.832Zm44.628,0h44.238v12.832h-44.238v-12.832Zm44.629,0h44.237v12.832h-44.237v-12.832Zm44.627,0h44.238v12.832h-44.238v-12.832Zm44.629,0h44.237v12.832H-1739.8v-12.832Zm44.628,0h44.237v12.832h-44.237v-12.832Zm44.628,0h44.237v12.832h-44.237v-12.832Zm-423.968-13.223h44.238v12.833h-44.238v-12.833Zm44.629,0h44.236v12.833h-44.236v-12.833Zm44.628,0h44.237v12.833h-44.237v-12.833Zm44.628,0h44.237v12.833h-44.237v-12.833Zm44.628,0h44.237v12.833H-1896v-12.833Zm44.629,0h44.236v12.833h-44.236v-12.833Zm44.627,0h44.238v12.833h-44.238v-12.833Zm44.628,0h44.238v12.833h-44.238v-12.833Zm44.628,0h44.237v12.833h-44.237v-12.833Zm44.628,0h44.238v12.833h-44.238v-12.833Zm44.629,0h44.237v12.833h-44.237v-12.833ZM-2052.2-143.34h44.238v12.832H-2052.2V-143.34Zm44.628,0h44.238v12.832h-44.238V-143.34Zm44.629,0h44.237v12.832h-44.237V-143.34Zm44.628,0h44.238v12.832h-44.238V-143.34Zm44.628,0h44.238v12.832h-44.238V-143.34Zm44.629,0h44.237v12.832h-44.237V-143.34Zm44.627,0h44.238v12.832h-44.238V-143.34Zm44.629,0h44.237v12.832H-1739.8V-143.34Zm44.628,0h44.237v12.832h-44.237V-143.34Zm44.628,0h44.237v12.832h-44.237V-143.34Zm-423.968-13.222h44.238v12.832h-44.238v-12.832Zm44.629,0h44.236v12.832h-44.236v-12.832Zm44.628,0h44.237v12.832h-44.237v-12.832Zm44.628,0h44.237v12.832h-44.237v-12.832Zm44.628,0h44.237v12.832H-1896v-12.832Zm44.629,0h44.236v12.832h-44.236v-12.832Zm44.627,0h44.238v12.832h-44.238v-12.832Zm44.628,0h44.238v12.832h-44.238v-12.832Zm44.628,0h44.237v12.832h-44.237v-12.832Zm44.628,0h44.238v12.832h-44.238v-12.832Zm44.629,0h44.237v12.832h-44.237v-12.832ZM-2052.2-169.785h44.238v12.833H-2052.2v-12.833Zm44.628,0h44.238v12.833h-44.238v-12.833Zm44.629,0h44.237v12.833h-44.237v-12.833Zm44.628,0h44.238v12.833h-44.238v-12.833Zm44.628,0h44.238v12.833h-44.238v-12.833Zm44.629,0h44.237v12.833h-44.237v-12.833Zm44.627,0h44.238v12.833h-44.238v-12.833Zm44.629,0h44.237v12.833H-1739.8v-12.833Zm44.628,0h44.237v12.833h-44.237v-12.833Zm44.628,0h44.237v12.833h-44.237v-12.833Zm-423.968-13.224h44.238v12.833h-44.238v-12.833Zm44.629,0h44.236v12.833h-44.236v-12.833Zm44.628,0h44.237v12.833h-44.237v-12.833Zm44.628,0h44.237v12.833h-44.237v-12.833Zm44.628,0h44.237v12.833H-1896v-12.833Zm44.629,0h44.236v12.833h-44.236v-12.833Zm44.627,0h44.238v12.833h-44.238v-12.833Zm44.628,0h44.238v12.833h-44.238v-12.833Zm44.628,0h44.237v12.833h-44.237v-12.833Zm44.628,0h44.238v12.833h-44.238v-12.833Zm44.629,0h44.237v12.833h-44.237v-12.833ZM-2052.2-196.233h44.238V-183.4H-2052.2v-12.833Zm44.628,0h44.238V-183.4h-44.238v-12.833Zm44.629,0h44.237V-183.4h-44.237v-12.833Zm44.628,0h44.238V-183.4h-44.238v-12.833Zm44.628,0h44.238V-183.4h-44.238v-12.833Zm44.629,0h44.237V-183.4h-44.237v-12.833Zm44.627,0h44.238V-183.4h-44.238v-12.833Zm44.629,0h44.237V-183.4H-1739.8v-12.833Zm44.628,0h44.237V-183.4h-44.237v-12.833Zm44.628,0h44.237V-183.4h-44.237v-12.833Zm-423.968-13.222h44.238v12.832h-44.238v-12.832Zm44.629,0h44.236v12.832h-44.236v-12.832Zm44.628,0h44.237v12.832h-44.237v-12.832Zm44.628,0h44.237v12.832h-44.237v-12.832Zm44.628,0h44.237v12.832H-1896v-12.832Zm44.629,0h44.236v12.832h-44.236v-12.832Zm44.627,0h44.238v12.832h-44.238v-12.832Zm44.628,0h44.238v12.832h-44.238v-12.832Zm44.628,0h44.237v12.832h-44.237v-12.832Zm44.628,0h44.238v12.832h-44.238v-12.832Zm44.629,0h44.237v12.832h-44.237v-12.832ZM-2052.2-222.677h44.238v12.831H-2052.2v-12.831Zm44.628,0h44.238v12.831h-44.238v-12.831Zm44.629,0h44.237v12.831h-44.237v-12.831Zm44.628,0h44.238v12.831h-44.238v-12.831Zm44.628,0h44.238v12.831h-44.238v-12.831Zm44.629,0h44.237v12.831h-44.237v-12.831Zm44.627,0h44.238v12.831h-44.238v-12.831Zm44.629,0h44.237v12.831H-1739.8v-12.831Zm44.628,0h44.237v12.831h-44.237v-12.831Zm44.628,0h44.237v12.831h-44.237v-12.831ZM-2074.51-235.9h44.238v12.833h-44.238V-235.9Zm44.629,0h44.236v12.833h-44.236V-235.9Zm44.628,0h44.237v12.833h-44.237V-235.9Zm44.628,0h44.237v12.833h-44.237V-235.9Zm44.628,0h44.237v12.833H-1896V-235.9Zm44.629,0h44.236v12.833h-44.236V-235.9Zm44.627,0h44.238v12.833h-44.238V-235.9Zm44.628,0h44.238v12.833h-44.238V-235.9Zm44.628,0h44.237v12.833h-44.237V-235.9Zm44.628,0h44.238v12.833h-44.238V-235.9Zm44.629,0h44.237v12.833h-44.237V-235.9ZM-2052.2-249.124h44.238v12.832H-2052.2v-12.832Zm44.628,0h44.238v12.832h-44.238v-12.832Zm44.629,0h44.237v12.832h-44.237v-12.832Zm44.628,0h44.238v12.832h-44.238v-12.832Zm44.628,0h44.238v12.832h-44.238v-12.832Zm44.629,0h44.237v12.832h-44.237v-12.832Zm44.627,0h44.238v12.832h-44.238v-12.832Zm44.629,0h44.237v12.832H-1739.8v-12.832Zm44.628,0h44.237v12.832h-44.237v-12.832Zm44.628,0h44.237v12.832h-44.237v-12.832Zm-423.968-13.222h44.238v12.832h-44.238v-12.832Zm44.629,0h44.236v12.832h-44.236v-12.832Zm44.628,0h44.237v12.832h-44.237v-12.832Zm44.628,0h44.237v12.832h-44.237v-12.832Zm44.628,0h44.237v12.832H-1896v-12.832Zm44.629,0h44.236v12.832h-44.236v-12.832Zm44.627,0h44.238v12.832h-44.238v-12.832Zm44.628,0h44.238v12.832h-44.238v-12.832Zm44.628,0h44.237v12.832h-44.237v-12.832Zm44.628,0h44.238v12.832h-44.238v-12.832Zm44.629,0h44.237v12.832h-44.237v-12.832ZM-2052.2-275.57h44.238v12.833H-2052.2V-275.57Zm44.628,0h44.238v12.833h-44.238V-275.57Zm44.629,0h44.237v12.833h-44.237V-275.57Zm44.628,0h44.238v12.833h-44.238V-275.57Zm44.628,0h44.238v12.833h-44.238V-275.57Zm44.629,0h44.237v12.833h-44.237V-275.57Zm44.627,0h44.238v12.833h-44.238V-275.57Zm44.629,0h44.237v12.833H-1739.8V-275.57Zm44.628,0h44.237v12.833h-44.237V-275.57Zm44.628,0h44.237v12.833h-44.237V-275.57Zm-423.968-13.223h44.238v12.833h-44.238v-12.833Zm44.629,0h44.236v12.833h-44.236v-12.833Zm44.628,0h44.237v12.833h-44.237v-12.833Zm44.628,0h44.237v12.833h-44.237v-12.833Zm44.628,0h44.237v12.833H-1896v-12.833Zm44.629,0h44.236v12.833h-44.236v-12.833Zm44.627,0h44.238v12.833h-44.238v-12.833Zm44.628,0h44.238v12.833h-44.238v-12.833Zm44.628,0h44.237v12.833h-44.237v-12.833Zm44.628,0h44.238v12.833h-44.238v-12.833Zm44.629,0h44.237v12.833h-44.237v-12.833ZM-2052.2-302.017h44.238v12.834H-2052.2v-12.834Zm44.628,0h44.238v12.834h-44.238v-12.834Zm44.629,0h44.237v12.834h-44.237v-12.834Zm44.628,0h44.238v12.834h-44.238v-12.834Zm44.628,0h44.238v12.834h-44.238v-12.834Zm44.629,0h44.237v12.834h-44.237v-12.834Zm44.627,0h44.238v12.834h-44.238v-12.834Zm44.629,0h44.237v12.834H-1739.8v-12.834Zm44.628,0h44.237v12.834h-44.237v-12.834Zm44.628,0h44.237v12.834h-44.237v-12.834ZM-2074.51-315.24h44.238v12.832h-44.238V-315.24Zm44.629,0h44.236v12.832h-44.236V-315.24Zm44.628,0h44.237v12.832h-44.237V-315.24Zm44.628,0h44.237v12.832h-44.237V-315.24Zm44.628,0h44.237v12.832H-1896V-315.24Zm44.629,0h44.236v12.832h-44.236V-315.24Zm44.627,0h44.238v12.832h-44.238V-315.24Zm44.628,0h44.238v12.832h-44.238V-315.24Zm44.628,0h44.237v12.832h-44.237V-315.24Zm44.628,0h44.238v12.832h-44.238V-315.24Zm44.629,0h44.237v12.832h-44.237V-315.24ZM-2052.2-328.462h44.238v12.832H-2052.2v-12.832Zm44.628,0h44.238v12.832h-44.238v-12.832Zm44.629,0h44.237v12.832h-44.237v-12.832Zm44.628,0h44.238v12.832h-44.238v-12.832Zm44.628,0h44.238v12.832h-44.238v-12.832Zm44.629,0h44.237v12.832h-44.237v-12.832Zm44.627,0h44.238v12.832h-44.238v-12.832Zm44.629,0h44.237v12.832H-1739.8v-12.832Zm44.628,0h44.237v12.832h-44.237v-12.832Zm44.628,0h44.237v12.832h-44.237v-12.832Zm-423.968-13.223h44.238v12.833h-44.238v-12.833Zm44.629,0h44.236v12.833h-44.236v-12.833Zm44.628,0h44.237v12.833h-44.237v-12.833Zm44.628,0h44.237v12.833h-44.237v-12.833Zm44.628,0h44.237v12.833H-1896v-12.833Zm44.629,0h44.236v12.833h-44.236v-12.833Zm44.627,0h44.238v12.833h-44.238v-12.833Zm44.628,0h44.238v12.833h-44.238v-12.833Zm44.628,0h44.237v12.833h-44.237v-12.833Zm44.628,0h44.238v12.833h-44.238v-12.833Zm44.629,0h44.237v12.833h-44.237v-12.833ZM-2052.2-354.908h44.238v12.833H-2052.2v-12.833Zm44.628,0h44.238v12.833h-44.238v-12.833Zm44.629,0h44.237v12.833h-44.237v-12.833Zm44.628,0h44.238v12.833h-44.238v-12.833Zm44.628,0h44.238v12.833h-44.238v-12.833Zm44.629,0h44.237v12.833h-44.237v-12.833Zm44.627,0h44.238v12.833h-44.238v-12.833Zm44.629,0h44.237v12.833H-1739.8v-12.833Zm44.628,0h44.237v12.833h-44.237v-12.833Zm44.628,0h44.237v12.833h-44.237v-12.833Zm-423.968-13.223h44.238V-355.3h-44.238v-12.832Zm44.629,0h44.236V-355.3h-44.236v-12.832Zm44.628,0h44.237V-355.3h-44.237v-12.832Zm44.628,0h44.237V-355.3h-44.237v-12.832Zm44.628,0h44.237V-355.3H-1896v-12.832Zm44.629,0h44.236V-355.3h-44.236v-12.832Zm44.627,0h44.238V-355.3h-44.238v-12.832Zm44.628,0h44.238V-355.3h-44.238v-12.832Zm44.628,0h44.237V-355.3h-44.237v-12.832Zm44.628,0h44.238V-355.3h-44.238v-12.832Zm44.629,0h44.237V-355.3h-44.237v-12.832ZM-2052.2-381.355h44.238v12.833H-2052.2v-12.833Zm44.628,0h44.238v12.833h-44.238v-12.833Zm44.629,0h44.237v12.833h-44.237v-12.833Zm44.628,0h44.238v12.833h-44.238v-12.833Zm44.628,0h44.238v12.833h-44.238v-12.833Zm44.629,0h44.237v12.833h-44.237v-12.833Zm44.627,0h44.238v12.833h-44.238v-12.833Zm44.629,0h44.237v12.833H-1739.8v-12.833Zm44.628,0h44.237v12.833h-44.237v-12.833Zm44.628,0h44.237v12.833h-44.237v-12.833Zm-423.968-13.223h44.238v12.832h-44.238v-12.832Zm44.629,0h44.236v12.832h-44.236v-12.832Zm44.628,0h44.237v12.832h-44.237v-12.832Zm44.628,0h44.237v12.832h-44.237v-12.832Zm44.628,0h44.237v12.832H-1896v-12.832Zm44.629,0h44.236v12.832h-44.236v-12.832Zm44.627,0h44.238v12.832h-44.238v-12.832Zm44.628,0h44.238v12.832h-44.238v-12.832Zm44.628,0h44.237v12.832h-44.237v-12.832Zm44.628,0h44.238v12.832h-44.238v-12.832Zm44.629,0h44.237v12.832h-44.237v-12.832ZM-2052.2-407.8h44.238v12.832H-2052.2V-407.8Zm44.628,0h44.238v12.832h-44.238V-407.8Zm44.629,0h44.237v12.832h-44.237V-407.8Zm44.628,0h44.238v12.832h-44.238V-407.8Zm44.628,0h44.238v12.832h-44.238V-407.8Zm44.629,0h44.237v12.832h-44.237V-407.8Zm44.627,0h44.238v12.832h-44.238V-407.8Zm44.629,0h44.237v12.832H-1739.8V-407.8Zm44.628,0h44.237v12.832h-44.237V-407.8Zm44.628,0h44.237v12.832h-44.237V-407.8Zm-423.968-13.223h44.238v12.832h-44.238v-12.832Zm44.629,0h44.236v12.832h-44.236v-12.832Zm44.628,0h44.237v12.832h-44.237v-12.832Zm44.628,0h44.237v12.832h-44.237v-12.832Zm44.628,0h44.237v12.832H-1896v-12.832Zm44.629,0h44.236v12.832h-44.236v-12.832Zm44.627,0h44.238v12.832h-44.238v-12.832Zm44.628,0h44.238v12.832h-44.238v-12.832Zm44.628,0h44.237v12.832h-44.237v-12.832Zm44.628,0h44.238v12.832h-44.238v-12.832Zm44.629,0h44.237v12.832h-44.237v-12.832ZM-2052.2-434.246h44.238v12.832H-2052.2v-12.832Zm44.628,0h44.238v12.832h-44.238v-12.832Zm44.629,0h44.237v12.832h-44.237v-12.832Zm44.628,0h44.238v12.832h-44.238v-12.832Zm44.628,0h44.238v12.832h-44.238v-12.832Zm44.629,0h44.237v12.832h-44.237v-12.832Zm44.627,0h44.238v12.832h-44.238v-12.832Zm44.629,0h44.237v12.832H-1739.8v-12.832Zm44.628,0h44.237v12.832h-44.237v-12.832Zm44.628,0h44.237v12.832h-44.237v-12.832Zm-423.968-13.223h44.238v12.832h-44.238v-12.832Zm44.629,0h44.236v12.832h-44.236v-12.832Zm44.628,0h44.237v12.832h-44.237v-12.832Zm44.628,0h44.237v12.832h-44.237v-12.832Zm44.628,0h44.237v12.832H-1896v-12.832Zm44.629,0h44.236v12.832h-44.236v-12.832Zm44.627,0h44.238v12.832h-44.238v-12.832Zm44.628,0h44.238v12.832h-44.238v-12.832Zm44.628,0h44.237v12.832h-44.237v-12.832Zm44.628,0h44.238v12.832h-44.238v-12.832Zm44.629,0h44.237v12.832h-44.237v-12.832ZM-2052.2-460.693h44.238v12.834H-2052.2v-12.834Zm44.628,0h44.238v12.834h-44.238v-12.834Zm44.629,0h44.237v12.834h-44.237v-12.834Zm44.628,0h44.238v12.834h-44.238v-12.834Zm44.628,0h44.238v12.834h-44.238v-12.834Zm44.629,0h44.237v12.834h-44.237v-12.834Zm44.627,0h44.238v12.834h-44.238v-12.834Zm44.629,0h44.237v12.834H-1739.8v-12.834Zm44.628,0h44.237v12.834h-44.237v-12.834Zm44.628,0h44.237v12.834h-44.237v-12.834Zm-423.968-13.222h44.238v12.832h-44.238v-12.832Zm44.629,0h44.236v12.832h-44.236v-12.832Zm44.628,0h44.237v12.832h-44.237v-12.832Zm44.628,0h44.237v12.832h-44.237v-12.832Zm44.628,0h44.237v12.832H-1896v-12.832Zm44.629,0h44.236v12.832h-44.236v-12.832Zm44.627,0h44.238v12.832h-44.238v-12.832Zm44.628,0h44.238v12.832h-44.238v-12.832Zm44.628,0h44.237v12.832h-44.237v-12.832Zm44.628,0h44.238v12.832h-44.238v-12.832Zm44.629,0h44.237v12.832h-44.237v-12.832ZM-2052.2-487.138h44.238v12.832H-2052.2v-12.832Zm44.628,0h44.238v12.832h-44.238v-12.832Zm44.629,0h44.237v12.832h-44.237v-12.832Zm44.628,0h44.238v12.832h-44.238v-12.832Zm44.628,0h44.238v12.832h-44.238v-12.832Zm44.629,0h44.237v12.832h-44.237v-12.832Zm44.627,0h44.238v12.832h-44.238v-12.832Zm44.629,0h44.237v12.832H-1739.8v-12.832Zm44.628,0h44.237v12.832h-44.237v-12.832Zm44.628,0h44.237v12.832h-44.237v-12.832Zm-423.968-13.222h44.238v12.832h-44.238v-12.832Zm44.629,0h44.236v12.832h-44.236v-12.832Zm44.628,0h44.237v12.832h-44.237v-12.832Zm44.628,0h44.237v12.832h-44.237v-12.832Zm44.628,0h44.237v12.832H-1896v-12.832Zm44.629,0h44.236v12.832h-44.236v-12.832Zm44.627,0h44.238v12.832h-44.238v-12.832Zm44.628,0h44.238v12.832h-44.238v-12.832Zm44.628,0h44.237v12.832h-44.237v-12.832Zm44.628,0h44.238v12.832h-44.238v-12.832Zm44.629,0h44.237v12.832h-44.237v-12.832ZM-2052.2-513.585h44.238v12.832H-2052.2v-12.832Zm44.628,0h44.238v12.832h-44.238v-12.832Zm44.629,0h44.237v12.832h-44.237v-12.832Zm44.628,0h44.238v12.832h-44.238v-12.832Zm44.628,0h44.238v12.832h-44.238v-12.832Zm44.629,0h44.237v12.832h-44.237v-12.832Zm44.627,0h44.238v12.832h-44.238v-12.832Zm44.629,0h44.237v12.832H-1739.8v-12.832Zm44.628,0h44.237v12.832h-44.237v-12.832Zm44.628,0h44.237v12.832h-44.237v-12.832Zm-423.968-13.223h44.238v12.832h-44.238v-12.832Zm44.629,0h44.236v12.832h-44.236v-12.832Zm44.628,0h44.237v12.832h-44.237v-12.832Zm44.628,0h44.237v12.832h-44.237v-12.832Zm44.628,0h44.237v12.832H-1896v-12.832Zm44.629,0h44.236v12.832h-44.236v-12.832Zm44.627,0h44.238v12.832h-44.238v-12.832Zm44.628,0h44.238v12.832h-44.238v-12.832Zm44.628,0h44.237v12.832h-44.237v-12.832Zm44.628,0h44.238v12.832h-44.238v-12.832Zm44.629,0h44.237v12.832h-44.237v-12.832ZM-2052.2-540.03h44.238V-527.2H-2052.2V-540.03Zm44.628,0h44.238V-527.2h-44.238V-540.03Zm44.629,0h44.237V-527.2h-44.237V-540.03Zm44.628,0h44.238V-527.2h-44.238V-540.03Zm44.628,0h44.238V-527.2h-44.238V-540.03Zm44.629,0h44.237V-527.2h-44.237V-540.03Zm44.627,0h44.238V-527.2h-44.238V-540.03Zm44.629,0h44.237V-527.2H-1739.8V-540.03Zm44.628,0h44.237V-527.2h-44.237V-540.03Zm44.628,0h44.237V-527.2h-44.237V-540.03Zm-423.968-13.224h44.238v12.833h-44.238v-12.833Zm44.629,0h44.236v12.833h-44.236v-12.833Zm44.628,0h44.237v12.833h-44.237v-12.833Zm44.628,0h44.237v12.833h-44.237v-12.833Zm44.628,0h44.237v12.833H-1896v-12.833Zm44.629,0h44.236v12.833h-44.236v-12.833Zm44.627,0h44.238v12.833h-44.238v-12.833Zm44.628,0h44.238v12.833h-44.238v-12.833Zm44.628,0h44.237v12.833h-44.237v-12.833Zm44.628,0h44.238v12.833h-44.238v-12.833Zm44.629,0h44.237v12.833h-44.237v-12.833ZM-2052.2-566.477h44.238v12.832H-2052.2v-12.832Zm44.628,0h44.238v12.832h-44.238v-12.832Zm44.629,0h44.237v12.832h-44.237v-12.832Zm44.628,0h44.238v12.832h-44.238v-12.832Zm44.628,0h44.238v12.832h-44.238v-12.832Zm44.629,0h44.237v12.832h-44.237v-12.832Zm44.627,0h44.238v12.832h-44.238v-12.832Zm44.629,0h44.237v12.832H-1739.8v-12.832Zm44.628,0h44.237v12.832h-44.237v-12.832Zm44.628,0h44.237v12.832h-44.237v-12.832ZM-2074.51-579.7h44.238v12.832h-44.238V-579.7Zm44.629,0h44.236v12.832h-44.236V-579.7Zm44.628,0h44.237v12.832h-44.237V-579.7Zm44.628,0h44.237v12.832h-44.237V-579.7Zm44.628,0h44.237v12.832H-1896V-579.7Zm44.629,0h44.236v12.832h-44.236V-579.7Zm44.627,0h44.238v12.832h-44.238V-579.7Zm44.628,0h44.238v12.832h-44.238V-579.7Zm44.628,0h44.237v12.832h-44.237V-579.7Zm44.628,0h44.238v12.832h-44.238V-579.7Zm44.629,0h44.237v12.832h-44.237V-579.7ZM-2052.2-592.922h44.238v12.832H-2052.2v-12.832Zm44.628,0h44.238v12.832h-44.238v-12.832Zm44.629,0h44.237v12.832h-44.237v-12.832Zm44.628,0h44.238v12.832h-44.238v-12.832Zm44.628,0h44.238v12.832h-44.238v-12.832Zm44.629,0h44.237v12.832h-44.237v-12.832Zm44.627,0h44.238v12.832h-44.238v-12.832Zm44.629,0h44.237v12.832H-1739.8v-12.832Zm44.628,0h44.237v12.832h-44.237v-12.832Zm44.628,0h44.237v12.832h-44.237Z" transform="translate(2088 600.63)" fill="#e79b96" fill-rule="evenodd"/>
        </g>
        <rect id="Rectángulo_1154" data-name="Rectángulo 1154" width="2.221" height="517.5" transform="translate(252.654)" fill="#e79b96"/>
        <rect id="Rectángulo_1155" data-name="Rectángulo 1155" width="252.654" height="517.5" fill="#e8eaf6"/>
        <rect id="Rectángulo_1156" data-name="Rectángulo 1156" width="24.785" height="517.5" transform="translate(227.869)" fill="#fff"/>
        <path id="Trazado_17791" data-name="Trazado 17791" d="M-1879.547-170.5v-19.9L-2088-382.946v19.9L-1879.547-170.5Zm0-36.512L-2088-399.562v-39.792l208.453,192.548v39.792Zm0-163.837L-2088-563.4v-16.579l208.453,192.547v16.579Zm0-30.424v-33.159l-179.926-166.2H-2088v6.808Z" transform="translate(2088 600.63)" fill="#f5f6fb" fill-rule="evenodd"/>
        <path id="Trazado_17792" data-name="Trazado 17792" d="M-2030.159-83.131h8.327v-10.54h62.815v10.54h8.327v-10.54h62.817v10.54h8.327v-517.5h-8.327v64.438h-62.817V-600.63h-8.327v64.438h-62.815V-600.63h-8.327v64.438H-2088v6.781h57.841v64.731H-2088v6.781h57.841v64.731H-2088v6.781h57.841v71.4H-2088v6.781h57.841v64.73H-2088v6.781h57.841v64.73H-2088v6.781h57.841v64.731H-2088v6.781h57.841v10.54Zm8.327-255.053v-48.2h62.815v71.4h-62.815v-23.2Zm71.142,0v-48.2h62.817v71.4h-62.817v-23.2Zm-71.142,237.732v-64.731h62.815v64.731Zm71.142,0v-64.731h62.817v64.731Zm-71.142-71.512v-64.73h62.815v64.73Zm71.142,0v-64.73h62.817v64.73Zm-71.142-71.511V-308.2h62.815v64.73Zm71.142,0V-308.2h62.817v64.73Zm-71.142-149.694V-457.9h62.815v64.731Zm71.142,0V-457.9h62.817v64.731Zm-71.142-71.512v-64.731h62.815v64.731Zm71.142,0v-64.731h62.817v64.731Z" transform="translate(2088 600.63)" fill="#c2c3e3" fill-rule="evenodd"/>
        <path id="Trazado_17793" data-name="Trazado 17793" d="M-2027.686-83.131h8.327v-12.4h62.815v12.4h8.327v-12.4h62.817v12.4h8.325v-517.5h-8.325v62.576h-62.817V-600.63h-8.327v62.576h-62.815V-600.63h-8.327v62.576H-2088v6.781h60.314v64.73H-2088v6.781h60.314v64.731H-2088v6.781h60.314v71.4H-2088v6.781h60.314v64.731H-2088v6.781h60.314v64.731H-2088v6.781h60.314v64.73H-2088v6.782h60.314v12.4Zm8.327-256.914v-48.2h62.815v71.4h-62.815v-23.2Zm71.142,0v-48.2h62.817v71.4h-62.817v-23.2Zm-71.142,237.732v-64.73h62.815v64.73Zm71.142,0v-64.73h62.817v64.73Zm-71.142-71.511v-64.731h62.815v64.731Zm71.142,0v-64.731h62.817v64.731Zm-71.142-71.511v-64.731h62.815v64.731Zm71.142,0v-64.731h62.817v64.731Zm-71.142-149.695v-64.731h62.815v64.731Zm71.142,0v-64.731h62.817v64.731Zm-71.142-71.512v-64.73h62.815v64.73Zm71.142,0v-64.73h62.817v64.73Z" transform="translate(2088 600.63)" fill="#fff" fill-rule="evenodd"/>
        <rect id="Rectángulo_1157" data-name="Rectángulo 1157" width="2.221" height="517.5" transform="translate(225.648)" fill="#c2c3e3"/>
        <path id="Trazado_17794" data-name="Trazado 17794" d="M-2088-378.094h73.5a2.771,2.771,0,0,1,2.762,2.763v241.718a18.229,18.229,0,0,0-10.093-3.043H-2088Z" transform="translate(2088 578.029)" fill="#fdefe9" fill-rule="evenodd"/>
        <path id="Trazado_17795" data-name="Trazado 17795" d="M-2009.991-321.152V-127.83a18.229,18.229,0,0,0-10.093-3.043h-50.006a23.185,23.185,0,0,1-.692-5.627V-297.8a23.426,23.426,0,0,1,23.357-23.357Z" transform="translate(2086.251 572.246)" fill="#fff" fill-rule="evenodd"/>
        <path id="Trazado_17796" data-name="Trazado 17796" d="M-2088-172.642l2.166.276,18.683-2.814-11.117-17.452H-2088Z" transform="translate(2088 559.193)" fill="#3f4154" fill-rule="evenodd"/>
        <path id="Trazado_17797" data-name="Trazado 17797" d="M-1869.492-298.1h-26.082a3.87,3.87,0,0,1-3.859-3.858h0a3.871,3.871,0,0,1,3.859-3.861h26.082a3.871,3.871,0,0,1,3.859,3.861h0A3.87,3.87,0,0,1-1869.492-298.1Z" transform="translate(2068.849 570.689)" fill="#00000f" fill-rule="evenodd"/>
        <path id="Rectángulo_1158" data-name="Rectángulo 1158" d="M2.143,0h24.3a2.143,2.143,0,0,1,2.143,2.143V8.306a2.144,2.144,0,0,1-2.144,2.144H2.143A2.143,2.143,0,0,1,0,8.307V2.143A2.143,2.143,0,0,1,2.143,0Z" transform="translate(1.161 378.518)" fill="#fff"/>
        <rect id="Rectángulo_1159" data-name="Rectángulo 1159" width="28.587" height="10.449" rx="2.143" transform="translate(1.94 379.432)" fill="#fad0be"/>
        <rect id="Rectángulo_1160" data-name="Rectángulo 1160" width="28.587" height="10.45" rx="2.143" transform="translate(3.495 380.913)" fill="#fff"/>
        <path id="Trazado_17798" data-name="Trazado 17798" d="M-2011.318-380.485H-2088v29.078h76.682a7.684,7.684,0,0,0,7.663-7.662v-13.753A7.685,7.685,0,0,0-2011.318-380.485Z" transform="translate(2088 578.272)" fill="#fff" fill-rule="evenodd"/>
        <g id="Grupo_6918" data-name="Grupo 6918" transform="translate(0 165.831)">
          <rect id="Rectángulo_1161" data-name="Rectángulo 1161" width="30.809" height="5.535" transform="translate(0 24.511)" fill="#fafcfc"/>
          <path id="Trazado_17799" data-name="Trazado 17799" d="M-2062.119-388.5a1.2,1.2,0,0,1-1.2-1.2,1.2,1.2,0,0,1,1.2-1.2h42.641a4.665,4.665,0,0,1,3.3,1.373l0,0a4.665,4.665,0,0,1,1.373,3.3,4.665,4.665,0,0,1-1.373,3.3,4.649,4.649,0,0,1-3.3,1.377h-42.641a1.2,1.2,0,0,1-1.2-1.2,1.2,1.2,0,0,1,1.2-1.2h1.953a7.549,7.549,0,0,0,.94-.816,2.532,2.532,0,0,0,.879-1.888,2.9,2.9,0,0,0-1.127-1.865Z" transform="translate(2085.493 413.498)" fill="#ced6d7" fill-rule="evenodd"/>
          <path id="Trazado_17800" data-name="Trazado 17800" d="M-2088-390.9h23.928a4.663,4.663,0,0,1,3.3,1.373l.006,0a4.666,4.666,0,0,1,1.373,3.3,4.666,4.666,0,0,1-1.373,3.3,4.651,4.651,0,0,1-3.3,1.377H-2088v-2.393h23.928a2.278,2.278,0,0,0,1.612-.671,2.27,2.27,0,0,0,.672-1.613,2.286,2.286,0,0,0-.67-1.615,2.282,2.282,0,0,0-1.614-.669H-2088Z" transform="translate(2088 413.498)" fill="#adbfc2" fill-rule="evenodd"/>
          <rect id="Rectángulo_1162" data-name="Rectángulo 1162" width="50.607" height="6.716" transform="translate(13.535 13.928)" fill="#fafcfc"/>
          <path id="Trazado_17801" data-name="Trazado 17801" d="M-2065.443-400.225a1.451,1.451,0,0,0,1.45-1.452,1.45,1.45,0,0,0-1.45-1.451H-2088v11.348h22.557a1.451,1.451,0,0,0,1.45-1.452,1.45,1.45,0,0,0-1.45-1.45h-2.371a9.2,9.2,0,0,1-1.141-.991,3.077,3.077,0,0,1-1.065-2.289,3.518,3.518,0,0,1,1.367-2.263Z" transform="translate(2088 414.74)" fill="#a7a8c9" fill-rule="evenodd"/>
          <path id="Trazado_17802" data-name="Trazado 17802" d="M-2022.025-400.225a1.452,1.452,0,0,0,1.451-1.452,1.451,1.451,0,0,0-1.451-1.451h-42.259a5.658,5.658,0,0,0-4,1.665l-.005.006a5.657,5.657,0,0,0-1.665,4,5.66,5.66,0,0,0,1.665,4,5.645,5.645,0,0,0,4.008,1.67h42.259a1.452,1.452,0,0,0,1.451-1.452,1.451,1.451,0,0,0-1.451-1.45h-42.259a2.766,2.766,0,0,1-1.956-.816,2.752,2.752,0,0,1-.815-1.957,2.769,2.769,0,0,1,.812-1.959,2.771,2.771,0,0,1,1.959-.812Z" transform="translate(2086.167 414.74)" fill="#c2c3e3" fill-rule="evenodd"/>
          <rect id="Rectángulo_1163" data-name="Rectángulo 1163" width="26.511" height="6.872" transform="translate(0 2.37)" fill="#fafcfc"/>
          <path id="Trazado_17803" data-name="Trazado 17803" d="M-2068.935-413.084a1.485,1.485,0,0,1-1.485-1.484,1.486,1.486,0,0,1,1.485-1.485h24.211a5.791,5.791,0,0,1,4.1,1.7l.006.006a5.789,5.789,0,0,1,1.7,4.1,5.79,5.79,0,0,1-1.7,4.1,5.772,5.772,0,0,1-4.1,1.71h-24.211a1.485,1.485,0,0,1-1.485-1.484,1.486,1.486,0,0,1,1.485-1.485h2.424a9.291,9.291,0,0,0,1.167-1.013,3.15,3.15,0,0,0,1.092-2.344,3.6,3.6,0,0,0-1.4-2.315Z" transform="translate(2086.214 416.053)" fill="#2c2f48" fill-rule="evenodd"/>
          <path id="Trazado_17804" data-name="Trazado 17804" d="M-2088-416.053h17.967a5.789,5.789,0,0,1,4.1,1.7l0,.006a5.783,5.783,0,0,1,1.7,4.1,5.784,5.784,0,0,1-1.7,4.1,5.766,5.766,0,0,1-4.1,1.71H-2088v-2.969h17.967a2.833,2.833,0,0,0,2-.835,2.818,2.818,0,0,0,.834-2,2.84,2.84,0,0,0-.831-2.005,2.844,2.844,0,0,0-2.005-.831H-2088Z" transform="translate(2088 416.053)" fill="#3f4154" fill-rule="evenodd"/>
        </g>
        <path id="Trazado_17805" data-name="Trazado 17805" d="M-2020.754-175.18l-25.065,4.888-18.974-4.888,11.117-17.452h44.039Z" transform="translate(2085.643 559.193)" fill="#575a6d" fill-rule="evenodd"/>
        <rect id="Rectángulo_1164" data-name="Rectángulo 1164" width="24.092" height="53.074" transform="translate(0 384.013)" fill="#575a6d"/>
        <rect id="Rectángulo_1165" data-name="Rectángulo 1165" width="44.039" height="53.074" transform="translate(20.85 384.013)" fill="#313448"/>
        <path id="Trazado_17806" data-name="Trazado 17806" d="M-2051.356-118.857h31.966v-41.792h-24.923a7.064,7.064,0,0,0-7.043,7.043Z" transform="translate(2084.278 555.945)" fill="#3f4154" fill-rule="evenodd"/>
        <g id="Grupo_6919" data-name="Grupo 6919" transform="translate(136.421 249.38)">
          <path id="Trazado_17807" data-name="Trazado 17807" d="M-1926.563-320.134h-5.62a3.966,3.966,0,0,0-2.808,1.167,3.962,3.962,0,0,0-1.167,2.808v4.73a3.966,3.966,0,0,0,1.167,2.809,3.965,3.965,0,0,0,2.808,1.166h5.62a3.961,3.961,0,0,0,2.807-1.166,3.963,3.963,0,0,0,1.167-2.809v-4.73a3.959,3.959,0,0,0-1.167-2.808,3.962,3.962,0,0,0-2.807-1.167Zm-5.62,1.541h5.62a2.426,2.426,0,0,1,1.717.716,2.428,2.428,0,0,1,.716,1.718v4.73a2.428,2.428,0,0,1-.716,1.718,2.425,2.425,0,0,1-1.717.715h-5.62a2.427,2.427,0,0,1-1.718-.715,2.43,2.43,0,0,1-.715-1.718v-4.73a2.427,2.427,0,0,1,.715-1.718A2.427,2.427,0,0,1-1932.183-318.593Z" transform="translate(1936.158 322.762)" fill="#e8e6ec" fill-rule="evenodd"/>
          <path id="Trazado_17808" data-name="Trazado 17808" d="M-1930.685-313.451v6.039a3.711,3.711,0,0,0,3.7,3.7h5.464a3.71,3.71,0,0,0,3.7-3.7v-14.4a1.252,1.252,0,0,0-1.248-1.25h-10.365a1.254,1.254,0,0,0-1.25,1.25Z" transform="translate(1935.602 323.059)" fill="#fff" fill-rule="evenodd"/>
          <path id="Trazado_17809" data-name="Trazado 17809" d="M-1927.479-317.15v6.038a3.681,3.681,0,0,0,.481,1.818,3.751,3.751,0,0,0,1.582,1.5,3.662,3.662,0,0,0,1.637.385h5.958a3.71,3.71,0,0,1-3.7,3.7h-5.464a3.711,3.711,0,0,1-3.7-3.7v-14.4a1.254,1.254,0,0,1,1.25-1.25h1.956v5.909Z" transform="translate(1935.602 323.059)" fill="#e8e6ec" fill-rule="evenodd"/>
        </g>
        <path id="Trazado_17810" data-name="Trazado 17810" d="M-1907.983-337.319h0a1.616,1.616,0,0,1,1.612,1.612h0a1.616,1.616,0,0,1-1.612,1.613h0a1.616,1.616,0,0,1-1.612-1.613h0A1.616,1.616,0,0,1-1907.983-337.319Z" transform="translate(2069.881 573.888)" fill="#fff" fill-rule="evenodd"/>
        <path id="Trazado_17811" data-name="Trazado 17811" d="M-1928.582-332.86h4.477a.619.619,0,0,0,.618-.617h0a.619.619,0,0,0-.618-.617h-6.024a1.617,1.617,0,0,1-1.612-1.613h0a1.617,1.617,0,0,1,1.612-1.612h15.666a1.616,1.616,0,0,1,1.613,1.612h0a1.616,1.616,0,0,1-1.613,1.613h-5.464a.618.618,0,0,0-.616.617h0a.619.619,0,0,0,.616.617h2.1a1.249,1.249,0,0,1,1.245,1.245h0a1.249,1.249,0,0,1-1.245,1.244h-3.477a2.481,2.481,0,0,0-2.473,2.474v1.134a.586.586,0,0,1-.585.585h0a.585.585,0,0,1-.584-.585v-2.157a1.455,1.455,0,0,0-1.451-1.451h-2.187a1.248,1.248,0,0,1-1.244-1.244h0A1.248,1.248,0,0,1-1928.582-332.86Z" transform="translate(2072.13 573.888)" fill="#fff" fill-rule="evenodd"/>
      </g>
      <rect id="Rectángulo_1166" data-name="Rectángulo 1166" width="142.86" height="517.5" transform="translate(252.358)" fill="url(#linear-gradient)"/>
      <rect id="Rectángulo_1167" data-name="Rectángulo 1167" width="524.525" height="517.5" transform="translate(395.475)" fill="#f3c9c7"/>
      <g id="Grupo_6976" data-name="Grupo 6976" transform="translate(18.312 137.094)">
        <g id="Grupo_6922" data-name="Grupo 6922" transform="translate(50.326 250.72)">
          <path id="Trazado_17812" data-name="Trazado 17812" d="M-1994.544-88.939a17.9,17.9,0,0,1-.349-11.2c3-9.992-2.892-12.372-10.609-16.192s-7.931-13.425-1.686-20.916-3.4-14.636,1.249-26.273,16.992-2.713,18.984,8.5c1.43,8.06,11.92,7.143,14.969,17.688,2.651,9.152-9.147,16.515,3.438,21.583,4.02,1.617,6.054,4.953,6.964,8.745a18.555,18.555,0,0,1-2.163,13.885Z" transform="translate(2011.604 168.976)" fill="#3149b9"/>
          <g id="Grupo_6921" data-name="Grupo 6921" transform="translate(14.581 17.894)">
            <path id="Trazado_17813" data-name="Trazado 17813" d="M-1976.641-89.121l-18.687-58.67a.975.975,0,0,1,.632-1.223.973.973,0,0,1,1.223.632l18.79,58.994Z" transform="translate(1995.374 149.059)" fill="#2039a5"/>
          </g>
        </g>
        <g id="Grupo_6924" data-name="Grupo 6924" transform="translate(0 247.711)">
          <path id="Trazado_17814" data-name="Trazado 17814" d="M-2031.931-86.639a22.02,22.02,0,0,1-.11-2.561c.223-13.282-7.82-14.163-18.6-16.177s-14.359-13.715-9.293-25.052-9.22-16.763-7.55-32.631,19.889-9.2,26.2,3.853c4.538,9.384,17.078,4.637,24.458,16.506,6.41,10.3-5.5,23.4,11.671,25.264,5.486.593,9.133,3.978,11.557,8.311a23.8,23.8,0,0,1,.323,22.486Z" transform="translate(2067.618 172.326)" fill="#4071c9"/>
          <g id="Grupo_6923" data-name="Grupo 6923" transform="translate(15.653 21.04)">
            <path id="Trazado_17815" data-name="Trazado 17815" d="M-2008.612-84.261l-41.379-62.725a1.239,1.239,0,0,1,.353-1.717,1.24,1.24,0,0,1,1.717.353l42.279,64.089Z" transform="translate(2050.196 148.908)" fill="#3149b9"/>
          </g>
        </g>
        <g id="Grupo_6975" data-name="Grupo 6975" transform="translate(20.318)">
          <g id="Grupo_6974" data-name="Grupo 6974">
            <g id="Grupo_6966" data-name="Grupo 6966">
              <g id="Grupo_6925" data-name="Grupo 6925" transform="translate(0 224.234)">
                <path id="Trazado_17816" data-name="Trazado 17816" d="M-2011.807-84.9h64.6a11.963,11.963,0,0,0-3.516-8.484,11.94,11.94,0,0,0-8.484-3.516h-.112s-13.709-1.789-13.709-12.987V-176.7h-12.959v66.816c0,11.2-13.709,12.987-13.709,12.987h-.112A12,12,0,0,0-2011.807-84.9Z" transform="translate(2041.631 196.247)" fill="#3149b9"/>
                <path id="Trazado_17817" data-name="Trazado 17817" d="M-1983.066-176.7v2.658l12.958,3.847v-6.5Z" transform="translate(2038.712 196.247)" fill="#2039a5"/>
                <path id="Trazado_17818" data-name="Trazado 17818" d="M-2045-178.915h124.25a23.777,23.777,0,0,0-23.464-19.541l-38.661.1-38.661-.1A23.778,23.778,0,0,0-2045-178.915Z" transform="translate(2045.003 198.456)" fill="#4071c9"/>
              </g>
              <g id="Grupo_6965" data-name="Grupo 6965" transform="translate(15.228)">
                <g id="Grupo_6926" data-name="Grupo 6926" transform="translate(52.084 82.136)">
                  <path id="Trazado_17819" data-name="Trazado 17819" d="M-1951.163-355.831c3.45,12.751,20.842,45.969,27.595,50.729,8.79,6.2,36.349,17.829,50.685,23.761,2.587,1.07-7.006,12.388-7.006,12.388s-37.073-9.427-52.177-19.068c-4.272-2.728-13.529-11.99-25.248-30.557-3.553-5.63-11.779-16.817-12.693-24.807C-1971.058-352.581-1960.7-358.908-1951.163-355.831Z" transform="translate(1970.081 356.617)" fill="#e08820"/>
                </g>
                <g id="Grupo_6962" data-name="Grupo 6962" transform="translate(1.608)">
                  <g id="Grupo_6931" data-name="Grupo 6931" transform="translate(72.843 184.993)">
                    <g id="Grupo_6930" data-name="Grupo 6930" transform="translate(34.822 119.16)">
                      <path id="Trazado_17820" data-name="Trazado 17820" d="M-1902.969-109.5l-.478,13.874s3.428,2.541,10.521,1.278l2.9-14.92Z" transform="translate(1906.124 109.503)" fill="#e7a592"/>
                      <g id="Grupo_6929" data-name="Grupo 6929" transform="translate(0 10.108)">
                        <g id="Grupo_6928" data-name="Grupo 6928">
                          <g id="Grupo_6927" data-name="Grupo 6927">
                            <path id="Trazado_17821" data-name="Trazado 17821" d="M-1894.735-95.019s2.417-3.345,4.374-3.231,17.225,11.9,22.411,12.813,4.928,7.365,2.891,8.1c-2.32.836-40.658.118-40.658.118s-1.457-13.64-.193-17.327S-1898.767-94.092-1894.735-95.019Z" transform="translate(1906.426 98.252)" fill="#e08820"/>
                          </g>
                        </g>
                      </g>
                    </g>
                    <path id="Trazado_17822" data-name="Trazado 17822" d="M-1943.476-241.211s62.541-6.107,72.012,13.1c6.378,12.938-21.467,108.865-21.467,108.865-5.609,1.748-13.4-.686-16.446-3.73,0,0-4.954-13.344-.4-51.95.6-5.13,0-16.835,5.464-37.562l-40.868-18.042Z" transform="translate(1945.185 242.134)" fill="#222046"/>
                  </g>
                  <g id="Grupo_6935" data-name="Grupo 6935" transform="translate(0 65.851)">
                    <path id="Trazado_17823" data-name="Trazado 17823" d="M-1999.515-373.928s-14.877,4.858-22.831,11.841-1.3,27.824-1.5,39.657,1.757,80.536,18.71,89.167c12.8,6.519,66.694-3.379,62.753-20.942a575.085,575.085,0,0,1-11.042-62.2c-2.277-19.16-1.316-33.314-3.45-41.268s-27.042-17.072-27.042-17.072Z" transform="translate(2026.263 374.744)" fill="#eaa928"/>
                    <g id="Grupo_6932" data-name="Grupo 6932" transform="translate(22.493 5.458)">
                      <path id="Trazado_17824" data-name="Trazado 17824" d="M-1985.869-359.157c-7.759,0-14.917-8.247-15.227-8.609a.547.547,0,0,1,.059-.771.548.548,0,0,1,.773.058c.075.087,7.57,8.724,15.063,8.2a.549.549,0,0,1,.584.508.548.548,0,0,1-.508.584C-1985.373-359.165-1985.622-359.157-1985.869-359.157Z" transform="translate(2001.227 368.669)" fill="#e08820"/>
                    </g>
                    <g id="Grupo_6933" data-name="Grupo 6933" transform="translate(30.578 68.852)">
                      <path id="Trazado_17825" data-name="Trazado 17825" d="M-1991.682-259.246a.547.547,0,0,1-.543-.485.547.547,0,0,1,.481-.606c20.042-2.306,28.344-37,28.426-37.348a.547.547,0,0,1,.657-.409.548.548,0,0,1,.41.658c-.341,1.46-8.567,35.793-29.366,38.187A.513.513,0,0,1-1991.682-259.246Z" transform="translate(1992.228 298.109)" fill="#e08820"/>
                    </g>
                    <g id="Grupo_6934" data-name="Grupo 6934" transform="translate(38.557 79.381)">
                      <path id="Trazado_17826" data-name="Trazado 17826" d="M-1982.8-268.553a.547.547,0,0,1-.466-.261.546.546,0,0,1,.179-.753c10.659-6.572,12.244-16.259,12.259-16.357a.544.544,0,0,1,.623-.459.547.547,0,0,1,.46.622c-.063.417-1.656,10.275-12.768,17.126A.54.54,0,0,1-1982.8-268.553Z" transform="translate(1983.347 286.39)" fill="#e08820"/>
                    </g>
                  </g>
                  <g id="Grupo_6957" data-name="Grupo 6957" transform="translate(9.354)">
                    <circle id="Elipse_820" data-name="Elipse 820" cx="21.955" cy="21.955" r="21.955" transform="translate(1.573 7.835)" fill="#323361"/>
                    <path id="Trazado_17827" data-name="Trazado 17827" d="M-1970.728-422.186s6.218-1.716,5.4-7.751c-.7-5.135-6.73-1.806-6.2-5.82s1.709-7.664-3.483-8.667c-4.542-.878-4.619,2.235-10.583-2.28-7.046-5.335-12.459,7.019-18.748,7.39-9.275.547-10.446,5.793-11.359,9.99s2.658,7.139,2.658,7.139Z" transform="translate(2015.852 448.039)" fill="#323361"/>
                    <g id="Grupo_6939" data-name="Grupo 6939" transform="translate(40.457 33.613)">
                      <path id="Trazado_17828" data-name="Trazado 17828" d="M-1969.484-408.305s3.478-4.637,6.064-.8-1.071,15.159-7.4,12.395Z" transform="translate(1970.822 410.626)" fill="#e2876c"/>
                      <g id="Grupo_6936" data-name="Grupo 6936" transform="translate(0.848 4.06)">
                        <path id="Trazado_17829" data-name="Trazado 17829" d="M-1969.343-399.754a.536.536,0,0,0,.516-.391c.981-3.5,4.6-4.914,4.64-4.927a.535.535,0,0,0,.31-.69.536.536,0,0,0-.689-.311,9.212,9.212,0,0,0-5.291,5.639.534.534,0,0,0,.37.659A.538.538,0,0,0-1969.343-399.754Z" transform="translate(1969.878 406.107)" fill="#bb5c4a"/>
                      </g>
                      <g id="Grupo_6938" data-name="Grupo 6938" transform="translate(2.727 6.161)">
                        <g id="Grupo_6937" data-name="Grupo 6937">
                          <path id="Trazado_17830" data-name="Trazado 17830" d="M-1965.474-401.278a.534.534,0,0,0,.289-.085.535.535,0,0,0,.16-.739,4.878,4.878,0,0,0-2.008-1.619.535.535,0,0,0-.707.27.535.535,0,0,0,.27.707,3.874,3.874,0,0,1,1.545,1.222A.537.537,0,0,0-1965.474-401.278Z" transform="translate(1967.787 403.768)" fill="#bb5c4a"/>
                        </g>
                      </g>
                    </g>
                    <path id="Trazado_17831" data-name="Trazado 17831" d="M-1997.408-384.449v11.263s4.754,6.286,9.3,6.676,7.176-6.318,7.176-6.318v-10.83Z" transform="translate(2013.978 441.58)" fill="#e7a592"/>
                    <path id="Trazado_17832" data-name="Trazado 17832" d="M-1997.408-384.449v5c3.048,3.383,8.46,4.227,16.471,3.044v-7.25Z" transform="translate(2013.978 441.58)" fill="#e2876c"/>
                    <path id="Trazado_17833" data-name="Trazado 17833" d="M-2010.625-418.241a109.547,109.547,0,0,0,1.461,14.226c.208,1.092.444,2.119.706,3.039,2.37,8.3,8.3,22.53,24.895,16.6,7.331-2.616,10.727-10.781,12.242-19.085a80.265,80.265,0,0,0,1.107-15.409,11.757,11.757,0,0,0-5.966-10.005c-9.8-5.554-20.133-3.483-26.939-.867A11.721,11.721,0,0,0-2010.625-418.241Z" transform="translate(2015.322 446.449)" fill="#e7a592"/>
                    <g id="Grupo_6946" data-name="Grupo 6946" transform="translate(5.869 33.423)">
                      <g id="Grupo_6945" data-name="Grupo 6945">
                        <g id="Grupo_6940" data-name="Grupo 6940" transform="translate(5.855 0.404)">
                          <path id="Trazado_17834" data-name="Trazado 17834" d="M-1989.919-408.052v.888a6.612,6.612,0,0,1-1.968,4.729,6.562,6.562,0,0,1-4.66,1.924h-.217a5.987,5.987,0,0,1-4.125-1.825A6.53,6.53,0,0,1-2002.8-407v-1.049a2.294,2.294,0,0,1,.155-.827,2.289,2.289,0,0,1,.53-.823,2.321,2.321,0,0,1,1.651-.685h8.214a2.328,2.328,0,0,1,2.106,1.331,2.277,2.277,0,0,1,.227.942A.5.5,0,0,1-1989.919-408.052Zm-.968,0a1.367,1.367,0,0,0-1.367-1.367h-8.214a1.365,1.365,0,0,0-1.367,1.367V-407a5.551,5.551,0,0,0,1.624,3.973,5.055,5.055,0,0,0,3.466,1.551h.2a5.605,5.605,0,0,0,3.979-1.644,5.66,5.66,0,0,0,1.68-4.041Z" transform="translate(2002.803 410.388)" fill="#323361"/>
                        </g>
                        <g id="Grupo_6941" data-name="Grupo 6941" transform="translate(22.299 0.404)">
                          <path id="Trazado_17835" data-name="Trazado 17835" d="M-1971.612-408.052v.888a6.629,6.629,0,0,1-1.967,4.729,6.565,6.565,0,0,1-4.661,1.924h-.22a5.981,5.981,0,0,1-4.121-1.825A6.533,6.533,0,0,1-1984.5-407v-1.049a.2.2,0,0,1,0-.046,2.229,2.229,0,0,1,.2-.894,2.332,2.332,0,0,1,2.135-1.4h8.217a2.34,2.34,0,0,1,1.8.844,2.292,2.292,0,0,1,.449.865A2.141,2.141,0,0,1-1971.612-408.052Zm-.969,0a1.366,1.366,0,0,0-1.366-1.367h-8.217a1.367,1.367,0,0,0-1.366,1.367V-407a5.562,5.562,0,0,0,1.624,3.973,5.056,5.056,0,0,0,3.466,1.551h.2a5.59,5.59,0,0,0,3.975-1.644,5.647,5.647,0,0,0,1.683-4.041Z" transform="translate(1984.5 410.388)" fill="#323361"/>
                        </g>
                        <g id="Grupo_6942" data-name="Grupo 6942">
                          <path id="Trazado_17836" data-name="Trazado 17836" d="M-2009.32-410.825a11.588,11.588,0,0,1,5.57,1.077c.22.106.808.488.833.5l-.461.823c-.006,0-.65-.387-.9-.5a10.152,10.152,0,0,0-5.041-.934Z" transform="translate(2009.32 410.838)" fill="#323361"/>
                        </g>
                        <g id="Grupo_6943" data-name="Grupo 6943" transform="translate(17.771 1.372)">
                          <path id="Trazado_17837" data-name="Trazado 17837" d="M-1989.222-407.907l-.318-.916a9.9,9.9,0,0,1,2.912-.488,6.537,6.537,0,0,1,2.658.509l-.423.871a5.715,5.715,0,0,0-2.234-.411A9.056,9.056,0,0,0-1989.222-407.907Z" transform="translate(1989.54 409.31)" fill="#323361"/>
                        </g>
                        <g id="Grupo_6944" data-name="Grupo 6944" transform="translate(34.266 0.246)">
                          <path id="Trazado_17838" data-name="Trazado 17838" d="M-1966.866-410.564v.971a12.542,12.542,0,0,0-3.887,1.074l-.427-.869A13.124,13.124,0,0,1-1966.866-410.564Z" transform="translate(1971.18 410.564)" fill="#323361"/>
                        </g>
                      </g>
                    </g>
                    <path id="Trazado_17839" data-name="Trazado 17839" d="M-1978.619-406.653c0,1.2.62,2.177,1.385,2.177s1.384-.975,1.384-2.177-.62-2.177-1.384-2.177S-1978.619-407.855-1978.619-406.653Z" transform="translate(2012.07 444.057)" fill="#323361"/>
                    <path id="Trazado_17840" data-name="Trazado 17840" d="M-1996.657-406.653c0,1.2.62,2.177,1.385,2.177s1.384-.975,1.384-2.177-.62-2.177-1.384-2.177S-1996.657-407.855-1996.657-406.653Z" transform="translate(2013.902 444.057)" fill="#323361"/>
                    <path id="Trazado_17841" data-name="Trazado 17841" d="M-1973.221-413.974s-5.761-2.277-10.2-.36l.37,2.058a18.713,18.713,0,0,1,9.508.682C-1973.246-412.544-1972.846-413-1973.221-413.974Z" transform="translate(2012.558 444.694)" fill="#323361"/>
                    <path id="Trazado_17842" data-name="Trazado 17842" d="M-2001.427-413.974s5.761-2.277,10.2-.36l-.371,2.058a18.71,18.71,0,0,0-9.507.682C-2001.4-412.544-2001.8-413-2001.427-413.974Z" transform="translate(2014.402 444.694)" fill="#323361"/>
                    <g id="Grupo_6948" data-name="Grupo 6948" transform="translate(23.614 36.059)">
                      <g id="Grupo_6947" data-name="Grupo 6947">
                        <path id="Trazado_17843" data-name="Trazado 17843" d="M-1987.3-397.436a5.711,5.711,0,0,1-1.937-.408.535.535,0,0,1-.292-.7.534.534,0,0,1,.7-.293,3.211,3.211,0,0,0,2.146.2.58.58,0,0,0,.263-.5,80.649,80.649,0,0,0-.323-8.194.535.535,0,0,1,.49-.577.534.534,0,0,1,.577.49,79.332,79.332,0,0,1,.322,8.391,1.633,1.633,0,0,1-.778,1.306A2.259,2.259,0,0,1-1987.3-397.436Z" transform="translate(1989.568 407.903)" fill="#e2876c"/>
                      </g>
                    </g>
                    <path id="Trazado_17844" data-name="Trazado 17844" d="M-1981.192-393.23c-.437,2.2-1.89,6.248-6.787,6.248s-6.284-3.7-6.757-6.248Z" transform="translate(2013.707 442.472)" fill="#fff"/>
                    <g id="Grupo_6949" data-name="Grupo 6949" transform="translate(22.929 56.559)">
                      <path id="Trazado_17845" data-name="Trazado 17845" d="M-1987.465-383.362a5.594,5.594,0,0,1-2.608-.73.535.535,0,0,1-.181-.735.534.534,0,0,1,.735-.181,4.553,4.553,0,0,0,2.054.576,4.345,4.345,0,0,0,1.947-.573.535.535,0,0,1,.737.173.536.536,0,0,1-.174.737A5.355,5.355,0,0,1-1987.465-383.362Z" transform="translate(1990.331 385.086)" fill="#e2876c"/>
                    </g>
                    <path id="Trazado_17846" data-name="Trazado 17846" d="M-1972.978-406.946c.4-2.207.8-5.055.513-6.515-.521-2.583-2.66-4.1-1.947-6.593s-1.92-5.177-3.861-5.621-6.467.516-10.926-1.6c-4.256-2.023-11.654-.576-12.862,2.156-1.458,3.307.527,3.62-3.455,7.2-1.586,1.426.3,5.128.564,7.536a16.133,16.133,0,0,1,.1,2.839l-.016.6h-4.766c-.525-3.735-.825-7.852-.989-11.3a11.722,11.722,0,0,1,7.508-11.5c6.807-2.616,17.14-4.689,26.942.867a11.753,11.753,0,0,1,5.962,10,85.273,85.273,0,0,1-.578,11.922Z" transform="translate(2015.323 446.449)" fill="#323361"/>
                    <g id="Grupo_6956" data-name="Grupo 6956" transform="translate(0.149 33.593)">
                      <path id="Trazado_17847" data-name="Trazado 17847" d="M-2008.038-402.68a19.931,19.931,0,0,0-.291-3.72c-.3-1.678-.784-3.2-2.5-3.9a2.932,2.932,0,0,0-3.908.984c-2.586,3.835.295,15.767,6.626,13Z" transform="translate(2015.686 410.648)" fill="#e7a592"/>
                      <g id="Grupo_6952" data-name="Grupo 6952" transform="translate(2.083 3.645)">
                        <g id="Grupo_6951" data-name="Grupo 6951">
                          <g id="Grupo_6950" data-name="Grupo 6950">
                            <path id="Trazado_17848" data-name="Trazado 17848" d="M-2009.1-399.378a.536.536,0,0,1-.429-.484c-.278-3.621-3.552-5.719-3.586-5.74a.535.535,0,0,1-.169-.738.534.534,0,0,1,.736-.17,9.21,9.21,0,0,1,4.085,6.566.535.535,0,0,1-.492.574A.557.557,0,0,1-2009.1-399.378Z" transform="translate(2013.367 406.591)" fill="#e2876c"/>
                          </g>
                        </g>
                      </g>
                      <g id="Grupo_6955" data-name="Grupo 6955" transform="translate(2.677 6.309)">
                        <g id="Grupo_6954" data-name="Grupo 6954">
                          <g id="Grupo_6953" data-name="Grupo 6953">
                            <path id="Trazado_17849" data-name="Trazado 17849" d="M-2012.276-401.52a.533.533,0,0,1-.267-.141.535.535,0,0,1-.012-.757,4.884,4.884,0,0,1,2.286-1.194.535.535,0,0,1,.641.4.535.535,0,0,1-.4.64,3.88,3.88,0,0,0-1.755.9A.536.536,0,0,1-2012.276-401.52Z" transform="translate(2012.706 403.625)" fill="#e2876c"/>
                          </g>
                        </g>
                      </g>
                    </g>
                  </g>
                  <g id="Grupo_6960" data-name="Grupo 6960" transform="translate(9.043 185.806)">
                    <g id="Grupo_6959" data-name="Grupo 6959" transform="translate(68.549 118.347)">
                      <path id="Trazado_17850" data-name="Trazado 17850" d="M-1936.442-109.5l-.478,13.874s3.428,2.541,10.521,1.278l2.9-14.92Z" transform="translate(1939.596 109.503)" fill="#e7a592"/>
                      <g id="Grupo_6958" data-name="Grupo 6958" transform="translate(0 10.108)">
                        <path id="Trazado_17851" data-name="Trazado 17851" d="M-1928.208-95.019s2.416-3.345,4.375-3.231,17.224,11.9,22.41,12.813,4.928,7.365,2.891,8.1c-2.321.836-40.658.118-40.658.118s-1.457-13.64-.193-17.327S-1932.24-94.092-1928.208-95.019Z" transform="translate(1939.899 98.252)" fill="#eaa928"/>
                      </g>
                    </g>
                    <path id="Trazado_17852" data-name="Trazado 17852" d="M-2015.47-239.828s97.25-7.4,106.721,11.813c6.378,12.938-21.467,108.865-21.467,108.865-5.608,1.748-13.4-.686-16.446-3.73,0,0-2.858-6.946,1.691-45.552.6-5.13-4.962-13.641.5-34.368H-1995.3c-13.231,0-22.143-18.332-20.753-31.49Z" transform="translate(2016.198 241.229)" fill="#323361"/>
                  </g>
                  <g id="Grupo_6961" data-name="Grupo 6961" transform="translate(28.946 75.071)">
                    <path id="Trazado_17853" data-name="Trazado 17853" d="M-1966.3-283.123l-7.456,20.421-13.453-19.412-1.086-62.124-.024-3,3.562-.635.643,4.024Z" transform="translate(1993.463 362.795)" fill="#fff"/>
                    <path id="Trazado_17854" data-name="Trazado 17854" d="M-1984.112-343.851l-1.644,2.205-2.537-2.592-.024-3,3.562-.635Z" transform="translate(1993.463 362.795)" fill="#d2dfed" opacity="0.6"/>
                    <path id="Trazado_17855" data-name="Trazado 17855" d="M-1994.045-352.9l7.121,7.044,5.017-7.2-5.864-11.419Z" transform="translate(1994.045 364.482)" fill="#fff"/>
                  </g>
                  <path id="Trazado_17856" data-name="Trazado 17856" d="M-1998.11-375.756l-2.751,2.039a20.85,20.85,0,0,0-1.66,1.4c-1.584,1.506-2.128,2.525-1.608,5.058a6.013,6.013,0,0,0,.284,1h0l4.8,19.51,10.23-18.878S-1995.712-366.975-1998.11-375.756Z" transform="translate(2024.034 440.698)" fill="#e08820"/>
                  <path id="Trazado_17857" data-name="Trazado 17857" d="M-1979.886-375.756s6.818,6.6,5.471,12.672l-4.747,12.651-7.9-15.193S-1980.924-367.746-1979.886-375.756Z" transform="translate(2022.281 440.698)" fill="#e08820"/>
                </g>
                <g id="Grupo_6964" data-name="Grupo 6964" transform="translate(0 76.064)">
                  <g id="Grupo_6963" data-name="Grupo 6963">
                    <path id="Trazado_17858" data-name="Trazado 17858" d="M-2019.362-363.376c7.819,11.852,37.746,52.827,44.5,57.588,8.79,6.2,36.349,17.829,50.684,23.761,2.586,1.07-7.006,12.388-7.006,12.388s-37.073-9.427-52.177-19.068c-4.272-2.728-22.042-20.528-33.372-36.317-3.88-5.409-10.194-12.921-11.108-20.911C-2028.893-355.132-2026-360.053-2019.362-363.376Z" transform="translate(2028.053 363.376)" fill="#e08820"/>
                  </g>
                </g>
              </g>
            </g>
            <g id="Grupo_6973" data-name="Grupo 6973" transform="translate(12.784 108.914)">
              <g id="Grupo_6970" data-name="Grupo 6970" transform="translate(0 64.652)">
                <g id="Grupo_6967" data-name="Grupo 6967" transform="translate(213.353 10.583)">
                  <path id="Trazado_17859" data-name="Trazado 17859" d="M-1746.028-91.349l-47.092-146.762a3.8,3.8,0,0,1,2.456-4.779,3.8,3.8,0,0,1,4.78,2.457l47.837,149.084Z" transform="translate(1793.302 243.073)" fill="#323361"/>
                </g>
                <g id="Grupo_6969" data-name="Grupo 6969" transform="translate(0 10.584)">
                  <g id="Grupo_6968" data-name="Grupo 6968">
                    <path id="Trazado_17860" data-name="Trazado 17860" d="M-2022.793-91.349h-7.981l47.837-149.084a3.8,3.8,0,0,1,4.779-2.457,3.8,3.8,0,0,1,2.457,4.779Z" transform="translate(2030.774 243.073)" fill="#323361"/>
                  </g>
                </g>
                <path id="Trazado_17861" data-name="Trazado 17861" d="M-2014.731-240.616h246.164a7.118,7.118,0,0,0,7.118-7.118h0a7.118,7.118,0,0,0-7.118-7.118h-246.164a7.118,7.118,0,0,0-7.118,7.118h0A7.118,7.118,0,0,0-2014.731-240.616Z" transform="translate(2029.868 254.853)" fill="#3d4f7c"/>
              </g>
              <g id="Grupo_6971" data-name="Grupo 6971" transform="translate(54.107)">
                <rect id="Rectángulo_1168" data-name="Rectángulo 1168" width="76.344" height="9.949" rx="4.167" transform="translate(76.344 64.651) rotate(180)" fill="#3149b9"/>
                <path id="Trazado_17862" data-name="Trazado 17862" d="M-1868.508-262.161l15.534-58.176a5.146,5.146,0,0,0-4.972-6.474h-34.182a5.148,5.148,0,0,0-4.955,3.755l-17.105,60.9Z" transform="translate(1964.826 326.813)" fill="#4071c9"/>
                <path id="Trazado_17863" data-name="Trazado 17863" d="M-1897.51-323.056l-16.963,60.393h-3.906l16.963-60.393a5.154,5.154,0,0,1,4.957-3.757h3.906A5.153,5.153,0,0,0-1897.51-323.056Z" transform="translate(1965.252 326.813)" fill="#3149b9"/>
                <path id="Trazado_17864" data-name="Trazado 17864" d="M-1885.39-288.718c-.889,3.837,1.5,6.948,5.339,6.948a9.276,9.276,0,0,0,8.556-6.948c.888-3.836-1.5-6.948-5.34-6.948A9.276,9.276,0,0,0-1885.39-288.718Z" transform="translate(1961.92 323.65)" fill="#5290fb"/>
              </g>
              <g id="Grupo_6972" data-name="Grupo 6972" transform="translate(156.012 22.981)">
                <path id="Trazado_17865" data-name="Trazado 17865" d="M-1784.395-296.88l-10.04,35.358a2.7,2.7,0,0,1-2.67,1.959h-56.435a3.6,3.6,0,0,1-3.474-4.355l10.04-35.358a2.7,2.7,0,0,1,2.67-1.958h56.434A3.6,3.6,0,0,1-1784.395-296.88Z" transform="translate(1857.126 301.234)" fill="#3149b9"/>
                <path id="Trazado_17866" data-name="Trazado 17866" d="M-1783.661-296.88l-10.04,35.358a2.7,2.7,0,0,1-2.67,1.959h-49.953a3.6,3.6,0,0,1-3.469-4.355l10.04-35.358a2.7,2.7,0,0,1,2.67-1.958h49.948A3.6,3.6,0,0,1-1783.661-296.88Z" transform="translate(1856.393 301.234)" fill="#4071c9"/>
                <path id="Trazado_17867" data-name="Trazado 17867" d="M-1817.354-277.814a6.034,6.034,0,0,0,6.111,6.827,7.767,7.767,0,0,0,7.543-6.827,6.033,6.033,0,0,0-6.11-6.827A7.768,7.768,0,0,0-1817.354-277.814Z" transform="translate(1853.091 299.549)" fill="#5290fb"/>
              </g>
            </g>
          </g>
        </g>
      </g>
      <g id="Grupo_6982" data-name="Grupo 6982" transform="translate(258.785 221.728)">
        <g id="Grupo_6980" data-name="Grupo 6980">
          <g id="Grupo_6977" data-name="Grupo 6977" transform="translate(15.405)">
            <path id="Trazado_17868" data-name="Trazado 17868" d="M-1769.509-350.883c-8.065-8.213-14.065,2.219-13.228,12.69.8,9.928,9.353,43.991,7.766,58.322h3.277C-1763.678-298.247-1759.183-340.371-1769.509-350.883Z" transform="translate(1782.815 353.837)" fill="#7f8d9e" fill-rule="evenodd"/>
            <path id="Trazado_17869" data-name="Trazado 17869" d="M-1772.12-279.365c7.8-28.965-2.075-69-2.108-69.137a.463.463,0,0,0-.56-.341.463.463,0,0,0-.34.561c.032.136,9.922,40.218,2.06,68.918Z" transform="translate(1782.036 353.332)" fill="#98a4b4" fill-rule="evenodd"/>
          </g>
          <g id="Grupo_6978" data-name="Grupo 6978" transform="translate(0 19.918)">
            <path id="Trazado_17870" data-name="Trazado 17870" d="M-1791.147-330.534c-8.5-4.5-10.642,5.323-7.329,13.451,2.747,6.736,14.877,26.661,19.464,39.464h4.321C-1774.325-295.311-1781.114-325.219-1791.147-330.534Z" transform="translate(1799.961 331.668)" fill="#ced6d7" fill-rule="evenodd"/>
            <path id="Trazado_17871" data-name="Trazado 17871" d="M-1775.8-277.186c-2.811-23.928-18.724-49.938-18.782-50.032a.389.389,0,0,0-.532-.13.388.388,0,0,0-.13.532c.057.094,15.868,25.935,18.676,49.631Z" transform="translate(1799.487 331.235)" fill="#e7ecec" fill-rule="evenodd"/>
          </g>
          <g id="Grupo_6979" data-name="Grupo 6979" transform="translate(26.351 31.61)">
            <path id="Trazado_17872" data-name="Trazado 17872" d="M-1752.247-317.855c8.237-3.6,9.543,5.708,5.884,13.05-2.477,4.968-11.4,17.688-17.409,28.508h-6.859C-1768.285-292.667-1760.762-314.136-1752.247-317.855Z" transform="translate(1770.631 318.654)" fill="#e7ecec" fill-rule="evenodd"/>
            <path id="Trazado_17873" data-name="Trazado 17873" d="M-1767.905-275.889c5.848-19.832,19.317-38.521,19.371-38.6a.363.363,0,0,1,.5-.084.361.361,0,0,1,.083.5c-.053.075-13.38,18.57-19.215,38.176Z" transform="translate(1770.354 318.246)" fill="#ced6d7" fill-rule="evenodd"/>
          </g>
        </g>
        <g id="Grupo_6981" data-name="Grupo 6981" transform="translate(14.484 67.419)">
          <rect id="Rectángulo_1169" data-name="Rectángulo 1169" width="26.759" height="8.583" rx="1.461" fill="#33385c"/>
          <path id="Trazado_17874" data-name="Trazado 17874" d="M-1778.239-273.4h15.855l4.14,3.736-3.382,13.027H-1779l-3.382-13.027Z" transform="translate(1783.691 278.249)" fill="#33385c" fill-rule="evenodd"/>
          <path id="Trazado_17875" data-name="Trazado 17875" d="M-1758.244-269.243l-.7,2.677h-22.744l-.7-2.677Z" transform="translate(1783.691 277.827)" fill="#151d3d" fill-rule="evenodd"/>
        </g>
      </g>
      <rect id="Rectángulo_1170" data-name="Rectángulo 1170" width="920" height="47.376" transform="translate(0 470.123)" fill="#030822"/>
    </g>
    <g id="Grupo_6984" data-name="Grupo 6984" transform="translate(-1641.477 -541.763)">
      <rect id="Rectángulo_1171" data-name="Rectángulo 1171" width="329.726" height="44.023" fill="#8d6e63"/>
      <text id="Resolución_0148_de_2004" data-name="Resolución 0148 de 2004" transform="translate(157.516 27.729)" fill="#fff" font-size="23" font-family="Montserrat-Bold, Montserrat" font-weight="700"><tspan x="-144.659" y="0">Resolución 0148 de 2004</tspan></text>
    </g>
    <g id="Grupo_6992" data-name="Grupo 6992" transform="translate(-1428.651 -461.083)">
      <rect id="Rectángulo_1172" data-name="Rectángulo 1172" width="216.853" height="199.524" fill="#fff"/>
      <g id="Grupo_6988" data-name="Grupo 6988" transform="translate(49.955 13.927)">
        <g id="Grupo_6985" data-name="Grupo 6985" transform="translate(0 7.364)">
          <path id="Trazado_17876" data-name="Trazado 17876" d="M-1283.556-356.486a15.493,15.493,0,0,0,2.471-.189,297.568,297.568,0,0,0-14.159,49.225c-3.792-10.835-4.843-32.919-.126-54.328C-1293.133-358.786-1289.458-356.486-1283.556-356.486Z" transform="translate(1298.513 415.534)" fill="#f1d436" fill-rule="evenodd"/>
          <path id="Trazado_17877" data-name="Trazado 17877" d="M-1238.231-421.554s-14.878,7.367-30.43,35.425c-1.761-5.346-5.939-9.505-13.9-9.505-.3,0-.6.009-.926.036C-1274.348-411.321-1259.9-422.507-1238.231-421.554Z" transform="translate(1296.987 421.611)" fill="#f1d436" fill-rule="evenodd"/>
        </g>
        <ellipse id="Elipse_821" data-name="Elipse 821" cx="12.379" cy="13.782" rx="12.379" ry="13.782" transform="translate(87.735 26.909)" fill="#23358f"/>
        <ellipse id="Elipse_822" data-name="Elipse 822" cx="12.379" cy="13.782" rx="12.379" ry="13.782" transform="translate(2.242 36.366)" fill="#f1d436"/>
        <ellipse id="Elipse_823" data-name="Elipse 823" cx="12.379" cy="13.782" rx="12.379" ry="13.782" transform="translate(55.391 109.943)" fill="#f1d436"/>
        <g id="Grupo_6986" data-name="Grupo 6986" transform="translate(8.714 99.611)">
          <path id="Trazado_17878" data-name="Trazado 17878" d="M-1244.995-294.821a18.063,18.063,0,0,1,3.615-10.956c-29.546-1.843-47.434-13.159-47.434-13.159,12.743,21.2,29.3,30.148,45.587,32.035A18.43,18.43,0,0,1-1244.995-294.821Z" transform="translate(1288.814 318.936)" fill="#da0009"/>
          <path id="Trazado_17879" data-name="Trazado 17879" d="M-1210.652-305.928a17.971,17.971,0,0,1,4.069,11.513,18.72,18.72,0,0,1-.634,4.821c17.471-5.686,31.026-17.135,33.545-25.342A150.508,150.508,0,0,1-1210.652-305.928Z" transform="translate(1280.875 318.53)" fill="#da0009"/>
        </g>
        <g id="Grupo_6987" data-name="Grupo 6987" transform="translate(53.435)">
          <path id="Trazado_17880" data-name="Trazado 17880" d="M-1196-406.225c-9.962-10.037-23.991-18.532-43.041-23.582a169.682,169.682,0,0,1,31.493,35.862C-1205.986-400.032-1201.564-404.761-1196-406.225Z" transform="translate(1239.038 429.807)" fill="#23358f"/>
          <path id="Trazado_17881" data-name="Trazado 17881" d="M-1174.3-373.716a15.445,15.445,0,0,1-13.178,7.893,14.316,14.316,0,0,1-3.48-.442,133.087,133.087,0,0,1,10.394,42.97C-1171.161-332.256-1167.152-352.97-1174.3-373.716Z" transform="translate(1234.155 424.11)" fill="#23358f"/>
        </g>
        <path id="Trazado_17882" data-name="Trazado 17882" d="M-1258.051-383.289c-6.407,9.672-12.817,22.789-18.072,41.475A39.074,39.074,0,0,1-1261.465-345c.195,0,.392.01.587.015a70.986,70.986,0,0,1,13.446-11.714,63.313,63.313,0,0,1,12.6-6.512C-1241.767-372.272-1252.6-379.814-1258.051-383.289Z" transform="translate(1296.239 425.083)" fill="#4c8642" fill-rule="evenodd"/>
        <path id="Trazado_17883" data-name="Trazado 17883" d="M-1241.794-349.923a64.84,64.84,0,0,0-10.068,8.28,103.247,103.247,0,0,1,11.968,3.957c5.958,2.241,12.119,4.557,17.209,4.557,8.687,0,15.516-2.513,23.685-6.537a123,123,0,0,0-5.435-19.573A56.29,56.29,0,0,0-1241.794-349.923Z" transform="translate(1293.775 422.668)" fill="#4c8642" fill-rule="evenodd"/>
        <path id="Trazado_17884" data-name="Trazado 17884" d="M-1225.453-325.215c-6.069,0-12.7-2.492-19.106-4.9-5.958-2.24-12.119-4.557-17.21-4.557-6.538,0-12.8,2.678-16.458,4.6-.3,1.208-.6,2.422-.888,3.674,0,0,39.894,20.616,79.047,3.972a74.774,74.774,0,0,0-.791-9.171C-1208.936-327.734-1216.276-325.215-1225.453-325.215Z" transform="translate(1296.543 420.145)" fill="#23358f" fill-rule="evenodd"/>
        <path id="Trazado_17885" data-name="Trazado 17885" d="M-1229.026-370.388a58.823,58.823,0,0,1,4.364,5.4,63.227,63.227,0,0,1,20.36-2.18,120.174,120.174,0,0,0-8.334-16.148A96.365,96.365,0,0,0-1229.026-370.388Z" transform="translate(1291.456 425.085)" fill="#4c8642" fill-rule="evenodd"/>
        <path id="Trazado_17886" data-name="Trazado 17886" d="M-1246.477-384.568a108.087,108.087,0,0,1,11.907,9.774,104.882,104.882,0,0,1,11.662-9.849,19.5,19.5,0,0,0-11.737-3.906A19.5,19.5,0,0,0-1246.477-384.568Z" transform="translate(1293.228 425.617)" fill="#f1d436"/>
        <path id="Trazado_17887" data-name="Trazado 17887" d="M-1219.123-391.835s-5.319,2.03-5.692,2.179l-1.832-5.792-4.792,3.753-3.462-4.993-3.463,4.993-4.792-3.753-1.832,5.792c-.373-.148-5.692-2.179-5.692-2.179l-.017,6.261c.554-.525,1.865-1.549,1.865-1.549a23.035,23.035,0,0,1,13.93-4.8,23.034,23.034,0,0,1,13.929,4.8s1.312,1.024,1.866,1.549Z" transform="translate(1293.657 426.443)" fill="#f1d436"/>
      </g>
      <g id="Grupo_6991" data-name="Grupo 6991" transform="translate(15.271 160.115)">
        <g id="Grupo_6989" data-name="Grupo 6989" transform="translate(0.12)">
          <path id="Trazado_17888" data-name="Trazado 17888" d="M-1335.936-267.093l1.918,4.893,1.908-4.893h1.038v8.887h-.784v-5.67l.006-1.459c0-.183,0-.455-.006-.817a18.08,18.08,0,0,1-.613,1.872l-1.551,4.032-1.314-3.389q-.381-.98-.912-2.439.082,2.875.083,3.193v4.676h-.822v-8.887Z" transform="translate(1336.984 267.093)"/>
          <path id="Trazado_17889" data-name="Trazado 17889" d="M-1328.269-266.952q.474,0,.475.717c0,.5-.163.755-.488.755s-.469-.243-.469-.73S-1328.59-266.952-1328.269-266.952Zm-.411,2.688h.8v6.073h-.8Z" transform="translate(1336.148 267.079)"/>
          <path id="Trazado_17890" data-name="Trazado 17890" d="M-1326.254-263.976h.725l.076.867a2.352,2.352,0,0,1,.722-.756,1.661,1.661,0,0,1,.894-.251,1.483,1.483,0,0,1,1.208.522,2.119,2.119,0,0,1,.432,1.4v4.294h-.8V-262.2a1.246,1.246,0,0,0-.281-.854.921.921,0,0,0-.726-.319,1.264,1.264,0,0,0-1.026.533,1.921,1.921,0,0,0-.421,1.226v3.708h-.8Z" transform="translate(1335.894 266.791)"/>
          <path id="Trazado_17891" data-name="Trazado 17891" d="M-1319.8-266.952q.476,0,.476.717c0,.5-.163.755-.488.755s-.469-.243-.469-.73S-1320.122-266.952-1319.8-266.952Zm-.411,2.688h.8v6.073h-.8Z" transform="translate(1335.288 267.079)"/>
          <path id="Trazado_17892" data-name="Trazado 17892" d="M-1318.086-259.222a2.75,2.75,0,0,0,1.7.727,1.628,1.628,0,0,0,1.031-.317.973.973,0,0,0,.409-.8.75.75,0,0,0-.27-.589,3.026,3.026,0,0,0-1.048-.466,3.984,3.984,0,0,1-1.4-.657,1.265,1.265,0,0,1-.439-1.025,1.589,1.589,0,0,1,.592-1.258,2.175,2.175,0,0,1,1.465-.507,3.375,3.375,0,0,1,1.593.494v.9a2.354,2.354,0,0,0-1.554-.663,1.361,1.361,0,0,0-.9.295.892.892,0,0,0-.354.71.679.679,0,0,0,.319.575,3.374,3.374,0,0,0,1.039.435q1.783.5,1.783,1.694a1.714,1.714,0,0,1-.652,1.361,2.377,2.377,0,0,1-1.584.551,3.223,3.223,0,0,1-1.733-.554Z" transform="translate(1335.066 266.791)"/>
          <path id="Trazado_17893" data-name="Trazado 17893" d="M-1312.278-265.973h.719v1.809h1.154v.7h-1.154v4.242a.542.542,0,0,0,.141.406.578.578,0,0,0,.42.137,1.188,1.188,0,0,0,.594-.2v.8a2.6,2.6,0,0,1-.822.14,1.139,1.139,0,0,1-.8-.287,1.125,1.125,0,0,1-.313-.868v-4.363h-.834v-.7h.834Z" transform="translate(1334.566 266.979)"/>
          <path id="Trazado_17894" data-name="Trazado 17894" d="M-1305.027-258.54a3.052,3.052,0,0,1-1.895.777,2.112,2.112,0,0,1-1.755-.869,3.613,3.613,0,0,1-.669-2.266,3.692,3.692,0,0,1,.69-2.329,2.128,2.128,0,0,1,1.75-.889,1.82,1.82,0,0,1,1.5.717,2.827,2.827,0,0,1,.567,1.812v.4h-3.682v.313a2.784,2.784,0,0,0,.492,1.79,1.464,1.464,0,0,0,1.157.606,2.574,2.574,0,0,0,1.841-1.013Zm-.662-3.332a1.661,1.661,0,0,0-.388-1.133,1.136,1.136,0,0,0-.845-.377,1.347,1.347,0,0,0-.912.377,2.128,2.128,0,0,0-.6,1.133Z" transform="translate(1334.177 266.791)"/>
          <path id="Trazado_17895" data-name="Trazado 17895" d="M-1302.252-263.076a2.36,2.36,0,0,1,.641-.782,1.287,1.287,0,0,1,.774-.258,1.575,1.575,0,0,1,.631.139v.752a1.851,1.851,0,0,0-.625-.14,1.211,1.211,0,0,0-1.013.568,2.174,2.174,0,0,0-.408,1.3v3.594h-.783v-6.073h.714Z" transform="translate(1333.536 266.791)"/>
          <path id="Trazado_17896" data-name="Trazado 17896" d="M-1298.618-266.952q.476,0,.475.717c0,.5-.163.755-.488.755s-.468-.243-.468-.73S-1298.938-266.952-1298.618-266.952Zm-.411,2.688h.8v6.073h-.8Z" transform="translate(1333.136 267.079)"/>
          <path id="Trazado_17897" data-name="Trazado 17897" d="M-1294.539-264.115a2.029,2.029,0,0,1,1.669.87,3.679,3.679,0,0,1,.668,2.3,4.585,4.585,0,0,1-.263,1.564,2.571,2.571,0,0,1-.819,1.176,2.01,2.01,0,0,1-1.287.439,1.985,1.985,0,0,1-1.717-.9,3.833,3.833,0,0,1-.628-2.25,4.088,4.088,0,0,1,.4-1.86,2.244,2.244,0,0,1,.965-1.064A2.352,2.352,0,0,1-1294.539-264.115Zm.054.751a1.31,1.31,0,0,0-1.2.676,3.589,3.589,0,0,0-.4,1.842,3.264,3.264,0,0,0,.4,1.676,1.23,1.23,0,0,0,1.11.676,1.311,1.311,0,0,0,1.114-.628,3.2,3.2,0,0,0,.438-1.832,3.153,3.153,0,0,0-.428-1.778A1.231,1.231,0,0,0-1294.485-263.364Z" transform="translate(1332.914 266.791)"/>
          <path id="Trazado_17898" data-name="Trazado 17898" d="M-1283.748-267.093h.8v8.887h-.8v-.854a2.265,2.265,0,0,1-.679.746,1.494,1.494,0,0,1-.833.248,1.779,1.779,0,0,1-1.552-.94,4.012,4.012,0,0,1-.593-2.189,3.9,3.9,0,0,1,.654-2.281,1.958,1.958,0,0,1,1.663-.942,1.634,1.634,0,0,1,.661.146,2.694,2.694,0,0,1,.679.446Zm0,4.039a1.683,1.683,0,0,0-.541-.456,1.382,1.382,0,0,0-.637-.149,1.4,1.4,0,0,0-1.18.675,3.065,3.065,0,0,0-.471,1.784,3.26,3.26,0,0,0,.414,1.721,1.218,1.218,0,0,0,1.057.682,1.187,1.187,0,0,0,.962-.5,2,2,0,0,0,.394-1.274Z" transform="translate(1331.949 267.093)"/>
          <path id="Trazado_17899" data-name="Trazado 17899" d="M-1276.887-258.54a3.055,3.055,0,0,1-1.895.777,2.113,2.113,0,0,1-1.755-.869,3.608,3.608,0,0,1-.67-2.266,3.685,3.685,0,0,1,.691-2.329,2.128,2.128,0,0,1,1.749-.889,1.821,1.821,0,0,1,1.5.717,2.827,2.827,0,0,1,.567,1.812v.4h-3.683v.313a2.782,2.782,0,0,0,.493,1.79,1.462,1.462,0,0,0,1.156.606,2.575,2.575,0,0,0,1.842-1.013Zm-.662-3.332a1.667,1.667,0,0,0-.388-1.133,1.137,1.137,0,0,0-.846-.377,1.345,1.345,0,0,0-.912.377,2.127,2.127,0,0,0-.6,1.133Z" transform="translate(1331.319 266.791)"/>
          <path id="Trazado_17900" data-name="Trazado 17900" d="M-1270.016-267.093h.852l2.48,8.887h-.968l-.755-3.071h-2.359l-.754,3.071h-.943Zm.411,1.083-.985,4.013h1.988Z" transform="translate(1330.431 267.093)"/>
          <path id="Trazado_17901" data-name="Trazado 17901" d="M-1261.758-263.976h.592v6.423a2.656,2.656,0,0,1-.669,1.924,2.151,2.151,0,0,1-1.605.695,3.188,3.188,0,0,1-1.771-.65v-.949a2.627,2.627,0,0,0,1.74.886,1.317,1.317,0,0,0,1.09-.529,2.17,2.17,0,0,0,.414-1.376v-1.305a2.413,2.413,0,0,1-.7.716,1.481,1.481,0,0,1-.809.239,1.81,1.81,0,0,1-1.535-.892,3.677,3.677,0,0,1-.612-2.134,3.705,3.705,0,0,1,.682-2.262,1.981,1.981,0,0,1,1.618-.924,1.583,1.583,0,0,1,.74.174,1.9,1.9,0,0,1,.612.526Zm-.21,1.3a1.991,1.991,0,0,0-.574-.5,1.283,1.283,0,0,0-.631-.166,1.344,1.344,0,0,0-1.153.682,3.087,3.087,0,0,0-.453,1.74,3.178,3.178,0,0,0,.4,1.641,1.2,1.2,0,0,0,1.064.672,1.155,1.155,0,0,0,.966-.529,2.273,2.273,0,0,0,.385-1.369Z" transform="translate(1329.736 266.791)"/>
          <path id="Trazado_17902" data-name="Trazado 17902" d="M-1258.225-263.076a2.348,2.348,0,0,1,.641-.782,1.283,1.283,0,0,1,.774-.258,1.572,1.572,0,0,1,.631.139v.752a1.848,1.848,0,0,0-.625-.14,1.21,1.21,0,0,0-1.012.568,2.167,2.167,0,0,0-.408,1.3v3.594h-.784v-6.073h.714Z" transform="translate(1329.065 266.791)"/>
          <path id="Trazado_17903" data-name="Trazado 17903" d="M-1254.593-266.952q.476,0,.476.717c0,.5-.163.755-.488.755s-.469-.243-.469-.73S-1254.913-266.952-1254.593-266.952Zm-.411,2.688h.8v6.073h-.8Z" transform="translate(1328.665 267.079)"/>
          <path id="Trazado_17904" data-name="Trazado 17904" d="M-1249-258.177a2.767,2.767,0,0,1-1.389.414,2.185,2.185,0,0,1-1.81-.9,3.5,3.5,0,0,1-.694-2.214,3.667,3.667,0,0,1,.723-2.3,2.255,2.255,0,0,1,1.87-.942,2.6,2.6,0,0,1,1.3.384v.89a2,2,0,0,0-1.243-.523,1.589,1.589,0,0,0-1.306.694,2.8,2.8,0,0,0-.529,1.747,2.994,2.994,0,0,0,.478,1.682,1.472,1.472,0,0,0,1.287.726,2.308,2.308,0,0,0,1.313-.523Z" transform="translate(1328.443 266.791)"/>
          <path id="Trazado_17905" data-name="Trazado 17905" d="M-1244.243-263.96h.8v6.073h-.8v-.835a2.519,2.519,0,0,1-.738.73,1.628,1.628,0,0,1-.865.245,1.481,1.481,0,0,1-1.211-.529,2.151,2.151,0,0,1-.436-1.414v-4.269h.79v4.269a1.39,1.39,0,0,0,.254.908.94.94,0,0,0,.763.3,1.245,1.245,0,0,0,1.04-.539,2.252,2.252,0,0,0,.4-1.385Z" transform="translate(1327.895 266.775)"/>
          <path id="Trazado_17906" data-name="Trazado 17906" d="M-1241.4-267.093h.8v8.887h-.8Z" transform="translate(1327.276 267.093)"/>
          <path id="Trazado_17907" data-name="Trazado 17907" d="M-1238.758-265.973h.72v1.809h1.154v.7h-1.154v4.242a.545.545,0,0,0,.14.406.582.582,0,0,0,.42.137,1.189,1.189,0,0,0,.593-.2v.8a2.592,2.592,0,0,1-.822.14,1.138,1.138,0,0,1-.8-.287,1.122,1.122,0,0,1-.313-.868v-4.363h-.835v-.7h.835Z" transform="translate(1327.099 266.979)"/>
          <path id="Trazado_17908" data-name="Trazado 17908" d="M-1232.292-263.96h.8v6.073h-.8v-.835a2.52,2.52,0,0,1-.738.73,1.626,1.626,0,0,1-.865.245,1.481,1.481,0,0,1-1.211-.529,2.155,2.155,0,0,1-.436-1.414v-4.269h.79v4.269a1.385,1.385,0,0,0,.255.908.937.937,0,0,0,.762.3,1.243,1.243,0,0,0,1.039-.539,2.251,2.251,0,0,0,.4-1.385Z" transform="translate(1326.681 266.775)"/>
          <path id="Trazado_17909" data-name="Trazado 17909" d="M-1228.583-263.076a2.358,2.358,0,0,1,.641-.782,1.288,1.288,0,0,1,.775-.258,1.574,1.574,0,0,1,.631.139v.752a1.851,1.851,0,0,0-.625-.14,1.211,1.211,0,0,0-1.013.568,2.173,2.173,0,0,0-.408,1.3v3.594h-.783v-6.073h.713Z" transform="translate(1326.054 266.791)"/>
          <path id="Trazado_17910" data-name="Trazado 17910" d="M-1224.83-263.568a3.539,3.539,0,0,1,1.638-.547,1.83,1.83,0,0,1,1.447.554,2.21,2.21,0,0,1,.491,1.506v3.208c0,.234.11.351.331.351a.7.7,0,0,0,.344-.1v.688a1.484,1.484,0,0,1-.624.14q-.829,0-.854-.976a2.366,2.366,0,0,1-.693.73,1.508,1.508,0,0,1-.828.245,1.592,1.592,0,0,1-1.217-.529,1.83,1.83,0,0,1-.491-1.293,1.713,1.713,0,0,1,.608-1.344,5.043,5.043,0,0,1,2.622-.727v-.523a1.151,1.151,0,0,0-.334-.85,1.13,1.13,0,0,0-.832-.335,2.729,2.729,0,0,0-1.605.708Zm2.772,2.53a4.434,4.434,0,0,0-1.985.539,1.107,1.107,0,0,0-.416.886,1.106,1.106,0,0,0,.3.8,1.022,1.022,0,0,0,.77.317,1.156,1.156,0,0,0,.952-.486,1.977,1.977,0,0,0,.375-1.245Z" transform="translate(1325.64 266.791)"/>
          <path id="Trazado_17911" data-name="Trazado 17911" d="M-1216.473-263.96h.886l1.5,5.084,1.309-5.084h.861l-2.047,7.079a4.567,4.567,0,0,1-.668,1.549,1.219,1.219,0,0,1-.994.414,1.045,1.045,0,0,1-.491-.14v-.746a1.547,1.547,0,0,0,.441.083.666.666,0,0,0,.573-.314,5.16,5.16,0,0,0,.5-1.3l.133-.484Z" transform="translate(1324.745 266.775)"/>
          <path id="Trazado_17912" data-name="Trazado 17912" d="M-1207.182-267.093h2.051a2.588,2.588,0,0,1,2.319,1.156,6.1,6.1,0,0,1,.765,3.36,7.178,7.178,0,0,1-.348,2.281,3.046,3.046,0,0,1-1.07,1.568,2.772,2.772,0,0,1-1.667.522h-2.051Zm.866.776v7.359h1.188a1.746,1.746,0,0,0,1.672-.976,6.486,6.486,0,0,0,.511-2.915,5.1,5.1,0,0,0-.53-2.579,1.788,1.788,0,0,0-1.653-.889Z" transform="translate(1323.801 267.093)"/>
          <path id="Trazado_17913" data-name="Trazado 17913" d="M-1196.189-258.54a3.054,3.054,0,0,1-1.895.777,2.113,2.113,0,0,1-1.755-.869,3.613,3.613,0,0,1-.669-2.266,3.692,3.692,0,0,1,.69-2.329,2.127,2.127,0,0,1,1.749-.889,1.821,1.821,0,0,1,1.5.717,2.827,2.827,0,0,1,.567,1.812v.4h-3.682v.313a2.783,2.783,0,0,0,.492,1.79,1.463,1.463,0,0,0,1.156.606,2.573,2.573,0,0,0,1.842-1.013Zm-.662-3.332a1.667,1.667,0,0,0-.388-1.133,1.136,1.136,0,0,0-.845-.377,1.348,1.348,0,0,0-.912.377,2.129,2.129,0,0,0-.6,1.133Z" transform="translate(1323.123 266.791)"/>
          <path id="Trazado_17914" data-name="Trazado 17914" d="M-1194.568-259.222a2.748,2.748,0,0,0,1.7.727,1.63,1.63,0,0,0,1.031-.317.972.972,0,0,0,.408-.8.748.748,0,0,0-.27-.589,3.02,3.02,0,0,0-1.048-.466,3.978,3.978,0,0,1-1.394-.657,1.263,1.263,0,0,1-.44-1.025,1.587,1.587,0,0,1,.593-1.258,2.174,2.174,0,0,1,1.464-.507,3.376,3.376,0,0,1,1.594.494v.9a2.358,2.358,0,0,0-1.555-.663,1.36,1.36,0,0,0-.9.295.893.893,0,0,0-.353.71.678.678,0,0,0,.318.575,3.394,3.394,0,0,0,1.04.435q1.783.5,1.783,1.694a1.713,1.713,0,0,1-.653,1.361,2.376,2.376,0,0,1-1.583.551,3.221,3.221,0,0,1-1.733-.554Z" transform="translate(1322.521 266.791)"/>
          <path id="Trazado_17915" data-name="Trazado 17915" d="M-1188.825-263.568a3.54,3.54,0,0,1,1.638-.547,1.83,1.83,0,0,1,1.447.554,2.21,2.21,0,0,1,.491,1.506v3.208c0,.234.11.351.331.351a.7.7,0,0,0,.343-.1v.688a1.479,1.479,0,0,1-.624.14q-.829,0-.854-.976a2.366,2.366,0,0,1-.694.73,1.508,1.508,0,0,1-.828.245,1.591,1.591,0,0,1-1.217-.529,1.83,1.83,0,0,1-.49-1.293,1.713,1.713,0,0,1,.608-1.344,5.044,5.044,0,0,1,2.622-.727v-.523a1.151,1.151,0,0,0-.334-.85,1.13,1.13,0,0,0-.832-.335,2.729,2.729,0,0,0-1.605.708Zm2.772,2.53a4.435,4.435,0,0,0-1.986.539,1.1,1.1,0,0,0-.416.886,1.1,1.1,0,0,0,.3.8,1.021,1.021,0,0,0,.769.317,1.157,1.157,0,0,0,.953-.486,1.978,1.978,0,0,0,.375-1.245Z" transform="translate(1321.983 266.791)"/>
          <path id="Trazado_17916" data-name="Trazado 17916" d="M-1182.216-263.076a2.346,2.346,0,0,1,.64-.782,1.288,1.288,0,0,1,.774-.258,1.572,1.572,0,0,1,.631.139v.752a1.851,1.851,0,0,0-.625-.14,1.208,1.208,0,0,0-1.012.568,2.167,2.167,0,0,0-.408,1.3v3.594H-1183v-6.073h.713Z" transform="translate(1321.345 266.791)"/>
          <path id="Trazado_17917" data-name="Trazado 17917" d="M-1177.549-263.076a2.343,2.343,0,0,1,.639-.782,1.289,1.289,0,0,1,.775-.258,1.573,1.573,0,0,1,.631.139v.752a1.854,1.854,0,0,0-.625-.14,1.208,1.208,0,0,0-1.012.568,2.167,2.167,0,0,0-.408,1.3v3.594h-.784v-6.073h.713Z" transform="translate(1320.871 266.791)"/>
          <path id="Trazado_17918" data-name="Trazado 17918" d="M-1172.062-264.115a2.029,2.029,0,0,1,1.669.87,3.679,3.679,0,0,1,.668,2.3,4.591,4.591,0,0,1-.264,1.564,2.57,2.57,0,0,1-.818,1.176,2.012,2.012,0,0,1-1.287.439,1.987,1.987,0,0,1-1.717-.9,3.832,3.832,0,0,1-.627-2.25,4.087,4.087,0,0,1,.394-1.86,2.245,2.245,0,0,1,.966-1.064A2.35,2.35,0,0,1-1172.062-264.115Zm.054.751a1.31,1.31,0,0,0-1.2.676,3.588,3.588,0,0,0-.4,1.842,3.265,3.265,0,0,0,.4,1.676,1.231,1.231,0,0,0,1.111.676,1.311,1.311,0,0,0,1.114-.628,3.2,3.2,0,0,0,.437-1.832,3.153,3.153,0,0,0-.427-1.778A1.233,1.233,0,0,0-1172.009-263.364Z" transform="translate(1320.475 266.791)"/>
          <path id="Trazado_17919" data-name="Trazado 17919" d="M-1167.936-267.093h.8v8.887h-.8Z" transform="translate(1319.815 267.093)"/>
          <path id="Trazado_17920" data-name="Trazado 17920" d="M-1165.518-267.093h.8v8.887h-.8Z" transform="translate(1319.569 267.093)"/>
          <path id="Trazado_17921" data-name="Trazado 17921" d="M-1161.022-264.115a2.029,2.029,0,0,1,1.669.87,3.679,3.679,0,0,1,.668,2.3,4.591,4.591,0,0,1-.264,1.564,2.569,2.569,0,0,1-.818,1.176,2.012,2.012,0,0,1-1.287.439,1.987,1.987,0,0,1-1.717-.9,3.833,3.833,0,0,1-.627-2.25,4.088,4.088,0,0,1,.394-1.86,2.245,2.245,0,0,1,.966-1.064A2.349,2.349,0,0,1-1161.022-264.115Zm.054.751a1.311,1.311,0,0,0-1.2.676,3.59,3.59,0,0,0-.4,1.842,3.265,3.265,0,0,0,.4,1.676,1.231,1.231,0,0,0,1.111.676,1.312,1.312,0,0,0,1.114-.628,3.2,3.2,0,0,0,.437-1.832,3.153,3.153,0,0,0-.427-1.778A1.233,1.233,0,0,0-1160.968-263.364Z" transform="translate(1319.354 266.791)"/>
          <path id="Trazado_17922" data-name="Trazado 17922" d="M-1153.384-267.093h2.14a3.022,3.022,0,0,1,1.865.531,1.9,1.9,0,0,1,.7,1.622,2.333,2.333,0,0,1-.443,1.424,2.674,2.674,0,0,1-1.379.908,1.68,1.68,0,0,1,.952.57,2.944,2.944,0,0,1,.468,1.189l.523,2.644h-.925l-.351-2.141a2.948,2.948,0,0,0-.577-1.471,1.485,1.485,0,0,0-1.169-.453h-.961v4.065h-.847Zm.847.776v3.326h.886a2.249,2.249,0,0,0,1.523-.5,1.7,1.7,0,0,0,.58-1.354,1.4,1.4,0,0,0-.414-1.105,1.827,1.827,0,0,0-1.243-.367Z" transform="translate(1318.337 267.093)"/>
          <path id="Trazado_17923" data-name="Trazado 17923" d="M-1143.844-263.96h.8v6.073h-.8v-.835a2.53,2.53,0,0,1-.738.73,1.631,1.631,0,0,1-.865.245,1.483,1.483,0,0,1-1.212-.529,2.155,2.155,0,0,1-.435-1.414v-4.269h.79v4.269a1.385,1.385,0,0,0,.254.908.938.938,0,0,0,.762.3,1.245,1.245,0,0,0,1.04-.539,2.25,2.25,0,0,0,.4-1.385Z" transform="translate(1317.698 266.775)"/>
          <path id="Trazado_17924" data-name="Trazado 17924" d="M-1140.133-263.076a2.344,2.344,0,0,1,.64-.782,1.288,1.288,0,0,1,.775-.258,1.572,1.572,0,0,1,.631.139v.752a1.853,1.853,0,0,0-.625-.14,1.208,1.208,0,0,0-1.012.568,2.167,2.167,0,0,0-.408,1.3v3.594h-.784v-6.073h.713Z" transform="translate(1317.071 266.791)"/>
          <path id="Trazado_17925" data-name="Trazado 17925" d="M-1136.381-263.568a3.538,3.538,0,0,1,1.639-.547,1.826,1.826,0,0,1,1.446.554,2.209,2.209,0,0,1,.491,1.506v3.208c0,.234.11.351.332.351a.7.7,0,0,0,.344-.1v.688a1.483,1.483,0,0,1-.624.14q-.829,0-.854-.976a2.366,2.366,0,0,1-.694.73,1.506,1.506,0,0,1-.828.245,1.592,1.592,0,0,1-1.217-.529,1.83,1.83,0,0,1-.49-1.293,1.712,1.712,0,0,1,.607-1.344,5.047,5.047,0,0,1,2.622-.727v-.523a1.151,1.151,0,0,0-.334-.85,1.129,1.129,0,0,0-.832-.335,2.729,2.729,0,0,0-1.605.708Zm2.772,2.53a4.434,4.434,0,0,0-1.985.539,1.107,1.107,0,0,0-.416.886,1.107,1.107,0,0,0,.3.8,1.022,1.022,0,0,0,.77.317,1.156,1.156,0,0,0,.952-.486,1.971,1.971,0,0,0,.375-1.245Z" transform="translate(1316.657 266.791)"/>
          <path id="Trazado_17926" data-name="Trazado 17926" d="M-1130.64-267.093h.8v8.887h-.8Z" transform="translate(1316.027 267.093)"/>
        </g>
        <g id="Grupo_6990" data-name="Grupo 6990" transform="translate(0 8.616)">
          <path id="Trazado_17927" data-name="Trazado 17927" d="M-1333.091-253.535h3.572l4.06,12.688h-3.913l-.547-2.519h-2.956l-.563,2.519h-3.68Zm1.714,3.466-.99,4.428h1.953Z" transform="translate(1337.118 257.1)"/>
          <path id="Trazado_17928" data-name="Trazado 17928" d="M-1322.837-253.535h3.6v10.1h4.95v2.592h-8.552Z" transform="translate(1335.668 257.1)"/>
          <path id="Trazado_17929" data-name="Trazado 17929" d="M-1312.322-253.535h3.624v12.688h-3.624Z" transform="translate(1334.6 257.1)"/>
          <path id="Trazado_17930" data-name="Trazado 17930" d="M-1305.815-253.535h3.934l2.154,4.857,2.155-4.857h3.944v12.688h-3.514v-4.747q0-1.8.177-3.656h-.265a18.662,18.662,0,0,1-.917,2.527l-1.58,3.7-1.57-3.7a19.267,19.267,0,0,1-.917-2.527h-.277a33.561,33.561,0,0,1,.188,3.656v4.747h-3.514Z" transform="translate(1333.939 257.1)"/>
          <path id="Trazado_17931" data-name="Trazado 17931" d="M-1289.789-253.535H-1281v2.556h-5.195v2.337h4.841v2.474h-4.841v2.729H-1281v2.592h-8.786Z" transform="translate(1332.311 257.1)"/>
          <path id="Trazado_17932" data-name="Trazado 17932" d="M-1278.067-253.535h3.658l1.756,4.021a33.217,33.217,0,0,1,1.2,3.1h.188l-.087-2.147v-4.975h3.447v12.688h-3.646l-1.757-4.02a32.94,32.94,0,0,1-1.2-3.11h-.2l.088,2.145v4.985h-3.447Z" transform="translate(1331.121 257.1)"/>
          <path id="Trazado_17933" data-name="Trazado 17933" d="M-1264.968-253.535h9.735v2.574h-3.128v10.114h-3.591v-10.114h-3.016Z" transform="translate(1329.79 257.1)"/>
          <path id="Trazado_17934" data-name="Trazado 17934" d="M-1248.2-253.767a5.722,5.722,0,0,1,4.409,1.737,6.7,6.7,0,0,1,1.614,4.747,6.908,6.908,0,0,1-1.625,4.817,5.412,5.412,0,0,1-4.209,1.8,4.985,4.985,0,0,1-4.155-1.864,7.275,7.275,0,0,1-1.47-4.648,8.044,8.044,0,0,1,.719-3.461,5.268,5.268,0,0,1,2.011-2.329A5.092,5.092,0,0,1-1248.2-253.767Zm.385,2.673a1.807,1.807,0,0,0-1.657,1.029,5.775,5.775,0,0,0-.575,2.81,6.026,6.026,0,0,0,.558,2.842,1.7,1.7,0,0,0,1.542,1.032,1.751,1.751,0,0,0,1.558-1.064,5.883,5.883,0,0,0,.587-2.838,5.538,5.538,0,0,0-.592-2.824A1.682,1.682,0,0,0-1247.817-251.094Z" transform="translate(1328.64 257.124)"/>
          <path id="Trazado_17935" data-name="Trazado 17935" d="M-1232.633-253.535h8.785v2.556h-5.194v2.337h4.84v2.474h-4.84v2.729h5.194v2.592h-8.785Z" transform="translate(1326.506 257.1)"/>
          <path id="Trazado_17936" data-name="Trazado 17936" d="M-1213.132-241.189a7.046,7.046,0,0,1-2.542.518,5.076,5.076,0,0,1-4.132-1.864,7.055,7.055,0,0,1-1.536-4.639,8.115,8.115,0,0,1,.657-3.238,5.45,5.45,0,0,1,2.039-2.442,5.6,5.6,0,0,1,3.16-.914,6.85,6.85,0,0,1,2.354.463v2.9a2.917,2.917,0,0,0-1.878-.709,2.284,2.284,0,0,0-1.973,1.036,5.226,5.226,0,0,0-.723,3,4.552,4.552,0,0,0,.723,2.7,2.248,2.248,0,0,0,1.917,1.014,3.654,3.654,0,0,0,1.933-.683Z" transform="translate(1325.359 257.124)"/>
          <path id="Trazado_17937" data-name="Trazado 17937" d="M-1205.29-253.767a5.722,5.722,0,0,1,4.409,1.737,6.7,6.7,0,0,1,1.614,4.747,6.907,6.907,0,0,1-1.625,4.817,5.412,5.412,0,0,1-4.209,1.8,4.985,4.985,0,0,1-4.155-1.864,7.274,7.274,0,0,1-1.47-4.648,8.06,8.06,0,0,1,.719-3.461,5.269,5.269,0,0,1,2.011-2.329A5.092,5.092,0,0,1-1205.29-253.767Zm.385,2.673a1.807,1.807,0,0,0-1.657,1.029,5.773,5.773,0,0,0-.575,2.81,6.026,6.026,0,0,0,.558,2.842,1.7,1.7,0,0,0,1.542,1.032,1.75,1.75,0,0,0,1.558-1.064,5.883,5.883,0,0,0,.587-2.838,5.537,5.537,0,0,0-.592-2.824A1.682,1.682,0,0,0-1204.9-251.094Z" transform="translate(1324.281 257.124)"/>
          <path id="Trazado_17938" data-name="Trazado 17938" d="M-1196.153-253.535h3.6v10.1h4.95v2.592h-8.553Z" transform="translate(1322.801 257.1)"/>
          <path id="Trazado_17939" data-name="Trazado 17939" d="M-1180.887-254.146a5.722,5.722,0,0,1,4.409,1.737,6.7,6.7,0,0,1,1.614,4.747,6.906,6.906,0,0,1-1.624,4.817,5.415,5.415,0,0,1-4.21,1.8,4.987,4.987,0,0,1-4.155-1.864,7.274,7.274,0,0,1-1.47-4.648,8.058,8.058,0,0,1,.719-3.461,5.269,5.269,0,0,1,2.011-2.329A5.092,5.092,0,0,1-1180.887-254.146Zm.386,2.673a1.808,1.808,0,0,0-1.658,1.029,5.775,5.775,0,0,0-.575,2.81,6.028,6.028,0,0,0,.558,2.842,1.706,1.706,0,0,0,1.542,1.032,1.752,1.752,0,0,0,1.559-1.064,5.9,5.9,0,0,0,.586-2.838,5.546,5.546,0,0,0-.591-2.824A1.684,1.684,0,0,0-1180.5-251.474Zm.155-6.029h2.8l-2.309,2.674h-2.1Z" transform="translate(1321.803 257.503)"/>
          <path id="Trazado_17940" data-name="Trazado 17940" d="M-1165.149-241.825a3.811,3.811,0,0,1-1.138.863,2.965,2.965,0,0,1-1.293.291,4.056,4.056,0,0,1-2.447-.842,4.84,4.84,0,0,1-1.685-2.4,9.949,9.949,0,0,1-.541-3.288,6.958,6.958,0,0,1,1.585-4.752,5.4,5.4,0,0,1,4.283-1.814,6.978,6.978,0,0,1,3.248.746v2.813a4.579,4.579,0,0,0-2.535-.94,2.527,2.527,0,0,0-2.248,1.1,5.308,5.308,0,0,0-.741,3,6.512,6.512,0,0,0,.5,2.806,1.532,1.532,0,0,0,1.371,1.041.719.719,0,0,0,.659-.354,2.079,2.079,0,0,0,.217-1.065v-.792h-1.182v-2.283h4.531v6.822h-1.747Z" transform="translate(1320.374 257.124)"/>
          <path id="Trazado_17941" data-name="Trazado 17941" d="M-1159.13-253.535h3.624v12.688h-3.624Z" transform="translate(1319.041 257.1)"/>
          <path id="Trazado_17942" data-name="Trazado 17942" d="M-1144.905-241.189a7.049,7.049,0,0,1-2.542.518,5.079,5.079,0,0,1-4.133-1.864,7.059,7.059,0,0,1-1.536-4.639,8.1,8.1,0,0,1,.658-3.238,5.454,5.454,0,0,1,2.039-2.442,5.6,5.6,0,0,1,3.161-.914,6.858,6.858,0,0,1,2.354.463v2.9a2.921,2.921,0,0,0-1.879-.709,2.283,2.283,0,0,0-1.972,1.036,5.223,5.223,0,0,0-.724,3,4.55,4.55,0,0,0,.724,2.7,2.247,2.247,0,0,0,1.917,1.014,3.654,3.654,0,0,0,1.933-.683Z" transform="translate(1318.43 257.124)"/>
          <path id="Trazado_17943" data-name="Trazado 17943" d="M-1137.065-253.767a5.722,5.722,0,0,1,4.409,1.737,6.7,6.7,0,0,1,1.614,4.747,6.907,6.907,0,0,1-1.625,4.817,5.414,5.414,0,0,1-4.21,1.8,4.987,4.987,0,0,1-4.155-1.864,7.274,7.274,0,0,1-1.47-4.648,8.06,8.06,0,0,1,.719-3.461,5.278,5.278,0,0,1,2.012-2.329A5.089,5.089,0,0,1-1137.065-253.767Zm.386,2.673a1.808,1.808,0,0,0-1.658,1.029,5.775,5.775,0,0,0-.574,2.81,6.026,6.026,0,0,0,.558,2.842,1.7,1.7,0,0,0,1.541,1.032,1.752,1.752,0,0,0,1.559-1.064,5.9,5.9,0,0,0,.586-2.838,5.546,5.546,0,0,0-.591-2.824A1.683,1.683,0,0,0-1136.678-251.094Z" transform="translate(1317.352 257.124)"/>
        </g>
      </g>
    </g>
    <text id="Esta_Resolución_del_Ministerio_de_Agricultura_y_Desarrollo_Rural_crea_el_Sello_de_Alimento_Ecológico_y_determina_los_principios_directrices_y_requisitos_necesarios_para_otorgarlo_a_los_agricultores_que_cumplan_con_ellos._El_propósito_de_este_sello_de_Ali" data-name="Esta Resolución del Ministerio de Agricultura y Desarrollo Rural crea el Sello de Alimento Ecológico y determina los principios, directrices y requisitos necesarios para otorgarlo a los agricultores que cumplan con ellos.

El propósito de este sello de Ali" transform="translate(-1741.429 -461.658)" font-size="16" font-family="MyriadPro-Regular, Myriad Pro"><tspan x="0" y="12">Esta Resolución del Ministerio de Agricultura </tspan><tspan x="0" y="31.2">y Desarrollo Rural crea el Sello de Alimento </tspan><tspan x="0" y="50.4">Ecológico y determina los principios, </tspan><tspan x="0" y="69.6">directrices y requisitos necesarios para </tspan><tspan x="0" y="88.8">otorgarlo a los agricultores que cumplan con </tspan><tspan x="0" y="108">ellos.</tspan><tspan x="0" y="127.2"></tspan><tspan x="0" y="146.4">El propósito de este sello de Alimento </tspan><tspan x="0" y="165.6">Ecológico, es en primer lugar, propiciar la </tspan><tspan x="0" y="184.8">producción, la comercialización y el </tspan><tspan x="0" y="204">consumo de alimentos producidos bajo </tspan><tspan x="0" y="223.2">parámetros ecológicos. Y en segunda </tspan><tspan x="0" y="242.4">medida, es permitirle al consumidor tener </tspan><tspan x="0" y="261.6">acceso a la información suficiente, de manera </tspan><tspan x="0" y="280.8">oportuna y confiable para que pueda </tspan></text>
  </g>
</svg>
