<?xml version="1.0" encoding="utf-8"?>
<!-- Generator: Adobe Illustrator 24.1.2, SVG Export Plug-In . SVG Version: 6.00 Build 0)  -->
<svg version="1.1" id="Capa_1" xmlns="http://www.w3.org/2000/svg" xmlns:xlink="http://www.w3.org/1999/xlink" x="0px" y="0px"
	 viewBox="0 0 480 495.2" style="enable-background:new 0 0 480 495.2;" xml:space="preserve">
<style type="text/css">
	.st0{fill:#7CB342;}
</style>
<g id="Outline">
	<path class="st0" d="M472,127.2h-24v-8c0-4.4-3.6-8-8-8h-77.3l-29.9-22.4c-1.4-1-3.1-1.6-4.8-1.6h-14.5l1.4-0.6c3-1.2,5-4.2,5-7.4
		c0-26.5-21.5-48-48-48h-56v16h56c15.6,0,29,11.3,31.6,26.8l-33.1,13.2H217c-9.1,0-17.5,5-21.9,13L160,75V47.2h40v-16h-80
		c-4.4,0-8,3.6-8,8v40c0,4.4,3.6,8,8,8h8c-13.3,0-24,10.7-24,24s10.7,24,24,24h16v32c0,4.4,3.6,8,8,8h1.4c-2.9,8.3-1.1,17.5,4.8,24
		c-8.2,9.1-8.2,22.9,0,32c-8.8,9.8-8,25,1.8,33.8c0.6,0.6,1.3,1.1,2,1.6c-4.8,11.2-9,22.6-12.5,34.3l15.3,4.6
		c3.5-11.7,7.7-23.1,12.6-34.3H216c13.2,0,24-10.7,24-24c0-5.9-2.2-11.6-6.1-16c8.2-9.1,8.2-22.9,0-32c8.2-9.1,8.2-22.9,0-32h31.9
		l6.2,24.9c5.6,22.5,13.7,44.4,24.1,65.2c10.5,20.9,18.5,43,23.8,65.8c5.4,22.8,8.1,46.1,8.1,69.5v70.7c0,8.8-7.2,16-16,16H168
		c-8.8,0-16-7.2-16-16v-70.7c0-21.4,2.3-42.7,6.8-63.6l-15.6-3.4c-4.7,22-7.1,44.4-7.1,66.9v70.7c0,17.7,14.3,32,32,32h144
		c17.7,0,32-14.3,32-32v-70.7c0-24.6-2.9-49.2-8.5-73.1c-5.7-24-14.1-47.2-25.1-69.2c-9.9-19.7-17.5-40.5-22.9-61.9l-3.9-15.7
		c10.9,7,23.5,10.7,36.4,10.7v-16c-20.9,0.1-39.7-12.7-47.4-32.1l-1.1-2.9c-1.1-2.7-3.5-4.6-6.4-5l-49.1-6.1
		c-4.9-0.7-8.4-5.2-7.7-10.1c0.6-4.5,4.4-7.8,8.9-7.8h108.3l29.9,22.4c1.4,1,3.1,1.6,4.8,1.6h72v112h-16v-88h-16v88h-72v16h112
		c4.4,0,8-3.6,8-8v-8h24c4.4,0,8-3.6,8-8v-96C480,130.7,476.4,127.2,472,127.2L472,127.2z M189,122.8c1-1.8,1.8-3.7,2.3-5.8l1.5,1.1
		c1.2,4.7,3.7,9,7.3,12.4v27.7l-0.2,1h-14.8L189,122.8z M128,47.2h16v24h-16V47.2z M120,111.2c0-4.4,3.6-8,8-8h40c4.4,0,8,3.6,8,8
		s-3.6,8-8,8h-40C123.6,119.2,120,115.6,120,111.2z M171.5,134.9l-2.7,24.3H160v-24C160,135.2,170.4,135.1,171.5,134.9z M216,175.2
		c4.4,0,8,3.6,8,8s-3.6,8-8,8h-40c-4.4,0-8-3.6-8-8s3.6-8,8-8H216z M224,215.2c0,4.4-3.6,8-8,8h-40c-4.4,0-8-3.6-8-8s3.6-8,8-8h40
		C220.4,207.2,224,210.7,224,215.2z M216,255.2h-40c-4.4,0-8-3.6-8-8s3.6-8,8-8h40c4.4,0,8,3.6,8,8S220.4,255.2,216,255.2z
		 M262.8,151.2H216v-13.9l42.3,5.3C259.6,145.5,261.1,148.4,262.8,151.2z M464,223.2h-16v-80h16V223.2z"/>
	<path class="st0" d="M56,71.2h32v16H56V71.2z"/>
	<path class="st0" d="M0,71.2h32v16H0V71.2z"/>
	<path class="st0" d="M57.1,39.3L64.2,25l28.6,14.3l-7.1,14.3L57.1,39.3z"/>
	<path class="st0" d="M7,14.3L14.1,0l28.6,14.3l-7.1,14.3L7,14.3z"/>
	<path class="st0" d="M57.1,118.3L85.7,104l7.1,14.3l-28.6,14.3L57.1,118.3z"/>
	<path class="st0" d="M7,143.3L35.6,129l7.1,14.3l-28.6,14.3L7,143.3z"/>
	<path class="st0" d="M248,415.2c30.9,0,56-25.1,56-56v-32c0-4.4-3.6-8-8-8h-64c-30.9,0-56,25.1-56,56v32c0,4.4,3.6,8,8,8H248z
		 M192,375.2c0-22.1,17.9-40,40-40h56v24c0,22.1-17.9,40-40,40h-56V375.2z"/>
</g>
</svg>
