<svg xmlns="http://www.w3.org/2000/svg" width="450" height="579.427" viewBox="0 0 450 579.427">
  <g id="Grupo_3155" data-name="Grupo 3155" transform="translate(-167 -1469)">
    <g id="Rectángulo_1036" data-name="Rectángulo 1036" transform="translate(167 1581)" fill="#fff" stroke="#707070" stroke-width="1">
      <rect width="450" height="148" stroke="none"/>
      <rect x="0.5" y="0.5" width="449" height="147" fill="none"/>
    </g>
    <g id="Trazado_4940" data-name="Trazado 4940" transform="translate(167 1739)" fill="#fff">
      <path d="M 449.5 148.9270935058594 L 0.5 148.9270935058594 L 0.5 0.4999759495258331 L 449.5 0.4999759495258331 L 449.5 148.9270935058594 Z" stroke="none"/>
      <path d="M 1 0.999969482421875 L 1 148.4270935058594 L 449 148.4270935058594 L 449 0.999969482421875 L 1 0.999969482421875 M 0 -3.0517578125e-05 L 450 -3.0517578125e-05 L 450 149.4270935058594 L 0 149.4270935058594 L 0 -3.0517578125e-05 Z" stroke="none" fill="#707070"/>
    </g>
    <g id="Trazado_4941" data-name="Trazado 4941" transform="translate(167 1899)" fill="#fff">
      <path d="M 449.5 148.9270935058594 L 0.5 148.9270935058594 L 0.5 0.4999759495258331 L 449.5 0.4999759495258331 L 449.5 148.9270935058594 Z" stroke="none"/>
      <path d="M 1 0.999969482421875 L 1 148.4270935058594 L 449 148.4270935058594 L 449 0.999969482421875 L 1 0.999969482421875 M 0 -3.0517578125e-05 L 450 -3.0517578125e-05 L 450 149.4270935058594 L 0 149.4270935058594 L 0 -3.0517578125e-05 Z" stroke="none" fill="#707070"/>
    </g>
    <g id="Trazado_4935" data-name="Trazado 4935" transform="translate(167 1469)" fill="#00223d">
      <path d="M 449.5 104.5 L 0.5 104.5 L 0.5 4 C 0.5 2.070111036300659 2.070111036300659 0.5 4 0.5 L 446 0.5 C 447.9299011230469 0.5 449.5 2.070111036300659 449.5 4 L 449.5 104.5 Z" stroke="none"/>
      <path d="M 4 1 C 2.34576416015625 1 1 2.345779418945312 1 4 L 1 104 L 449 104 L 449 4 C 449 2.345779418945312 447.6542358398438 1 446 1 L 4 1 M 4 0 L 446 0 C 448.2091064453125 0 450 1.790885925292969 450 4 L 450 105 L 0 105 L 0 4 C 0 1.790885925292969 1.79083251953125 0 4 0 Z" stroke="none" fill="#1c7cd5"/>
    </g>
    <text id="Mecanismo_de_Desarrollo_Limpio" data-name="Mecanismo de Desarrollo Limpio" transform="translate(189 1503)" fill="#fff" font-size="16" font-family="Montserrat-Bold, Montserrat" font-weight="700"><tspan x="0" y="0">Mecanismo de Desarrollo Limpio</tspan></text>
    <text id="Aprovechamiento_sostenible_de_los_recursos_naturales_y_de_la_biodiversidad" data-name="Aprovechamiento sostenible de los
recursos naturales y de la biodiversidad" transform="translate(189 1615)" fill="#00223d" font-size="16" font-family="Montserrat-Bold, Montserrat" font-weight="700"><tspan x="0" y="0">Aprovechamiento sostenible de los</tspan><tspan x="0" y="19">recursos naturales y de la biodiversidad</tspan></text>
    <text id="Ecoproductos_industriales" data-name="Ecoproductos industriales" transform="translate(189 1773)" fill="#00223d" font-size="16" font-family="Montserrat-Bold, Montserrat" font-weight="700"><tspan x="0" y="0">Ecoproductos industriales</tspan></text>
    <text id="Servicios_ambientales" data-name="Servicios ambientales" transform="translate(189 1933)" fill="#00223d" font-size="16" font-family="Montserrat-Bold, Montserrat" font-weight="700"><tspan x="0" y="0">Servicios ambientales</tspan></text>
    <text id="Busca_la_reducción_y_captura_de_los_gases_efecto_invernadero." data-name="Busca la reducción y captura de los gases efecto invernadero." transform="translate(189 1517)" fill="#fff" font-size="16" font-family="OpenSans, Open Sans"><tspan x="0" y="17">Busca la reducción y captura de los gases </tspan><tspan x="0" y="36">efecto invernadero.</tspan></text>
    <text id="Cubre_toda_la_gama_de_productos_obtenidos_mediante_la_adecuada_utilización_de_los_recursos." data-name="Cubre toda la gama de productos obtenidos mediante la adecuada utilización de los recursos." transform="translate(189 1653)" fill="#00223d" font-size="16" font-family="OpenSans, Open Sans"><tspan x="0" y="17">Cubre toda la gama de productos obtenidos </tspan><tspan x="0" y="36">mediante la adecuada utilización de los </tspan><tspan x="0" y="55">recursos.</tspan></text>
    <text id="Son_aquellos_bienes_que_en_su_proceso_productivo_resultan_ser_menos_contaminantes_al_medio_o_generan_beneficios_al_medio_ambiente." data-name="Son aquellos bienes que en su proceso productivo resultan ser menos contaminantes al medio o generan beneficios al medio ambiente." transform="translate(189 1794)" fill="#00223d" font-size="16" font-family="OpenSans, Open Sans"><tspan x="0" y="17">Son aquellos bienes que en su proceso </tspan><tspan x="0" y="36">productivo resultan ser menos contaminantes </tspan><tspan x="0" y="55">al medio o generan beneficios al medio </tspan><tspan x="0" y="74">ambiente.</tspan></text>
    <text id="Son_los_beneficios_que_la_naturaleza_proporciona_al_entorno_para_su_equilibrio_como_el_balance_de_acuíferos_la_capa_de_ozono_parques_naturales_y_atractivos_paisajísticos." data-name="Son los beneficios que la naturaleza proporciona al entorno para su equilibrio como el balance de acuíferos, la capa de ozono, parques naturales y atractivos paisajísticos." transform="translate(189 1954)" fill="#00223d" font-size="16" font-family="OpenSans, Open Sans"><tspan x="0" y="17">Son los beneficios que la naturaleza </tspan><tspan x="0" y="36">proporciona al entorno para su equilibrio como </tspan><tspan x="0" y="55">el balance de acuíferos, la capa de ozono, </tspan><tspan x="0" y="74">parques naturales y atractivos paisajísticos.</tspan></text>
  </g>
</svg>
