<svg id="Grupo_1002" data-name="Grupo 1002" xmlns="http://www.w3.org/2000/svg" width="58.076" height="68.684" viewBox="0 0 58.076 68.684">
  <g id="Grupo_1001" data-name="Grupo 1001" transform="translate(0)">
    <g id="Grupo_1000" data-name="Grupo 1000" transform="translate(0)">
      <path id="Trazado_1459" data-name="Trazado 1459" d="M110.006,87.08H105.56V85.345a1.47,1.47,0,0,0-1.47-1.47H88.971a1.47,1.47,0,0,0-1.47,1.47V87.08H71.331A17.952,17.952,0,0,0,53.4,105.011v16a1.47,1.47,0,0,0,1.47,1.47H70.482a1.47,1.47,0,0,0,1.47-1.47V108.791a3.163,3.163,0,0,1,3.159-3.16H87.5v1.735a1.47,1.47,0,0,0,1.47,1.47h15.12a1.47,1.47,0,0,0,1.47-1.47v-1.735h4.447a1.47,1.47,0,0,0,1.47-1.47V88.549A1.47,1.47,0,0,0,110.006,87.08ZM87.5,102.692H75.111a6.106,6.106,0,0,0-6.1,6.1v10.747H56.339V105.011A15.009,15.009,0,0,1,71.331,90.019H87.5Zm15.12-14.143V105.9H90.44V86.814h12.181Zm5.916,14.143H105.56V90.019h2.977Z" transform="translate(-53.4 -73.332)" fill="#7cb342"/>
      <path id="Trazado_1460" data-name="Trazado 1460" d="M202.454,143.849h3.287a1.47,1.47,0,0,0,0-2.939h-3.287a1.47,1.47,0,0,0,0,2.939Z" transform="translate(-179.296 -121.69)" fill="#7cb342"/>
      <path id="Trazado_1461" data-name="Trazado 1461" d="M88.628,154.007a1.47,1.47,0,1,0,2.939,0,10.169,10.169,0,0,1,10.158-10.158,1.47,1.47,0,1,0,0-2.939A13.112,13.112,0,0,0,88.628,154.007Z" transform="translate(-83.451 -121.982)" fill="#7cb342"/>
      <path id="Trazado_1462" data-name="Trazado 1462" d="M271.267,2.939h8.555v5.1a1.47,1.47,0,1,0,2.939,0v-5.1h8.556a1.47,1.47,0,0,0,0-2.939h-20.05a1.47,1.47,0,1,0,0,2.939Z" transform="translate(-237.997)" fill="#7cb342"/>
      <path id="Trazado_1463" data-name="Trazado 1463" d="M76.295,385.824a1.47,1.47,0,0,0-1.244.687c-.789,1.254-4.722,7.652-4.722,10.419a5.967,5.967,0,1,0,11.933,0c0-2.767-3.934-9.164-4.722-10.419A1.47,1.47,0,0,0,76.295,385.824Zm0,14.133a3.031,3.031,0,0,1-3.028-3.028c0-1.014,1.413-3.968,3.028-6.781,1.615,2.813,3.028,5.767,3.028,6.781A3.031,3.031,0,0,1,76.295,399.957Z" transform="translate(-67.84 -334.212)" fill="#7cb342"/>
    </g>
  </g>
</svg>
