<svg xmlns="http://www.w3.org/2000/svg" width="70.002" height="70.002" viewBox="0 0 70.002 70.002">
  <g id="Grupo_1052" data-name="Grupo 1052" transform="translate(-0.001)">
    <g id="Grupo_1021" data-name="Grupo 1021" transform="translate(46.715 7.428)">
      <g id="Grupo_1020" data-name="Grupo 1020">
        <path id="Trazado_1487" data-name="Trazado 1487" d="M349.6,54.328a7.93,7.93,0,1,0,7.93,7.93A7.939,7.939,0,0,0,349.6,54.328Zm0,13.125a5.2,5.2,0,1,1,5.2-5.2A5.2,5.2,0,0,1,349.6,67.453Z" transform="translate(-341.672 -54.328)" fill="#7cb342"/>
      </g>
    </g>
    <g id="Grupo_1023" data-name="Grupo 1023" transform="translate(53.278)">
      <g id="Grupo_1022" data-name="Grupo 1022">
        <path id="Trazado_1488" data-name="Trazado 1488" d="M391.039,0a1.367,1.367,0,0,0-1.367,1.367V2.782a1.367,1.367,0,1,0,2.734,0V1.367A1.367,1.367,0,0,0,391.039,0Z" transform="translate(-389.672)" fill="#7cb342"/>
      </g>
    </g>
    <g id="Grupo_1025" data-name="Grupo 1025" transform="translate(53.278 26.566)">
      <g id="Grupo_1024" data-name="Grupo 1024">
        <path id="Trazado_1489" data-name="Trazado 1489" d="M391.039,194.3a1.367,1.367,0,0,0-1.367,1.367v1.415a1.367,1.367,0,1,0,2.734,0v-1.415A1.367,1.367,0,0,0,391.039,194.3Z" transform="translate(-389.672 -194.304)" fill="#7cb342"/>
      </g>
    </g>
    <g id="Grupo_1027" data-name="Grupo 1027" transform="translate(65.853 13.99)">
      <g id="Grupo_1026" data-name="Grupo 1026">
        <path id="Trazado_1490" data-name="Trazado 1490" d="M484.432,102.328h-1.415a1.367,1.367,0,1,0,0,2.734h1.415a1.367,1.367,0,0,0,0-2.734Z" transform="translate(-481.649 -102.328)" fill="#7cb342"/>
      </g>
    </g>
    <g id="Grupo_1029" data-name="Grupo 1029" transform="translate(39.287 13.99)">
      <g id="Grupo_1028" data-name="Grupo 1028">
        <path id="Trazado_1491" data-name="Trazado 1491" d="M290.128,102.328h-1.415a1.367,1.367,0,0,0,0,2.734h1.415a1.367,1.367,0,1,0,0-2.734Z" transform="translate(-287.345 -102.328)" fill="#7cb342"/>
      </g>
    </g>
    <g id="Grupo_1031" data-name="Grupo 1031" transform="translate(62.17 4.098)">
      <g id="Grupo_1030" data-name="Grupo 1030">
        <path id="Trazado_1492" data-name="Trazado 1492" d="M458.045,30.372a1.367,1.367,0,0,0-1.934,0l-1,1a1.367,1.367,0,0,0,1.934,1.934l1-1A1.367,1.367,0,0,0,458.045,30.372Z" transform="translate(-454.71 -29.971)" fill="#7cb342"/>
      </g>
    </g>
    <g id="Grupo_1033" data-name="Grupo 1033" transform="translate(43.385 22.882)">
      <g id="Grupo_1032" data-name="Grupo 1032">
        <path id="Trazado_1493" data-name="Trazado 1493" d="M320.651,167.765a1.367,1.367,0,0,0-1.934,0l-1,1a1.367,1.367,0,1,0,1.934,1.934l1-1A1.367,1.367,0,0,0,320.651,167.765Z" transform="translate(-317.316 -167.364)" fill="#7cb342"/>
      </g>
    </g>
    <g id="Grupo_1035" data-name="Grupo 1035" transform="translate(62.17 22.882)">
      <g id="Grupo_1034" data-name="Grupo 1034">
        <path id="Trazado_1494" data-name="Trazado 1494" d="M458.045,168.765l-1-1a1.367,1.367,0,0,0-1.934,1.934l1,1a1.367,1.367,0,1,0,1.934-1.934Z" transform="translate(-454.71 -167.364)" fill="#7cb342"/>
      </g>
    </g>
    <g id="Grupo_1037" data-name="Grupo 1037" transform="translate(43.385 4.098)">
      <g id="Grupo_1036" data-name="Grupo 1036">
        <path id="Trazado_1495" data-name="Trazado 1495" d="M320.65,31.371l-1-1a1.367,1.367,0,0,0-1.934,1.934l1,1a1.367,1.367,0,1,0,1.934-1.934Z" transform="translate(-317.315 -29.97)" fill="#7cb342"/>
      </g>
    </g>
    <g id="Grupo_1039" data-name="Grupo 1039" transform="translate(0.001 0.135)">
      <g id="Grupo_1038" data-name="Grupo 1038" transform="translate(0)">
        <path id="Trazado_1496" data-name="Trazado 1496" d="M18.969,10.972l-.005-.007L11.787,1.525A1.368,1.368,0,0,0,10.7.985h0a1.368,1.368,0,0,0-1.085.535L2.4,10.911c-.017.022-.032.043-.047.066A11.011,11.011,0,0,0,0,17.788,10.778,10.778,0,0,0,10.665,28.652,10.778,10.778,0,0,0,21.33,17.788,11.016,11.016,0,0,0,18.969,10.972Zm-8.3,14.946a8.041,8.041,0,0,1-7.93-8.129A8.265,8.265,0,0,1,4.558,12.6a1.364,1.364,0,0,0,.084-.116L10.693,4.6l6.071,7.985.043.056A8.27,8.27,0,0,1,18.6,17.788,8.041,8.041,0,0,1,10.665,25.918Z" transform="translate(-0.001 -0.985)" fill="#7cb342"/>
      </g>
    </g>
    <g id="Grupo_1041" data-name="Grupo 1041" transform="translate(9.298 15.571)">
      <g id="Grupo_1040" data-name="Grupo 1040">
        <path id="Trazado_1497" data-name="Trazado 1497" d="M74.017,113.887a1.367,1.367,0,0,0-1.367,1.367,3.336,3.336,0,0,1-3.281,3.381,1.367,1.367,0,0,0,0,2.734,6.073,6.073,0,0,0,6.016-6.116A1.367,1.367,0,0,0,74.017,113.887Z" transform="translate(-68.001 -113.887)" fill="#7cb342"/>
      </g>
    </g>
    <g id="Grupo_1043" data-name="Grupo 1043" transform="translate(48.323 48.383)">
      <g id="Grupo_1042" data-name="Grupo 1042">
        <path id="Trazado_1498" data-name="Trazado 1498" d="M355.821,354.277a1.367,1.367,0,0,0-1.934,0l-.052.051a1.367,1.367,0,1,0,1.923,1.944l.065-.065A1.367,1.367,0,0,0,355.821,354.277Z" transform="translate(-353.43 -353.878)" fill="#7cb342"/>
      </g>
    </g>
    <g id="Grupo_1045" data-name="Grupo 1045" transform="translate(17.361 33.641)">
      <g id="Grupo_1044" data-name="Grupo 1044">
        <path id="Trazado_1499" data-name="Trazado 1499" d="M164.655,247.481a1.367,1.367,0,0,0-.953-.887l-.006,0a15.865,15.865,0,0,0-15.55,4.355,16.488,16.488,0,0,0-4.2,6.806,15.185,15.185,0,0,0-2.16-2.7,13.624,13.624,0,0,0-13.354-3.735h0a1.367,1.367,0,0,0-.95.886,14.012,14.012,0,0,0,15.772,17.474v3.265a10.472,10.472,0,0,0-6.344,3.031l-4.105,4.105a1.367,1.367,0,0,0,1.934,1.934l4.105-4.105a7.818,7.818,0,0,1,11.056,0L154,282.015a1.367,1.367,0,1,0,1.934-1.934l-4.105-4.105a10.474,10.474,0,0,0-5.845-2.967v-5.236a15.913,15.913,0,0,0,8.854-.926,1.367,1.367,0,0,0-1.041-2.529,13.153,13.153,0,0,1-5.846.941l6.088-6.088a1.367,1.367,0,0,0-1.934-1.934l-6.091,6.092a13.22,13.22,0,0,1,4.066-10.449,13.162,13.162,0,0,1,12.16-3.834,13.128,13.128,0,0,1-.692,7.479,1.367,1.367,0,0,0,2.535,1.025A15.56,15.56,0,0,0,164.655,247.481Zm-21.4,17.712-4.821-4.821a1.367,1.367,0,0,0-1.934,1.934l4.812,4.812a11.542,11.542,0,0,1-11.418-13.34,11.544,11.544,0,0,1,13.36,11.416Z" transform="translate(-126.976 -246.055)" fill="#7cb342"/>
      </g>
    </g>
    <g id="Grupo_1047" data-name="Grupo 1047" transform="translate(7.384 31.651)">
      <g id="Grupo_1046" data-name="Grupo 1046">
        <path id="Trazado_1500" data-name="Trazado 1500" d="M55.368,231.5A1.367,1.367,0,0,0,54,232.868v.068a1.367,1.367,0,1,0,2.734,0v-.068A1.367,1.367,0,0,0,55.368,231.5Z" transform="translate(-54.001 -231.501)" fill="#7cb342"/>
      </g>
    </g>
    <g id="Grupo_1049" data-name="Grupo 1049" transform="translate(7.384 37.506)">
      <g id="Grupo_1048" data-name="Grupo 1048">
        <path id="Trazado_1501" data-name="Trazado 1501" d="M66.579,294.74a1.366,1.366,0,0,0-1.183.684,26.992,26.992,0,0,1-8.661-19.729,1.367,1.367,0,1,0-2.734,0,29.517,29.517,0,0,0,9.43,21.634,1.366,1.366,0,0,0,1.03,2.264h2.119a1.367,1.367,0,0,0,1.367-1.367v-2.119A1.367,1.367,0,0,0,66.579,294.74Z" transform="translate(-54.001 -274.327)" fill="#7cb342"/>
      </g>
    </g>
    <g id="Grupo_1051" data-name="Grupo 1051" transform="translate(48.674 33.634)">
      <g id="Grupo_1050" data-name="Grupo 1050">
        <path id="Trazado_1502" data-name="Trazado 1502" d="M368.579,246a1.367,1.367,0,0,0-1.367,1.367v3.873a26.992,26.992,0,0,1-8.661,19.73,1.366,1.366,0,0,0-2.55.683v2.119a1.367,1.367,0,0,0,1.367,1.367h2.119a1.366,1.366,0,0,0,1.03-2.264,29.517,29.517,0,0,0,9.43-21.634v-3.873A1.367,1.367,0,0,0,368.579,246Z" transform="translate(-356.001 -246.001)" fill="#7cb342"/>
      </g>
    </g>
  </g>
</svg>
