<svg xmlns="http://www.w3.org/2000/svg" width="70.706" height="68.071" viewBox="0 0 70.706 68.071">
  <g id="Grupo_1059" data-name="Grupo 1059" transform="translate(0 -9.999)">
    <path id="Trazado_1509" data-name="Trazado 1509" d="M331.616,51.24a33.48,33.48,0,0,0-15.779-20.4,4.014,4.014,0,0,0-3.987,6.968,25.5,25.5,0,0,1,12.02,15.541c.162.593.3,1.2.422,1.8.088.447.166.9.23,1.353a1.388,1.388,0,1,0,2.748-.394c-.071-.5-.157-1-.255-1.5-.131-.664-.288-1.332-.466-1.988A28.262,28.262,0,0,0,313.228,35.4a1.238,1.238,0,0,1,1.229-2.149,30.93,30.93,0,0,1,.252,53.536,1.388,1.388,0,0,0,.27,2.519l3.321,1.082a1.237,1.237,0,1,1-.767,2.353l-9.773-3.184-.032-.012-.013,0-.039-.015-.134-.059-.049-.028-.035-.02-.051-.035-.034-.023-.045-.037L307.3,89.3l-.04-.038-.029-.027-.037-.042-.027-.029-.033-.043-.019-.025h0c-.009-.012-.017-.025-.03-.045l-.019-.029-.152-.369c0-.022-.009-.044-.013-.068s0-.023-.006-.034a1.224,1.224,0,0,1-.013-.176,1.209,1.209,0,0,1,.025-.236l0-.014c0-.013,0-.026.008-.037l.011-.038c.007-.025.014-.05.023-.076,0-.009.005-.018.009-.027l3.354-9.68a1.237,1.237,0,1,1,2.338.81l-1.4,4.04a1.388,1.388,0,0,0,2,1.659,28.575,28.575,0,0,0,13.36-17.4,1.388,1.388,0,1,0-2.683-.715,25.841,25.841,0,0,1-8.68,13.391l.024-.068a4.014,4.014,0,1,0-7.586-2.628l-3.365,9.712-.011.035c-.023.068-.043.136-.06.2-.009.03-.017.06-.026.092-.016.066-.03.133-.045.21a3.974,3.974,0,0,0-.077.768,4.037,4.037,0,0,0,.051.634c0,.025.009.049.014.074.014.077.029.154.047.23.009.038.019.075.032.121l0,.017c.014.052.029.1.046.156s.029.086.045.128l.012.032c.016.043.032.086.048.127s.037.086.057.13l.017.036c.017.038.035.077.055.116s.041.079.063.118l.016.03c.023.041.046.082.071.124s.042.066.064.1l.014.022c.031.046.061.093.094.139.021.029.043.058.065.087l.007.009c.039.051.078.1.12.151.02.025.042.049.07.08.046.052.092.1.14.152.021.021.042.041.07.068.051.05.1.1.156.145l.074.061c.055.046.111.091.168.133.025.019.052.038.089.063.055.039.111.077.168.113.031.019.062.038.094.056l.02.012c.052.03.1.06.159.089.038.02.077.039.115.057L306.4,92c.044.021.088.042.136.062l.139.056.011,0c.038.015.077.03.119.045l.03.01.038.012,9.8,3.194a4.014,4.014,0,0,0,2.487-7.633l-.548-.179a33.722,33.722,0,0,0,13-36.327Z" transform="translate(-262.106 -17.506)" fill="#7cb342"/>
    <path id="Trazado_1510" data-name="Trazado 1510" d="M20.962,67.769a25.679,25.679,0,0,1-3.4-42.24l-.024.069a4.014,4.014,0,1,0,7.585,2.628l3.359-9.7c.006-.016.011-.034.017-.052.036-.108.068-.219.094-.329.009-.033.015-.067.022-.1.018-.084.034-.168.046-.252.008-.052.014-.1.02-.156s.012-.133.016-.2c0-.048.005-.1.006-.146,0-.027,0-.055,0-.089s0-.087,0-.133v-.02c0-.051,0-.1-.007-.152-.008-.1-.02-.2-.036-.308-.006-.039-.014-.077-.02-.115l0-.009c-.016-.086-.034-.172-.056-.256-.009-.036-.019-.071-.03-.106l0-.016c-.022-.076-.045-.15-.071-.222-.015-.041-.03-.081-.045-.12-.029-.075-.061-.149-.1-.222l-.006-.014c-.013-.03-.027-.06-.043-.092-.04-.081-.085-.164-.133-.244-.012-.022-.025-.044-.038-.066-.058-.094-.121-.187-.191-.283-.024-.032-.049-.064-.074-.1l-.01-.011c-.045-.057-.09-.113-.138-.166-.034-.038-.069-.076-.106-.115s-.094-.1-.142-.141l-.01-.01c-.035-.032-.068-.065-.1-.1-.061-.054-.125-.105-.19-.156l-.013-.01c-.032-.025-.064-.05-.1-.072-.084-.061-.173-.12-.266-.176-.032-.02-.065-.038-.1-.057l-.011-.006c-.072-.04-.144-.079-.22-.115l-.118-.055c-.073-.032-.147-.063-.223-.091-.032-.014-.064-.026-.1-.037l-.032-.011-.039-.013-9.8-3.194a4.014,4.014,0,0,0-2.487,7.633l.547.179a33.7,33.7,0,0,0,2.777,56.728,3.987,3.987,0,0,0,1.987.532,4.033,4.033,0,0,0,1.06-.142,4.014,4.014,0,0,0,.94-7.357Zm-.92,4.1a1.237,1.237,0,0,1-1.689.459A30.717,30.717,0,0,1,3.875,53.606,30.936,30.936,0,0,1,18.1,18.791a1.388,1.388,0,0,0-.27-2.519l-3.32-1.082a1.238,1.238,0,0,1,.384-2.414,1.242,1.242,0,0,1,.383.061l9.774,3.185.033.012.036.014c.027.01.052.02.078.031l.037.017c.023.011.044.023.068.036l.041.023c.025.015.049.031.066.044l.04.031.056.045.037.036c.016.014.03.029.044.043l.033.036c.015.017.029.034.042.052l.031.038c.017.023.032.044.044.064s.012.022.019.033c.016.027.031.054.045.084l.014.03c.01.023.021.045.03.071l.014.036c.008.023.015.046.022.068l.011.038c.006.025.011.05.017.081l.006.034c0,.031.009.063.011.086l0,.1a.152.152,0,0,0,0,.016c0,.018,0,.036,0,.057s0,.04,0,.06,0,.031-.006.048-.009.053-.014.075l-.009.046c-.008.032-.018.065-.027.092l-.012.037L22.5,27.317a1.237,1.237,0,1,1-2.338-.81l1.4-4.04a1.388,1.388,0,0,0-2-1.659,28.45,28.45,0,0,0,.021,49.372A1.239,1.239,0,0,1,20.043,71.867Z" transform="translate(0 0)" fill="#7cb342"/>
    <path id="Trazado_1511" data-name="Trazado 1511" d="M153.494,180.95a16.132,16.132,0,0,0,11.145-3.884c5.261-4.712,5.651-11.933,5.665-12.238a1.388,1.388,0,0,0-1.549-1.443c-9.686,1.139-14.112,5.428-16.119,8.825a14.826,14.826,0,0,0-1.965,5.851c-2.014-2.527-5.724-5.2-12.534-6a1.389,1.389,0,0,0-1.549,1.443c.012.257.34,6.327,4.766,10.291a13.526,13.526,0,0,0,9.237,3.272v7.573a1.388,1.388,0,1,0,2.777,0V185.67c0-.071,0-.207,0-.4v-4.323Zm1.532-7.326c2.238-3.787,6.362-6.213,12.275-7.225a15.527,15.527,0,0,1-4.515,8.6,13.467,13.467,0,0,1-9.3,3.176h-.027A12.13,12.13,0,0,1,155.026,173.624Zm-11.8,8.12a12.464,12.464,0,0,1-3.6-6.65c8.662,1.622,10.5,6.771,10.878,9.2A10.815,10.815,0,0,1,143.224,181.744Z" transform="translate(-117.725 -132.196)" fill="#7cb342"/>
    <path id="Trazado_1512" data-name="Trazado 1512" d="M453.371,249.163a1.388,1.388,0,0,0,1.513-2.328l-.038-.025a1.388,1.388,0,0,0-1.513,2.328Z" transform="translate(-390.183 -203.914)" fill="#7cb342"/>
  </g>
</svg>
